<?xml version="1.0" encoding="UTF-8" standalone="no"?>
<!DOCTYPE svg PUBLIC "-//W3C//DTD SVG 1.1//EN"
 "http://www.w3.org/Graphics/SVG/1.1/DTD/svg11.dtd">
<!-- Generated by graphviz version 2.50.0 (20211204.2007)
 -->
<!-- Title: src/solver/all.hpp Pages: 1 -->
<svg width="1618pt" height="565pt"
 viewBox="0.00 0.00 1617.50 565.00" xmlns="http://www.w3.org/2000/svg" xmlns:xlink="http://www.w3.org/1999/xlink">
<g id="graph0" class="graph" transform="scale(1 1) rotate(0) translate(4 561)">
<title>src/solver/all.hpp</title>
<polygon fill="white" stroke="transparent" points="-4,4 -4,-561 1613.5,-561 1613.5,4 -4,4"/>
<!-- Node1 -->
<g id="node1" class="node">
<title>Node1</title>
<g id="a_node1"><a xlink:title=" ">
<polygon fill="#bfbfbf" stroke="black" points="402.5,-537.5 402.5,-556.5 493.5,-556.5 493.5,-537.5 402.5,-537.5"/>
<text text-anchor="middle" x="448" y="-544.5" font-family="Helvetica,sans-Serif" font-size="10.00">src/solver/all.hpp</text>
</a>
</g>
</g>
<!-- Node2 -->
<g id="node2" class="node">
<title>Node2</title>
<g id="a_node2"><a xlink:href="../../d3/df6/exact__diag_8hpp.html" target="_top" xlink:title=" ">
<polygon fill="white" stroke="black" points="371.5,-481.5 371.5,-500.5 454.5,-500.5 454.5,-481.5 371.5,-481.5"/>
<text text-anchor="middle" x="413" y="-488.5" font-family="Helvetica,sans-Serif" font-size="10.00">exact_diag.hpp</text>
</a>
</g>
</g>
<!-- Node1&#45;&gt;Node2 -->
<g id="edge1" class="edge">
<title>Node1&#45;&gt;Node2</title>
<path fill="none" stroke="midnightblue" d="M442.22,-537.08C437.33,-529.53 430.17,-518.49 424.17,-509.23"/>
<polygon fill="midnightblue" stroke="midnightblue" points="427.05,-507.24 418.67,-500.75 421.17,-511.05 427.05,-507.24"/>
</g>
<!-- Node43 -->
<g id="node43" class="node">
<title>Node43</title>
<g id="a_node43"><a xlink:href="../../dc/d26/solver_2utility_8hpp.html" target="_top" xlink:title=" ">
<polygon fill="white" stroke="black" points="462.5,-425.5 462.5,-444.5 525.5,-444.5 525.5,-425.5 462.5,-425.5"/>
<text text-anchor="middle" x="494" y="-432.5" font-family="Helvetica,sans-Serif" font-size="10.00">./utility.hpp</text>
</a>
</g>
</g>
<!-- Node1&#45;&gt;Node43 -->
<g id="edge90" class="edge">
<title>Node1&#45;&gt;Node43</title>
<path fill="none" stroke="midnightblue" d="M451.61,-537.37C459.1,-519.46 476.47,-477.92 486.49,-453.95"/>
<polygon fill="midnightblue" stroke="midnightblue" points="489.78,-455.17 490.41,-444.59 483.32,-452.47 489.78,-455.17"/>
</g>
<!-- Node3 -->
<g id="node3" class="node">
<title>Node3</title>
<g id="a_node3"><a xlink:href="../../da/d6e/model_2all_8hpp.html" target="_top" xlink:title=" ">
<polygon fill="white" stroke="black" points="361.5,-425.5 361.5,-444.5 444.5,-444.5 444.5,-425.5 361.5,-425.5"/>
<text text-anchor="middle" x="403" y="-432.5" font-family="Helvetica,sans-Serif" font-size="10.00">../model/all.hpp</text>
</a>
</g>
</g>
<!-- Node2&#45;&gt;Node3 -->
<g id="edge2" class="edge">
<title>Node2&#45;&gt;Node3</title>
<path fill="none" stroke="midnightblue" d="M411.35,-481.08C410.02,-473.93 408.12,-463.64 406.46,-454.69"/>
<polygon fill="midnightblue" stroke="midnightblue" points="409.88,-453.95 404.62,-444.75 403,-455.22 409.88,-453.95"/>
</g>
<!-- Node10 -->
<g id="node10" class="node">
<title>Node10</title>
<g id="a_node10"><a xlink:title=" ">
<polygon fill="white" stroke="#bfbfbf" points="81.5,-179.5 81.5,-198.5 200.5,-198.5 200.5,-179.5 81.5,-179.5"/>
<text text-anchor="middle" x="141" y="-186.5" font-family="Helvetica,sans-Serif" font-size="10.00">../sparse_matrix/all.hpp</text>
</a>
</g>
</g>
<!-- Node2&#45;&gt;Node10 -->
<g id="edge88" class="edge">
<title>Node2&#45;&gt;Node10</title>
<path fill="none" stroke="midnightblue" d="M371.13,-487.75C266.13,-480.96 0,-456.24 0,-380 0,-380 0,-380 0,-316.5 0,-258.68 66.5,-220.62 108.16,-202.44"/>
<polygon fill="midnightblue" stroke="midnightblue" points="109.54,-205.66 117.4,-198.56 106.82,-199.21 109.54,-205.66"/>
</g>
<!-- Node2&#45;&gt;Node43 -->
<g id="edge89" class="edge">
<title>Node2&#45;&gt;Node43</title>
<path fill="none" stroke="midnightblue" d="M426.01,-481.32C438.53,-472.98 457.68,-460.21 472.47,-450.35"/>
<polygon fill="midnightblue" stroke="midnightblue" points="474.64,-453.11 481.02,-444.65 470.76,-447.29 474.64,-453.11"/>
</g>
<!-- Node4 -->
<g id="node4" class="node">
<title>Node4</title>
<g id="a_node4"><a xlink:href="../../db/d1c/xxz__1d_8hpp.html" target="_top" xlink:title=" ">
<polygon fill="white" stroke="black" points="580.5,-369.5 580.5,-388.5 647.5,-388.5 647.5,-369.5 580.5,-369.5"/>
<text text-anchor="middle" x="614" y="-376.5" font-family="Helvetica,sans-Serif" font-size="10.00">xxz_1d.hpp</text>
</a>
</g>
</g>
<!-- Node3&#45;&gt;Node4 -->
<g id="edge3" class="edge">
<title>Node3&#45;&gt;Node4</title>
<path fill="none" stroke="midnightblue" d="M436.43,-425.44C472.86,-416.12 531.23,-401.18 571.03,-391"/>
<polygon fill="midnightblue" stroke="midnightblue" points="571.9,-394.39 580.72,-388.52 570.17,-387.61 571.9,-394.39"/>
</g>
<!-- Node8 -->
<g id="node8" class="node">
<title>Node8</title>
<g id="a_node8"><a xlink:href="../../d9/de5/hubbard__1d_8hpp.html" target="_top" xlink:title=" ">
<polygon fill="white" stroke="black" points="476,-369.5 476,-388.5 562,-388.5 562,-369.5 476,-369.5"/>
<text text-anchor="middle" x="519" y="-376.5" font-family="Helvetica,sans-Serif" font-size="10.00">hubbard_1d.hpp</text>
</a>
</g>
</g>
<!-- Node3&#45;&gt;Node8 -->
<g id="edge7" class="edge">
<title>Node3&#45;&gt;Node8</title>
<path fill="none" stroke="midnightblue" d="M421.38,-425.44C440.22,-416.68 469.73,-402.94 491.38,-392.86"/>
<polygon fill="midnightblue" stroke="midnightblue" points="493.12,-395.91 500.71,-388.52 490.16,-389.56 493.12,-395.91"/>
</g>
<!-- Node9 -->
<g id="node9" class="node">
<title>Node9</title>
<g id="a_node9"><a xlink:href="../../d4/d22/base__u1__electron__1d_8hpp.html" target="_top" xlink:title=" ">
<polygon fill="white" stroke="black" points="386.5,-235.5 386.5,-265.5 485.5,-265.5 485.5,-235.5 386.5,-235.5"/>
<text text-anchor="start" x="394.5" y="-253.5" font-family="Helvetica,sans-Serif" font-size="10.00">./base_u1_electron</text>
<text text-anchor="middle" x="436" y="-242.5" font-family="Helvetica,sans-Serif" font-size="10.00">_1d.hpp</text>
</a>
</g>
</g>
<!-- Node3&#45;&gt;Node9 -->
<g id="edge72" class="edge">
<title>Node3&#45;&gt;Node9</title>
<path fill="none" stroke="midnightblue" d="M381.52,-425.36C366.61,-418.09 347.89,-406.12 339,-389 334.9,-381.11 335.99,-377.36 339,-369 353.23,-329.41 387.21,-293.67 410.91,-272.27"/>
<polygon fill="midnightblue" stroke="midnightblue" points="413.32,-274.81 418.51,-265.57 408.7,-269.56 413.32,-274.81"/>
</g>
<!-- Node22 -->
<g id="node22" class="node">
<title>Node22</title>
<g id="a_node22"><a xlink:href="../../d0/df4/kondo__lattice__1d_8hpp.html" target="_top" xlink:title=" ">
<polygon fill="white" stroke="black" points="348.5,-369.5 348.5,-388.5 457.5,-388.5 457.5,-369.5 348.5,-369.5"/>
<text text-anchor="middle" x="403" y="-376.5" font-family="Helvetica,sans-Serif" font-size="10.00">kondo_lattice_1d.hpp</text>
</a>
</g>
</g>
<!-- Node3&#45;&gt;Node22 -->
<g id="edge24" class="edge">
<title>Node3&#45;&gt;Node22</title>
<path fill="none" stroke="midnightblue" d="M403,-425.08C403,-418.01 403,-407.86 403,-398.99"/>
<polygon fill="midnightblue" stroke="midnightblue" points="406.5,-398.75 403,-388.75 399.5,-398.75 406.5,-398.75"/>
</g>
<!-- Node23 -->
<g id="node23" class="node">
<title>Node23</title>
<g id="a_node23"><a xlink:href="../../d9/d57/base__u1__spin__electron__1d_8hpp.html" target="_top" xlink:title=" ">
<polygon fill="white" stroke="black" points="71,-302.5 71,-332.5 193,-332.5 193,-302.5 71,-302.5"/>
<text text-anchor="start" x="79" y="-320.5" font-family="Helvetica,sans-Serif" font-size="10.00">./base_u1_spin_electron</text>
<text text-anchor="middle" x="132" y="-309.5" font-family="Helvetica,sans-Serif" font-size="10.00">_1d.hpp</text>
</a>
</g>
</g>
<!-- Node3&#45;&gt;Node23 -->
<g id="edge80" class="edge">
<title>Node3&#45;&gt;Node23</title>
<path fill="none" stroke="midnightblue" d="M381.02,-425.43C358.36,-416.54 322.08,-402.13 291,-389 250.41,-371.86 204.44,-351.35 172.41,-336.89"/>
<polygon fill="midnightblue" stroke="midnightblue" points="173.49,-333.54 162.94,-332.6 170.6,-339.91 173.49,-333.54"/>
</g>
<!-- Node25 -->
<g id="node25" class="node">
<title>Node25</title>
<g id="a_node25"><a xlink:href="../../d9/d56/general__model_8hpp.html" target="_top" xlink:title=" ">
<polygon fill="white" stroke="black" points="676,-308 676,-327 774,-327 774,-308 676,-308"/>
<text text-anchor="middle" x="725" y="-315" font-family="Helvetica,sans-Serif" font-size="10.00">general_model.hpp</text>
</a>
</g>
</g>
<!-- Node3&#45;&gt;Node25 -->
<g id="edge33" class="edge">
<title>Node3&#45;&gt;Node25</title>
<path fill="none" stroke="midnightblue" d="M444.74,-426.48C447.54,-425.98 450.31,-425.48 453,-425 543.2,-408.88 574.97,-431.79 656,-389 680.28,-376.18 701.21,-351.77 713.46,-335.31"/>
<polygon fill="midnightblue" stroke="midnightblue" points="716.36,-337.28 719.34,-327.11 710.67,-333.2 716.36,-337.28"/>
</g>
<!-- Node40 -->
<g id="node40" class="node">
<title>Node40</title>
<g id="a_node40"><a xlink:href="../../da/d72/base__u1__spin_8hpp.html" target="_top" xlink:title=" ">
<polygon fill="white" stroke="black" points="792.5,-308 792.5,-327 887.5,-327 887.5,-308 792.5,-308"/>
<text text-anchor="middle" x="840" y="-315" font-family="Helvetica,sans-Serif" font-size="10.00">base_u1_spin.hpp</text>
</a>
</g>
</g>
<!-- Node3&#45;&gt;Node40 -->
<g id="edge73" class="edge">
<title>Node3&#45;&gt;Node40</title>
<path fill="none" stroke="midnightblue" d="M444.73,-426.41C447.53,-425.93 450.3,-425.45 453,-425 555.47,-407.8 584.42,-418.66 684,-389 732.58,-374.53 785.66,-348.05 815.69,-331.99"/>
<polygon fill="midnightblue" stroke="midnightblue" points="817.47,-335 824.6,-327.16 814.14,-328.85 817.47,-335"/>
</g>
<!-- Node42 -->
<g id="node42" class="node">
<title>Node42</title>
<g id="a_node42"><a xlink:href="../../dc/d0c/base__u1__spin__multi__electrons__1d_8hpp.html" target="_top" xlink:title=" ">
<polygon fill="white" stroke="black" points="230.5,-302.5 230.5,-332.5 333.5,-332.5 333.5,-302.5 230.5,-302.5"/>
<text text-anchor="start" x="238.5" y="-320.5" font-family="Helvetica,sans-Serif" font-size="10.00">base_u1_spin_multi</text>
<text text-anchor="middle" x="282" y="-309.5" font-family="Helvetica,sans-Serif" font-size="10.00">_electrons_1d.hpp</text>
</a>
</g>
</g>
<!-- Node3&#45;&gt;Node42 -->
<g id="edge81" class="edge">
<title>Node3&#45;&gt;Node42</title>
<path fill="none" stroke="midnightblue" d="M368.3,-425.38C347.66,-418.62 322.38,-407.22 306,-389 294.45,-376.16 288.42,-357.52 285.29,-342.64"/>
<polygon fill="midnightblue" stroke="midnightblue" points="288.7,-341.82 283.49,-332.6 281.81,-343.06 288.7,-341.82"/>
</g>
<!-- Node5 -->
<g id="node5" class="node">
<title>Node5</title>
<g id="a_node5"><a xlink:href="../../dd/da9/model_2utility_8hpp.html" target="_top" xlink:title=" ">
<polygon fill="white" stroke="black" points="459.5,-308 459.5,-327 522.5,-327 522.5,-308 459.5,-308"/>
<text text-anchor="middle" x="491" y="-315" font-family="Helvetica,sans-Serif" font-size="10.00">./utility.hpp</text>
</a>
</g>
</g>
<!-- Node4&#45;&gt;Node5 -->
<g id="edge4" class="edge">
<title>Node4&#45;&gt;Node5</title>
<path fill="none" stroke="midnightblue" d="M596.38,-369.48C575.83,-359.53 541.64,-342.99 517.79,-331.46"/>
<polygon fill="midnightblue" stroke="midnightblue" points="519.12,-328.21 508.59,-327.01 516.07,-334.51 519.12,-328.21"/>
</g>
<!-- Node7 -->
<g id="node7" class="node">
<title>Node7</title>
<g id="a_node7"><a xlink:title=" ">
<polygon fill="white" stroke="#bfbfbf" points="540.5,-308 540.5,-327 657.5,-327 657.5,-308 540.5,-308"/>
<text text-anchor="middle" x="599" y="-315" font-family="Helvetica,sans-Serif" font-size="10.00">./base_u1_spin_1d.hpp</text>
</a>
</g>
</g>
<!-- Node4&#45;&gt;Node7 -->
<g id="edge6" class="edge">
<title>Node4&#45;&gt;Node7</title>
<path fill="none" stroke="midnightblue" d="M611.85,-369.48C609.71,-360.99 606.36,-347.7 603.62,-336.82"/>
<polygon fill="midnightblue" stroke="midnightblue" points="606.98,-335.85 601.15,-327.01 600.2,-337.56 606.98,-335.85"/>
</g>
<!-- Node6 -->
<g id="node6" class="node">
<title>Node6</title>
<g id="a_node6"><a xlink:title=" ">
<polygon fill="white" stroke="#bfbfbf" points="845,-0.5 845,-19.5 889,-19.5 889,-0.5 845,-0.5"/>
<text text-anchor="middle" x="867" y="-7.5" font-family="Helvetica,sans-Serif" font-size="10.00">cmath</text>
</a>
</g>
</g>
<!-- Node5&#45;&gt;Node6 -->
<g id="edge5" class="edge">
<title>Node5&#45;&gt;Node6</title>
<path fill="none" stroke="midnightblue" d="M513.62,-307.88C552.53,-291.4 628,-251.51 628,-190 628,-190 628,-190 628,-132 628,-77.93 675.26,-81.39 723,-56 733.05,-50.65 795.87,-31.81 835.15,-20.27"/>
<polygon fill="midnightblue" stroke="midnightblue" points="836.21,-23.61 844.82,-17.44 834.24,-16.89 836.21,-23.61"/>
</g>
<!-- Node8&#45;&gt;Node5 -->
<g id="edge8" class="edge">
<title>Node8&#45;&gt;Node5</title>
<path fill="none" stroke="midnightblue" d="M514.99,-369.48C510.91,-360.82 504.48,-347.15 499.3,-336.15"/>
<polygon fill="midnightblue" stroke="midnightblue" points="502.43,-334.57 495,-327.01 496.1,-337.55 502.43,-334.57"/>
</g>
<!-- Node8&#45;&gt;Node9 -->
<g id="edge9" class="edge">
<title>Node8&#45;&gt;Node9</title>
<path fill="none" stroke="midnightblue" d="M497.1,-369.43C481.45,-362.13 461.23,-350.09 450,-333 438.94,-316.17 435.8,-293.32 435.21,-276.09"/>
<polygon fill="midnightblue" stroke="midnightblue" points="438.71,-275.68 435.15,-265.7 431.71,-275.73 438.71,-275.68"/>
</g>
<!-- Node9&#45;&gt;Node10 -->
<g id="edge10" class="edge">
<title>Node9&#45;&gt;Node10</title>
<path fill="none" stroke="midnightblue" d="M386.29,-239.47C332.65,-228.65 247.61,-211.5 193.07,-200.5"/>
<polygon fill="midnightblue" stroke="midnightblue" points="193.75,-197.07 183.25,-198.52 192.36,-203.93 193.75,-197.07"/>
</g>
<!-- Node11 -->
<g id="node11" class="node">
<title>Node11</title>
<g id="a_node11"><a xlink:href="../../d5/d8a/utility_2all_8hpp.html" target="_top" xlink:title=" ">
<polygon fill="white" stroke="black" points="520,-179.5 520,-198.5 600,-198.5 600,-179.5 520,-179.5"/>
<text text-anchor="middle" x="560" y="-186.5" font-family="Helvetica,sans-Serif" font-size="10.00">../utility/all.hpp</text>
</a>
</g>
</g>
<!-- Node9&#45;&gt;Node11 -->
<g id="edge11" class="edge">
<title>Node9&#45;&gt;Node11</title>
<path fill="none" stroke="midnightblue" d="M465.39,-235.4C485.82,-225.59 512.86,-212.62 532.8,-203.05"/>
<polygon fill="midnightblue" stroke="midnightblue" points="534.46,-206.14 541.96,-198.66 531.43,-199.83 534.46,-206.14"/>
</g>
<!-- Node16 -->
<g id="node16" class="node">
<title>Node16</title>
<g id="a_node16"><a xlink:title=" ">
<polygon fill="white" stroke="#bfbfbf" points="345.5,-62 345.5,-81 428.5,-81 428.5,-62 345.5,-62"/>
<text text-anchor="middle" x="387" y="-69" font-family="Helvetica,sans-Serif" font-size="10.00">unordered_map</text>
</a>
</g>
</g>
<!-- Node9&#45;&gt;Node16 -->
<g id="edge22" class="edge">
<title>Node9&#45;&gt;Node16</title>
<path fill="none" stroke="midnightblue" d="M437.48,-235.26C438.58,-220.88 439.25,-198.12 435,-179 427.62,-145.82 409.34,-110.45 397.58,-89.97"/>
<polygon fill="midnightblue" stroke="midnightblue" points="400.5,-88.03 392.41,-81.18 394.47,-91.58 400.5,-88.03"/>
</g>
<!-- Node21 -->
<g id="node21" class="node">
<title>Node21</title>
<g id="a_node21"><a xlink:title=" ">
<polygon fill="white" stroke="#bfbfbf" points="348,-179.5 348,-198.5 426,-198.5 426,-179.5 348,-179.5"/>
<text text-anchor="middle" x="387" y="-186.5" font-family="Helvetica,sans-Serif" font-size="10.00">unordered_set</text>
</a>
</g>
</g>
<!-- Node9&#45;&gt;Node21 -->
<g id="edge23" class="edge">
<title>Node9&#45;&gt;Node21</title>
<path fill="none" stroke="midnightblue" d="M424.39,-235.4C417.27,-226.75 408.12,-215.64 400.65,-206.58"/>
<polygon fill="midnightblue" stroke="midnightblue" points="403.19,-204.15 394.13,-198.66 397.79,-208.6 403.19,-204.15"/>
</g>
<!-- Node12 -->
<g id="node12" class="node">
<title>Node12</title>
<g id="a_node12"><a xlink:href="../../d0/dad/integer_8hpp.html" target="_top" xlink:title=" ">
<polygon fill="white" stroke="black" points="532,-123.5 532,-142.5 596,-142.5 596,-123.5 532,-123.5"/>
<text text-anchor="middle" x="564" y="-130.5" font-family="Helvetica,sans-Serif" font-size="10.00">integer.hpp</text>
</a>
</g>
</g>
<!-- Node11&#45;&gt;Node12 -->
<g id="edge12" class="edge">
<title>Node11&#45;&gt;Node12</title>
<path fill="none" stroke="midnightblue" d="M560.66,-179.08C561.18,-172.01 561.94,-161.86 562.59,-152.99"/>
<polygon fill="midnightblue" stroke="midnightblue" points="566.1,-152.98 563.35,-142.75 559.12,-152.47 566.1,-152.98"/>
</g>
<!-- Node17 -->
<g id="node17" class="node">
<title>Node17</title>
<g id="a_node17"><a xlink:href="../../d9/d04/hash_8hpp.html" target="_top" xlink:title=" ">
<polygon fill="white" stroke="black" points="704,-123.5 704,-142.5 760,-142.5 760,-123.5 704,-123.5"/>
<text text-anchor="middle" x="732" y="-130.5" font-family="Helvetica,sans-Serif" font-size="10.00">hash.hpp</text>
</a>
</g>
</g>
<!-- Node11&#45;&gt;Node17 -->
<g id="edge17" class="edge">
<title>Node11&#45;&gt;Node17</title>
<path fill="none" stroke="midnightblue" d="M587.25,-179.44C616.44,-170.28 662.92,-155.69 695.31,-145.52"/>
<polygon fill="midnightblue" stroke="midnightblue" points="696.38,-148.85 704.87,-142.52 694.28,-142.17 696.38,-148.85"/>
</g>
<!-- Node13 -->
<g id="node13" class="node">
<title>Node13</title>
<g id="a_node13"><a xlink:title=" ">
<polygon fill="white" stroke="#bfbfbf" points="1019,-0.5 1019,-19.5 1071,-19.5 1071,-0.5 1019,-0.5"/>
<text text-anchor="middle" x="1045" y="-7.5" font-family="Helvetica,sans-Serif" font-size="10.00">sstream</text>
</a>
</g>
</g>
<!-- Node12&#45;&gt;Node13 -->
<g id="edge13" class="edge">
<title>Node12&#45;&gt;Node13</title>
<path fill="none" stroke="midnightblue" d="M574.65,-123.34C595.41,-107 643.31,-71.85 690,-56 822.47,-11.01 867.23,-44.31 1008.8,-19.95"/>
<polygon fill="midnightblue" stroke="midnightblue" points="1009.49,-23.38 1018.71,-18.18 1008.25,-16.49 1009.49,-23.38"/>
</g>
<!-- Node14 -->
<g id="node14" class="node">
<title>Node14</title>
<g id="a_node14"><a xlink:title=" ">
<polygon fill="white" stroke="#bfbfbf" points="1161,-0.5 1161,-19.5 1205,-19.5 1205,-0.5 1161,-0.5"/>
<text text-anchor="middle" x="1183" y="-7.5" font-family="Helvetica,sans-Serif" font-size="10.00">vector</text>
</a>
</g>
</g>
<!-- Node12&#45;&gt;Node14 -->
<g id="edge14" class="edge">
<title>Node12&#45;&gt;Node14</title>
<path fill="none" stroke="midnightblue" d="M588.58,-123.36C611.25,-115.06 645.58,-101.66 674,-87 696.9,-75.19 698.57,-64.2 723,-56 901.29,3.86 961.79,-52.84 1150.8,-19.83"/>
<polygon fill="midnightblue" stroke="midnightblue" points="1151.56,-23.25 1160.78,-18.03 1150.31,-16.36 1151.56,-23.25"/>
</g>
<!-- Node15 -->
<g id="node15" class="node">
<title>Node15</title>
<g id="a_node15"><a xlink:title=" ">
<polygon fill="white" stroke="#bfbfbf" points="546.5,-62 546.5,-81 581.5,-81 581.5,-62 546.5,-62"/>
<text text-anchor="middle" x="564" y="-69" font-family="Helvetica,sans-Serif" font-size="10.00">map</text>
</a>
</g>
</g>
<!-- Node12&#45;&gt;Node15 -->
<g id="edge15" class="edge">
<title>Node12&#45;&gt;Node15</title>
<path fill="none" stroke="midnightblue" d="M564,-123.48C564,-115.08 564,-101.98 564,-91.16"/>
<polygon fill="midnightblue" stroke="midnightblue" points="567.5,-91.01 564,-81.01 560.5,-91.01 567.5,-91.01"/>
</g>
<!-- Node12&#45;&gt;Node16 -->
<g id="edge16" class="edge">
<title>Node12&#45;&gt;Node16</title>
<path fill="none" stroke="midnightblue" d="M538.64,-123.48C508.02,-113.18 456.34,-95.81 421.95,-84.25"/>
<polygon fill="midnightblue" stroke="midnightblue" points="422.91,-80.88 412.31,-81.01 420.68,-87.51 422.91,-80.88"/>
</g>
<!-- Node18 -->
<g id="node18" class="node">
<title>Node18</title>
<g id="a_node18"><a xlink:href="../../db/dd6/half__int_8hpp.html" target="_top" xlink:title=" ">
<polygon fill="white" stroke="black" points="796,-62 796,-81 894,-81 894,-62 796,-62"/>
<text text-anchor="middle" x="845" y="-69" font-family="Helvetica,sans-Serif" font-size="10.00">../type/half_int.hpp</text>
</a>
</g>
</g>
<!-- Node17&#45;&gt;Node18 -->
<g id="edge18" class="edge">
<title>Node17&#45;&gt;Node18</title>
<path fill="none" stroke="midnightblue" d="M748.19,-123.48C766.9,-113.62 797.92,-97.29 819.8,-85.77"/>
<polygon fill="midnightblue" stroke="midnightblue" points="821.62,-88.77 828.84,-81.01 818.36,-82.57 821.62,-88.77"/>
</g>
<!-- Node20 -->
<g id="node20" class="node">
<title>Node20</title>
<g id="a_node20"><a xlink:title=" ">
<polygon fill="white" stroke="#bfbfbf" points="732,-62 732,-81 778,-81 778,-62 732,-62"/>
<text text-anchor="middle" x="755" y="-69" font-family="Helvetica,sans-Serif" font-size="10.00">variant</text>
</a>
</g>
</g>
<!-- Node17&#45;&gt;Node20 -->
<g id="edge21" class="edge">
<title>Node17&#45;&gt;Node20</title>
<path fill="none" stroke="midnightblue" d="M735.3,-123.48C738.61,-114.9 743.82,-101.43 748.05,-90.48"/>
<polygon fill="midnightblue" stroke="midnightblue" points="751.37,-91.6 751.71,-81.01 744.84,-89.07 751.37,-91.6"/>
</g>
<!-- Node18&#45;&gt;Node6 -->
<g id="edge19" class="edge">
<title>Node18&#45;&gt;Node6</title>
<path fill="none" stroke="midnightblue" d="M848.15,-61.98C851.32,-53.4 856.3,-39.93 860.35,-28.98"/>
<polygon fill="midnightblue" stroke="midnightblue" points="863.67,-30.1 863.85,-19.51 857.1,-27.67 863.67,-30.1"/>
</g>
<!-- Node19 -->
<g id="node19" class="node">
<title>Node19</title>
<g id="a_node19"><a xlink:title=" ">
<polygon fill="white" stroke="#bfbfbf" points="767.5,-0.5 767.5,-19.5 826.5,-19.5 826.5,-0.5 767.5,-0.5"/>
<text text-anchor="middle" x="797" y="-7.5" font-family="Helvetica,sans-Serif" font-size="10.00">stdexcept</text>
</a>
</g>
</g>
<!-- Node18&#45;&gt;Node19 -->
<g id="edge20" class="edge">
<title>Node18&#45;&gt;Node19</title>
<path fill="none" stroke="midnightblue" d="M838.12,-61.98C830.85,-52.96 819.2,-38.52 810.16,-27.31"/>
<polygon fill="midnightblue" stroke="midnightblue" points="812.87,-25.09 803.86,-19.51 807.42,-29.49 812.87,-25.09"/>
</g>
<!-- Node22&#45;&gt;Node5 -->
<g id="edge25" class="edge">
<title>Node22&#45;&gt;Node5</title>
<path fill="none" stroke="midnightblue" d="M415.61,-369.48C429.72,-359.93 452.83,-344.31 469.75,-332.87"/>
<polygon fill="midnightblue" stroke="midnightblue" points="472.09,-335.51 478.42,-327.01 468.17,-329.71 472.09,-335.51"/>
</g>
<!-- Node22&#45;&gt;Node23 -->
<g id="edge26" class="edge">
<title>Node22&#45;&gt;Node23</title>
<path fill="none" stroke="midnightblue" d="M364.17,-369.48C322.26,-360.27 254.58,-345.41 203.09,-334.11"/>
<polygon fill="midnightblue" stroke="midnightblue" points="203.53,-330.62 193.02,-331.9 202.03,-337.46 203.53,-330.62"/>
</g>
<!-- Node23&#45;&gt;Node9 -->
<g id="edge30" class="edge">
<title>Node23&#45;&gt;Node9</title>
<path fill="none" stroke="midnightblue" d="M193.15,-303.42C246.58,-292 323.66,-275.52 376.57,-264.21"/>
<polygon fill="midnightblue" stroke="midnightblue" points="377.44,-267.6 386.49,-262.09 375.98,-260.76 377.44,-267.6"/>
</g>
<!-- Node23&#45;&gt;Node10 -->
<g id="edge27" class="edge">
<title>Node23&#45;&gt;Node10</title>
<path fill="none" stroke="midnightblue" d="M100.66,-302.44C86.08,-294.11 70.19,-282.01 62,-266 55.72,-253.73 55.08,-246.91 62,-235 70.74,-219.97 86.58,-209.54 101.79,-202.54"/>
<polygon fill="midnightblue" stroke="midnightblue" points="103.26,-205.72 111.12,-198.61 100.54,-199.27 103.26,-205.72"/>
</g>
<!-- Node23&#45;&gt;Node11 -->
<g id="edge28" class="edge">
<title>Node23&#45;&gt;Node11</title>
<path fill="none" stroke="midnightblue" d="M127.14,-302.37C121.91,-284.31 116.42,-253.2 133,-235 145.56,-221.22 399.23,-201.5 509.52,-193.53"/>
<polygon fill="midnightblue" stroke="midnightblue" points="510.01,-197.01 519.73,-192.8 509.51,-190.03 510.01,-197.01"/>
</g>
<!-- Node23&#45;&gt;Node16 -->
<g id="edge31" class="edge">
<title>Node23&#45;&gt;Node16</title>
<path fill="none" stroke="midnightblue" d="M95.55,-302.46C79.79,-294.35 62.94,-282.44 54,-266 35.14,-231.31 44.29,-207.13 72,-179 143.38,-106.53 265.73,-83.37 335.07,-75.97"/>
<polygon fill="midnightblue" stroke="midnightblue" points="335.71,-79.42 345.32,-74.95 335.02,-72.46 335.71,-79.42"/>
</g>
<!-- Node23&#45;&gt;Node21 -->
<g id="edge32" class="edge">
<title>Node23&#45;&gt;Node21</title>
<path fill="none" stroke="midnightblue" d="M118.44,-302.35C103.29,-284.83 83,-254.87 100,-235 130.02,-199.91 263.96,-191.99 337.78,-190.33"/>
<polygon fill="midnightblue" stroke="midnightblue" points="337.85,-193.83 347.78,-190.14 337.71,-186.83 337.85,-193.83"/>
</g>
<!-- Node24 -->
<g id="node24" class="node">
<title>Node24</title>
<g id="a_node24"><a xlink:title=" ">
<polygon fill="white" stroke="#bfbfbf" points="142.5,-241 142.5,-260 253.5,-260 253.5,-241 142.5,-241"/>
<text text-anchor="middle" x="198" y="-248" font-family="Helvetica,sans-Serif" font-size="10.00">base_u1_spin_1d.hpp</text>
</a>
</g>
</g>
<!-- Node23&#45;&gt;Node24 -->
<g id="edge29" class="edge">
<title>Node23&#45;&gt;Node24</title>
<path fill="none" stroke="midnightblue" d="M146.32,-302.4C156.82,-292.06 171.07,-278.02 181.95,-267.31"/>
<polygon fill="midnightblue" stroke="midnightblue" points="184.5,-269.71 189.17,-260.19 179.59,-264.72 184.5,-269.71"/>
</g>
<!-- Node25&#45;&gt;Node11 -->
<g id="edge69" class="edge">
<title>Node25&#45;&gt;Node11</title>
<path fill="none" stroke="midnightblue" d="M713.66,-307.81C685.87,-286.5 614.13,-231.5 579.4,-204.88"/>
<polygon fill="midnightblue" stroke="midnightblue" points="581.49,-202.06 571.42,-198.76 577.23,-207.62 581.49,-202.06"/>
</g>
<!-- Node25&#45;&gt;Node20 -->
<g id="edge70" class="edge">
<title>Node25&#45;&gt;Node20</title>
<path fill="none" stroke="midnightblue" d="M720.36,-307.91C705.89,-279.86 664.3,-188.96 695,-123 702.19,-107.55 716.68,-95.14 729.63,-86.49"/>
<polygon fill="midnightblue" stroke="midnightblue" points="731.61,-89.38 738.23,-81.11 727.89,-83.44 731.61,-89.38"/>
</g>
<!-- Node25&#45;&gt;Node21 -->
<g id="edge71" class="edge">
<title>Node25&#45;&gt;Node21</title>
<path fill="none" stroke="midnightblue" d="M702.03,-307.9C643.38,-285.95 487.91,-227.77 419.78,-202.27"/>
<polygon fill="midnightblue" stroke="midnightblue" points="420.59,-198.83 410,-198.61 418.14,-205.39 420.59,-198.83"/>
</g>
<!-- Node26 -->
<g id="node26" class="node">
<title>Node26</title>
<g id="a_node26"><a xlink:href="../../dd/de6/blas_2all_8hpp.html" target="_top" xlink:title=" ">
<polygon fill="white" stroke="black" points="1064.5,-241 1064.5,-260 1139.5,-260 1139.5,-241 1064.5,-241"/>
<text text-anchor="middle" x="1102" y="-248" font-family="Helvetica,sans-Serif" font-size="10.00">../blas/all.hpp</text>
</a>
</g>
</g>
<!-- Node25&#45;&gt;Node26 -->
<g id="edge34" class="edge">
<title>Node25&#45;&gt;Node26</title>
<path fill="none" stroke="midnightblue" d="M757.1,-307.94C765.49,-305.85 774.56,-303.72 783,-302 878.76,-282.49 992,-266.14 1054.52,-257.69"/>
<polygon fill="midnightblue" stroke="midnightblue" points="1055.04,-261.15 1064.48,-256.35 1054.11,-254.21 1055.04,-261.15"/>
</g>
<!-- Node27 -->
<g id="node27" class="node">
<title>Node27</title>
<g id="a_node27"><a xlink:href="../../df/d20/eigendecomposition_8hpp.html" target="_top" xlink:title=" ">
<polygon fill="white" stroke="black" points="1282,-179.5 1282,-198.5 1404,-198.5 1404,-179.5 1282,-179.5"/>
<text text-anchor="middle" x="1343" y="-186.5" font-family="Helvetica,sans-Serif" font-size="10.00">eigendecomposition.hpp</text>
</a>
</g>
</g>
<!-- Node26&#45;&gt;Node27 -->
<g id="edge35" class="edge">
<title>Node26&#45;&gt;Node27</title>
<path fill="none" stroke="midnightblue" d="M1136.53,-240.98C1179.21,-230.44 1251.92,-212.49 1298.68,-200.94"/>
<polygon fill="midnightblue" stroke="midnightblue" points="1299.67,-204.3 1308.53,-198.51 1297.99,-197.51 1299.67,-204.3"/>
</g>
<!-- Node34 -->
<g id="node34" class="node">
<title>Node34</title>
<g id="a_node34"><a xlink:href="../../df/dd2/lapack_8hpp.html" target="_top" xlink:title=" ">
<polygon fill="white" stroke="black" points="1311,-123.5 1311,-142.5 1375,-142.5 1375,-123.5 1311,-123.5"/>
<text text-anchor="middle" x="1343" y="-130.5" font-family="Helvetica,sans-Serif" font-size="10.00">lapack.hpp</text>
</a>
</g>
</g>
<!-- Node26&#45;&gt;Node34 -->
<g id="edge56" class="edge">
<title>Node26&#45;&gt;Node34</title>
<path fill="none" stroke="midnightblue" d="M1120.11,-240.82C1162.09,-220.7 1266.2,-170.81 1315.84,-147.02"/>
<polygon fill="midnightblue" stroke="midnightblue" points="1317.5,-150.1 1325,-142.62 1314.47,-143.79 1317.5,-150.1"/>
</g>
<!-- Node35 -->
<g id="node35" class="node">
<title>Node35</title>
<g id="a_node35"><a xlink:href="../../df/d88/orthonormalize_8hpp.html" target="_top" xlink:title=" ">
<polygon fill="white" stroke="black" points="872.5,-123.5 872.5,-142.5 971.5,-142.5 971.5,-123.5 872.5,-123.5"/>
<text text-anchor="middle" x="922" y="-130.5" font-family="Helvetica,sans-Serif" font-size="10.00">orthonormalize.hpp</text>
</a>
</g>
</g>
<!-- Node26&#45;&gt;Node35 -->
<g id="edge68" class="edge">
<title>Node26&#45;&gt;Node35</title>
<path fill="none" stroke="midnightblue" d="M1088.47,-240.82C1057.72,-221.09 982.31,-172.7 944.45,-148.41"/>
<polygon fill="midnightblue" stroke="midnightblue" points="945.99,-145.24 935.69,-142.78 942.21,-151.13 945.99,-145.24"/>
</g>
<!-- Node37 -->
<g id="node37" class="node">
<title>Node37</title>
<g id="a_node37"><a xlink:href="../../db/d59/matrix__vector__operation_8hpp.html" target="_top" xlink:title=" ">
<polygon fill="white" stroke="black" points="1153,-123.5 1153,-142.5 1293,-142.5 1293,-123.5 1153,-123.5"/>
<text text-anchor="middle" x="1223" y="-130.5" font-family="Helvetica,sans-Serif" font-size="10.00">matrix_vector_operation.hpp</text>
</a>
</g>
</g>
<!-- Node26&#45;&gt;Node37 -->
<g id="edge57" class="edge">
<title>Node26&#45;&gt;Node37</title>
<path fill="none" stroke="midnightblue" d="M1111.09,-240.82C1131.33,-221.5 1180.32,-174.74 1206.26,-149.98"/>
<polygon fill="midnightblue" stroke="midnightblue" points="1208.98,-152.22 1213.8,-142.78 1204.15,-147.16 1208.98,-152.22"/>
</g>
<!-- Node38 -->
<g id="node38" class="node">
<title>Node38</title>
<g id="a_node38"><a xlink:href="../../df/daf/conjugate__gradient_8hpp.html" target="_top" xlink:title=" ">
<polygon fill="white" stroke="black" points="1469.5,-123.5 1469.5,-142.5 1586.5,-142.5 1586.5,-123.5 1469.5,-123.5"/>
<text text-anchor="middle" x="1528" y="-130.5" font-family="Helvetica,sans-Serif" font-size="10.00">conjugate_gradient.hpp</text>
</a>
</g>
</g>
<!-- Node26&#45;&gt;Node38 -->
<g id="edge60" class="edge">
<title>Node26&#45;&gt;Node38</title>
<path fill="none" stroke="midnightblue" d="M1139.91,-247.65C1199.57,-243.78 1318.29,-232.26 1413,-199 1448.56,-186.51 1485.86,-163.27 1508.01,-148.22"/>
<polygon fill="midnightblue" stroke="midnightblue" points="1510.02,-151.09 1516.26,-142.52 1506.04,-145.33 1510.02,-151.09"/>
</g>
<!-- Node39 -->
<g id="node39" class="node">
<title>Node39</title>
<g id="a_node39"><a xlink:href="../../de/d83/inverse__iteration_8hpp.html" target="_top" xlink:title=" ">
<polygon fill="white" stroke="black" points="989.5,-123.5 989.5,-142.5 1096.5,-142.5 1096.5,-123.5 989.5,-123.5"/>
<text text-anchor="middle" x="1043" y="-130.5" font-family="Helvetica,sans-Serif" font-size="10.00">inverse_iteration.hpp</text>
</a>
</g>
</g>
<!-- Node26&#45;&gt;Node39 -->
<g id="edge65" class="edge">
<title>Node26&#45;&gt;Node39</title>
<path fill="none" stroke="midnightblue" d="M1097.57,-240.82C1087.96,-222.01 1065.04,-177.15 1052.17,-151.96"/>
<polygon fill="midnightblue" stroke="midnightblue" points="1055.15,-150.1 1047.49,-142.78 1048.92,-153.28 1055.15,-150.1"/>
</g>
<!-- Node27&#45;&gt;Node14 -->
<g id="edge54" class="edge">
<title>Node27&#45;&gt;Node14</title>
<path fill="none" stroke="midnightblue" d="M1360.46,-179.42C1381.7,-167.75 1413.17,-145.72 1400,-123 1379.78,-88.13 1269.86,-43.26 1214.66,-22.49"/>
<polygon fill="midnightblue" stroke="midnightblue" points="1215.62,-19.11 1205.03,-18.9 1213.18,-25.67 1215.62,-19.11"/>
</g>
<!-- Node28 -->
<g id="node28" class="node">
<title>Node28</title>
<g id="a_node28"><a xlink:href="../../d4/dc7/compressed__row__storage_8hpp.html" target="_top" xlink:title=" ">
<polygon fill="white" stroke="black" points="1172.5,-56.5 1172.5,-86.5 1273.5,-86.5 1273.5,-56.5 1172.5,-56.5"/>
<text text-anchor="start" x="1180.5" y="-74.5" font-family="Helvetica,sans-Serif" font-size="10.00">../type/compressed</text>
<text text-anchor="middle" x="1223" y="-63.5" font-family="Helvetica,sans-Serif" font-size="10.00">_row_storage.hpp</text>
</a>
</g>
</g>
<!-- Node27&#45;&gt;Node28 -->
<g id="edge36" class="edge">
<title>Node27&#45;&gt;Node28</title>
<path fill="none" stroke="midnightblue" d="M1355.45,-179.33C1372.17,-166.63 1398.22,-142.36 1384,-123 1361.2,-91.95 1319.33,-79.47 1284.01,-74.68"/>
<polygon fill="midnightblue" stroke="midnightblue" points="1284.1,-71.17 1273.76,-73.48 1283.28,-78.12 1284.1,-71.17"/>
</g>
<!-- Node32 -->
<g id="node32" class="node">
<title>Node32</title>
<g id="a_node32"><a xlink:href="../../d4/ddc/braket__vector_8hpp.html" target="_top" xlink:title=" ">
<polygon fill="white" stroke="black" points="982.5,-62 982.5,-81 1107.5,-81 1107.5,-62 982.5,-62"/>
<text text-anchor="middle" x="1045" y="-69" font-family="Helvetica,sans-Serif" font-size="10.00">../type/braket_vector.hpp</text>
</a>
</g>
</g>
<!-- Node27&#45;&gt;Node32 -->
<g id="edge42" class="edge">
<title>Node27&#45;&gt;Node32</title>
<path fill="none" stroke="midnightblue" d="M1281.8,-180.57C1241.39,-174.14 1187.97,-162.67 1144,-143 1112.43,-128.88 1080.71,-103.94 1061.96,-87.83"/>
<polygon fill="midnightblue" stroke="midnightblue" points="1064.14,-85.08 1054.31,-81.11 1059.52,-90.34 1064.14,-85.08"/>
</g>
<!-- Node27&#45;&gt;Node34 -->
<g id="edge48" class="edge">
<title>Node27&#45;&gt;Node34</title>
<path fill="none" stroke="midnightblue" d="M1343,-179.08C1343,-172.01 1343,-161.86 1343,-152.99"/>
<polygon fill="midnightblue" stroke="midnightblue" points="1346.5,-152.75 1343,-142.75 1339.5,-152.75 1346.5,-152.75"/>
</g>
<!-- Node27&#45;&gt;Node35 -->
<g id="edge51" class="edge">
<title>Node27&#45;&gt;Node35</title>
<path fill="none" stroke="midnightblue" d="M1281.76,-180.91C1211.83,-172.7 1093.72,-158.47 981.69,-143.06"/>
<polygon fill="midnightblue" stroke="midnightblue" points="981.94,-139.56 971.56,-141.66 980.99,-146.5 981.94,-139.56"/>
</g>
<!-- Node36 -->
<g id="node36" class="node">
<title>Node36</title>
<g id="a_node36"><a xlink:title=" ">
<polygon fill="white" stroke="#bfbfbf" points="1560.5,-62 1560.5,-81 1609.5,-81 1609.5,-62 1560.5,-62"/>
<text text-anchor="middle" x="1585" y="-69" font-family="Helvetica,sans-Serif" font-size="10.00">random</text>
</a>
</g>
</g>
<!-- Node27&#45;&gt;Node36 -->
<g id="edge55" class="edge">
<title>Node27&#45;&gt;Node36</title>
<path fill="none" stroke="midnightblue" d="M1404.2,-185.85C1471.1,-182.07 1572,-171.64 1596,-143 1608.27,-128.36 1601.76,-105.77 1594.65,-90.13"/>
<polygon fill="midnightblue" stroke="midnightblue" points="1597.69,-88.38 1590.08,-81 1591.43,-91.51 1597.69,-88.38"/>
</g>
<!-- Node28&#45;&gt;Node13 -->
<g id="edge41" class="edge">
<title>Node28&#45;&gt;Node13</title>
<path fill="none" stroke="midnightblue" d="M1180.82,-56.4C1150.19,-46.16 1109.23,-32.47 1080.33,-22.81"/>
<polygon fill="midnightblue" stroke="midnightblue" points="1081.23,-19.42 1070.64,-19.57 1079.02,-26.06 1081.23,-19.42"/>
</g>
<!-- Node28&#45;&gt;Node14 -->
<g id="edge39" class="edge">
<title>Node28&#45;&gt;Node14</title>
<path fill="none" stroke="midnightblue" d="M1213.52,-56.4C1207.83,-47.93 1200.55,-37.1 1194.52,-28.14"/>
<polygon fill="midnightblue" stroke="midnightblue" points="1197.3,-26 1188.82,-19.66 1191.49,-29.91 1197.3,-26"/>
</g>
<!-- Node29 -->
<g id="node29" class="node">
<title>Node29</title>
<g id="a_node29"><a xlink:title=" ">
<polygon fill="white" stroke="#bfbfbf" points="1089,-0.5 1089,-19.5 1143,-19.5 1143,-0.5 1089,-0.5"/>
<text text-anchor="middle" x="1116" y="-7.5" font-family="Helvetica,sans-Serif" font-size="10.00">iostream</text>
</a>
</g>
</g>
<!-- Node28&#45;&gt;Node29 -->
<g id="edge37" class="edge">
<title>Node28&#45;&gt;Node29</title>
<path fill="none" stroke="midnightblue" d="M1197.64,-56.4C1180.33,-46.77 1157.52,-34.09 1140.42,-24.58"/>
<polygon fill="midnightblue" stroke="midnightblue" points="1142.01,-21.46 1131.57,-19.66 1138.61,-27.58 1142.01,-21.46"/>
</g>
<!-- Node30 -->
<g id="node30" class="node">
<title>Node30</title>
<g id="a_node30"><a xlink:title=" ">
<polygon fill="white" stroke="#bfbfbf" points="1223,-0.5 1223,-19.5 1269,-19.5 1269,-0.5 1223,-0.5"/>
<text text-anchor="middle" x="1246" y="-7.5" font-family="Helvetica,sans-Serif" font-size="10.00">cstdint</text>
</a>
</g>
</g>
<!-- Node28&#45;&gt;Node30 -->
<g id="edge38" class="edge">
<title>Node28&#45;&gt;Node30</title>
<path fill="none" stroke="midnightblue" d="M1228.45,-56.4C1231.62,-48.2 1235.65,-37.78 1239.04,-28.99"/>
<polygon fill="midnightblue" stroke="midnightblue" points="1242.31,-30.25 1242.65,-19.66 1235.78,-27.72 1242.31,-30.25"/>
</g>
<!-- Node31 -->
<g id="node31" class="node">
<title>Node31</title>
<g id="a_node31"><a xlink:title=" ">
<polygon fill="white" stroke="#bfbfbf" points="1287,-0.5 1287,-19.5 1337,-19.5 1337,-0.5 1287,-0.5"/>
<text text-anchor="middle" x="1312" y="-7.5" font-family="Helvetica,sans-Serif" font-size="10.00">iomanip</text>
</a>
</g>
</g>
<!-- Node28&#45;&gt;Node31 -->
<g id="edge40" class="edge">
<title>Node28&#45;&gt;Node31</title>
<path fill="none" stroke="midnightblue" d="M1244.09,-56.4C1258.09,-47.04 1276.41,-34.79 1290.49,-25.38"/>
<polygon fill="midnightblue" stroke="midnightblue" points="1292.68,-28.13 1299.05,-19.66 1288.79,-22.31 1292.68,-28.13"/>
</g>
<!-- Node32&#45;&gt;Node6 -->
<g id="edge46" class="edge">
<title>Node32&#45;&gt;Node6</title>
<path fill="none" stroke="midnightblue" d="M1019.5,-61.98C987.65,-51.33 933.17,-33.12 898.68,-21.59"/>
<polygon fill="midnightblue" stroke="midnightblue" points="899.68,-18.23 889.09,-18.38 897.46,-24.87 899.68,-18.23"/>
</g>
<!-- Node32&#45;&gt;Node13 -->
<g id="edge44" class="edge">
<title>Node32&#45;&gt;Node13</title>
<path fill="none" stroke="midnightblue" d="M1045,-61.98C1045,-53.58 1045,-40.48 1045,-29.66"/>
<polygon fill="midnightblue" stroke="midnightblue" points="1048.5,-29.51 1045,-19.51 1041.5,-29.51 1048.5,-29.51"/>
</g>
<!-- Node32&#45;&gt;Node14 -->
<g id="edge45" class="edge">
<title>Node32&#45;&gt;Node14</title>
<path fill="none" stroke="midnightblue" d="M1064.77,-61.98C1088.14,-51.9 1127.21,-35.05 1154,-23.5"/>
<polygon fill="midnightblue" stroke="midnightblue" points="1155.47,-26.68 1163.26,-19.51 1152.7,-20.25 1155.47,-26.68"/>
</g>
<!-- Node32&#45;&gt;Node29 -->
<g id="edge43" class="edge">
<title>Node32&#45;&gt;Node29</title>
<path fill="none" stroke="midnightblue" d="M1055.17,-61.98C1066.35,-52.61 1084.52,-37.38 1098.09,-26.01"/>
<polygon fill="midnightblue" stroke="midnightblue" points="1100.43,-28.61 1105.85,-19.51 1095.93,-23.25 1100.43,-28.61"/>
</g>
<!-- Node33 -->
<g id="node33" class="node">
<title>Node33</title>
<g id="a_node33"><a xlink:title=" ">
<polygon fill="white" stroke="#bfbfbf" points="927.5,-0.5 927.5,-19.5 1000.5,-19.5 1000.5,-0.5 927.5,-0.5"/>
<text text-anchor="middle" x="964" y="-7.5" font-family="Helvetica,sans-Serif" font-size="10.00">initializer_list</text>
</a>
</g>
</g>
<!-- Node32&#45;&gt;Node33 -->
<g id="edge47" class="edge">
<title>Node32&#45;&gt;Node33</title>
<path fill="none" stroke="midnightblue" d="M1033.39,-61.98C1020.52,-52.52 999.53,-37.1 983.99,-25.69"/>
<polygon fill="midnightblue" stroke="midnightblue" points="985.72,-22.61 975.58,-19.51 981.57,-28.25 985.72,-22.61"/>
</g>
<!-- Node34&#45;&gt;Node13 -->
<g id="edge50" class="edge">
<title>Node34&#45;&gt;Node13</title>
<path fill="none" stroke="midnightblue" d="M1310.91,-124.55C1263.12,-113.36 1177.42,-92.91 1164,-87 1141.1,-76.92 1138.06,-69.52 1117,-56 1100.52,-45.42 1081.74,-33.69 1067.5,-24.87"/>
<polygon fill="midnightblue" stroke="midnightblue" points="1069.21,-21.81 1058.87,-19.53 1065.53,-27.76 1069.21,-21.81"/>
</g>
<!-- Node34&#45;&gt;Node28 -->
<g id="edge49" class="edge">
<title>Node34&#45;&gt;Node28</title>
<path fill="none" stroke="midnightblue" d="M1325.81,-123.48C1308.8,-115.04 1282.2,-101.86 1260.33,-91.01"/>
<polygon fill="midnightblue" stroke="midnightblue" points="1261.8,-87.83 1251.28,-86.52 1258.69,-94.1 1261.8,-87.83"/>
</g>
<!-- Node35&#45;&gt;Node13 -->
<g id="edge53" class="edge">
<title>Node35&#45;&gt;Node13</title>
<path fill="none" stroke="midnightblue" d="M926.48,-123.18C934.47,-108.08 952.38,-76.88 974,-56 987.09,-43.36 1004.27,-32.36 1018.46,-24.4"/>
<polygon fill="midnightblue" stroke="midnightblue" points="1020.15,-27.46 1027.27,-19.62 1016.81,-21.31 1020.15,-27.46"/>
</g>
<!-- Node35&#45;&gt;Node32 -->
<g id="edge52" class="edge">
<title>Node35&#45;&gt;Node32</title>
<path fill="none" stroke="midnightblue" d="M939.62,-123.48C960.17,-113.53 994.36,-96.99 1018.21,-85.46"/>
<polygon fill="midnightblue" stroke="midnightblue" points="1019.93,-88.51 1027.41,-81.01 1016.88,-82.21 1019.93,-88.51"/>
</g>
<!-- Node37&#45;&gt;Node28 -->
<g id="edge58" class="edge">
<title>Node37&#45;&gt;Node28</title>
<path fill="none" stroke="midnightblue" d="M1223,-123.48C1223,-116.47 1223,-106.19 1223,-96.7"/>
<polygon fill="midnightblue" stroke="midnightblue" points="1226.5,-96.52 1223,-86.52 1219.5,-96.52 1226.5,-96.52"/>
</g>
<!-- Node37&#45;&gt;Node32 -->
<g id="edge59" class="edge">
<title>Node37&#45;&gt;Node32</title>
<path fill="none" stroke="midnightblue" d="M1197.5,-123.48C1166.7,-113.18 1114.73,-95.81 1080.15,-84.25"/>
<polygon fill="midnightblue" stroke="midnightblue" points="1081.05,-80.86 1070.46,-81.01 1078.83,-87.5 1081.05,-80.86"/>
</g>
<!-- Node38&#45;&gt;Node14 -->
<g id="edge63" class="edge">
<title>Node38&#45;&gt;Node14</title>
<path fill="none" stroke="midnightblue" d="M1522.45,-123.15C1511.67,-106.81 1486.21,-72.12 1455,-56 1361.6,-7.74 1322.13,-41.06 1215.13,-19.92"/>
<polygon fill="midnightblue" stroke="midnightblue" points="1215.76,-16.47 1205.26,-17.85 1214.33,-23.32 1215.76,-16.47"/>
</g>
<!-- Node38&#45;&gt;Node28 -->
<g id="edge61" class="edge">
<title>Node38&#45;&gt;Node28</title>
<path fill="none" stroke="midnightblue" d="M1484.3,-123.48C1431.67,-113.21 1342.97,-95.9 1283.71,-84.34"/>
<polygon fill="midnightblue" stroke="midnightblue" points="1284.22,-80.88 1273.73,-82.4 1282.88,-87.75 1284.22,-80.88"/>
</g>
<!-- Node38&#45;&gt;Node32 -->
<g id="edge62" class="edge">
<title>Node38&#45;&gt;Node32</title>
<path fill="none" stroke="midnightblue" d="M1469.26,-124.76C1380.84,-113.87 1213.72,-93.28 1117.73,-81.46"/>
<polygon fill="midnightblue" stroke="midnightblue" points="1117.88,-77.95 1107.53,-80.2 1117.03,-84.9 1117.88,-77.95"/>
</g>
<!-- Node38&#45;&gt;Node36 -->
<g id="edge64" class="edge">
<title>Node38&#45;&gt;Node36</title>
<path fill="none" stroke="midnightblue" d="M1536.17,-123.48C1544.89,-114.37 1558.9,-99.74 1569.69,-88.48"/>
<polygon fill="midnightblue" stroke="midnightblue" points="1572.46,-90.65 1576.85,-81.01 1567.4,-85.81 1572.46,-90.65"/>
</g>
<!-- Node39&#45;&gt;Node28 -->
<g id="edge66" class="edge">
<title>Node39&#45;&gt;Node28</title>
<path fill="none" stroke="midnightblue" d="M1068.79,-123.48C1095.33,-114.7 1137.42,-100.79 1170.93,-89.71"/>
<polygon fill="midnightblue" stroke="midnightblue" points="1172.18,-92.98 1180.58,-86.52 1169.98,-86.34 1172.18,-92.98"/>
</g>
<!-- Node39&#45;&gt;Node32 -->
<g id="edge67" class="edge">
<title>Node39&#45;&gt;Node32</title>
<path fill="none" stroke="midnightblue" d="M1043.29,-123.48C1043.57,-115.08 1044.01,-101.98 1044.37,-91.16"/>
<polygon fill="midnightblue" stroke="midnightblue" points="1047.88,-91.12 1044.71,-81.01 1040.88,-90.89 1047.88,-91.12"/>
</g>
<!-- Node40&#45;&gt;Node11 -->
<g id="edge75" class="edge">
<title>Node40&#45;&gt;Node11</title>
<path fill="none" stroke="midnightblue" d="M820.75,-307.81C772.28,-285.91 645,-228.4 588.14,-202.71"/>
<polygon fill="midnightblue" stroke="midnightblue" points="589.56,-199.52 579.01,-198.59 586.68,-205.9 589.56,-199.52"/>
</g>
<!-- Node40&#45;&gt;Node26 -->
<g id="edge74" class="edge">
<title>Node40&#45;&gt;Node26</title>
<path fill="none" stroke="midnightblue" d="M874.52,-307.94C921.55,-296.27 1005.8,-275.37 1057.51,-262.54"/>
<polygon fill="midnightblue" stroke="midnightblue" points="1058.54,-265.89 1067.4,-260.08 1056.85,-259.09 1058.54,-265.89"/>
</g>
<!-- Node41 -->
<g id="node41" class="node">
<title>Node41</title>
<g id="a_node41"><a xlink:href="../../d9/dd5/type_2all_8hpp.html" target="_top" xlink:title=" ">
<polygon fill="white" stroke="black" points="778,-123.5 778,-142.5 854,-142.5 854,-123.5 778,-123.5"/>
<text text-anchor="middle" x="816" y="-130.5" font-family="Helvetica,sans-Serif" font-size="10.00">../type/all.hpp</text>
</a>
</g>
</g>
<!-- Node40&#45;&gt;Node41 -->
<g id="edge76" class="edge">
<title>Node40&#45;&gt;Node41</title>
<path fill="none" stroke="midnightblue" d="M838.84,-307.7C835.14,-279.57 823.56,-191.46 818.45,-152.66"/>
<polygon fill="midnightblue" stroke="midnightblue" points="821.92,-152.17 817.15,-142.71 814.98,-153.09 821.92,-152.17"/>
</g>
<!-- Node41&#45;&gt;Node18 -->
<g id="edge77" class="edge">
<title>Node41&#45;&gt;Node18</title>
<path fill="none" stroke="midnightblue" d="M820.15,-123.48C824.38,-114.82 831.04,-101.15 836.4,-90.15"/>
<polygon fill="midnightblue" stroke="midnightblue" points="839.62,-91.53 840.85,-81.01 833.33,-88.46 839.62,-91.53"/>
</g>
<!-- Node41&#45;&gt;Node28 -->
<g id="edge78" class="edge">
<title>Node41&#45;&gt;Node28</title>
<path fill="none" stroke="midnightblue" d="M854.19,-124.52C857.17,-123.99 860.13,-123.48 863,-123 891.84,-118.22 1067.45,-93.91 1162.32,-80.84"/>
<polygon fill="midnightblue" stroke="midnightblue" points="1162.92,-84.29 1172.35,-79.46 1161.97,-77.36 1162.92,-84.29"/>
</g>
<!-- Node41&#45;&gt;Node32 -->
<g id="edge79" class="edge">
<title>Node41&#45;&gt;Node32</title>
<path fill="none" stroke="midnightblue" d="M848.81,-123.48C889.2,-112.98 957.88,-95.14 1002.33,-83.59"/>
<polygon fill="midnightblue" stroke="midnightblue" points="1003.45,-86.91 1012.25,-81.01 1001.69,-80.14 1003.45,-86.91"/>
</g>
<!-- Node42&#45;&gt;Node9 -->
<g id="edge85" class="edge">
<title>Node42&#45;&gt;Node9</title>
<path fill="none" stroke="midnightblue" d="M315.42,-302.4C338.22,-292.77 368.63,-279.94 393.2,-269.56"/>
<polygon fill="midnightblue" stroke="midnightblue" points="394.8,-272.69 402.65,-265.58 392.08,-266.24 394.8,-272.69"/>
</g>
<!-- Node42&#45;&gt;Node10 -->
<g id="edge82" class="edge">
<title>Node42&#45;&gt;Node10</title>
<path fill="none" stroke="midnightblue" d="M282.34,-302.29C282,-284.42 278.76,-253.82 262,-235 247.33,-218.53 226.06,-208.07 205.42,-201.44"/>
<polygon fill="midnightblue" stroke="midnightblue" points="206.28,-198.04 195.7,-198.57 204.3,-204.76 206.28,-198.04"/>
</g>
<!-- Node42&#45;&gt;Node11 -->
<g id="edge83" class="edge">
<title>Node42&#45;&gt;Node11</title>
<path fill="none" stroke="midnightblue" d="M333.74,-313.07C378.87,-308.1 444.65,-295.9 494,-266 518.21,-251.33 538.21,-224.79 549.63,-207.28"/>
<polygon fill="midnightblue" stroke="midnightblue" points="552.72,-208.95 555.07,-198.61 546.79,-205.23 552.72,-208.95"/>
</g>
<!-- Node42&#45;&gt;Node16 -->
<g id="edge86" class="edge">
<title>Node42&#45;&gt;Node16</title>
<path fill="none" stroke="midnightblue" d="M287.69,-302.39C297.78,-277.41 319.61,-223.83 339,-179 352.57,-147.63 369.07,-111.41 378.77,-90.32"/>
<polygon fill="midnightblue" stroke="midnightblue" points="382.05,-91.57 383.05,-81.02 375.69,-88.64 382.05,-91.57"/>
</g>
<!-- Node42&#45;&gt;Node21 -->
<g id="edge87" class="edge">
<title>Node42&#45;&gt;Node21</title>
<path fill="none" stroke="midnightblue" d="M298.26,-302.21C308.93,-292.48 322.92,-279.04 334,-266 350.05,-247.12 365.97,-223.45 376.11,-207.58"/>
<polygon fill="midnightblue" stroke="midnightblue" points="379.26,-209.15 381.63,-198.83 373.33,-205.42 379.26,-209.15"/>
</g>
<!-- Node42&#45;&gt;Node24 -->
<g id="edge84" class="edge">
<title>Node42&#45;&gt;Node24</title>
<path fill="none" stroke="midnightblue" d="M263.77,-302.4C250.03,-291.76 231.22,-277.2 217.23,-266.38"/>
<polygon fill="midnightblue" stroke="midnightblue" points="219.29,-263.55 209.24,-260.19 215,-269.08 219.29,-263.55"/>
</g>
</g>
</svg>
