<?xml version="1.0" encoding="UTF-8" standalone="no"?>
<!DOCTYPE svg PUBLIC "-//W3C//DTD SVG 1.1//EN"
 "http://www.w3.org/Graphics/SVG/1.1/DTD/svg11.dtd">
<!-- Generated by graphviz version 2.50.0 (20211204.2007)
 -->
<!-- Title: src/blas/lapack.hpp Pages: 1 -->
<svg width="312pt" height="364pt"
 viewBox="0.00 0.00 311.50 364.00" xmlns="http://www.w3.org/2000/svg" xmlns:xlink="http://www.w3.org/1999/xlink">
<g id="graph0" class="graph" transform="scale(1 1) rotate(0) translate(4 360)">
<title>src/blas/lapack.hpp</title>
<polygon fill="white" stroke="transparent" points="-4,4 -4,-360 307.5,-360 307.5,4 -4,4"/>
<!-- Node1 -->
<g id="node1" class="node">
<title>Node1</title>
<g id="a_node1"><a xlink:title=" ">
<polygon fill="#bfbfbf" stroke="black" points="100,-336.5 100,-355.5 201,-355.5 201,-336.5 100,-336.5"/>
<text text-anchor="middle" x="150.5" y="-343.5" font-family="Helvetica,sans-Serif" font-size="10.00">src/blas/lapack.hpp</text>
</a>
</g>
</g>
<!-- Node2 -->
<g id="node2" class="node">
<title>Node2</title>
<g id="a_node2"><a xlink:href="../../dd/de6/blas_2all_8hpp.html" target="_top" xlink:title=" ">
<polygon fill="white" stroke="black" points="109,-224.5 109,-243.5 192,-243.5 192,-224.5 109,-224.5"/>
<text text-anchor="middle" x="150.5" y="-231.5" font-family="Helvetica,sans-Serif" font-size="10.00">src/blas/all.hpp</text>
</a>
</g>
</g>
<!-- Node1&#45;&gt;Node2 -->
<g id="edge1" class="edge">
<title>Node1&#45;&gt;Node2</title>
<path fill="none" stroke="midnightblue" d="M133.85,-329.04C126.73,-321.08 119.22,-310.84 115.5,-300 108.18,-278.66 127.47,-255.94 140.24,-243.82"/>
<polygon fill="midnightblue" stroke="midnightblue" points="131.5,-331.65 140.94,-336.45 136.55,-326.81 131.5,-331.65"/>
</g>
<!-- Node8 -->
<g id="node8" class="node">
<title>Node8</title>
<g id="a_node8"><a xlink:href="../../df/d20/eigendecomposition_8hpp.html" target="_top" xlink:title=" ">
<polygon fill="white" stroke="black" points="125,-280.5 125,-299.5 284,-299.5 284,-280.5 125,-280.5"/>
<text text-anchor="middle" x="204.5" y="-287.5" font-family="Helvetica,sans-Serif" font-size="10.00">src/blas/eigendecomposition.hpp</text>
</a>
</g>
</g>
<!-- Node1&#45;&gt;Node8 -->
<g id="edge8" class="edge">
<title>Node1&#45;&gt;Node8</title>
<path fill="none" stroke="midnightblue" d="M166.5,-329C176.07,-319.43 187.86,-307.64 195.75,-299.75"/>
<polygon fill="midnightblue" stroke="midnightblue" points="164.01,-326.54 159.42,-336.08 168.96,-331.49 164.01,-326.54"/>
</g>
<!-- Node3 -->
<g id="node3" class="node">
<title>Node3</title>
<g id="a_node3"><a xlink:href="../../da/d72/base__u1__spin_8hpp.html" target="_top" xlink:title=" ">
<polygon fill="white" stroke="black" points="0,-168.5 0,-187.5 141,-187.5 141,-168.5 0,-168.5"/>
<text text-anchor="middle" x="70.5" y="-175.5" font-family="Helvetica,sans-Serif" font-size="10.00">src/model/base_u1_spin.hpp</text>
</a>
</g>
</g>
<!-- Node2&#45;&gt;Node3 -->
<g id="edge2" class="edge">
<title>Node2&#45;&gt;Node3</title>
<path fill="none" stroke="midnightblue" d="M129.2,-218.62C114.58,-208.76 95.67,-195.99 83.32,-187.65"/>
<polygon fill="midnightblue" stroke="midnightblue" points="127.4,-221.63 137.65,-224.32 131.32,-215.83 127.4,-221.63"/>
</g>
<!-- Node7 -->
<g id="node7" class="node">
<title>Node7</title>
<g id="a_node7"><a xlink:href="../../d9/d56/general__model_8hpp.html" target="_top" xlink:title=" ">
<polygon fill="white" stroke="black" points="159.5,-168.5 159.5,-187.5 303.5,-187.5 303.5,-168.5 159.5,-168.5"/>
<text text-anchor="middle" x="231.5" y="-175.5" font-family="Helvetica,sans-Serif" font-size="10.00">src/model/general_model.hpp</text>
</a>
</g>
</g>
<!-- Node2&#45;&gt;Node7 -->
<g id="edge6" class="edge">
<title>Node2&#45;&gt;Node7</title>
<path fill="none" stroke="midnightblue" d="M172.07,-218.62C186.86,-208.76 206.01,-195.99 218.52,-187.65"/>
<polygon fill="midnightblue" stroke="midnightblue" points="169.89,-215.86 163.51,-224.32 173.78,-221.69 169.89,-215.86"/>
</g>
<!-- Node4 -->
<g id="node4" class="node">
<title>Node4</title>
<g id="a_node4"><a xlink:href="../../da/d6e/model_2all_8hpp.html" target="_top" xlink:title=" ">
<polygon fill="white" stroke="black" points="105,-112.5 105,-131.5 196,-131.5 196,-112.5 105,-112.5"/>
<text text-anchor="middle" x="150.5" y="-119.5" font-family="Helvetica,sans-Serif" font-size="10.00">src/model/all.hpp</text>
</a>
</g>
</g>
<!-- Node3&#45;&gt;Node4 -->
<g id="edge3" class="edge">
<title>Node3&#45;&gt;Node4</title>
<path fill="none" stroke="midnightblue" d="M91.8,-162.62C106.42,-152.76 125.33,-139.99 137.68,-131.65"/>
<polygon fill="midnightblue" stroke="midnightblue" points="89.68,-159.83 83.35,-168.32 93.6,-165.63 89.68,-159.83"/>
</g>
<!-- Node5 -->
<g id="node5" class="node">
<title>Node5</title>
<g id="a_node5"><a xlink:href="../../d3/df6/exact__diag_8hpp.html" target="_top" xlink:title=" ">
<polygon fill="white" stroke="black" points="86.5,-56.5 86.5,-75.5 214.5,-75.5 214.5,-56.5 86.5,-56.5"/>
<text text-anchor="middle" x="150.5" y="-63.5" font-family="Helvetica,sans-Serif" font-size="10.00">src/solver/exact_diag.hpp</text>
</a>
</g>
</g>
<!-- Node4&#45;&gt;Node5 -->
<g id="edge4" class="edge">
<title>Node4&#45;&gt;Node5</title>
<path fill="none" stroke="midnightblue" d="M150.5,-101.8C150.5,-92.91 150.5,-82.78 150.5,-75.75"/>
<polygon fill="midnightblue" stroke="midnightblue" points="147,-102.08 150.5,-112.08 154,-102.08 147,-102.08"/>
</g>
<!-- Node6 -->
<g id="node6" class="node">
<title>Node6</title>
<g id="a_node6"><a xlink:href="../../d5/d21/solver_2all_8hpp.html" target="_top" xlink:title=" ">
<polygon fill="white" stroke="black" points="105,-0.5 105,-19.5 196,-19.5 196,-0.5 105,-0.5"/>
<text text-anchor="middle" x="150.5" y="-7.5" font-family="Helvetica,sans-Serif" font-size="10.00">src/solver/all.hpp</text>
</a>
</g>
</g>
<!-- Node5&#45;&gt;Node6 -->
<g id="edge5" class="edge">
<title>Node5&#45;&gt;Node6</title>
<path fill="none" stroke="midnightblue" d="M150.5,-45.8C150.5,-36.91 150.5,-26.78 150.5,-19.75"/>
<polygon fill="midnightblue" stroke="midnightblue" points="147,-46.08 150.5,-56.08 154,-46.08 147,-46.08"/>
</g>
<!-- Node7&#45;&gt;Node4 -->
<g id="edge7" class="edge">
<title>Node7&#45;&gt;Node4</title>
<path fill="none" stroke="midnightblue" d="M209.93,-162.62C195.14,-152.76 175.99,-139.99 163.48,-131.65"/>
<polygon fill="midnightblue" stroke="midnightblue" points="208.22,-165.69 218.49,-168.32 212.11,-159.86 208.22,-165.69"/>
</g>
<!-- Node8&#45;&gt;Node2 -->
<g id="edge9" class="edge">
<title>Node8&#45;&gt;Node2</title>
<path fill="none" stroke="midnightblue" d="M188.5,-273C178.93,-263.43 167.14,-251.64 159.25,-243.75"/>
<polygon fill="midnightblue" stroke="midnightblue" points="186.04,-275.49 195.58,-280.08 190.99,-270.54 186.04,-275.49"/>
</g>
</g>
</svg>
