<?xml version="1.0" encoding="UTF-8" standalone="no"?>
<!DOCTYPE svg PUBLIC "-//W3C//DTD SVG 1.1//EN"
 "http://www.w3.org/Graphics/SVG/1.1/DTD/svg11.dtd">
<!-- Generated by graphviz version 2.50.0 (20211204.2007)
 -->
<!-- Title: src/solver/utility.hpp Pages: 1 -->
<svg width="170pt" height="140pt"
 viewBox="0.00 0.00 169.50 140.00" xmlns="http://www.w3.org/2000/svg" xmlns:xlink="http://www.w3.org/1999/xlink">
<g id="graph0" class="graph" transform="scale(1 1) rotate(0) translate(4 136)">
<title>src/solver/utility.hpp</title>
<polygon fill="white" stroke="transparent" points="-4,4 -4,-136 165.5,-136 165.5,4 -4,4"/>
<!-- Node1 -->
<g id="node1" class="node">
<title>Node1</title>
<g id="a_node1"><a xlink:title=" ">
<polygon fill="#bfbfbf" stroke="black" points="0,-112.5 0,-131.5 103,-131.5 103,-112.5 0,-112.5"/>
<text text-anchor="middle" x="51.5" y="-119.5" font-family="Helvetica,sans-Serif" font-size="10.00">src/solver/utility.hpp</text>
</a>
</g>
</g>
<!-- Node2 -->
<g id="node2" class="node">
<title>Node2</title>
<g id="a_node2"><a xlink:href="../../d5/d21/solver_2all_8hpp.html" target="_top" xlink:title=" ">
<polygon fill="white" stroke="black" points="6,-0.5 6,-19.5 97,-19.5 97,-0.5 6,-0.5"/>
<text text-anchor="middle" x="51.5" y="-7.5" font-family="Helvetica,sans-Serif" font-size="10.00">src/solver/all.hpp</text>
</a>
</g>
</g>
<!-- Node1&#45;&gt;Node2 -->
<g id="edge1" class="edge">
<title>Node1&#45;&gt;Node2</title>
<path fill="none" stroke="midnightblue" d="M38.47,-104.23C33.01,-96.17 27.29,-86.08 24.5,-76 18.69,-55.04 34.02,-31.8 43.89,-19.59"/>
<polygon fill="midnightblue" stroke="midnightblue" points="35.65,-106.31 44.35,-112.36 41.32,-102.21 35.65,-106.31"/>
</g>
<!-- Node3 -->
<g id="node3" class="node">
<title>Node3</title>
<g id="a_node3"><a xlink:href="../../d3/df6/exact__diag_8hpp.html" target="_top" xlink:title=" ">
<polygon fill="white" stroke="black" points="33.5,-56.5 33.5,-75.5 161.5,-75.5 161.5,-56.5 33.5,-56.5"/>
<text text-anchor="middle" x="97.5" y="-63.5" font-family="Helvetica,sans-Serif" font-size="10.00">src/solver/exact_diag.hpp</text>
</a>
</g>
</g>
<!-- Node1&#45;&gt;Node3 -->
<g id="edge2" class="edge">
<title>Node1&#45;&gt;Node3</title>
<path fill="none" stroke="midnightblue" d="M65.61,-104.43C73.68,-94.97 83.46,-83.48 90.05,-75.75"/>
<polygon fill="midnightblue" stroke="midnightblue" points="62.92,-102.2 59.1,-112.08 68.25,-106.74 62.92,-102.2"/>
</g>
<!-- Node3&#45;&gt;Node2 -->
<g id="edge3" class="edge">
<title>Node3&#45;&gt;Node2</title>
<path fill="none" stroke="midnightblue" d="M83.39,-48.43C75.32,-38.97 65.54,-27.48 58.95,-19.75"/>
<polygon fill="midnightblue" stroke="midnightblue" points="80.75,-50.74 89.9,-56.08 86.08,-46.2 80.75,-50.74"/>
</g>
</g>
</svg>
