<?xml version="1.0" encoding="UTF-8" standalone="no"?>
<!DOCTYPE svg PUBLIC "-//W3C//DTD SVG 1.1//EN"
 "http://www.w3.org/Graphics/SVG/1.1/DTD/svg11.dtd">
<!-- Generated by graphviz version 2.50.0 (20211204.2007)
 -->
<!-- Title: src/type/compressed_row_storage.hpp Pages: 1 -->
<svg width="518pt" height="442pt"
 viewBox="0.00 0.00 518.00 442.00" xmlns="http://www.w3.org/2000/svg" xmlns:xlink="http://www.w3.org/1999/xlink">
<g id="graph0" class="graph" transform="scale(1 1) rotate(0) translate(4 438)">
<title>src/type/compressed_row_storage.hpp</title>
<polygon fill="white" stroke="transparent" points="-4,4 -4,-438 514,-438 514,4 -4,4"/>
<!-- Node1 -->
<g id="node1" class="node">
<title>Node1</title>
<g id="a_node1"><a xlink:title=" ">
<polygon fill="#bfbfbf" stroke="black" points="291.5,-403.5 291.5,-433.5 399.5,-433.5 399.5,-403.5 291.5,-403.5"/>
<text text-anchor="start" x="299.5" y="-421.5" font-family="Helvetica,sans-Serif" font-size="10.00">src/type/compressed</text>
<text text-anchor="middle" x="345.5" y="-410.5" font-family="Helvetica,sans-Serif" font-size="10.00">_row_storage.hpp</text>
</a>
</g>
</g>
<!-- Node2 -->
<g id="node2" class="node">
<title>Node2</title>
<g id="a_node2"><a xlink:href="../../df/daf/conjugate__gradient_8hpp.html" target="_top" xlink:title=" ">
<polygon fill="white" stroke="black" points="385.5,-280.5 385.5,-310.5 481.5,-310.5 481.5,-280.5 385.5,-280.5"/>
<text text-anchor="start" x="393.5" y="-298.5" font-family="Helvetica,sans-Serif" font-size="10.00">src/blas/conjugate</text>
<text text-anchor="middle" x="433.5" y="-287.5" font-family="Helvetica,sans-Serif" font-size="10.00">_gradient.hpp</text>
</a>
</g>
</g>
<!-- Node1&#45;&gt;Node2 -->
<g id="edge1" class="edge">
<title>Node1&#45;&gt;Node2</title>
<path fill="none" stroke="midnightblue" d="M367.09,-395.74C375.16,-387.12 384.14,-376.92 391.5,-367 405.25,-348.46 418.41,-325.15 426.23,-310.54"/>
<polygon fill="midnightblue" stroke="midnightblue" points="364.39,-393.51 360.01,-403.15 369.45,-398.34 364.39,-393.51"/>
</g>
<!-- Node9 -->
<g id="node9" class="node">
<title>Node9</title>
<g id="a_node9"><a xlink:href="../../df/d20/eigendecomposition_8hpp.html" target="_top" xlink:title=" ">
<polygon fill="white" stroke="black" points="0,-286 0,-305 159,-305 159,-286 0,-286"/>
<text text-anchor="middle" x="79.5" y="-293" font-family="Helvetica,sans-Serif" font-size="10.00">src/blas/eigendecomposition.hpp</text>
</a>
</g>
</g>
<!-- Node1&#45;&gt;Node9 -->
<g id="edge9" class="edge">
<title>Node1&#45;&gt;Node9</title>
<path fill="none" stroke="midnightblue" d="M281.32,-412.39C216.2,-405.87 121.4,-392.29 95.5,-367 78.62,-350.52 77.9,-320.22 78.71,-305.29"/>
<polygon fill="midnightblue" stroke="midnightblue" points="281.21,-415.9 291.5,-413.38 281.88,-408.93 281.21,-415.9"/>
</g>
<!-- Node10 -->
<g id="node10" class="node">
<title>Node10</title>
<g id="a_node10"><a xlink:href="../../de/d83/inverse__iteration_8hpp.html" target="_top" xlink:title=" ">
<polygon fill="white" stroke="black" points="223.5,-347.5 223.5,-366.5 367.5,-366.5 367.5,-347.5 223.5,-347.5"/>
<text text-anchor="middle" x="295.5" y="-354.5" font-family="Helvetica,sans-Serif" font-size="10.00">src/blas/inverse_iteration.hpp</text>
</a>
</g>
</g>
<!-- Node1&#45;&gt;Node10 -->
<g id="edge11" class="edge">
<title>Node1&#45;&gt;Node10</title>
<path fill="none" stroke="midnightblue" d="M327.18,-395.7C318.72,-385.64 309.16,-374.26 302.78,-366.66"/>
<polygon fill="midnightblue" stroke="midnightblue" points="324.54,-398 333.65,-403.4 329.9,-393.49 324.54,-398"/>
</g>
<!-- Node11 -->
<g id="node11" class="node">
<title>Node11</title>
<g id="a_node11"><a xlink:href="../../df/dd2/lapack_8hpp.html" target="_top" xlink:title=" ">
<polygon fill="white" stroke="black" points="104,-347.5 104,-366.5 205,-366.5 205,-347.5 104,-347.5"/>
<text text-anchor="middle" x="154.5" y="-354.5" font-family="Helvetica,sans-Serif" font-size="10.00">src/blas/lapack.hpp</text>
</a>
</g>
</g>
<!-- Node1&#45;&gt;Node11 -->
<g id="edge13" class="edge">
<title>Node1&#45;&gt;Node11</title>
<path fill="none" stroke="midnightblue" d="M290.48,-400.36C254.95,-389.29 210.25,-375.37 182.01,-366.57"/>
<polygon fill="midnightblue" stroke="midnightblue" points="289.65,-403.77 300.24,-403.4 291.73,-397.08 289.65,-403.77"/>
</g>
<!-- Node12 -->
<g id="node12" class="node">
<title>Node12</title>
<g id="a_node12"><a xlink:href="../../db/d59/matrix__vector__operation_8hpp.html" target="_top" xlink:title=" ">
<polygon fill="white" stroke="black" points="254,-280.5 254,-310.5 367,-310.5 367,-280.5 254,-280.5"/>
<text text-anchor="start" x="262" y="-298.5" font-family="Helvetica,sans-Serif" font-size="10.00">src/blas/matrix_vector</text>
<text text-anchor="middle" x="310.5" y="-287.5" font-family="Helvetica,sans-Serif" font-size="10.00">_operation.hpp</text>
</a>
</g>
</g>
<!-- Node1&#45;&gt;Node12 -->
<g id="edge16" class="edge">
<title>Node1&#45;&gt;Node12</title>
<path fill="none" stroke="midnightblue" d="M365.66,-395.2C375.77,-381.21 384.35,-362.88 376.5,-347 368.7,-331.22 353.35,-319.01 339.41,-310.55"/>
<polygon fill="midnightblue" stroke="midnightblue" points="362.73,-393.26 359.31,-403.29 368.24,-397.59 362.73,-393.26"/>
</g>
<!-- Node13 -->
<g id="node13" class="node">
<title>Node13</title>
<g id="a_node13"><a xlink:href="../../d9/dd5/type_2all_8hpp.html" target="_top" xlink:title=" ">
<polygon fill="white" stroke="black" points="427,-224.5 427,-243.5 510,-243.5 510,-224.5 427,-224.5"/>
<text text-anchor="middle" x="468.5" y="-231.5" font-family="Helvetica,sans-Serif" font-size="10.00">src/type/all.hpp</text>
</a>
</g>
</g>
<!-- Node1&#45;&gt;Node13 -->
<g id="edge18" class="edge">
<title>Node1&#45;&gt;Node13</title>
<path fill="none" stroke="midnightblue" d="M389.62,-398.84C424.09,-381.6 469.54,-352.39 490.5,-311 502.04,-288.21 485.2,-258.41 475.12,-243.83"/>
<polygon fill="midnightblue" stroke="midnightblue" points="387.7,-395.88 380.22,-403.38 390.75,-402.18 387.7,-395.88"/>
</g>
<!-- Node3 -->
<g id="node3" class="node">
<title>Node3</title>
<g id="a_node3"><a xlink:href="../../dd/de6/blas_2all_8hpp.html" target="_top" xlink:title=" ">
<polygon fill="white" stroke="black" points="226,-224.5 226,-243.5 309,-243.5 309,-224.5 226,-224.5"/>
<text text-anchor="middle" x="267.5" y="-231.5" font-family="Helvetica,sans-Serif" font-size="10.00">src/blas/all.hpp</text>
</a>
</g>
</g>
<!-- Node2&#45;&gt;Node3 -->
<g id="edge2" class="edge">
<title>Node2&#45;&gt;Node3</title>
<path fill="none" stroke="midnightblue" d="M384.52,-276.94C353.93,-265.98 315.9,-252.35 291.65,-243.66"/>
<polygon fill="midnightblue" stroke="midnightblue" points="383.57,-280.32 394.16,-280.4 385.93,-273.73 383.57,-280.32"/>
</g>
<!-- Node4 -->
<g id="node4" class="node">
<title>Node4</title>
<g id="a_node4"><a xlink:href="../../da/d72/base__u1__spin_8hpp.html" target="_top" xlink:title=" ">
<polygon fill="white" stroke="black" points="358,-168.5 358,-187.5 499,-187.5 499,-168.5 358,-168.5"/>
<text text-anchor="middle" x="428.5" y="-175.5" font-family="Helvetica,sans-Serif" font-size="10.00">src/model/base_u1_spin.hpp</text>
</a>
</g>
</g>
<!-- Node3&#45;&gt;Node4 -->
<g id="edge3" class="edge">
<title>Node3&#45;&gt;Node4</title>
<path fill="none" stroke="midnightblue" d="M302.76,-221.17C333.08,-211 376.07,-196.59 403.11,-187.52"/>
<polygon fill="midnightblue" stroke="midnightblue" points="301.38,-217.95 293.01,-224.44 303.6,-224.58 301.38,-217.95"/>
</g>
<!-- Node8 -->
<g id="node8" class="node">
<title>Node8</title>
<g id="a_node8"><a xlink:href="../../d9/d56/general__model_8hpp.html" target="_top" xlink:title=" ">
<polygon fill="white" stroke="black" points="195.5,-168.5 195.5,-187.5 339.5,-187.5 339.5,-168.5 195.5,-168.5"/>
<text text-anchor="middle" x="267.5" y="-175.5" font-family="Helvetica,sans-Serif" font-size="10.00">src/model/general_model.hpp</text>
</a>
</g>
</g>
<!-- Node3&#45;&gt;Node8 -->
<g id="edge7" class="edge">
<title>Node3&#45;&gt;Node8</title>
<path fill="none" stroke="midnightblue" d="M267.5,-213.8C267.5,-204.91 267.5,-194.78 267.5,-187.75"/>
<polygon fill="midnightblue" stroke="midnightblue" points="264,-214.08 267.5,-224.08 271,-214.08 264,-214.08"/>
</g>
<!-- Node5 -->
<g id="node5" class="node">
<title>Node5</title>
<g id="a_node5"><a xlink:href="../../da/d6e/model_2all_8hpp.html" target="_top" xlink:title=" ">
<polygon fill="white" stroke="black" points="302,-112.5 302,-131.5 393,-131.5 393,-112.5 302,-112.5"/>
<text text-anchor="middle" x="347.5" y="-119.5" font-family="Helvetica,sans-Serif" font-size="10.00">src/model/all.hpp</text>
</a>
</g>
</g>
<!-- Node4&#45;&gt;Node5 -->
<g id="edge4" class="edge">
<title>Node4&#45;&gt;Node5</title>
<path fill="none" stroke="midnightblue" d="M406.93,-162.62C392.14,-152.76 372.99,-139.99 360.48,-131.65"/>
<polygon fill="midnightblue" stroke="midnightblue" points="405.22,-165.69 415.49,-168.32 409.11,-159.86 405.22,-165.69"/>
</g>
<!-- Node6 -->
<g id="node6" class="node">
<title>Node6</title>
<g id="a_node6"><a xlink:href="../../d3/df6/exact__diag_8hpp.html" target="_top" xlink:title=" ">
<polygon fill="white" stroke="black" points="283.5,-56.5 283.5,-75.5 411.5,-75.5 411.5,-56.5 283.5,-56.5"/>
<text text-anchor="middle" x="347.5" y="-63.5" font-family="Helvetica,sans-Serif" font-size="10.00">src/solver/exact_diag.hpp</text>
</a>
</g>
</g>
<!-- Node5&#45;&gt;Node6 -->
<g id="edge5" class="edge">
<title>Node5&#45;&gt;Node6</title>
<path fill="none" stroke="midnightblue" d="M347.5,-101.8C347.5,-92.91 347.5,-82.78 347.5,-75.75"/>
<polygon fill="midnightblue" stroke="midnightblue" points="344,-102.08 347.5,-112.08 351,-102.08 344,-102.08"/>
</g>
<!-- Node7 -->
<g id="node7" class="node">
<title>Node7</title>
<g id="a_node7"><a xlink:href="../../d5/d21/solver_2all_8hpp.html" target="_top" xlink:title=" ">
<polygon fill="white" stroke="black" points="302,-0.5 302,-19.5 393,-19.5 393,-0.5 302,-0.5"/>
<text text-anchor="middle" x="347.5" y="-7.5" font-family="Helvetica,sans-Serif" font-size="10.00">src/solver/all.hpp</text>
</a>
</g>
</g>
<!-- Node6&#45;&gt;Node7 -->
<g id="edge6" class="edge">
<title>Node6&#45;&gt;Node7</title>
<path fill="none" stroke="midnightblue" d="M347.5,-45.8C347.5,-36.91 347.5,-26.78 347.5,-19.75"/>
<polygon fill="midnightblue" stroke="midnightblue" points="344,-46.08 347.5,-56.08 351,-46.08 344,-46.08"/>
</g>
<!-- Node8&#45;&gt;Node5 -->
<g id="edge8" class="edge">
<title>Node8&#45;&gt;Node5</title>
<path fill="none" stroke="midnightblue" d="M288.8,-162.62C303.42,-152.76 322.33,-139.99 334.68,-131.65"/>
<polygon fill="midnightblue" stroke="midnightblue" points="286.68,-159.83 280.35,-168.32 290.6,-165.63 286.68,-159.83"/>
</g>
<!-- Node9&#45;&gt;Node3 -->
<g id="edge10" class="edge">
<title>Node9&#45;&gt;Node3</title>
<path fill="none" stroke="midnightblue" d="M116.21,-282.88C152.76,-271.32 207.97,-253.84 240.61,-243.51"/>
<polygon fill="midnightblue" stroke="midnightblue" points="114.91,-279.62 106.44,-285.98 117.03,-286.29 114.91,-279.62"/>
</g>
<!-- Node10&#45;&gt;Node3 -->
<g id="edge12" class="edge">
<title>Node10&#45;&gt;Node3</title>
<path fill="none" stroke="midnightblue" d="M272.25,-341.68C262.02,-333.99 251.07,-323.5 245.5,-311 235.11,-287.66 251.43,-258.12 261.13,-243.7"/>
<polygon fill="midnightblue" stroke="midnightblue" points="270.34,-344.62 280.55,-347.47 274.35,-338.88 270.34,-344.62"/>
</g>
<!-- Node11&#45;&gt;Node3 -->
<g id="edge14" class="edge">
<title>Node11&#45;&gt;Node3</title>
<path fill="none" stroke="midnightblue" d="M169.65,-339.77C193.93,-313.78 240.71,-263.69 259.45,-243.62"/>
<polygon fill="midnightblue" stroke="midnightblue" points="166.89,-337.6 162.63,-347.3 172.01,-342.38 166.89,-337.6"/>
</g>
<!-- Node11&#45;&gt;Node9 -->
<g id="edge15" class="edge">
<title>Node11&#45;&gt;Node9</title>
<path fill="none" stroke="midnightblue" d="M135.56,-340.97C121.21,-329.59 102.02,-314.37 90.23,-305.01"/>
<polygon fill="midnightblue" stroke="midnightblue" points="133.74,-344 143.75,-347.48 138.1,-338.52 133.74,-344"/>
</g>
<!-- Node12&#45;&gt;Node3 -->
<g id="edge17" class="edge">
<title>Node12&#45;&gt;Node3</title>
<path fill="none" stroke="midnightblue" d="M294.31,-272.1C287.15,-262.19 279.14,-251.11 273.76,-243.66"/>
<polygon fill="midnightblue" stroke="midnightblue" points="291.62,-274.34 300.31,-280.4 297.29,-270.24 291.62,-274.34"/>
</g>
<!-- Node13&#45;&gt;Node4 -->
<g id="edge19" class="edge">
<title>Node13&#45;&gt;Node4</title>
<path fill="none" stroke="midnightblue" d="M455.8,-215.86C448.87,-206.5 440.59,-195.33 434.98,-187.75"/>
<polygon fill="midnightblue" stroke="midnightblue" points="453.13,-218.13 461.89,-224.08 458.75,-213.96 453.13,-218.13"/>
</g>
</g>
</svg>
