<?xml version="1.0" encoding="UTF-8" standalone="no"?>
<!DOCTYPE svg PUBLIC "-//W3C//DTD SVG 1.1//EN"
 "http://www.w3.org/Graphics/SVG/1.1/DTD/svg11.dtd">
<!-- Generated by graphviz version 2.50.0 (20211204.2007)
 -->
<!-- Title: src/model/all.hpp Pages: 1 -->
<svg width="1690pt" height="453pt"
 viewBox="0.00 0.00 1690.00 453.00" xmlns="http://www.w3.org/2000/svg" xmlns:xlink="http://www.w3.org/1999/xlink">
<g id="graph0" class="graph" transform="scale(1 1) rotate(0) translate(4 449)">
<title>src/model/all.hpp</title>
<polygon fill="white" stroke="transparent" points="-4,4 -4,-449 1686,-449 1686,4 -4,4"/>
<!-- Node1 -->
<g id="node1" class="node">
<title>Node1</title>
<g id="a_node1"><a xlink:title=" ">
<polygon fill="#bfbfbf" stroke="black" points="340,-425.5 340,-444.5 431,-444.5 431,-425.5 340,-425.5"/>
<text text-anchor="middle" x="385.5" y="-432.5" font-family="Helvetica,sans-Serif" font-size="10.00">src/model/all.hpp</text>
</a>
</g>
</g>
<!-- Node2 -->
<g id="node2" class="node">
<title>Node2</title>
<g id="a_node2"><a xlink:href="../../db/d1c/xxz__1d_8hpp.html" target="_top" xlink:title=" ">
<polygon fill="white" stroke="black" points="65,-369.5 65,-388.5 132,-388.5 132,-369.5 65,-369.5"/>
<text text-anchor="middle" x="98.5" y="-376.5" font-family="Helvetica,sans-Serif" font-size="10.00">xxz_1d.hpp</text>
</a>
</g>
</g>
<!-- Node1&#45;&gt;Node2 -->
<g id="edge1" class="edge">
<title>Node1&#45;&gt;Node2</title>
<path fill="none" stroke="midnightblue" d="M339.57,-425.87C292.58,-417.47 217.22,-403.8 142.36,-389.13"/>
<polygon fill="midnightblue" stroke="midnightblue" points="142.77,-385.65 132.29,-387.15 141.42,-392.51 142.77,-385.65"/>
</g>
<!-- Node6 -->
<g id="node6" class="node">
<title>Node6</title>
<g id="a_node6"><a xlink:href="../../d9/de5/hubbard__1d_8hpp.html" target="_top" xlink:title=" ">
<polygon fill="white" stroke="black" points="150.5,-369.5 150.5,-388.5 236.5,-388.5 236.5,-369.5 150.5,-369.5"/>
<text text-anchor="middle" x="193.5" y="-376.5" font-family="Helvetica,sans-Serif" font-size="10.00">hubbard_1d.hpp</text>
</a>
</g>
</g>
<!-- Node1&#45;&gt;Node6 -->
<g id="edge5" class="edge">
<title>Node1&#45;&gt;Node6</title>
<path fill="none" stroke="midnightblue" d="M355.08,-425.44C322.22,-416.2 269.72,-401.44 233.53,-391.26"/>
<polygon fill="midnightblue" stroke="midnightblue" points="234.35,-387.85 223.78,-388.52 232.46,-394.59 234.35,-387.85"/>
</g>
<!-- Node7 -->
<g id="node7" class="node">
<title>Node7</title>
<g id="a_node7"><a xlink:href="../../d4/d22/base__u1__electron__1d_8hpp.html" target="_top" xlink:title=" ">
<polygon fill="white" stroke="black" points="179,-235.5 179,-265.5 278,-265.5 278,-235.5 179,-235.5"/>
<text text-anchor="start" x="187" y="-253.5" font-family="Helvetica,sans-Serif" font-size="10.00">./base_u1_electron</text>
<text text-anchor="middle" x="228.5" y="-242.5" font-family="Helvetica,sans-Serif" font-size="10.00">_1d.hpp</text>
</a>
</g>
</g>
<!-- Node1&#45;&gt;Node7 -->
<g id="edge70" class="edge">
<title>Node1&#45;&gt;Node7</title>
<path fill="none" stroke="midnightblue" d="M375.58,-425.39C356.58,-408.63 314.19,-370.03 283.5,-333 267.97,-314.26 252.68,-291.11 242.17,-274.28"/>
<polygon fill="midnightblue" stroke="midnightblue" points="245.08,-272.33 236.86,-265.64 239.12,-276 245.08,-272.33"/>
</g>
<!-- Node20 -->
<g id="node20" class="node">
<title>Node20</title>
<g id="a_node20"><a xlink:href="../../d0/df4/kondo__lattice__1d_8hpp.html" target="_top" xlink:title=" ">
<polygon fill="white" stroke="black" points="373,-369.5 373,-388.5 482,-388.5 482,-369.5 373,-369.5"/>
<text text-anchor="middle" x="427.5" y="-376.5" font-family="Helvetica,sans-Serif" font-size="10.00">kondo_lattice_1d.hpp</text>
</a>
</g>
</g>
<!-- Node1&#45;&gt;Node20 -->
<g id="edge22" class="edge">
<title>Node1&#45;&gt;Node20</title>
<path fill="none" stroke="midnightblue" d="M392.44,-425.08C398.43,-417.38 407.25,-406.03 414.55,-396.65"/>
<polygon fill="midnightblue" stroke="midnightblue" points="417.32,-398.79 420.69,-388.75 411.79,-394.5 417.32,-398.79"/>
</g>
<!-- Node21 -->
<g id="node21" class="node">
<title>Node21</title>
<g id="a_node21"><a xlink:href="../../d9/d57/base__u1__spin__electron__1d_8hpp.html" target="_top" xlink:title=" ">
<polygon fill="white" stroke="black" points="451.5,-302.5 451.5,-332.5 573.5,-332.5 573.5,-302.5 451.5,-302.5"/>
<text text-anchor="start" x="459.5" y="-320.5" font-family="Helvetica,sans-Serif" font-size="10.00">./base_u1_spin_electron</text>
<text text-anchor="middle" x="512.5" y="-309.5" font-family="Helvetica,sans-Serif" font-size="10.00">_1d.hpp</text>
</a>
</g>
</g>
<!-- Node1&#45;&gt;Node21 -->
<g id="edge78" class="edge">
<title>Node1&#45;&gt;Node21</title>
<path fill="none" stroke="midnightblue" d="M427.02,-425.42C448.98,-418.89 474.78,-407.71 491.5,-389 502.87,-376.28 508.09,-357.64 510.49,-342.72"/>
<polygon fill="midnightblue" stroke="midnightblue" points="513.98,-343.02 511.78,-332.65 507.03,-342.13 513.98,-343.02"/>
</g>
<!-- Node23 -->
<g id="node23" class="node">
<title>Node23</title>
<g id="a_node23"><a xlink:href="../../d9/d56/general__model_8hpp.html" target="_top" xlink:title=" ">
<polygon fill="white" stroke="black" points="653.5,-308 653.5,-327 751.5,-327 751.5,-308 653.5,-308"/>
<text text-anchor="middle" x="702.5" y="-315" font-family="Helvetica,sans-Serif" font-size="10.00">general_model.hpp</text>
</a>
</g>
</g>
<!-- Node1&#45;&gt;Node23 -->
<g id="edge31" class="edge">
<title>Node1&#45;&gt;Node23</title>
<path fill="none" stroke="midnightblue" d="M409.48,-425.42C434.66,-416.4 475.38,-401.77 510.5,-389 566.56,-368.62 631.72,-344.63 669.9,-330.54"/>
<polygon fill="midnightblue" stroke="midnightblue" points="671.3,-333.76 679.46,-327.01 668.87,-327.19 671.3,-333.76"/>
</g>
<!-- Node38 -->
<g id="node38" class="node">
<title>Node38</title>
<g id="a_node38"><a xlink:href="../../da/d72/base__u1__spin_8hpp.html" target="_top" xlink:title=" ">
<polygon fill="white" stroke="black" points="908,-308 908,-327 1003,-327 1003,-308 908,-308"/>
<text text-anchor="middle" x="955.5" y="-315" font-family="Helvetica,sans-Serif" font-size="10.00">base_u1_spin.hpp</text>
</a>
</g>
</g>
<!-- Node1&#45;&gt;Node38 -->
<g id="edge71" class="edge">
<title>Node1&#45;&gt;Node38</title>
<path fill="none" stroke="midnightblue" d="M427.88,-425.41C530.33,-404.65 791.25,-351.78 903.19,-329.1"/>
<polygon fill="midnightblue" stroke="midnightblue" points="904.13,-332.48 913.23,-327.06 902.74,-325.62 904.13,-332.48"/>
</g>
<!-- Node40 -->
<g id="node40" class="node">
<title>Node40</title>
<g id="a_node40"><a xlink:href="../../dc/d0c/base__u1__spin__multi__electrons__1d_8hpp.html" target="_top" xlink:title=" ">
<polygon fill="white" stroke="black" points="293,-302.5 293,-332.5 396,-332.5 396,-302.5 293,-302.5"/>
<text text-anchor="start" x="301" y="-320.5" font-family="Helvetica,sans-Serif" font-size="10.00">base_u1_spin_multi</text>
<text text-anchor="middle" x="344.5" y="-309.5" font-family="Helvetica,sans-Serif" font-size="10.00">_electrons_1d.hpp</text>
</a>
</g>
</g>
<!-- Node1&#45;&gt;Node40 -->
<g id="edge79" class="edge">
<title>Node1&#45;&gt;Node40</title>
<path fill="none" stroke="midnightblue" d="M380.89,-425.22C376.31,-416.27 369.31,-401.93 364.5,-389 358.84,-373.8 353.86,-356.25 350.28,-342.47"/>
<polygon fill="midnightblue" stroke="midnightblue" points="353.67,-341.6 347.83,-332.76 346.88,-343.31 353.67,-341.6"/>
</g>
<!-- Node3 -->
<g id="node3" class="node">
<title>Node3</title>
<g id="a_node3"><a xlink:href="../../dd/da9/model_2utility_8hpp.html" target="_top" xlink:title=" ">
<polygon fill="white" stroke="black" points="135,-308 135,-327 198,-327 198,-308 135,-308"/>
<text text-anchor="middle" x="166.5" y="-315" font-family="Helvetica,sans-Serif" font-size="10.00">./utility.hpp</text>
</a>
</g>
</g>
<!-- Node2&#45;&gt;Node3 -->
<g id="edge2" class="edge">
<title>Node2&#45;&gt;Node3</title>
<path fill="none" stroke="midnightblue" d="M108.24,-369.48C118.85,-360.2 136.02,-345.17 148.98,-333.83"/>
<polygon fill="midnightblue" stroke="midnightblue" points="151.55,-336.23 156.78,-327.01 146.94,-330.96 151.55,-336.23"/>
</g>
<!-- Node5 -->
<g id="node5" class="node">
<title>Node5</title>
<g id="a_node5"><a xlink:title=" ">
<polygon fill="white" stroke="#bfbfbf" points="0,-308 0,-327 117,-327 117,-308 0,-308"/>
<text text-anchor="middle" x="58.5" y="-315" font-family="Helvetica,sans-Serif" font-size="10.00">./base_u1_spin_1d.hpp</text>
</a>
</g>
</g>
<!-- Node2&#45;&gt;Node5 -->
<g id="edge4" class="edge">
<title>Node2&#45;&gt;Node5</title>
<path fill="none" stroke="midnightblue" d="M92.77,-369.48C86.83,-360.64 77.38,-346.59 69.91,-335.48"/>
<polygon fill="midnightblue" stroke="midnightblue" points="72.7,-333.36 64.22,-327.01 66.89,-337.26 72.7,-333.36"/>
</g>
<!-- Node4 -->
<g id="node4" class="node">
<title>Node4</title>
<g id="a_node4"><a xlink:title=" ">
<polygon fill="white" stroke="#bfbfbf" points="835.5,-0.5 835.5,-19.5 879.5,-19.5 879.5,-0.5 835.5,-0.5"/>
<text text-anchor="middle" x="857.5" y="-7.5" font-family="Helvetica,sans-Serif" font-size="10.00">cmath</text>
</a>
</g>
</g>
<!-- Node3&#45;&gt;Node4 -->
<g id="edge3" class="edge">
<title>Node3&#45;&gt;Node4</title>
<path fill="none" stroke="midnightblue" d="M154.09,-307.96C128.98,-289.57 74.5,-243.5 74.5,-190 74.5,-190 74.5,-190 74.5,-132 74.5,-15.87 210.31,-77.17 324.5,-56 541.21,-15.81 604.47,-58.13 825.33,-19.82"/>
<polygon fill="midnightblue" stroke="midnightblue" points="826.05,-23.25 835.28,-18.06 824.83,-16.36 826.05,-23.25"/>
</g>
<!-- Node6&#45;&gt;Node3 -->
<g id="edge6" class="edge">
<title>Node6&#45;&gt;Node3</title>
<path fill="none" stroke="midnightblue" d="M189.63,-369.48C185.7,-360.82 179.5,-347.15 174.51,-336.15"/>
<polygon fill="midnightblue" stroke="midnightblue" points="177.68,-334.67 170.36,-327.01 171.31,-337.56 177.68,-334.67"/>
</g>
<!-- Node6&#45;&gt;Node7 -->
<g id="edge7" class="edge">
<title>Node6&#45;&gt;Node7</title>
<path fill="none" stroke="midnightblue" d="M196.04,-369.39C198.69,-360.34 202.96,-345.69 206.5,-333 211.9,-313.66 217.82,-291.68 222.16,-275.43"/>
<polygon fill="midnightblue" stroke="midnightblue" points="225.57,-276.22 224.76,-265.66 218.81,-274.42 225.57,-276.22"/>
</g>
<!-- Node8 -->
<g id="node8" class="node">
<title>Node8</title>
<g id="a_node8"><a xlink:title=" ">
<polygon fill="white" stroke="#bfbfbf" points="257,-179.5 257,-198.5 376,-198.5 376,-179.5 257,-179.5"/>
<text text-anchor="middle" x="316.5" y="-186.5" font-family="Helvetica,sans-Serif" font-size="10.00">../sparse_matrix/all.hpp</text>
</a>
</g>
</g>
<!-- Node7&#45;&gt;Node8 -->
<g id="edge8" class="edge">
<title>Node7&#45;&gt;Node8</title>
<path fill="none" stroke="midnightblue" d="M249.35,-235.4C263.2,-226.04 281.31,-213.79 295.24,-204.38"/>
<polygon fill="midnightblue" stroke="midnightblue" points="297.37,-207.16 303.7,-198.66 293.45,-201.36 297.37,-207.16"/>
</g>
<!-- Node9 -->
<g id="node9" class="node">
<title>Node9</title>
<g id="a_node9"><a xlink:href="../../d5/d8a/utility_2all_8hpp.html" target="_top" xlink:title=" ">
<polygon fill="white" stroke="black" points="632.5,-179.5 632.5,-198.5 712.5,-198.5 712.5,-179.5 632.5,-179.5"/>
<text text-anchor="middle" x="672.5" y="-186.5" font-family="Helvetica,sans-Serif" font-size="10.00">../utility/all.hpp</text>
</a>
</g>
</g>
<!-- Node7&#45;&gt;Node9 -->
<g id="edge9" class="edge">
<title>Node7&#45;&gt;Node9</title>
<path fill="none" stroke="midnightblue" d="M278.03,-242.35C294.7,-239.98 313.4,-237.34 330.5,-235 434.13,-220.82 555.55,-205.04 622.24,-196.45"/>
<polygon fill="midnightblue" stroke="midnightblue" points="623,-199.88 632.47,-195.13 622.1,-192.94 623,-199.88"/>
</g>
<!-- Node14 -->
<g id="node14" class="node">
<title>Node14</title>
<g id="a_node14"><a xlink:title=" ">
<polygon fill="white" stroke="#bfbfbf" points="333,-62 333,-81 416,-81 416,-62 333,-62"/>
<text text-anchor="middle" x="374.5" y="-69" font-family="Helvetica,sans-Serif" font-size="10.00">unordered_map</text>
</a>
</g>
</g>
<!-- Node7&#45;&gt;Node14 -->
<g id="edge20" class="edge">
<title>Node7&#45;&gt;Node14</title>
<path fill="none" stroke="midnightblue" d="M229.8,-235.24C231.72,-220.24 236.38,-196.42 247.5,-179 273.9,-137.63 321.49,-104.12 350.32,-86.35"/>
<polygon fill="midnightblue" stroke="midnightblue" points="352.21,-89.3 358.97,-81.15 348.6,-83.3 352.21,-89.3"/>
</g>
<!-- Node19 -->
<g id="node19" class="node">
<title>Node19</title>
<g id="a_node19"><a xlink:title=" ">
<polygon fill="white" stroke="#bfbfbf" points="446.5,-179.5 446.5,-198.5 524.5,-198.5 524.5,-179.5 446.5,-179.5"/>
<text text-anchor="middle" x="485.5" y="-186.5" font-family="Helvetica,sans-Serif" font-size="10.00">unordered_set</text>
</a>
</g>
</g>
<!-- Node7&#45;&gt;Node19 -->
<g id="edge21" class="edge">
<title>Node7&#45;&gt;Node19</title>
<path fill="none" stroke="midnightblue" d="M278.05,-238.03C324.43,-227.29 393.21,-211.37 438.68,-200.84"/>
<polygon fill="midnightblue" stroke="midnightblue" points="439.62,-204.21 448.58,-198.55 438.04,-197.39 439.62,-204.21"/>
</g>
<!-- Node10 -->
<g id="node10" class="node">
<title>Node10</title>
<g id="a_node10"><a xlink:href="../../d0/dad/integer_8hpp.html" target="_top" xlink:title=" ">
<polygon fill="white" stroke="black" points="632.5,-123.5 632.5,-142.5 696.5,-142.5 696.5,-123.5 632.5,-123.5"/>
<text text-anchor="middle" x="664.5" y="-130.5" font-family="Helvetica,sans-Serif" font-size="10.00">integer.hpp</text>
</a>
</g>
</g>
<!-- Node9&#45;&gt;Node10 -->
<g id="edge10" class="edge">
<title>Node9&#45;&gt;Node10</title>
<path fill="none" stroke="midnightblue" d="M671.18,-179.08C670.12,-171.93 668.59,-161.64 667.27,-152.69"/>
<polygon fill="midnightblue" stroke="midnightblue" points="670.72,-152.13 665.8,-142.75 663.8,-153.16 670.72,-152.13"/>
</g>
<!-- Node15 -->
<g id="node15" class="node">
<title>Node15</title>
<g id="a_node15"><a xlink:href="../../d9/d04/hash_8hpp.html" target="_top" xlink:title=" ">
<polygon fill="white" stroke="black" points="760.5,-123.5 760.5,-142.5 816.5,-142.5 816.5,-123.5 760.5,-123.5"/>
<text text-anchor="middle" x="788.5" y="-130.5" font-family="Helvetica,sans-Serif" font-size="10.00">hash.hpp</text>
</a>
</g>
</g>
<!-- Node9&#45;&gt;Node15 -->
<g id="edge15" class="edge">
<title>Node9&#45;&gt;Node15</title>
<path fill="none" stroke="midnightblue" d="M690.88,-179.44C709.72,-170.68 739.23,-156.94 760.88,-146.86"/>
<polygon fill="midnightblue" stroke="midnightblue" points="762.62,-149.91 770.21,-142.52 759.66,-143.56 762.62,-149.91"/>
</g>
<!-- Node11 -->
<g id="node11" class="node">
<title>Node11</title>
<g id="a_node11"><a xlink:title=" ">
<polygon fill="white" stroke="#bfbfbf" points="1231.5,-0.5 1231.5,-19.5 1283.5,-19.5 1283.5,-0.5 1231.5,-0.5"/>
<text text-anchor="middle" x="1257.5" y="-7.5" font-family="Helvetica,sans-Serif" font-size="10.00">sstream</text>
</a>
</g>
</g>
<!-- Node10&#45;&gt;Node11 -->
<g id="edge11" class="edge">
<title>Node10&#45;&gt;Node11</title>
<path fill="none" stroke="midnightblue" d="M665.78,-123.09C668.67,-106.65 677.34,-71.8 700.5,-56 794.02,7.8 1091.46,-36.1 1221.08,-19.77"/>
<polygon fill="midnightblue" stroke="midnightblue" points="1221.84,-23.19 1231.24,-18.3 1220.84,-16.26 1221.84,-23.19"/>
</g>
<!-- Node12 -->
<g id="node12" class="node">
<title>Node12</title>
<g id="a_node12"><a xlink:title=" ">
<polygon fill="white" stroke="#bfbfbf" points="983.5,-0.5 983.5,-19.5 1027.5,-19.5 1027.5,-0.5 983.5,-0.5"/>
<text text-anchor="middle" x="1005.5" y="-7.5" font-family="Helvetica,sans-Serif" font-size="10.00">vector</text>
</a>
</g>
</g>
<!-- Node10&#45;&gt;Node12 -->
<g id="edge12" class="edge">
<title>Node10&#45;&gt;Node12</title>
<path fill="none" stroke="midnightblue" d="M661.7,-123.39C657.2,-107.77 650.51,-74.64 667.5,-56 677.78,-44.72 890.81,-22.41 973.28,-14.16"/>
<polygon fill="midnightblue" stroke="midnightblue" points="973.74,-17.64 983.35,-13.16 973.05,-10.67 973.74,-17.64"/>
</g>
<!-- Node13 -->
<g id="node13" class="node">
<title>Node13</title>
<g id="a_node13"><a xlink:title=" ">
<polygon fill="white" stroke="#bfbfbf" points="580,-62 580,-81 615,-81 615,-62 580,-62"/>
<text text-anchor="middle" x="597.5" y="-69" font-family="Helvetica,sans-Serif" font-size="10.00">map</text>
</a>
</g>
</g>
<!-- Node10&#45;&gt;Node13 -->
<g id="edge13" class="edge">
<title>Node10&#45;&gt;Node13</title>
<path fill="none" stroke="midnightblue" d="M654.9,-123.48C644.45,-114.2 627.53,-99.17 614.76,-87.83"/>
<polygon fill="midnightblue" stroke="midnightblue" points="616.88,-85.03 607.08,-81.01 612.23,-90.27 616.88,-85.03"/>
</g>
<!-- Node10&#45;&gt;Node14 -->
<g id="edge14" class="edge">
<title>Node10&#45;&gt;Node14</title>
<path fill="none" stroke="midnightblue" d="M632.36,-125.41C582.45,-115.17 485.86,-95.35 426.11,-83.09"/>
<polygon fill="midnightblue" stroke="midnightblue" points="426.62,-79.62 416.12,-81.04 425.21,-86.48 426.62,-79.62"/>
</g>
<!-- Node16 -->
<g id="node16" class="node">
<title>Node16</title>
<g id="a_node16"><a xlink:href="../../db/dd6/half__int_8hpp.html" target="_top" xlink:title=" ">
<polygon fill="white" stroke="black" points="773.5,-62 773.5,-81 871.5,-81 871.5,-62 773.5,-62"/>
<text text-anchor="middle" x="822.5" y="-69" font-family="Helvetica,sans-Serif" font-size="10.00">../type/half_int.hpp</text>
</a>
</g>
</g>
<!-- Node15&#45;&gt;Node16 -->
<g id="edge16" class="edge">
<title>Node15&#45;&gt;Node16</title>
<path fill="none" stroke="midnightblue" d="M793.37,-123.48C798.37,-114.73 806.29,-100.87 812.61,-89.81"/>
<polygon fill="midnightblue" stroke="midnightblue" points="815.72,-91.43 817.64,-81.01 809.64,-87.96 815.72,-91.43"/>
</g>
<!-- Node18 -->
<g id="node18" class="node">
<title>Node18</title>
<g id="a_node18"><a xlink:title=" ">
<polygon fill="white" stroke="#bfbfbf" points="709.5,-62 709.5,-81 755.5,-81 755.5,-62 709.5,-62"/>
<text text-anchor="middle" x="732.5" y="-69" font-family="Helvetica,sans-Serif" font-size="10.00">variant</text>
</a>
</g>
</g>
<!-- Node15&#45;&gt;Node18 -->
<g id="edge19" class="edge">
<title>Node15&#45;&gt;Node18</title>
<path fill="none" stroke="midnightblue" d="M780.48,-123.48C771.91,-114.37 758.14,-99.74 747.54,-88.48"/>
<polygon fill="midnightblue" stroke="midnightblue" points="749.91,-85.89 740.51,-81.01 744.81,-90.69 749.91,-85.89"/>
</g>
<!-- Node16&#45;&gt;Node4 -->
<g id="edge17" class="edge">
<title>Node16&#45;&gt;Node4</title>
<path fill="none" stroke="midnightblue" d="M827.51,-61.98C832.66,-53.23 840.81,-39.37 847.32,-28.31"/>
<polygon fill="midnightblue" stroke="midnightblue" points="850.44,-29.9 852.49,-19.51 844.41,-26.35 850.44,-29.9"/>
</g>
<!-- Node17 -->
<g id="node17" class="node">
<title>Node17</title>
<g id="a_node17"><a xlink:title=" ">
<polygon fill="white" stroke="#bfbfbf" points="758,-0.5 758,-19.5 817,-19.5 817,-0.5 758,-0.5"/>
<text text-anchor="middle" x="787.5" y="-7.5" font-family="Helvetica,sans-Serif" font-size="10.00">stdexcept</text>
</a>
</g>
</g>
<!-- Node16&#45;&gt;Node17 -->
<g id="edge18" class="edge">
<title>Node16&#45;&gt;Node17</title>
<path fill="none" stroke="midnightblue" d="M817.49,-61.98C812.34,-53.23 804.19,-39.37 797.68,-28.31"/>
<polygon fill="midnightblue" stroke="midnightblue" points="800.59,-26.35 792.51,-19.51 794.56,-29.9 800.59,-26.35"/>
</g>
<!-- Node20&#45;&gt;Node3 -->
<g id="edge23" class="edge">
<title>Node20&#45;&gt;Node3</title>
<path fill="none" stroke="midnightblue" d="M390.11,-369.48C341.84,-358.47 258.12,-339.39 207.96,-327.95"/>
<polygon fill="midnightblue" stroke="midnightblue" points="208.62,-324.51 198.09,-325.7 207.06,-331.34 208.62,-324.51"/>
</g>
<!-- Node20&#45;&gt;Node21 -->
<g id="edge24" class="edge">
<title>Node20&#45;&gt;Node21</title>
<path fill="none" stroke="midnightblue" d="M439.68,-369.48C451.19,-361.42 468.9,-349.02 483.97,-338.47"/>
<polygon fill="midnightblue" stroke="midnightblue" points="486.28,-341.12 492.47,-332.52 482.27,-335.39 486.28,-341.12"/>
</g>
<!-- Node21&#45;&gt;Node7 -->
<g id="edge28" class="edge">
<title>Node21&#45;&gt;Node7</title>
<path fill="none" stroke="midnightblue" d="M451.23,-302.48C402.97,-291.43 336.08,-276.12 288.23,-265.17"/>
<polygon fill="midnightblue" stroke="midnightblue" points="288.85,-261.72 278.32,-262.9 287.29,-268.55 288.85,-261.72"/>
</g>
<!-- Node21&#45;&gt;Node8 -->
<g id="edge25" class="edge">
<title>Node21&#45;&gt;Node8</title>
<path fill="none" stroke="midnightblue" d="M513.35,-302.33C513.61,-284.22 511.2,-253.05 493.5,-235 478.31,-219.51 428.79,-207.72 385.97,-200.1"/>
<polygon fill="midnightblue" stroke="midnightblue" points="386.56,-196.65 376.11,-198.4 385.37,-203.55 386.56,-196.65"/>
</g>
<!-- Node21&#45;&gt;Node9 -->
<g id="edge26" class="edge">
<title>Node21&#45;&gt;Node9</title>
<path fill="none" stroke="midnightblue" d="M573.53,-303.25C596.86,-295.62 622.22,-283.87 640.5,-266 656.46,-250.4 664.84,-225.63 668.97,-208.63"/>
<polygon fill="midnightblue" stroke="midnightblue" points="672.41,-209.27 671.09,-198.76 665.57,-207.8 672.41,-209.27"/>
</g>
<!-- Node21&#45;&gt;Node14 -->
<g id="edge29" class="edge">
<title>Node21&#45;&gt;Node14</title>
<path fill="none" stroke="midnightblue" d="M523.31,-302.37C529.99,-292.71 537.96,-279.29 541.5,-266 551.51,-228.48 554.17,-211.87 533.5,-179 503.87,-131.88 444.93,-100.82 407.73,-84.98"/>
<polygon fill="midnightblue" stroke="midnightblue" points="408.89,-81.68 398.31,-81.1 406.22,-88.15 408.89,-81.68"/>
</g>
<!-- Node21&#45;&gt;Node19 -->
<g id="edge30" class="edge">
<title>Node21&#45;&gt;Node19</title>
<path fill="none" stroke="midnightblue" d="M519.29,-302.5C526.35,-285.9 535.26,-257.63 526.5,-235 522.05,-223.5 513.13,-213.13 504.75,-205.25"/>
<polygon fill="midnightblue" stroke="midnightblue" points="506.87,-202.46 497.04,-198.51 502.26,-207.73 506.87,-202.46"/>
</g>
<!-- Node22 -->
<g id="node22" class="node">
<title>Node22</title>
<g id="a_node22"><a xlink:title=" ">
<polygon fill="white" stroke="#bfbfbf" points="373,-241 373,-260 484,-260 484,-241 373,-241"/>
<text text-anchor="middle" x="428.5" y="-248" font-family="Helvetica,sans-Serif" font-size="10.00">base_u1_spin_1d.hpp</text>
</a>
</g>
</g>
<!-- Node21&#45;&gt;Node22 -->
<g id="edge27" class="edge">
<title>Node21&#45;&gt;Node22</title>
<path fill="none" stroke="midnightblue" d="M494.27,-302.4C480.53,-291.76 461.72,-277.2 447.73,-266.38"/>
<polygon fill="midnightblue" stroke="midnightblue" points="449.79,-263.55 439.74,-260.19 445.5,-269.08 449.79,-263.55"/>
</g>
<!-- Node23&#45;&gt;Node9 -->
<g id="edge67" class="edge">
<title>Node23&#45;&gt;Node9</title>
<path fill="none" stroke="midnightblue" d="M700.44,-307.81C695.62,-287.49 683.54,-236.55 676.95,-208.78"/>
<polygon fill="midnightblue" stroke="midnightblue" points="680.29,-207.68 674.58,-198.76 673.48,-209.29 680.29,-207.68"/>
</g>
<!-- Node23&#45;&gt;Node18 -->
<g id="edge68" class="edge">
<title>Node23&#45;&gt;Node18</title>
<path fill="none" stroke="midnightblue" d="M704.1,-307.98C707.68,-288.66 716.41,-240.01 721.5,-199 726.24,-160.85 729.62,-115.98 731.3,-91.24"/>
<polygon fill="midnightblue" stroke="midnightblue" points="734.81,-91.32 731.97,-81.11 727.82,-90.86 734.81,-91.32"/>
</g>
<!-- Node23&#45;&gt;Node19 -->
<g id="edge69" class="edge">
<title>Node23&#45;&gt;Node19</title>
<path fill="none" stroke="midnightblue" d="M687.58,-307.81C650.49,-286.18 553.81,-229.82 508.97,-203.68"/>
<polygon fill="midnightblue" stroke="midnightblue" points="510.63,-200.6 500.23,-198.59 507.11,-206.65 510.63,-200.6"/>
</g>
<!-- Node24 -->
<g id="node24" class="node">
<title>Node24</title>
<g id="a_node24"><a xlink:href="../../dd/de6/blas_2all_8hpp.html" target="_top" xlink:title=" ">
<polygon fill="white" stroke="black" points="1123,-241 1123,-260 1198,-260 1198,-241 1123,-241"/>
<text text-anchor="middle" x="1160.5" y="-248" font-family="Helvetica,sans-Serif" font-size="10.00">../blas/all.hpp</text>
</a>
</g>
</g>
<!-- Node23&#45;&gt;Node24 -->
<g id="edge32" class="edge">
<title>Node23&#45;&gt;Node24</title>
<path fill="none" stroke="midnightblue" d="M751.51,-309.54C840.08,-296.97 1025.69,-270.63 1113.08,-258.23"/>
<polygon fill="midnightblue" stroke="midnightblue" points="1113.57,-261.69 1122.98,-256.82 1112.59,-254.76 1113.57,-261.69"/>
</g>
<!-- Node25 -->
<g id="node25" class="node">
<title>Node25</title>
<g id="a_node25"><a xlink:href="../../df/d20/eigendecomposition_8hpp.html" target="_top" xlink:title=" ">
<polygon fill="white" stroke="black" points="1144.5,-179.5 1144.5,-198.5 1266.5,-198.5 1266.5,-179.5 1144.5,-179.5"/>
<text text-anchor="middle" x="1205.5" y="-186.5" font-family="Helvetica,sans-Serif" font-size="10.00">eigendecomposition.hpp</text>
</a>
</g>
</g>
<!-- Node24&#45;&gt;Node25 -->
<g id="edge33" class="edge">
<title>Node24&#45;&gt;Node25</title>
<path fill="none" stroke="midnightblue" d="M1166.95,-240.98C1173.7,-232.05 1184.47,-217.81 1192.91,-206.64"/>
<polygon fill="midnightblue" stroke="midnightblue" points="1195.82,-208.6 1199.06,-198.51 1190.24,-204.37 1195.82,-208.6"/>
</g>
<!-- Node32 -->
<g id="node32" class="node">
<title>Node32</title>
<g id="a_node32"><a xlink:href="../../df/dd2/lapack_8hpp.html" target="_top" xlink:title=" ">
<polygon fill="white" stroke="black" points="1500.5,-123.5 1500.5,-142.5 1564.5,-142.5 1564.5,-123.5 1500.5,-123.5"/>
<text text-anchor="middle" x="1532.5" y="-130.5" font-family="Helvetica,sans-Serif" font-size="10.00">lapack.hpp</text>
</a>
</g>
</g>
<!-- Node24&#45;&gt;Node32 -->
<g id="edge54" class="edge">
<title>Node24&#45;&gt;Node32</title>
<path fill="none" stroke="midnightblue" d="M1188.16,-240.91C1254.01,-220.47 1420.18,-168.87 1494.99,-145.65"/>
<polygon fill="midnightblue" stroke="midnightblue" points="1496.4,-148.87 1504.91,-142.56 1494.33,-142.19 1496.4,-148.87"/>
</g>
<!-- Node33 -->
<g id="node33" class="node">
<title>Node33</title>
<g id="a_node33"><a xlink:href="../../df/d88/orthonormalize_8hpp.html" target="_top" xlink:title=" ">
<polygon fill="white" stroke="black" points="1583,-123.5 1583,-142.5 1682,-142.5 1682,-123.5 1583,-123.5"/>
<text text-anchor="middle" x="1632.5" y="-130.5" font-family="Helvetica,sans-Serif" font-size="10.00">orthonormalize.hpp</text>
</a>
</g>
</g>
<!-- Node24&#45;&gt;Node33 -->
<g id="edge66" class="edge">
<title>Node24&#45;&gt;Node33</title>
<path fill="none" stroke="midnightblue" d="M1195.59,-240.91C1280,-220.26 1494.32,-167.81 1587.78,-144.94"/>
<polygon fill="midnightblue" stroke="midnightblue" points="1588.62,-148.34 1597.5,-142.56 1586.95,-141.54 1588.62,-148.34"/>
</g>
<!-- Node35 -->
<g id="node35" class="node">
<title>Node35</title>
<g id="a_node35"><a xlink:href="../../db/d59/matrix__vector__operation_8hpp.html" target="_top" xlink:title=" ">
<polygon fill="white" stroke="black" points="1046.5,-123.5 1046.5,-142.5 1186.5,-142.5 1186.5,-123.5 1046.5,-123.5"/>
<text text-anchor="middle" x="1116.5" y="-130.5" font-family="Helvetica,sans-Serif" font-size="10.00">matrix_vector_operation.hpp</text>
</a>
</g>
</g>
<!-- Node24&#45;&gt;Node35 -->
<g id="edge55" class="edge">
<title>Node24&#45;&gt;Node35</title>
<path fill="none" stroke="midnightblue" d="M1155.59,-240.77C1150.16,-230.87 1141.4,-214.13 1135.5,-199 1129.49,-183.6 1124.35,-165.5 1120.94,-152.32"/>
<polygon fill="midnightblue" stroke="midnightblue" points="1124.32,-151.42 1118.5,-142.57 1117.53,-153.12 1124.32,-151.42"/>
</g>
<!-- Node36 -->
<g id="node36" class="node">
<title>Node36</title>
<g id="a_node36"><a xlink:href="../../df/daf/conjugate__gradient_8hpp.html" target="_top" xlink:title=" ">
<polygon fill="white" stroke="black" points="911,-123.5 911,-142.5 1028,-142.5 1028,-123.5 911,-123.5"/>
<text text-anchor="middle" x="969.5" y="-130.5" font-family="Helvetica,sans-Serif" font-size="10.00">conjugate_gradient.hpp</text>
</a>
</g>
</g>
<!-- Node24&#45;&gt;Node36 -->
<g id="edge58" class="edge">
<title>Node24&#45;&gt;Node36</title>
<path fill="none" stroke="midnightblue" d="M1146.14,-240.82C1113.29,-220.95 1032.42,-172.05 992.52,-147.92"/>
<polygon fill="midnightblue" stroke="midnightblue" points="994.13,-144.8 983.76,-142.62 990.51,-150.79 994.13,-144.8"/>
</g>
<!-- Node37 -->
<g id="node37" class="node">
<title>Node37</title>
<g id="a_node37"><a xlink:href="../../de/d83/inverse__iteration_8hpp.html" target="_top" xlink:title=" ">
<polygon fill="white" stroke="black" points="1375,-123.5 1375,-142.5 1482,-142.5 1482,-123.5 1375,-123.5"/>
<text text-anchor="middle" x="1428.5" y="-130.5" font-family="Helvetica,sans-Serif" font-size="10.00">inverse_iteration.hpp</text>
</a>
</g>
</g>
<!-- Node24&#45;&gt;Node37 -->
<g id="edge63" class="edge">
<title>Node24&#45;&gt;Node37</title>
<path fill="none" stroke="midnightblue" d="M1180.5,-240.87C1203.49,-230.92 1242.32,-214 1275.5,-199 1294.71,-190.32 1299.19,-187.44 1318.5,-179 1344.74,-167.54 1374.84,-155.28 1396.92,-146.46"/>
<polygon fill="midnightblue" stroke="midnightblue" points="1398.46,-149.61 1406.46,-142.66 1395.87,-143.11 1398.46,-149.61"/>
</g>
<!-- Node25&#45;&gt;Node12 -->
<g id="edge52" class="edge">
<title>Node25&#45;&gt;Node12</title>
<path fill="none" stroke="midnightblue" d="M1144.26,-188.29C1062.54,-187.22 924.41,-179.82 892.5,-143 873.12,-120.63 888.81,-89.89 919.5,-56 934.1,-39.88 955.85,-28.57 973.82,-21.32"/>
<polygon fill="midnightblue" stroke="midnightblue" points="975.23,-24.53 983.34,-17.71 972.75,-17.99 975.23,-24.53"/>
</g>
<!-- Node26 -->
<g id="node26" class="node">
<title>Node26</title>
<g id="a_node26"><a xlink:href="../../d4/dc7/compressed__row__storage_8hpp.html" target="_top" xlink:title=" ">
<polygon fill="white" stroke="black" points="1248,-56.5 1248,-86.5 1349,-86.5 1349,-56.5 1248,-56.5"/>
<text text-anchor="start" x="1256" y="-74.5" font-family="Helvetica,sans-Serif" font-size="10.00">../type/compressed</text>
<text text-anchor="middle" x="1298.5" y="-63.5" font-family="Helvetica,sans-Serif" font-size="10.00">_row_storage.hpp</text>
</a>
</g>
</g>
<!-- Node25&#45;&gt;Node26 -->
<g id="edge34" class="edge">
<title>Node25&#45;&gt;Node26</title>
<path fill="none" stroke="midnightblue" d="M1266.7,-180.33C1289.67,-174.14 1313.56,-163 1327.5,-143 1337.81,-128.21 1328.93,-109.19 1318.37,-94.63"/>
<polygon fill="midnightblue" stroke="midnightblue" points="1321.02,-92.34 1312.08,-86.65 1315.52,-96.67 1321.02,-92.34"/>
</g>
<!-- Node30 -->
<g id="node30" class="node">
<title>Node30</title>
<g id="a_node30"><a xlink:href="../../d4/ddc/braket__vector_8hpp.html" target="_top" xlink:title=" ">
<polygon fill="white" stroke="black" points="1105,-62 1105,-81 1230,-81 1230,-62 1105,-62"/>
<text text-anchor="middle" x="1167.5" y="-69" font-family="Helvetica,sans-Serif" font-size="10.00">../type/braket_vector.hpp</text>
</a>
</g>
</g>
<!-- Node25&#45;&gt;Node30 -->
<g id="edge40" class="edge">
<title>Node25&#45;&gt;Node30</title>
<path fill="none" stroke="midnightblue" d="M1205.14,-179.36C1204.39,-166.68 1202.15,-142.45 1195.5,-123 1191.51,-111.33 1184.89,-99.22 1179.09,-89.78"/>
<polygon fill="midnightblue" stroke="midnightblue" points="1182.03,-87.88 1173.69,-81.35 1176.14,-91.66 1182.03,-87.88"/>
</g>
<!-- Node25&#45;&gt;Node32 -->
<g id="edge46" class="edge">
<title>Node25&#45;&gt;Node32</title>
<path fill="none" stroke="midnightblue" d="M1266.5,-179.49C1322.31,-171.45 1407.41,-158.58 1490.46,-143.11"/>
<polygon fill="midnightblue" stroke="midnightblue" points="1491.13,-146.54 1500.31,-141.26 1489.83,-139.66 1491.13,-146.54"/>
</g>
<!-- Node25&#45;&gt;Node33 -->
<g id="edge49" class="edge">
<title>Node25&#45;&gt;Node33</title>
<path fill="none" stroke="midnightblue" d="M1266.78,-181.07C1337.81,-172.91 1458.65,-158.64 1572.96,-143.04"/>
<polygon fill="midnightblue" stroke="midnightblue" points="1573.51,-146.49 1582.94,-141.67 1572.56,-139.56 1573.51,-146.49"/>
</g>
<!-- Node34 -->
<g id="node34" class="node">
<title>Node34</title>
<g id="a_node34"><a xlink:title=" ">
<polygon fill="white" stroke="#bfbfbf" points="928,-62 928,-81 977,-81 977,-62 928,-62"/>
<text text-anchor="middle" x="952.5" y="-69" font-family="Helvetica,sans-Serif" font-size="10.00">random</text>
</a>
</g>
</g>
<!-- Node25&#45;&gt;Node34 -->
<g id="edge53" class="edge">
<title>Node25&#45;&gt;Node34</title>
<path fill="none" stroke="midnightblue" d="M1144.18,-187.95C1064.82,-186.42 933.06,-178.44 902.5,-143 886.79,-124.79 910.35,-101.74 930.17,-87.06"/>
<polygon fill="midnightblue" stroke="midnightblue" points="932.42,-89.75 938.58,-81.13 928.39,-84.03 932.42,-89.75"/>
</g>
<!-- Node26&#45;&gt;Node11 -->
<g id="edge39" class="edge">
<title>Node26&#45;&gt;Node11</title>
<path fill="none" stroke="midnightblue" d="M1288.78,-56.4C1282.95,-47.93 1275.48,-37.1 1269.31,-28.14"/>
<polygon fill="midnightblue" stroke="midnightblue" points="1272.02,-25.91 1263.47,-19.66 1266.26,-29.88 1272.02,-25.91"/>
</g>
<!-- Node26&#45;&gt;Node12 -->
<g id="edge37" class="edge">
<title>Node26&#45;&gt;Node12</title>
<path fill="none" stroke="midnightblue" d="M1247.69,-57.84C1244.92,-57.2 1242.18,-56.59 1239.5,-56 1167.67,-40.28 1082.77,-24.69 1037.59,-16.64"/>
<polygon fill="midnightblue" stroke="midnightblue" points="1037.97,-13.15 1027.51,-14.85 1036.75,-20.04 1037.97,-13.15"/>
</g>
<!-- Node27 -->
<g id="node27" class="node">
<title>Node27</title>
<g id="a_node27"><a xlink:title=" ">
<polygon fill="white" stroke="#bfbfbf" points="1159.5,-0.5 1159.5,-19.5 1213.5,-19.5 1213.5,-0.5 1159.5,-0.5"/>
<text text-anchor="middle" x="1186.5" y="-7.5" font-family="Helvetica,sans-Serif" font-size="10.00">iostream</text>
</a>
</g>
</g>
<!-- Node26&#45;&gt;Node27 -->
<g id="edge35" class="edge">
<title>Node26&#45;&gt;Node27</title>
<path fill="none" stroke="midnightblue" d="M1271.96,-56.4C1253.84,-46.77 1229.96,-34.09 1212.06,-24.58"/>
<polygon fill="midnightblue" stroke="midnightblue" points="1213.27,-21.26 1202.8,-19.66 1209.99,-27.44 1213.27,-21.26"/>
</g>
<!-- Node28 -->
<g id="node28" class="node">
<title>Node28</title>
<g id="a_node28"><a xlink:title=" ">
<polygon fill="white" stroke="#bfbfbf" points="1369.5,-0.5 1369.5,-19.5 1415.5,-19.5 1415.5,-0.5 1369.5,-0.5"/>
<text text-anchor="middle" x="1392.5" y="-7.5" font-family="Helvetica,sans-Serif" font-size="10.00">cstdint</text>
</a>
</g>
</g>
<!-- Node26&#45;&gt;Node28 -->
<g id="edge36" class="edge">
<title>Node26&#45;&gt;Node28</title>
<path fill="none" stroke="midnightblue" d="M1320.78,-56.4C1335.7,-46.95 1355.28,-34.56 1370.21,-25.11"/>
<polygon fill="midnightblue" stroke="midnightblue" points="1372.24,-27.96 1378.82,-19.66 1368.5,-22.05 1372.24,-27.96"/>
</g>
<!-- Node29 -->
<g id="node29" class="node">
<title>Node29</title>
<g id="a_node29"><a xlink:title=" ">
<polygon fill="white" stroke="#bfbfbf" points="1301.5,-0.5 1301.5,-19.5 1351.5,-19.5 1351.5,-0.5 1301.5,-0.5"/>
<text text-anchor="middle" x="1326.5" y="-7.5" font-family="Helvetica,sans-Serif" font-size="10.00">iomanip</text>
</a>
</g>
</g>
<!-- Node26&#45;&gt;Node29 -->
<g id="edge38" class="edge">
<title>Node26&#45;&gt;Node29</title>
<path fill="none" stroke="midnightblue" d="M1305.14,-56.4C1309.04,-48.11 1314,-37.55 1318.17,-28.71"/>
<polygon fill="midnightblue" stroke="midnightblue" points="1321.33,-30.2 1322.43,-19.66 1315,-27.22 1321.33,-30.2"/>
</g>
<!-- Node30&#45;&gt;Node4 -->
<g id="edge44" class="edge">
<title>Node30&#45;&gt;Node4</title>
<path fill="none" stroke="midnightblue" d="M1123.08,-61.98C1059.86,-49.84 945.41,-27.87 889.7,-17.18"/>
<polygon fill="midnightblue" stroke="midnightblue" points="890.17,-13.71 879.69,-15.26 888.85,-20.58 890.17,-13.71"/>
</g>
<!-- Node30&#45;&gt;Node11 -->
<g id="edge42" class="edge">
<title>Node30&#45;&gt;Node11</title>
<path fill="none" stroke="midnightblue" d="M1180.39,-61.98C1194.96,-52.34 1218.9,-36.52 1236.25,-25.05"/>
<polygon fill="midnightblue" stroke="midnightblue" points="1238.22,-27.94 1244.63,-19.51 1234.36,-22.1 1238.22,-27.94"/>
</g>
<!-- Node30&#45;&gt;Node12 -->
<g id="edge43" class="edge">
<title>Node30&#45;&gt;Node12</title>
<path fill="none" stroke="midnightblue" d="M1144.29,-61.98C1116.18,-51.65 1068.71,-34.22 1037.24,-22.66"/>
<polygon fill="midnightblue" stroke="midnightblue" points="1038.22,-19.29 1027.63,-19.13 1035.81,-25.86 1038.22,-19.29"/>
</g>
<!-- Node30&#45;&gt;Node27 -->
<g id="edge41" class="edge">
<title>Node30&#45;&gt;Node27</title>
<path fill="none" stroke="midnightblue" d="M1170.22,-61.98C1172.93,-53.49 1177.17,-40.2 1180.65,-29.32"/>
<polygon fill="midnightblue" stroke="midnightblue" points="1184.07,-30.1 1183.78,-19.51 1177.41,-27.97 1184.07,-30.1"/>
</g>
<!-- Node31 -->
<g id="node31" class="node">
<title>Node31</title>
<g id="a_node31"><a xlink:title=" ">
<polygon fill="white" stroke="#bfbfbf" points="1068,-0.5 1068,-19.5 1141,-19.5 1141,-0.5 1068,-0.5"/>
<text text-anchor="middle" x="1104.5" y="-7.5" font-family="Helvetica,sans-Serif" font-size="10.00">initializer_list</text>
</a>
</g>
</g>
<!-- Node30&#45;&gt;Node31 -->
<g id="edge45" class="edge">
<title>Node30&#45;&gt;Node31</title>
<path fill="none" stroke="midnightblue" d="M1158.47,-61.98C1148.74,-52.78 1133.04,-37.96 1121.08,-26.66"/>
<polygon fill="midnightblue" stroke="midnightblue" points="1123.18,-23.83 1113.51,-19.51 1118.38,-28.92 1123.18,-23.83"/>
</g>
<!-- Node32&#45;&gt;Node11 -->
<g id="edge48" class="edge">
<title>Node32&#45;&gt;Node11</title>
<path fill="none" stroke="midnightblue" d="M1513.16,-123.49C1465.65,-102.58 1342.94,-48.6 1286.59,-23.8"/>
<polygon fill="midnightblue" stroke="midnightblue" points="1287.75,-20.48 1277.18,-19.66 1284.93,-26.89 1287.75,-20.48"/>
</g>
<!-- Node32&#45;&gt;Node26 -->
<g id="edge47" class="edge">
<title>Node32&#45;&gt;Node26</title>
<path fill="none" stroke="midnightblue" d="M1500.45,-123.85C1464.26,-114.65 1404.54,-99.46 1359.41,-87.99"/>
<polygon fill="midnightblue" stroke="midnightblue" points="1359.99,-84.52 1349.44,-85.45 1358.27,-91.31 1359.99,-84.52"/>
</g>
<!-- Node33&#45;&gt;Node11 -->
<g id="edge51" class="edge">
<title>Node33&#45;&gt;Node11</title>
<path fill="none" stroke="midnightblue" d="M1608.4,-123.49C1567.47,-109.12 1481.67,-79.31 1408.5,-56 1369.28,-43.51 1323.99,-30.15 1293.32,-21.26"/>
<polygon fill="midnightblue" stroke="midnightblue" points="1294.09,-17.84 1283.51,-18.43 1292.14,-24.57 1294.09,-17.84"/>
</g>
<!-- Node33&#45;&gt;Node30 -->
<g id="edge50" class="edge">
<title>Node33&#45;&gt;Node30</title>
<path fill="none" stroke="midnightblue" d="M1582.95,-124.28C1579.75,-123.83 1576.58,-123.4 1573.5,-123 1425.44,-103.74 1387.06,-109.76 1239.5,-87 1232.05,-85.85 1224.21,-84.46 1216.54,-83"/>
<polygon fill="midnightblue" stroke="midnightblue" points="1217.11,-79.54 1206.62,-81.05 1215.76,-86.41 1217.11,-79.54"/>
</g>
<!-- Node35&#45;&gt;Node26 -->
<g id="edge56" class="edge">
<title>Node35&#45;&gt;Node26</title>
<path fill="none" stroke="midnightblue" d="M1142.58,-123.48C1169.41,-114.7 1211.97,-100.79 1245.85,-89.71"/>
<polygon fill="midnightblue" stroke="midnightblue" points="1247.19,-92.96 1255.61,-86.52 1245.01,-86.3 1247.19,-92.96"/>
</g>
<!-- Node35&#45;&gt;Node30 -->
<g id="edge57" class="edge">
<title>Node35&#45;&gt;Node30</title>
<path fill="none" stroke="midnightblue" d="M1123.81,-123.48C1131.53,-114.46 1143.91,-100.02 1153.52,-88.81"/>
<polygon fill="midnightblue" stroke="midnightblue" points="1156.36,-90.88 1160.21,-81.01 1151.04,-86.32 1156.36,-90.88"/>
</g>
<!-- Node36&#45;&gt;Node12 -->
<g id="edge61" class="edge">
<title>Node36&#45;&gt;Node12</title>
<path fill="none" stroke="midnightblue" d="M973.06,-123.48C976.73,-114.5 982.46,-99.91 986.5,-87 992.58,-67.57 998.04,-44.88 1001.53,-29.39"/>
<polygon fill="midnightblue" stroke="midnightblue" points="1004.97,-30.04 1003.71,-19.52 998.14,-28.54 1004.97,-30.04"/>
</g>
<!-- Node36&#45;&gt;Node26 -->
<g id="edge59" class="edge">
<title>Node36&#45;&gt;Node26</title>
<path fill="none" stroke="midnightblue" d="M1028.2,-123.53C1080.8,-115.64 1160.28,-102.99 1237.78,-87.28"/>
<polygon fill="midnightblue" stroke="midnightblue" points="1238.61,-90.68 1247.71,-85.24 1237.21,-83.82 1238.61,-90.68"/>
</g>
<!-- Node36&#45;&gt;Node30 -->
<g id="edge60" class="edge">
<title>Node36&#45;&gt;Node30</title>
<path fill="none" stroke="midnightblue" d="M997.87,-123.48C1032.42,-113.09 1090.92,-95.51 1129.38,-83.95"/>
<polygon fill="midnightblue" stroke="midnightblue" points="1130.61,-87.24 1139.18,-81.01 1128.6,-80.54 1130.61,-87.24"/>
</g>
<!-- Node36&#45;&gt;Node34 -->
<g id="edge62" class="edge">
<title>Node36&#45;&gt;Node34</title>
<path fill="none" stroke="midnightblue" d="M967.06,-123.48C964.64,-114.99 960.84,-101.7 957.73,-90.82"/>
<polygon fill="midnightblue" stroke="midnightblue" points="961.04,-89.66 954.93,-81.01 954.31,-91.59 961.04,-89.66"/>
</g>
<!-- Node37&#45;&gt;Node26 -->
<g id="edge64" class="edge">
<title>Node37&#45;&gt;Node26</title>
<path fill="none" stroke="midnightblue" d="M1409.87,-123.48C1391.28,-114.96 1362.12,-101.62 1338.3,-90.72"/>
<polygon fill="midnightblue" stroke="midnightblue" points="1339.69,-87.5 1329.14,-86.52 1336.77,-93.87 1339.69,-87.5"/>
</g>
<!-- Node37&#45;&gt;Node30 -->
<g id="edge65" class="edge">
<title>Node37&#45;&gt;Node30</title>
<path fill="none" stroke="midnightblue" d="M1391.11,-123.48C1344.69,-112.89 1265.48,-94.84 1214.86,-83.3"/>
<polygon fill="midnightblue" stroke="midnightblue" points="1215.35,-79.82 1204.83,-81.01 1213.8,-86.64 1215.35,-79.82"/>
</g>
<!-- Node38&#45;&gt;Node9 -->
<g id="edge73" class="edge">
<title>Node38&#45;&gt;Node9</title>
<path fill="none" stroke="midnightblue" d="M936.05,-307.81C887.06,-285.91 758.41,-228.4 700.94,-202.71"/>
<polygon fill="midnightblue" stroke="midnightblue" points="702.27,-199.47 691.71,-198.59 699.41,-205.86 702.27,-199.47"/>
</g>
<!-- Node38&#45;&gt;Node24 -->
<g id="edge72" class="edge">
<title>Node38&#45;&gt;Node24</title>
<path fill="none" stroke="midnightblue" d="M982.72,-307.87C1018.97,-296.38 1083.2,-276.01 1123.73,-263.16"/>
<polygon fill="midnightblue" stroke="midnightblue" points="1125.02,-266.42 1133.49,-260.06 1122.9,-259.75 1125.02,-266.42"/>
</g>
<!-- Node39 -->
<g id="node39" class="node">
<title>Node39</title>
<g id="a_node39"><a xlink:href="../../d9/dd5/type_2all_8hpp.html" target="_top" xlink:title=" ">
<polygon fill="white" stroke="black" points="1242.5,-123.5 1242.5,-142.5 1318.5,-142.5 1318.5,-123.5 1242.5,-123.5"/>
<text text-anchor="middle" x="1280.5" y="-130.5" font-family="Helvetica,sans-Serif" font-size="10.00">../type/all.hpp</text>
</a>
</g>
</g>
<!-- Node38&#45;&gt;Node39 -->
<g id="edge74" class="edge">
<title>Node38&#45;&gt;Node39</title>
<path fill="none" stroke="midnightblue" d="M1003.26,-315.01C1056.06,-311.58 1142.27,-300.62 1207.5,-266 1244.98,-246.11 1257.63,-237.48 1275.5,-199 1282.2,-184.56 1283.05,-166.37 1282.45,-152.91"/>
<polygon fill="midnightblue" stroke="midnightblue" points="1285.94,-152.61 1281.71,-142.9 1278.96,-153.13 1285.94,-152.61"/>
</g>
<!-- Node39&#45;&gt;Node16 -->
<g id="edge75" class="edge">
<title>Node39&#45;&gt;Node16</title>
<path fill="none" stroke="midnightblue" d="M1242.26,-127.54C1176.31,-119.79 1036.98,-103.1 919.5,-87 907.37,-85.34 894.41,-83.47 882.04,-81.63"/>
<polygon fill="midnightblue" stroke="midnightblue" points="882.22,-78.12 871.81,-80.11 881.19,-85.05 882.22,-78.12"/>
</g>
<!-- Node39&#45;&gt;Node26 -->
<g id="edge76" class="edge">
<title>Node39&#45;&gt;Node26</title>
<path fill="none" stroke="midnightblue" d="M1283.08,-123.48C1285.22,-116.4 1288.37,-105.97 1291.27,-96.39"/>
<polygon fill="midnightblue" stroke="midnightblue" points="1294.71,-97.11 1294.26,-86.52 1288.01,-95.08 1294.71,-97.11"/>
</g>
<!-- Node39&#45;&gt;Node30 -->
<g id="edge77" class="edge">
<title>Node39&#45;&gt;Node30</title>
<path fill="none" stroke="midnightblue" d="M1264.31,-123.48C1245.6,-113.62 1214.58,-97.29 1192.7,-85.77"/>
<polygon fill="midnightblue" stroke="midnightblue" points="1194.14,-82.57 1183.66,-81.01 1190.88,-88.77 1194.14,-82.57"/>
</g>
<!-- Node40&#45;&gt;Node7 -->
<g id="edge83" class="edge">
<title>Node40&#45;&gt;Node7</title>
<path fill="none" stroke="midnightblue" d="M319.33,-302.4C302.76,-293.11 280.86,-280.84 262.72,-270.67"/>
<polygon fill="midnightblue" stroke="midnightblue" points="264.06,-267.41 253.62,-265.58 260.63,-273.52 264.06,-267.41"/>
</g>
<!-- Node40&#45;&gt;Node8 -->
<g id="edge80" class="edge">
<title>Node40&#45;&gt;Node8</title>
<path fill="none" stroke="midnightblue" d="M292.92,-308.58C246.86,-300.34 184.42,-285.84 169.5,-266 143.59,-231.56 198.51,-211.39 248.44,-200.59"/>
<polygon fill="midnightblue" stroke="midnightblue" points="249.24,-203.99 258.33,-198.55 247.83,-197.14 249.24,-203.99"/>
</g>
<!-- Node40&#45;&gt;Node9 -->
<g id="edge81" class="edge">
<title>Node40&#45;&gt;Node9</title>
<path fill="none" stroke="midnightblue" d="M343.57,-302.34C343.21,-283.94 345.63,-252.15 364.5,-235 383.25,-217.97 539.73,-201.75 622.15,-194.28"/>
<polygon fill="midnightblue" stroke="midnightblue" points="622.65,-197.75 632.3,-193.38 622.03,-190.78 622.65,-197.75"/>
</g>
<!-- Node40&#45;&gt;Node14 -->
<g id="edge84" class="edge">
<title>Node40&#45;&gt;Node14</title>
<path fill="none" stroke="midnightblue" d="M292.95,-314.14C230.3,-308.79 135.69,-291.43 159.5,-235 193.08,-155.42 290.03,-106.11 341.49,-84.8"/>
<polygon fill="midnightblue" stroke="midnightblue" points="342.88,-88.01 350.85,-81.03 340.27,-81.52 342.88,-88.01"/>
</g>
<!-- Node40&#45;&gt;Node19 -->
<g id="edge85" class="edge">
<title>Node40&#45;&gt;Node19</title>
<path fill="none" stroke="midnightblue" d="M336.18,-302.31C327.09,-284.75 315.67,-254.75 330.5,-235 343.34,-217.91 395.93,-205.2 436.33,-197.73"/>
<polygon fill="midnightblue" stroke="midnightblue" points="437.08,-201.15 446.3,-195.94 435.84,-194.26 437.08,-201.15"/>
</g>
<!-- Node40&#45;&gt;Node22 -->
<g id="edge82" class="edge">
<title>Node40&#45;&gt;Node22</title>
<path fill="none" stroke="midnightblue" d="M362.73,-302.4C376.47,-291.76 395.28,-277.2 409.27,-266.38"/>
<polygon fill="midnightblue" stroke="midnightblue" points="411.5,-269.08 417.26,-260.19 407.21,-263.55 411.5,-269.08"/>
</g>
</g>
</svg>
