<?xml version="1.0" encoding="UTF-8" standalone="no"?>
<!DOCTYPE svg PUBLIC "-//W3C//DTD SVG 1.1//EN"
 "http://www.w3.org/Graphics/SVG/1.1/DTD/svg11.dtd">
<!-- Generated by graphviz version 2.50.0 (20211204.2007)
 -->
<!-- Title: src/model/utility.hpp Pages: 1 -->
<svg width="409pt" height="263pt"
 viewBox="0.00 0.00 409.00 263.00" xmlns="http://www.w3.org/2000/svg" xmlns:xlink="http://www.w3.org/1999/xlink">
<g id="graph0" class="graph" transform="scale(1 1) rotate(0) translate(4 259)">
<title>src/model/utility.hpp</title>
<polygon fill="white" stroke="transparent" points="-4,4 -4,-259 405,-259 405,4 -4,4"/>
<!-- Node1 -->
<g id="node1" class="node">
<title>Node1</title>
<g id="a_node1"><a xlink:title=" ">
<polygon fill="#bfbfbf" stroke="black" points="158,-235.5 158,-254.5 261,-254.5 261,-235.5 158,-235.5"/>
<text text-anchor="middle" x="209.5" y="-242.5" font-family="Helvetica,sans-Serif" font-size="10.00">src/model/utility.hpp</text>
</a>
</g>
</g>
<!-- Node2 -->
<g id="node2" class="node">
<title>Node2</title>
<g id="a_node2"><a xlink:href="../../d9/de5/hubbard__1d_8hpp.html" target="_top" xlink:title=" ">
<polygon fill="white" stroke="black" points="0,-174 0,-193 131,-193 131,-174 0,-174"/>
<text text-anchor="middle" x="65.5" y="-181" font-family="Helvetica,sans-Serif" font-size="10.00">src/model/hubbard_1d.hpp</text>
</a>
</g>
</g>
<!-- Node1&#45;&gt;Node2 -->
<g id="edge1" class="edge">
<title>Node1&#45;&gt;Node2</title>
<path fill="none" stroke="midnightblue" d="M179.57,-231.63C151.59,-220.07 110.56,-203.12 86.09,-193.01"/>
<polygon fill="midnightblue" stroke="midnightblue" points="178.29,-234.89 188.87,-235.48 180.96,-228.42 178.29,-234.89"/>
</g>
<!-- Node6 -->
<g id="node6" class="node">
<title>Node6</title>
<g id="a_node6"><a xlink:href="../../d0/df4/kondo__lattice__1d_8hpp.html" target="_top" xlink:title=" ">
<polygon fill="white" stroke="black" points="149.5,-168.5 149.5,-198.5 269.5,-198.5 269.5,-168.5 149.5,-168.5"/>
<text text-anchor="start" x="157.5" y="-186.5" font-family="Helvetica,sans-Serif" font-size="10.00">src/model/kondo_lattice</text>
<text text-anchor="middle" x="209.5" y="-175.5" font-family="Helvetica,sans-Serif" font-size="10.00">_1d.hpp</text>
</a>
</g>
</g>
<!-- Node1&#45;&gt;Node6 -->
<g id="edge5" class="edge">
<title>Node1&#45;&gt;Node6</title>
<path fill="none" stroke="midnightblue" d="M209.5,-225.23C209.5,-216.59 209.5,-206.5 209.5,-198.52"/>
<polygon fill="midnightblue" stroke="midnightblue" points="206,-225.48 209.5,-235.48 213,-225.48 206,-225.48"/>
</g>
<!-- Node7 -->
<g id="node7" class="node">
<title>Node7</title>
<g id="a_node7"><a xlink:href="../../db/d1c/xxz__1d_8hpp.html" target="_top" xlink:title=" ">
<polygon fill="white" stroke="black" points="288,-174 288,-193 401,-193 401,-174 288,-174"/>
<text text-anchor="middle" x="344.5" y="-181" font-family="Helvetica,sans-Serif" font-size="10.00">src/model/xxz_1d.hpp</text>
</a>
</g>
</g>
<!-- Node1&#45;&gt;Node7 -->
<g id="edge7" class="edge">
<title>Node1&#45;&gt;Node7</title>
<path fill="none" stroke="midnightblue" d="M238.25,-231.33C264.46,-219.78 302.45,-203.03 325.19,-193.01"/>
<polygon fill="midnightblue" stroke="midnightblue" points="236.58,-228.24 228.84,-235.48 239.4,-234.64 236.58,-228.24"/>
</g>
<!-- Node3 -->
<g id="node3" class="node">
<title>Node3</title>
<g id="a_node3"><a xlink:href="../../da/d6e/model_2all_8hpp.html" target="_top" xlink:title=" ">
<polygon fill="white" stroke="black" points="164,-112.5 164,-131.5 255,-131.5 255,-112.5 164,-112.5"/>
<text text-anchor="middle" x="209.5" y="-119.5" font-family="Helvetica,sans-Serif" font-size="10.00">src/model/all.hpp</text>
</a>
</g>
</g>
<!-- Node2&#45;&gt;Node3 -->
<g id="edge2" class="edge">
<title>Node2&#45;&gt;Node3</title>
<path fill="none" stroke="midnightblue" d="M95.43,-170.13C123.41,-158.57 164.44,-141.62 188.91,-131.51"/>
<polygon fill="midnightblue" stroke="midnightblue" points="94.04,-166.92 86.13,-173.98 96.71,-173.39 94.04,-166.92"/>
</g>
<!-- Node4 -->
<g id="node4" class="node">
<title>Node4</title>
<g id="a_node4"><a xlink:href="../../d3/df6/exact__diag_8hpp.html" target="_top" xlink:title=" ">
<polygon fill="white" stroke="black" points="145.5,-56.5 145.5,-75.5 273.5,-75.5 273.5,-56.5 145.5,-56.5"/>
<text text-anchor="middle" x="209.5" y="-63.5" font-family="Helvetica,sans-Serif" font-size="10.00">src/solver/exact_diag.hpp</text>
</a>
</g>
</g>
<!-- Node3&#45;&gt;Node4 -->
<g id="edge3" class="edge">
<title>Node3&#45;&gt;Node4</title>
<path fill="none" stroke="midnightblue" d="M209.5,-101.8C209.5,-92.91 209.5,-82.78 209.5,-75.75"/>
<polygon fill="midnightblue" stroke="midnightblue" points="206,-102.08 209.5,-112.08 213,-102.08 206,-102.08"/>
</g>
<!-- Node5 -->
<g id="node5" class="node">
<title>Node5</title>
<g id="a_node5"><a xlink:href="../../d5/d21/solver_2all_8hpp.html" target="_top" xlink:title=" ">
<polygon fill="white" stroke="black" points="164,-0.5 164,-19.5 255,-19.5 255,-0.5 164,-0.5"/>
<text text-anchor="middle" x="209.5" y="-7.5" font-family="Helvetica,sans-Serif" font-size="10.00">src/solver/all.hpp</text>
</a>
</g>
</g>
<!-- Node4&#45;&gt;Node5 -->
<g id="edge4" class="edge">
<title>Node4&#45;&gt;Node5</title>
<path fill="none" stroke="midnightblue" d="M209.5,-45.8C209.5,-36.91 209.5,-26.78 209.5,-19.75"/>
<polygon fill="midnightblue" stroke="midnightblue" points="206,-46.08 209.5,-56.08 213,-46.08 206,-46.08"/>
</g>
<!-- Node6&#45;&gt;Node3 -->
<g id="edge6" class="edge">
<title>Node6&#45;&gt;Node3</title>
<path fill="none" stroke="midnightblue" d="M209.5,-158.29C209.5,-148.86 209.5,-138.65 209.5,-131.66"/>
<polygon fill="midnightblue" stroke="midnightblue" points="206,-158.4 209.5,-168.4 213,-158.4 206,-158.4"/>
</g>
<!-- Node7&#45;&gt;Node3 -->
<g id="edge8" class="edge">
<title>Node7&#45;&gt;Node3</title>
<path fill="none" stroke="midnightblue" d="M315.75,-169.83C289.54,-158.28 251.55,-141.53 228.81,-131.51"/>
<polygon fill="midnightblue" stroke="midnightblue" points="314.6,-173.14 325.16,-173.98 317.42,-166.74 314.6,-173.14"/>
</g>
</g>
</svg>
