<?xml version="1.0" encoding="UTF-8" standalone="no"?>
<!DOCTYPE svg PUBLIC "-//W3C//DTD SVG 1.1//EN"
 "http://www.w3.org/Graphics/SVG/1.1/DTD/svg11.dtd">
<!-- Generated by graphviz version 2.50.0 (20211204.2007)
 -->
<!-- Title: src/model/base_u1_spin_multi_electrons_1d.hpp Pages: 1 -->
<svg width="557pt" height="319pt"
 viewBox="0.00 0.00 556.50 319.00" xmlns="http://www.w3.org/2000/svg" xmlns:xlink="http://www.w3.org/1999/xlink">
<g id="graph0" class="graph" transform="scale(1 1) rotate(0) translate(4 315)">
<title>src/model/base_u1_spin_multi_electrons_1d.hpp</title>
<polygon fill="white" stroke="transparent" points="-4,4 -4,-315 552.5,-315 552.5,4 -4,4"/>
<!-- Node1 -->
<g id="node1" class="node">
<title>Node1</title>
<g id="a_node1"><a xlink:title=" ">
<polygon fill="#bfbfbf" stroke="black" points="260,-280.5 260,-310.5 382,-310.5 382,-280.5 260,-280.5"/>
<text text-anchor="start" x="268" y="-298.5" font-family="Helvetica,sans-Serif" font-size="10.00">src/model/base_u1_spin</text>
<text text-anchor="middle" x="321" y="-287.5" font-family="Helvetica,sans-Serif" font-size="10.00">_multi_electrons_1d.hpp</text>
</a>
</g>
</g>
<!-- Node2 -->
<g id="node2" class="node">
<title>Node2</title>
<g id="a_node2"><a xlink:title=" ">
<polygon fill="white" stroke="#bfbfbf" points="29.5,-168.5 29.5,-187.5 148.5,-187.5 148.5,-168.5 29.5,-168.5"/>
<text text-anchor="middle" x="89" y="-175.5" font-family="Helvetica,sans-Serif" font-size="10.00">../sparse_matrix/all.hpp</text>
</a>
</g>
</g>
<!-- Node1&#45;&gt;Node2 -->
<g id="edge1" class="edge">
<title>Node1&#45;&gt;Node2</title>
<path fill="none" stroke="midnightblue" d="M279.82,-280.43C254.31,-271.18 221.15,-258.2 193,-244 162.7,-228.71 129.81,-207.26 109.3,-193.25"/>
<polygon fill="midnightblue" stroke="midnightblue" points="111.28,-190.36 101.06,-187.56 107.3,-196.12 111.28,-190.36"/>
</g>
<!-- Node3 -->
<g id="node3" class="node">
<title>Node3</title>
<g id="a_node3"><a xlink:href="../../d5/d8a/utility_2all_8hpp.html" target="_top" xlink:title=" ">
<polygon fill="white" stroke="black" points="167,-168.5 167,-187.5 247,-187.5 247,-168.5 167,-168.5"/>
<text text-anchor="middle" x="207" y="-175.5" font-family="Helvetica,sans-Serif" font-size="10.00">../utility/all.hpp</text>
</a>
</g>
</g>
<!-- Node1&#45;&gt;Node3 -->
<g id="edge2" class="edge">
<title>Node1&#45;&gt;Node3</title>
<path fill="none" stroke="midnightblue" d="M259.84,-283.24C237.79,-275.9 215.13,-263.84 202,-244 192.94,-230.31 195.75,-211.27 199.89,-197.34"/>
<polygon fill="midnightblue" stroke="midnightblue" points="203.21,-198.44 203.14,-187.85 196.59,-196.17 203.21,-198.44"/>
</g>
<!-- Node8 -->
<g id="node8" class="node">
<title>Node8</title>
<g id="a_node8"><a xlink:title=" ">
<polygon fill="white" stroke="#bfbfbf" points="366.5,-56.5 366.5,-75.5 449.5,-75.5 449.5,-56.5 366.5,-56.5"/>
<text text-anchor="middle" x="408" y="-63.5" font-family="Helvetica,sans-Serif" font-size="10.00">unordered_map</text>
</a>
</g>
</g>
<!-- Node1&#45;&gt;Node8 -->
<g id="edge19" class="edge">
<title>Node1&#45;&gt;Node8</title>
<path fill="none" stroke="midnightblue" d="M334.5,-280.21C343.28,-270.48 354.61,-257.04 363,-244 377.95,-220.76 381.87,-214.41 390,-188 400.79,-152.94 405.21,-110.1 406.95,-85.95"/>
<polygon fill="midnightblue" stroke="midnightblue" points="410.46,-85.91 407.6,-75.71 403.47,-85.46 410.46,-85.91"/>
</g>
<!-- Node14 -->
<g id="node14" class="node">
<title>Node14</title>
<g id="a_node14"><a xlink:title=" ">
<polygon fill="white" stroke="#bfbfbf" points="437.5,-224.5 437.5,-243.5 548.5,-243.5 548.5,-224.5 437.5,-224.5"/>
<text text-anchor="middle" x="493" y="-231.5" font-family="Helvetica,sans-Serif" font-size="10.00">base_u1_spin_1d.hpp</text>
</a>
</g>
</g>
<!-- Node1&#45;&gt;Node14 -->
<g id="edge13" class="edge">
<title>Node1&#45;&gt;Node14</title>
<path fill="none" stroke="midnightblue" d="M361.76,-280.4C391.22,-270.21 430.59,-256.59 458.5,-246.93"/>
<polygon fill="midnightblue" stroke="midnightblue" points="459.92,-250.15 468.22,-243.57 457.63,-243.53 459.92,-250.15"/>
</g>
<!-- Node15 -->
<g id="node15" class="node">
<title>Node15</title>
<g id="a_node15"><a xlink:href="../../d4/d22/base__u1__electron__1d_8hpp.html" target="_top" xlink:title=" ">
<polygon fill="white" stroke="black" points="211,-224.5 211,-243.5 339,-243.5 339,-224.5 211,-224.5"/>
<text text-anchor="middle" x="275" y="-231.5" font-family="Helvetica,sans-Serif" font-size="10.00">base_u1_electron_1d.hpp</text>
</a>
</g>
</g>
<!-- Node1&#45;&gt;Node15 -->
<g id="edge14" class="edge">
<title>Node1&#45;&gt;Node15</title>
<path fill="none" stroke="midnightblue" d="M310.1,-280.4C303.41,-271.75 294.82,-260.64 287.82,-251.58"/>
<polygon fill="midnightblue" stroke="midnightblue" points="290.58,-249.43 281.69,-243.66 285.04,-253.71 290.58,-249.43"/>
</g>
<!-- Node16 -->
<g id="node16" class="node">
<title>Node16</title>
<g id="a_node16"><a xlink:title=" ">
<polygon fill="white" stroke="#bfbfbf" points="303,-168.5 303,-187.5 381,-187.5 381,-168.5 303,-168.5"/>
<text text-anchor="middle" x="342" y="-175.5" font-family="Helvetica,sans-Serif" font-size="10.00">unordered_set</text>
</a>
</g>
</g>
<!-- Node1&#45;&gt;Node16 -->
<g id="edge20" class="edge">
<title>Node1&#45;&gt;Node16</title>
<path fill="none" stroke="midnightblue" d="M331.07,-280.26C337.3,-270.55 344.71,-257.12 348,-244 351.87,-228.54 349.68,-210.45 346.92,-197.29"/>
<polygon fill="midnightblue" stroke="midnightblue" points="350.32,-196.46 344.58,-187.55 343.51,-198.09 350.32,-196.46"/>
</g>
<!-- Node4 -->
<g id="node4" class="node">
<title>Node4</title>
<g id="a_node4"><a xlink:href="../../d0/dad/integer_8hpp.html" target="_top" xlink:title=" ">
<polygon fill="white" stroke="black" points="104,-112.5 104,-131.5 168,-131.5 168,-112.5 104,-112.5"/>
<text text-anchor="middle" x="136" y="-119.5" font-family="Helvetica,sans-Serif" font-size="10.00">integer.hpp</text>
</a>
</g>
</g>
<!-- Node3&#45;&gt;Node4 -->
<g id="edge3" class="edge">
<title>Node3&#45;&gt;Node4</title>
<path fill="none" stroke="midnightblue" d="M195.59,-168.32C184.89,-160.18 168.66,-147.84 155.84,-138.09"/>
<polygon fill="midnightblue" stroke="midnightblue" points="157.69,-135.1 147.61,-131.83 153.46,-140.67 157.69,-135.1"/>
</g>
<!-- Node9 -->
<g id="node9" class="node">
<title>Node9</title>
<g id="a_node9"><a xlink:href="../../d9/d04/hash_8hpp.html" target="_top" xlink:title=" ">
<polygon fill="white" stroke="black" points="186,-112.5 186,-131.5 242,-131.5 242,-112.5 186,-112.5"/>
<text text-anchor="middle" x="214" y="-119.5" font-family="Helvetica,sans-Serif" font-size="10.00">hash.hpp</text>
</a>
</g>
</g>
<!-- Node3&#45;&gt;Node9 -->
<g id="edge8" class="edge">
<title>Node3&#45;&gt;Node9</title>
<path fill="none" stroke="midnightblue" d="M208.16,-168.08C209.08,-160.93 210.42,-150.64 211.58,-141.69"/>
<polygon fill="midnightblue" stroke="midnightblue" points="215.05,-142.12 212.87,-131.75 208.11,-141.22 215.05,-142.12"/>
</g>
<!-- Node5 -->
<g id="node5" class="node">
<title>Node5</title>
<g id="a_node5"><a xlink:title=" ">
<polygon fill="white" stroke="#bfbfbf" points="0,-56.5 0,-75.5 52,-75.5 52,-56.5 0,-56.5"/>
<text text-anchor="middle" x="26" y="-63.5" font-family="Helvetica,sans-Serif" font-size="10.00">sstream</text>
</a>
</g>
</g>
<!-- Node4&#45;&gt;Node5 -->
<g id="edge4" class="edge">
<title>Node4&#45;&gt;Node5</title>
<path fill="none" stroke="midnightblue" d="M118.33,-112.32C100.61,-103.62 73.1,-90.12 52.71,-80.11"/>
<polygon fill="midnightblue" stroke="midnightblue" points="54.15,-76.92 43.63,-75.65 51.06,-83.2 54.15,-76.92"/>
</g>
<!-- Node6 -->
<g id="node6" class="node">
<title>Node6</title>
<g id="a_node6"><a xlink:title=" ">
<polygon fill="white" stroke="#bfbfbf" points="70,-56.5 70,-75.5 114,-75.5 114,-56.5 70,-56.5"/>
<text text-anchor="middle" x="92" y="-63.5" font-family="Helvetica,sans-Serif" font-size="10.00">vector</text>
</a>
</g>
</g>
<!-- Node4&#45;&gt;Node6 -->
<g id="edge5" class="edge">
<title>Node4&#45;&gt;Node6</title>
<path fill="none" stroke="midnightblue" d="M128.73,-112.08C122.46,-104.38 113.21,-93.03 105.57,-83.65"/>
<polygon fill="midnightblue" stroke="midnightblue" points="108.16,-81.29 99.13,-75.75 102.73,-85.71 108.16,-81.29"/>
</g>
<!-- Node7 -->
<g id="node7" class="node">
<title>Node7</title>
<g id="a_node7"><a xlink:title=" ">
<polygon fill="white" stroke="#bfbfbf" points="132.5,-56.5 132.5,-75.5 167.5,-75.5 167.5,-56.5 132.5,-56.5"/>
<text text-anchor="middle" x="150" y="-63.5" font-family="Helvetica,sans-Serif" font-size="10.00">map</text>
</a>
</g>
</g>
<!-- Node4&#45;&gt;Node7 -->
<g id="edge6" class="edge">
<title>Node4&#45;&gt;Node7</title>
<path fill="none" stroke="midnightblue" d="M138.31,-112.08C140.17,-104.93 142.84,-94.64 145.15,-85.69"/>
<polygon fill="midnightblue" stroke="midnightblue" points="148.61,-86.31 147.73,-75.75 141.83,-84.55 148.61,-86.31"/>
</g>
<!-- Node4&#45;&gt;Node8 -->
<g id="edge7" class="edge">
<title>Node4&#45;&gt;Node8</title>
<path fill="none" stroke="midnightblue" d="M168.21,-113.85C171.18,-113.22 174.15,-112.59 177,-112 238.5,-99.26 309.43,-85.6 356.3,-76.71"/>
<polygon fill="midnightblue" stroke="midnightblue" points="357.04,-80.13 366.21,-74.83 355.73,-73.25 357.04,-80.13"/>
</g>
<!-- Node10 -->
<g id="node10" class="node">
<title>Node10</title>
<g id="a_node10"><a xlink:href="../../db/dd6/half__int_8hpp.html" target="_top" xlink:title=" ">
<polygon fill="white" stroke="black" points="250,-56.5 250,-75.5 348,-75.5 348,-56.5 250,-56.5"/>
<text text-anchor="middle" x="299" y="-63.5" font-family="Helvetica,sans-Serif" font-size="10.00">../type/half_int.hpp</text>
</a>
</g>
</g>
<!-- Node9&#45;&gt;Node10 -->
<g id="edge9" class="edge">
<title>Node9&#45;&gt;Node10</title>
<path fill="none" stroke="midnightblue" d="M227.66,-112.32C240.92,-103.9 261.27,-90.97 276.85,-81.07"/>
<polygon fill="midnightblue" stroke="midnightblue" points="278.81,-83.97 285.38,-75.65 275.06,-78.06 278.81,-83.97"/>
</g>
<!-- Node13 -->
<g id="node13" class="node">
<title>Node13</title>
<g id="a_node13"><a xlink:title=" ">
<polygon fill="white" stroke="#bfbfbf" points="186,-56.5 186,-75.5 232,-75.5 232,-56.5 186,-56.5"/>
<text text-anchor="middle" x="209" y="-63.5" font-family="Helvetica,sans-Serif" font-size="10.00">variant</text>
</a>
</g>
</g>
<!-- Node9&#45;&gt;Node13 -->
<g id="edge12" class="edge">
<title>Node9&#45;&gt;Node13</title>
<path fill="none" stroke="midnightblue" d="M213.17,-112.08C212.52,-105.01 211.58,-94.86 210.76,-85.99"/>
<polygon fill="midnightblue" stroke="midnightblue" points="214.22,-85.39 209.81,-75.75 207.25,-86.03 214.22,-85.39"/>
</g>
<!-- Node11 -->
<g id="node11" class="node">
<title>Node11</title>
<g id="a_node11"><a xlink:title=" ">
<polygon fill="white" stroke="#bfbfbf" points="242,-0.5 242,-19.5 286,-19.5 286,-0.5 242,-0.5"/>
<text text-anchor="middle" x="264" y="-7.5" font-family="Helvetica,sans-Serif" font-size="10.00">cmath</text>
</a>
</g>
</g>
<!-- Node10&#45;&gt;Node11 -->
<g id="edge10" class="edge">
<title>Node10&#45;&gt;Node11</title>
<path fill="none" stroke="midnightblue" d="M293.22,-56.08C288.33,-48.53 281.17,-37.49 275.17,-28.23"/>
<polygon fill="midnightblue" stroke="midnightblue" points="278.05,-26.24 269.67,-19.75 272.17,-30.05 278.05,-26.24"/>
</g>
<!-- Node12 -->
<g id="node12" class="node">
<title>Node12</title>
<g id="a_node12"><a xlink:title=" ">
<polygon fill="white" stroke="#bfbfbf" points="304.5,-0.5 304.5,-19.5 363.5,-19.5 363.5,-0.5 304.5,-0.5"/>
<text text-anchor="middle" x="334" y="-7.5" font-family="Helvetica,sans-Serif" font-size="10.00">stdexcept</text>
</a>
</g>
</g>
<!-- Node10&#45;&gt;Node12 -->
<g id="edge11" class="edge">
<title>Node10&#45;&gt;Node12</title>
<path fill="none" stroke="midnightblue" d="M304.78,-56.08C309.67,-48.53 316.83,-37.49 322.83,-28.23"/>
<polygon fill="midnightblue" stroke="midnightblue" points="325.83,-30.05 328.33,-19.75 319.95,-26.24 325.83,-30.05"/>
</g>
<!-- Node15&#45;&gt;Node2 -->
<g id="edge15" class="edge">
<title>Node15&#45;&gt;Node2</title>
<path fill="none" stroke="midnightblue" d="M245.53,-224.44C213.83,-215.24 163.27,-200.56 128.23,-190.39"/>
<polygon fill="midnightblue" stroke="midnightblue" points="128.91,-186.94 118.33,-187.52 126.96,-193.67 128.91,-186.94"/>
</g>
<!-- Node15&#45;&gt;Node3 -->
<g id="edge16" class="edge">
<title>Node15&#45;&gt;Node3</title>
<path fill="none" stroke="midnightblue" d="M264.07,-224.32C253.83,-216.18 238.28,-203.84 226,-194.09"/>
<polygon fill="midnightblue" stroke="midnightblue" points="228.13,-191.31 218.12,-187.83 223.78,-196.79 228.13,-191.31"/>
</g>
<!-- Node15&#45;&gt;Node8 -->
<g id="edge17" class="edge">
<title>Node15&#45;&gt;Node8</title>
<path fill="none" stroke="midnightblue" d="M275.97,-224.38C277.77,-211.3 282.54,-186.07 294,-168 317.81,-130.44 359.54,-98.65 385.36,-81.25"/>
<polygon fill="midnightblue" stroke="midnightblue" points="387.35,-84.13 393.78,-75.71 383.5,-78.28 387.35,-84.13"/>
</g>
<!-- Node15&#45;&gt;Node16 -->
<g id="edge18" class="edge">
<title>Node15&#45;&gt;Node16</title>
<path fill="none" stroke="midnightblue" d="M285.76,-224.32C295.77,-216.26 310.89,-204.08 322.93,-194.37"/>
<polygon fill="midnightblue" stroke="midnightblue" points="325.45,-196.83 331.04,-187.83 321.06,-191.38 325.45,-196.83"/>
</g>
</g>
</svg>
