<?xml version="1.0" encoding="UTF-8" standalone="no"?>
<!DOCTYPE svg PUBLIC "-//W3C//DTD SVG 1.1//EN"
 "http://www.w3.org/Graphics/SVG/1.1/DTD/svg11.dtd">
<!-- Generated by graphviz version 2.50.0 (20211204.2007)
 -->
<!-- Title: src/model/base_u1_electron_1d.hpp Pages: 1 -->
<svg width="476pt" height="263pt"
 viewBox="0.00 0.00 475.50 263.00" xmlns="http://www.w3.org/2000/svg" xmlns:xlink="http://www.w3.org/1999/xlink">
<g id="graph0" class="graph" transform="scale(1 1) rotate(0) translate(4 259)">
<title>src/model/base_u1_electron_1d.hpp</title>
<polygon fill="white" stroke="transparent" points="-4,4 -4,-259 471.5,-259 471.5,4 -4,4"/>
<!-- Node1 -->
<g id="node1" class="node">
<title>Node1</title>
<g id="a_node1"><a xlink:title=" ">
<polygon fill="#bfbfbf" stroke="black" points="142,-224.5 142,-254.5 281,-254.5 281,-224.5 142,-224.5"/>
<text text-anchor="start" x="150" y="-242.5" font-family="Helvetica,sans-Serif" font-size="10.00">src/model/base_u1_electron</text>
<text text-anchor="middle" x="211.5" y="-231.5" font-family="Helvetica,sans-Serif" font-size="10.00">_1d.hpp</text>
</a>
</g>
</g>
<!-- Node2 -->
<g id="node2" class="node">
<title>Node2</title>
<g id="a_node2"><a xlink:title=" ">
<polygon fill="white" stroke="#bfbfbf" points="0,-168.5 0,-187.5 119,-187.5 119,-168.5 0,-168.5"/>
<text text-anchor="middle" x="59.5" y="-175.5" font-family="Helvetica,sans-Serif" font-size="10.00">../sparse_matrix/all.hpp</text>
</a>
</g>
</g>
<!-- Node1&#45;&gt;Node2 -->
<g id="edge1" class="edge">
<title>Node1&#45;&gt;Node2</title>
<path fill="none" stroke="midnightblue" d="M175.48,-224.4C149.86,-214.37 115.77,-201.03 91.19,-191.4"/>
<polygon fill="midnightblue" stroke="midnightblue" points="92.21,-188.04 81.62,-187.66 89.65,-194.56 92.21,-188.04"/>
</g>
<!-- Node3 -->
<g id="node3" class="node">
<title>Node3</title>
<g id="a_node3"><a xlink:href="../../d5/d8a/utility_2all_8hpp.html" target="_top" xlink:title=" ">
<polygon fill="white" stroke="black" points="137.5,-168.5 137.5,-187.5 217.5,-187.5 217.5,-168.5 137.5,-168.5"/>
<text text-anchor="middle" x="177.5" y="-175.5" font-family="Helvetica,sans-Serif" font-size="10.00">../utility/all.hpp</text>
</a>
</g>
</g>
<!-- Node1&#45;&gt;Node3 -->
<g id="edge2" class="edge">
<title>Node1&#45;&gt;Node3</title>
<path fill="none" stroke="midnightblue" d="M203.44,-224.4C198.65,-216.02 192.54,-205.33 187.46,-196.42"/>
<polygon fill="midnightblue" stroke="midnightblue" points="190.45,-194.6 182.45,-187.66 184.37,-198.08 190.45,-194.6"/>
</g>
<!-- Node8 -->
<g id="node8" class="node">
<title>Node8</title>
<g id="a_node8"><a xlink:title=" ">
<polygon fill="white" stroke="#bfbfbf" points="204,-56.5 204,-75.5 287,-75.5 287,-56.5 204,-56.5"/>
<text text-anchor="middle" x="245.5" y="-63.5" font-family="Helvetica,sans-Serif" font-size="10.00">unordered_map</text>
</a>
</g>
</g>
<!-- Node1&#45;&gt;Node8 -->
<g id="edge13" class="edge">
<title>Node1&#45;&gt;Node8</title>
<path fill="none" stroke="midnightblue" d="M216.21,-224.48C219.46,-214.42 223.68,-200.49 226.5,-188 234.6,-152.17 240.42,-109.61 243.35,-85.7"/>
<polygon fill="midnightblue" stroke="midnightblue" points="246.85,-85.93 244.55,-75.58 239.89,-85.1 246.85,-85.93"/>
</g>
<!-- Node14 -->
<g id="node14" class="node">
<title>Node14</title>
<g id="a_node14"><a xlink:title=" ">
<polygon fill="white" stroke="#bfbfbf" points="273.5,-168.5 273.5,-187.5 351.5,-187.5 351.5,-168.5 273.5,-168.5"/>
<text text-anchor="middle" x="312.5" y="-175.5" font-family="Helvetica,sans-Serif" font-size="10.00">unordered_set</text>
</a>
</g>
</g>
<!-- Node1&#45;&gt;Node14 -->
<g id="edge14" class="edge">
<title>Node1&#45;&gt;Node14</title>
<path fill="none" stroke="midnightblue" d="M235.44,-224.4C251.63,-214.86 272.91,-202.32 289,-192.84"/>
<polygon fill="midnightblue" stroke="midnightblue" points="290.96,-195.75 297.8,-187.66 287.41,-189.72 290.96,-195.75"/>
</g>
<!-- Node4 -->
<g id="node4" class="node">
<title>Node4</title>
<g id="a_node4"><a xlink:href="../../d0/dad/integer_8hpp.html" target="_top" xlink:title=" ">
<polygon fill="white" stroke="black" points="136.5,-112.5 136.5,-131.5 200.5,-131.5 200.5,-112.5 136.5,-112.5"/>
<text text-anchor="middle" x="168.5" y="-119.5" font-family="Helvetica,sans-Serif" font-size="10.00">integer.hpp</text>
</a>
</g>
</g>
<!-- Node3&#45;&gt;Node4 -->
<g id="edge3" class="edge">
<title>Node3&#45;&gt;Node4</title>
<path fill="none" stroke="midnightblue" d="M176.01,-168.08C174.82,-160.93 173.11,-150.64 171.62,-141.69"/>
<polygon fill="midnightblue" stroke="midnightblue" points="175.05,-141.04 169.96,-131.75 168.15,-142.19 175.05,-141.04"/>
</g>
<!-- Node9 -->
<g id="node9" class="node">
<title>Node9</title>
<g id="a_node9"><a xlink:href="../../d9/d04/hash_8hpp.html" target="_top" xlink:title=" ">
<polygon fill="white" stroke="black" points="326.5,-112.5 326.5,-131.5 382.5,-131.5 382.5,-112.5 326.5,-112.5"/>
<text text-anchor="middle" x="354.5" y="-119.5" font-family="Helvetica,sans-Serif" font-size="10.00">hash.hpp</text>
</a>
</g>
</g>
<!-- Node3&#45;&gt;Node9 -->
<g id="edge8" class="edge">
<title>Node3&#45;&gt;Node9</title>
<path fill="none" stroke="midnightblue" d="M205.55,-168.44C235.58,-159.28 283.41,-144.69 316.74,-134.52"/>
<polygon fill="midnightblue" stroke="midnightblue" points="318.04,-137.78 326.59,-131.52 316,-131.09 318.04,-137.78"/>
</g>
<!-- Node5 -->
<g id="node5" class="node">
<title>Node5</title>
<g id="a_node5"><a xlink:title=" ">
<polygon fill="white" stroke="#bfbfbf" points="18.5,-56.5 18.5,-75.5 70.5,-75.5 70.5,-56.5 18.5,-56.5"/>
<text text-anchor="middle" x="44.5" y="-63.5" font-family="Helvetica,sans-Serif" font-size="10.00">sstream</text>
</a>
</g>
</g>
<!-- Node4&#45;&gt;Node5 -->
<g id="edge4" class="edge">
<title>Node4&#45;&gt;Node5</title>
<path fill="none" stroke="midnightblue" d="M148.85,-112.44C128.54,-103.6 96.6,-89.69 73.4,-79.59"/>
<polygon fill="midnightblue" stroke="midnightblue" points="74.62,-76.3 64.06,-75.52 71.83,-82.72 74.62,-76.3"/>
</g>
<!-- Node6 -->
<g id="node6" class="node">
<title>Node6</title>
<g id="a_node6"><a xlink:title=" ">
<polygon fill="white" stroke="#bfbfbf" points="88.5,-56.5 88.5,-75.5 132.5,-75.5 132.5,-56.5 88.5,-56.5"/>
<text text-anchor="middle" x="110.5" y="-63.5" font-family="Helvetica,sans-Serif" font-size="10.00">vector</text>
</a>
</g>
</g>
<!-- Node4&#45;&gt;Node6 -->
<g id="edge5" class="edge">
<title>Node4&#45;&gt;Node6</title>
<path fill="none" stroke="midnightblue" d="M159.18,-112.32C150.61,-104.34 137.69,-92.31 127.31,-82.65"/>
<polygon fill="midnightblue" stroke="midnightblue" points="129.69,-80.09 119.99,-75.83 124.92,-85.21 129.69,-80.09"/>
</g>
<!-- Node7 -->
<g id="node7" class="node">
<title>Node7</title>
<g id="a_node7"><a xlink:title=" ">
<polygon fill="white" stroke="#bfbfbf" points="151,-56.5 151,-75.5 186,-75.5 186,-56.5 151,-56.5"/>
<text text-anchor="middle" x="168.5" y="-63.5" font-family="Helvetica,sans-Serif" font-size="10.00">map</text>
</a>
</g>
</g>
<!-- Node4&#45;&gt;Node7 -->
<g id="edge6" class="edge">
<title>Node4&#45;&gt;Node7</title>
<path fill="none" stroke="midnightblue" d="M168.5,-112.08C168.5,-105.01 168.5,-94.86 168.5,-85.99"/>
<polygon fill="midnightblue" stroke="midnightblue" points="172,-85.75 168.5,-75.75 165,-85.75 172,-85.75"/>
</g>
<!-- Node4&#45;&gt;Node8 -->
<g id="edge7" class="edge">
<title>Node4&#45;&gt;Node8</title>
<path fill="none" stroke="midnightblue" d="M180.87,-112.32C192.66,-104.06 210.63,-91.45 224.64,-81.63"/>
<polygon fill="midnightblue" stroke="midnightblue" points="226.98,-84.26 233.16,-75.65 222.96,-78.53 226.98,-84.26"/>
</g>
<!-- Node10 -->
<g id="node10" class="node">
<title>Node10</title>
<g id="a_node10"><a xlink:href="../../db/dd6/half__int_8hpp.html" target="_top" xlink:title=" ">
<polygon fill="white" stroke="black" points="305.5,-56.5 305.5,-75.5 403.5,-75.5 403.5,-56.5 305.5,-56.5"/>
<text text-anchor="middle" x="354.5" y="-63.5" font-family="Helvetica,sans-Serif" font-size="10.00">../type/half_int.hpp</text>
</a>
</g>
</g>
<!-- Node9&#45;&gt;Node10 -->
<g id="edge9" class="edge">
<title>Node9&#45;&gt;Node10</title>
<path fill="none" stroke="midnightblue" d="M354.5,-112.08C354.5,-105.01 354.5,-94.86 354.5,-85.99"/>
<polygon fill="midnightblue" stroke="midnightblue" points="358,-85.75 354.5,-75.75 351,-85.75 358,-85.75"/>
</g>
<!-- Node13 -->
<g id="node13" class="node">
<title>Node13</title>
<g id="a_node13"><a xlink:title=" ">
<polygon fill="white" stroke="#bfbfbf" points="421.5,-56.5 421.5,-75.5 467.5,-75.5 467.5,-56.5 421.5,-56.5"/>
<text text-anchor="middle" x="444.5" y="-63.5" font-family="Helvetica,sans-Serif" font-size="10.00">variant</text>
</a>
</g>
</g>
<!-- Node9&#45;&gt;Node13 -->
<g id="edge12" class="edge">
<title>Node9&#45;&gt;Node13</title>
<path fill="none" stroke="midnightblue" d="M368.96,-112.32C383,-103.9 404.55,-90.97 421.04,-81.07"/>
<polygon fill="midnightblue" stroke="midnightblue" points="423.3,-83.8 430.08,-75.65 419.7,-77.8 423.3,-83.8"/>
</g>
<!-- Node11 -->
<g id="node11" class="node">
<title>Node11</title>
<g id="a_node11"><a xlink:title=" ">
<polygon fill="white" stroke="#bfbfbf" points="297.5,-0.5 297.5,-19.5 341.5,-19.5 341.5,-0.5 297.5,-0.5"/>
<text text-anchor="middle" x="319.5" y="-7.5" font-family="Helvetica,sans-Serif" font-size="10.00">cmath</text>
</a>
</g>
</g>
<!-- Node10&#45;&gt;Node11 -->
<g id="edge10" class="edge">
<title>Node10&#45;&gt;Node11</title>
<path fill="none" stroke="midnightblue" d="M348.72,-56.08C343.83,-48.53 336.67,-37.49 330.67,-28.23"/>
<polygon fill="midnightblue" stroke="midnightblue" points="333.55,-26.24 325.17,-19.75 327.67,-30.05 333.55,-26.24"/>
</g>
<!-- Node12 -->
<g id="node12" class="node">
<title>Node12</title>
<g id="a_node12"><a xlink:title=" ">
<polygon fill="white" stroke="#bfbfbf" points="360,-0.5 360,-19.5 419,-19.5 419,-0.5 360,-0.5"/>
<text text-anchor="middle" x="389.5" y="-7.5" font-family="Helvetica,sans-Serif" font-size="10.00">stdexcept</text>
</a>
</g>
</g>
<!-- Node10&#45;&gt;Node12 -->
<g id="edge11" class="edge">
<title>Node10&#45;&gt;Node12</title>
<path fill="none" stroke="midnightblue" d="M360.28,-56.08C365.17,-48.53 372.33,-37.49 378.33,-28.23"/>
<polygon fill="midnightblue" stroke="midnightblue" points="381.33,-30.05 383.83,-19.75 375.45,-26.24 381.33,-30.05"/>
</g>
</g>
</svg>
