<?xml version="1.0" encoding="UTF-8" standalone="no"?>
<!DOCTYPE svg PUBLIC "-//W3C//DTD SVG 1.1//EN"
 "http://www.w3.org/Graphics/SVG/1.1/DTD/svg11.dtd">
<!-- Generated by graphviz version 2.50.0 (20211204.2007)
 -->
<!-- Title: compnal::model::Hubbard_1D&lt; RealType &gt; Pages: 1 -->
<svg width="331pt" height="405pt"
 viewBox="0.00 0.00 331.00 405.00" xmlns="http://www.w3.org/2000/svg" xmlns:xlink="http://www.w3.org/1999/xlink">
<g id="graph0" class="graph" transform="scale(1 1) rotate(0) translate(4 401)">
<title>compnal::model::Hubbard_1D&lt; RealType &gt;</title>
<polygon fill="white" stroke="transparent" points="-4,4 -4,-401 327,-401 327,4 -4,4"/>
<!-- Node1 -->
<g id="node1" class="node">
<title>Node1</title>
<g id="a_node1"><a xlink:title="The class for the one&#45;dimensional Hubbard model. The Hamiltonian reads.">
<polygon fill="#bfbfbf" stroke="black" points="29,-0.5 29,-30.5 157,-30.5 157,-0.5 29,-0.5"/>
<text text-anchor="start" x="37" y="-18.5" font-family="Helvetica,sans-Serif" font-size="10.00">compnal::model::Hubbard</text>
<text text-anchor="middle" x="93" y="-7.5" font-family="Helvetica,sans-Serif" font-size="10.00">_1D&lt; RealType &gt;</text>
</a>
</g>
</g>
<!-- Node2 -->
<g id="node2" class="node">
<title>Node2</title>
<g id="a_node2"><a xlink:href="../../d8/dc0/classcompnal_1_1model_1_1_base_u1_electron__1_d.html" target="_top" xlink:title="The base class for one&#45;dimensional electron systems with the U(1) symmetry.">
<polygon fill="white" stroke="black" points="155.5,-68.5 155.5,-98.5 318.5,-98.5 318.5,-68.5 155.5,-68.5"/>
<text text-anchor="start" x="163.5" y="-86.5" font-family="Helvetica,sans-Serif" font-size="10.00">compnal::model::BaseU1Electron</text>
<text text-anchor="middle" x="237" y="-75.5" font-family="Helvetica,sans-Serif" font-size="10.00">_1D&lt; RealType &gt;</text>
</a>
</g>
</g>
<!-- Node2&#45;&gt;Node1 -->
<g id="edge1" class="edge">
<title>Node2&#45;&gt;Node1</title>
<path fill="none" stroke="midnightblue" d="M196.9,-64.12C173.79,-53.53 145.18,-40.42 123.84,-30.64"/>
<polygon fill="midnightblue" stroke="midnightblue" points="195.56,-67.36 206.11,-68.34 198.48,-60.99 195.56,-67.36"/>
</g>
<!-- Node3 -->
<g id="node3" class="node">
<title>Node3</title>
<g id="a_node3"><a xlink:href="../../dd/da8/classcompnal_1_1type_1_1_c_r_s.html" target="_top" xlink:title=" ">
<polygon fill="white" stroke="black" points="0,-366.5 0,-396.5 106,-396.5 106,-366.5 0,-366.5"/>
<text text-anchor="start" x="8" y="-384.5" font-family="Helvetica,sans-Serif" font-size="10.00">compnal::type::CRS</text>
<text text-anchor="middle" x="53" y="-373.5" font-family="Helvetica,sans-Serif" font-size="10.00">&lt; RealType &gt;</text>
</a>
</g>
</g>
<!-- Node3&#45;&gt;Node1 -->
<g id="edge3" class="edge">
<title>Node3&#45;&gt;Node1</title>
<path fill="none" stroke="#9a32cd" stroke-dasharray="5,2" d="M46.66,-356.53C33.67,-302.75 8.36,-169.26 47,-68 52.64,-53.22 64.7,-39.99 75.05,-30.64"/>
<polygon fill="#9a32cd" stroke="#9a32cd" points="43.32,-357.62 49.14,-366.47 50.12,-355.92 43.32,-357.62"/>
<text text-anchor="middle" x="97" y="-81" font-family="Helvetica,sans-Serif" font-size="10.00"> onsite_operator_ham_</text>
</g>
<!-- Node3&#45;&gt;Node2 -->
<g id="edge2" class="edge">
<title>Node3&#45;&gt;Node2</title>
<path fill="none" stroke="#9a32cd" stroke-dasharray="5,2" d="M67.17,-357.71C103.42,-299.39 198.77,-145.99 228.21,-98.63"/>
<polygon fill="#9a32cd" stroke="#9a32cd" points="64.18,-355.88 61.87,-366.22 70.13,-359.58 64.18,-355.88"/>
<text text-anchor="start" x="214" y="-340" font-family="Helvetica,sans-Serif" font-size="10.00"> onsite_operator_c_down</text>
<text text-anchor="middle" x="268.5" y="-329" font-family="Helvetica,sans-Serif" font-size="10.00">_</text>
<text text-anchor="start" x="214" y="-318" font-family="Helvetica,sans-Serif" font-size="10.00">onsite_operator</text>
<text text-anchor="middle" x="268.5" y="-307" font-family="Helvetica,sans-Serif" font-size="10.00">_c_down_dagger_</text>
<text text-anchor="start" x="214" y="-296" font-family="Helvetica,sans-Serif" font-size="10.00">onsite_operator_c</text>
<text text-anchor="middle" x="268.5" y="-285" font-family="Helvetica,sans-Serif" font-size="10.00">_up_</text>
<text text-anchor="start" x="214" y="-274" font-family="Helvetica,sans-Serif" font-size="10.00">onsite_operator</text>
<text text-anchor="middle" x="268.5" y="-263" font-family="Helvetica,sans-Serif" font-size="10.00">_c_up_dagger_</text>
<text text-anchor="start" x="214" y="-252" font-family="Helvetica,sans-Serif" font-size="10.00">onsite_operator</text>
<text text-anchor="middle" x="268.5" y="-241" font-family="Helvetica,sans-Serif" font-size="10.00">_isy_</text>
<text text-anchor="start" x="214" y="-230" font-family="Helvetica,sans-Serif" font-size="10.00">onsite_operator</text>
<text text-anchor="middle" x="268.5" y="-219" font-family="Helvetica,sans-Serif" font-size="10.00">_nc_</text>
<text text-anchor="start" x="214" y="-208" font-family="Helvetica,sans-Serif" font-size="10.00">onsite_operator</text>
<text text-anchor="middle" x="268.5" y="-197" font-family="Helvetica,sans-Serif" font-size="10.00">_nc_down_</text>
<text text-anchor="start" x="214" y="-186" font-family="Helvetica,sans-Serif" font-size="10.00">onsite_operator</text>
<text text-anchor="middle" x="268.5" y="-175" font-family="Helvetica,sans-Serif" font-size="10.00">_nc_up_</text>
<text text-anchor="start" x="214" y="-164" font-family="Helvetica,sans-Serif" font-size="10.00">onsite_operator</text>
<text text-anchor="middle" x="268.5" y="-153" font-family="Helvetica,sans-Serif" font-size="10.00">_sm_</text>
<text text-anchor="start" x="214" y="-142" font-family="Helvetica,sans-Serif" font-size="10.00">onsite_operator</text>
<text text-anchor="middle" x="268.5" y="-131" font-family="Helvetica,sans-Serif" font-size="10.00">_sp_</text>
<text text-anchor="middle" x="268.5" y="-120" font-family="Helvetica,sans-Serif" font-size="10.00">...</text>
</g>
</g>
</svg>
