<?xml version="1.0" encoding="UTF-8" standalone="no"?>
<!DOCTYPE svg PUBLIC "-//W3C//DTD SVG 1.1//EN"
 "http://www.w3.org/Graphics/SVG/1.1/DTD/svg11.dtd">
<!-- Generated by graphviz version 2.50.0 (20211204.2007)
 -->
<!-- Title: src/blas/inverse_iteration.hpp Pages: 1 -->
<svg width="480pt" height="151pt"
 viewBox="0.00 0.00 479.50 151.00" xmlns="http://www.w3.org/2000/svg" xmlns:xlink="http://www.w3.org/1999/xlink">
<g id="graph0" class="graph" transform="scale(1 1) rotate(0) translate(4 147)">
<title>src/blas/inverse_iteration.hpp</title>
<polygon fill="white" stroke="transparent" points="-4,4 -4,-147 475.5,-147 475.5,4 -4,4"/>
<!-- Node1 -->
<g id="node1" class="node">
<title>Node1</title>
<g id="a_node1"><a xlink:title=" ">
<polygon fill="#bfbfbf" stroke="black" points="174.5,-123.5 174.5,-142.5 318.5,-142.5 318.5,-123.5 174.5,-123.5"/>
<text text-anchor="middle" x="246.5" y="-130.5" font-family="Helvetica,sans-Serif" font-size="10.00">src/blas/inverse_iteration.hpp</text>
</a>
</g>
</g>
<!-- Node2 -->
<g id="node2" class="node">
<title>Node2</title>
<g id="a_node2"><a xlink:href="../../d4/dc7/compressed__row__storage_8hpp.html" target="_top" xlink:title=" ">
<polygon fill="white" stroke="black" points="262,-56.5 262,-86.5 363,-86.5 363,-56.5 262,-56.5"/>
<text text-anchor="start" x="270" y="-74.5" font-family="Helvetica,sans-Serif" font-size="10.00">../type/compressed</text>
<text text-anchor="middle" x="312.5" y="-63.5" font-family="Helvetica,sans-Serif" font-size="10.00">_row_storage.hpp</text>
</a>
</g>
</g>
<!-- Node1&#45;&gt;Node2 -->
<g id="edge1" class="edge">
<title>Node1&#45;&gt;Node2</title>
<path fill="none" stroke="midnightblue" d="M255.96,-123.48C264.64,-115.64 277.88,-103.71 289.36,-93.37"/>
<polygon fill="midnightblue" stroke="midnightblue" points="291.86,-95.82 296.95,-86.52 287.17,-90.62 291.86,-95.82"/>
</g>
<!-- Node8 -->
<g id="node8" class="node">
<title>Node8</title>
<g id="a_node8"><a xlink:href="../../d4/ddc/braket__vector_8hpp.html" target="_top" xlink:title=" ">
<polygon fill="white" stroke="black" points="119,-62 119,-81 244,-81 244,-62 119,-62"/>
<text text-anchor="middle" x="181.5" y="-69" font-family="Helvetica,sans-Serif" font-size="10.00">../type/braket_vector.hpp</text>
</a>
</g>
</g>
<!-- Node1&#45;&gt;Node8 -->
<g id="edge7" class="edge">
<title>Node1&#45;&gt;Node8</title>
<path fill="none" stroke="midnightblue" d="M237.19,-123.48C227.05,-114.2 210.64,-99.17 198.25,-87.83"/>
<polygon fill="midnightblue" stroke="midnightblue" points="200.54,-85.18 190.8,-81.01 195.81,-90.34 200.54,-85.18"/>
</g>
<!-- Node3 -->
<g id="node3" class="node">
<title>Node3</title>
<g id="a_node3"><a xlink:title=" ">
<polygon fill="white" stroke="#bfbfbf" points="153.5,-0.5 153.5,-19.5 207.5,-19.5 207.5,-0.5 153.5,-0.5"/>
<text text-anchor="middle" x="180.5" y="-7.5" font-family="Helvetica,sans-Serif" font-size="10.00">iostream</text>
</a>
</g>
</g>
<!-- Node2&#45;&gt;Node3 -->
<g id="edge2" class="edge">
<title>Node2&#45;&gt;Node3</title>
<path fill="none" stroke="midnightblue" d="M281.22,-56.4C259.27,-46.51 230.16,-33.38 208.88,-23.79"/>
<polygon fill="midnightblue" stroke="midnightblue" points="210.26,-20.58 199.71,-19.66 207.39,-26.96 210.26,-20.58"/>
</g>
<!-- Node4 -->
<g id="node4" class="node">
<title>Node4</title>
<g id="a_node4"><a xlink:title=" ">
<polygon fill="white" stroke="#bfbfbf" points="425.5,-0.5 425.5,-19.5 471.5,-19.5 471.5,-0.5 425.5,-0.5"/>
<text text-anchor="middle" x="448.5" y="-7.5" font-family="Helvetica,sans-Serif" font-size="10.00">cstdint</text>
</a>
</g>
</g>
<!-- Node2&#45;&gt;Node4 -->
<g id="edge3" class="edge">
<title>Node2&#45;&gt;Node4</title>
<path fill="none" stroke="midnightblue" d="M344.73,-56.4C367.34,-46.51 397.34,-33.38 419.26,-23.79"/>
<polygon fill="midnightblue" stroke="midnightblue" points="420.95,-26.87 428.71,-19.66 418.15,-20.46 420.95,-26.87"/>
</g>
<!-- Node5 -->
<g id="node5" class="node">
<title>Node5</title>
<g id="a_node5"><a xlink:title=" ">
<polygon fill="white" stroke="#bfbfbf" points="225.5,-0.5 225.5,-19.5 269.5,-19.5 269.5,-0.5 225.5,-0.5"/>
<text text-anchor="middle" x="247.5" y="-7.5" font-family="Helvetica,sans-Serif" font-size="10.00">vector</text>
</a>
</g>
</g>
<!-- Node2&#45;&gt;Node5 -->
<g id="edge4" class="edge">
<title>Node2&#45;&gt;Node5</title>
<path fill="none" stroke="midnightblue" d="M297.1,-56.4C287.26,-47.4 274.51,-35.72 264.39,-26.47"/>
<polygon fill="midnightblue" stroke="midnightblue" points="266.7,-23.83 256.96,-19.66 261.97,-28.99 266.7,-23.83"/>
</g>
<!-- Node6 -->
<g id="node6" class="node">
<title>Node6</title>
<g id="a_node6"><a xlink:title=" ">
<polygon fill="white" stroke="#bfbfbf" points="357.5,-0.5 357.5,-19.5 407.5,-19.5 407.5,-0.5 357.5,-0.5"/>
<text text-anchor="middle" x="382.5" y="-7.5" font-family="Helvetica,sans-Serif" font-size="10.00">iomanip</text>
</a>
</g>
</g>
<!-- Node2&#45;&gt;Node6 -->
<g id="edge5" class="edge">
<title>Node2&#45;&gt;Node6</title>
<path fill="none" stroke="midnightblue" d="M329.09,-56.4C339.79,-47.31 353.69,-35.49 364.63,-26.19"/>
<polygon fill="midnightblue" stroke="midnightblue" points="366.96,-28.8 372.31,-19.66 362.43,-23.47 366.96,-28.8"/>
</g>
<!-- Node7 -->
<g id="node7" class="node">
<title>Node7</title>
<g id="a_node7"><a xlink:title=" ">
<polygon fill="white" stroke="#bfbfbf" points="287.5,-0.5 287.5,-19.5 339.5,-19.5 339.5,-0.5 287.5,-0.5"/>
<text text-anchor="middle" x="313.5" y="-7.5" font-family="Helvetica,sans-Serif" font-size="10.00">sstream</text>
</a>
</g>
</g>
<!-- Node2&#45;&gt;Node7 -->
<g id="edge6" class="edge">
<title>Node2&#45;&gt;Node7</title>
<path fill="none" stroke="midnightblue" d="M312.74,-56.4C312.87,-48.47 313.04,-38.46 313.18,-29.86"/>
<polygon fill="midnightblue" stroke="midnightblue" points="316.69,-29.72 313.35,-19.66 309.69,-29.6 316.69,-29.72"/>
</g>
<!-- Node8&#45;&gt;Node3 -->
<g id="edge8" class="edge">
<title>Node8&#45;&gt;Node3</title>
<path fill="none" stroke="midnightblue" d="M181.36,-61.98C181.22,-53.58 181,-40.48 180.81,-29.66"/>
<polygon fill="midnightblue" stroke="midnightblue" points="184.31,-29.45 180.64,-19.51 177.31,-29.57 184.31,-29.45"/>
</g>
<!-- Node8&#45;&gt;Node5 -->
<g id="edge10" class="edge">
<title>Node8&#45;&gt;Node5</title>
<path fill="none" stroke="midnightblue" d="M190.96,-61.98C201.25,-52.7 217.92,-37.67 230.49,-26.33"/>
<polygon fill="midnightblue" stroke="midnightblue" points="232.98,-28.8 238.06,-19.51 228.29,-23.61 232.98,-28.8"/>
</g>
<!-- Node8&#45;&gt;Node7 -->
<g id="edge9" class="edge">
<title>Node8&#45;&gt;Node7</title>
<path fill="none" stroke="midnightblue" d="M200.41,-61.98C222.66,-51.95 259.81,-35.2 285.43,-23.65"/>
<polygon fill="midnightblue" stroke="midnightblue" points="286.94,-26.81 294.62,-19.51 284.07,-20.43 286.94,-26.81"/>
</g>
<!-- Node9 -->
<g id="node9" class="node">
<title>Node9</title>
<g id="a_node9"><a xlink:title=" ">
<polygon fill="white" stroke="#bfbfbf" points="91.5,-0.5 91.5,-19.5 135.5,-19.5 135.5,-0.5 91.5,-0.5"/>
<text text-anchor="middle" x="113.5" y="-7.5" font-family="Helvetica,sans-Serif" font-size="10.00">cmath</text>
</a>
</g>
</g>
<!-- Node8&#45;&gt;Node9 -->
<g id="edge11" class="edge">
<title>Node8&#45;&gt;Node9</title>
<path fill="none" stroke="midnightblue" d="M171.76,-61.98C161.15,-52.7 143.98,-37.67 131.02,-26.33"/>
<polygon fill="midnightblue" stroke="midnightblue" points="133.06,-23.46 123.22,-19.51 128.45,-28.73 133.06,-23.46"/>
</g>
<!-- Node10 -->
<g id="node10" class="node">
<title>Node10</title>
<g id="a_node10"><a xlink:title=" ">
<polygon fill="white" stroke="#bfbfbf" points="0,-0.5 0,-19.5 73,-19.5 73,-0.5 0,-0.5"/>
<text text-anchor="middle" x="36.5" y="-7.5" font-family="Helvetica,sans-Serif" font-size="10.00">initializer_list</text>
</a>
</g>
</g>
<!-- Node8&#45;&gt;Node10 -->
<g id="edge12" class="edge">
<title>Node8&#45;&gt;Node10</title>
<path fill="none" stroke="midnightblue" d="M160.73,-61.98C136.07,-51.86 94.75,-34.9 66.6,-23.35"/>
<polygon fill="midnightblue" stroke="midnightblue" points="67.82,-20.07 57.24,-19.51 65.16,-26.54 67.82,-20.07"/>
</g>
</g>
</svg>
