<?xml version="1.0" encoding="UTF-8" standalone="no"?>
<!DOCTYPE svg PUBLIC "-//W3C//DTD SVG 1.1//EN"
 "http://www.w3.org/Graphics/SVG/1.1/DTD/svg11.dtd">
<!-- Generated by graphviz version 2.50.0 (20211204.2007)
 -->
<!-- Title: compnal::model::KondoLattice_1D&lt; RealType &gt; Pages: 1 -->
<svg width="323pt" height="405pt"
 viewBox="0.00 0.00 323.00 405.00" xmlns="http://www.w3.org/2000/svg" xmlns:xlink="http://www.w3.org/1999/xlink">
<g id="graph0" class="graph" transform="scale(1 1) rotate(0) translate(4 401)">
<title>compnal::model::KondoLattice_1D&lt; RealType &gt;</title>
<polygon fill="white" stroke="transparent" points="-4,4 -4,-401 319,-401 319,4 -4,4"/>
<!-- Node1 -->
<g id="node1" class="node">
<title>Node1</title>
<g id="a_node1"><a xlink:title="The class for the one&#45;dimensional Kondo lattice model with the magnitude of the spin ....">
<polygon fill="#bfbfbf" stroke="black" points="16.5,-0.5 16.5,-30.5 165.5,-30.5 165.5,-0.5 16.5,-0.5"/>
<text text-anchor="start" x="24.5" y="-18.5" font-family="Helvetica,sans-Serif" font-size="10.00">compnal::model::KondoLattice</text>
<text text-anchor="middle" x="91" y="-7.5" font-family="Helvetica,sans-Serif" font-size="10.00">_1D&lt; RealType &gt;</text>
</a>
</g>
</g>
<!-- Node2 -->
<g id="node2" class="node">
<title>Node2</title>
<g id="a_node2"><a xlink:href="../../de/d75/classcompnal_1_1model_1_1_base_u1_spin_electron__1_d.html" target="_top" xlink:title="The base class for one&#45;dimensional spin&#45;electron systems with the U(1) symmetry.">
<polygon fill="white" stroke="black" points="155,-68.5 155,-98.5 301,-98.5 301,-68.5 155,-68.5"/>
<text text-anchor="start" x="163" y="-86.5" font-family="Helvetica,sans-Serif" font-size="10.00">compnal::model::BaseU1Spin</text>
<text text-anchor="middle" x="228" y="-75.5" font-family="Helvetica,sans-Serif" font-size="10.00">Electron_1D&lt; RealType &gt;</text>
</a>
</g>
</g>
<!-- Node2&#45;&gt;Node1 -->
<g id="edge1" class="edge">
<title>Node2&#45;&gt;Node1</title>
<path fill="none" stroke="midnightblue" d="M189.56,-63.98C167.62,-53.41 140.56,-40.37 120.34,-30.64"/>
<polygon fill="midnightblue" stroke="midnightblue" points="188.08,-67.15 198.61,-68.34 191.12,-60.85 188.08,-67.15"/>
</g>
<!-- Node3 -->
<g id="node3" class="node">
<title>Node3</title>
<g id="a_node3"><a xlink:href="../../dd/da8/classcompnal_1_1type_1_1_c_r_s.html" target="_top" xlink:title=" ">
<polygon fill="white" stroke="black" points="0,-366.5 0,-396.5 106,-396.5 106,-366.5 0,-366.5"/>
<text text-anchor="start" x="8" y="-384.5" font-family="Helvetica,sans-Serif" font-size="10.00">compnal::type::CRS</text>
<text text-anchor="middle" x="53" y="-373.5" font-family="Helvetica,sans-Serif" font-size="10.00">&lt; RealType &gt;</text>
</a>
</g>
</g>
<!-- Node3&#45;&gt;Node1 -->
<g id="edge3" class="edge">
<title>Node3&#45;&gt;Node1</title>
<path fill="none" stroke="#9a32cd" stroke-dasharray="5,2" d="M46.62,-356.56C33.52,-302.84 7.91,-169.48 46,-68 51.51,-53.33 63.3,-40.09 73.43,-30.72"/>
<polygon fill="#9a32cd" stroke="#9a32cd" points="43.28,-357.65 49.12,-366.49 50.07,-355.94 43.28,-357.65"/>
<text text-anchor="middle" x="96" y="-81" font-family="Helvetica,sans-Serif" font-size="10.00"> onsite_operator_ham_</text>
</g>
<!-- Node3&#45;&gt;Node2 -->
<g id="edge2" class="edge">
<title>Node3&#45;&gt;Node2</title>
<path fill="none" stroke="#9a32cd" stroke-dasharray="5,2" d="M66.69,-357.35C101.33,-298.76 191.7,-145.9 219.64,-98.63"/>
<polygon fill="#9a32cd" stroke="#9a32cd" points="63.52,-355.83 61.44,-366.22 69.54,-359.4 63.52,-355.83"/>
<text text-anchor="start" x="206" y="-340" font-family="Helvetica,sans-Serif" font-size="10.00"> onsite_operator_c_down</text>
<text text-anchor="middle" x="260.5" y="-329" font-family="Helvetica,sans-Serif" font-size="10.00">_</text>
<text text-anchor="start" x="206" y="-318" font-family="Helvetica,sans-Serif" font-size="10.00">onsite_operator</text>
<text text-anchor="middle" x="260.5" y="-307" font-family="Helvetica,sans-Serif" font-size="10.00">_c_down_dagger_</text>
<text text-anchor="start" x="206" y="-296" font-family="Helvetica,sans-Serif" font-size="10.00">onsite_operator_c</text>
<text text-anchor="middle" x="260.5" y="-285" font-family="Helvetica,sans-Serif" font-size="10.00">_up_</text>
<text text-anchor="start" x="206" y="-274" font-family="Helvetica,sans-Serif" font-size="10.00">onsite_operator</text>
<text text-anchor="middle" x="260.5" y="-263" font-family="Helvetica,sans-Serif" font-size="10.00">_c_up_dagger_</text>
<text text-anchor="start" x="206" y="-252" font-family="Helvetica,sans-Serif" font-size="10.00">onsite_operator</text>
<text text-anchor="middle" x="260.5" y="-241" font-family="Helvetica,sans-Serif" font-size="10.00">_isyc_</text>
<text text-anchor="start" x="206" y="-230" font-family="Helvetica,sans-Serif" font-size="10.00">onsite_operator</text>
<text text-anchor="middle" x="260.5" y="-219" font-family="Helvetica,sans-Serif" font-size="10.00">_isyl_</text>
<text text-anchor="start" x="206" y="-208" font-family="Helvetica,sans-Serif" font-size="10.00">onsite_operator</text>
<text text-anchor="middle" x="260.5" y="-197" font-family="Helvetica,sans-Serif" font-size="10.00">_nc_</text>
<text text-anchor="start" x="206" y="-186" font-family="Helvetica,sans-Serif" font-size="10.00">onsite_operator</text>
<text text-anchor="middle" x="260.5" y="-175" font-family="Helvetica,sans-Serif" font-size="10.00">_nc_down_</text>
<text text-anchor="start" x="206" y="-164" font-family="Helvetica,sans-Serif" font-size="10.00">onsite_operator</text>
<text text-anchor="middle" x="260.5" y="-153" font-family="Helvetica,sans-Serif" font-size="10.00">_nc_up_</text>
<text text-anchor="start" x="206" y="-142" font-family="Helvetica,sans-Serif" font-size="10.00">onsite_operator</text>
<text text-anchor="middle" x="260.5" y="-131" font-family="Helvetica,sans-Serif" font-size="10.00">_scsl_</text>
<text text-anchor="middle" x="260.5" y="-120" font-family="Helvetica,sans-Serif" font-size="10.00">...</text>
</g>
</g>
</svg>
