<?xml version="1.0" encoding="UTF-8" standalone="no"?>
<!DOCTYPE svg PUBLIC "-//W3C//DTD SVG 1.1//EN"
 "http://www.w3.org/Graphics/SVG/1.1/DTD/svg11.dtd">
<!-- Generated by graphviz version 2.50.0 (20211204.2007)
 -->
<!-- Title: src/model/base_u1_spin_electron_1d.hpp Pages: 1 -->
<svg width="176pt" height="274pt"
 viewBox="0.00 0.00 176.00 274.00" xmlns="http://www.w3.org/2000/svg" xmlns:xlink="http://www.w3.org/1999/xlink">
<g id="graph0" class="graph" transform="scale(1 1) rotate(0) translate(4 270)">
<title>src/model/base_u1_spin_electron_1d.hpp</title>
<polygon fill="white" stroke="transparent" points="-4,4 -4,-270 172,-270 172,4 -4,4"/>
<!-- Node1 -->
<g id="node1" class="node">
<title>Node1</title>
<g id="a_node1"><a xlink:title=" ">
<polygon fill="#bfbfbf" stroke="black" points="3,-235.5 3,-265.5 125,-265.5 125,-235.5 3,-235.5"/>
<text text-anchor="start" x="11" y="-253.5" font-family="Helvetica,sans-Serif" font-size="10.00">src/model/base_u1_spin</text>
<text text-anchor="middle" x="64" y="-242.5" font-family="Helvetica,sans-Serif" font-size="10.00">_electron_1d.hpp</text>
</a>
</g>
</g>
<!-- Node2 -->
<g id="node2" class="node">
<title>Node2</title>
<g id="a_node2"><a xlink:href="../../da/d6e/model_2all_8hpp.html" target="_top" xlink:title=" ">
<polygon fill="white" stroke="black" points="18.5,-112.5 18.5,-131.5 109.5,-131.5 109.5,-112.5 18.5,-112.5"/>
<text text-anchor="middle" x="64" y="-119.5" font-family="Helvetica,sans-Serif" font-size="10.00">src/model/all.hpp</text>
</a>
</g>
</g>
<!-- Node1&#45;&gt;Node2 -->
<g id="edge1" class="edge">
<title>Node1&#45;&gt;Node2</title>
<path fill="none" stroke="midnightblue" d="M49.79,-226.41C45.43,-218.08 41.2,-208.41 39,-199 35.86,-185.58 35.54,-181.34 39,-168 42.54,-154.33 51.23,-140.39 57.37,-131.73"/>
<polygon fill="midnightblue" stroke="midnightblue" points="46.74,-228.13 54.67,-235.15 52.85,-224.72 46.74,-228.13"/>
</g>
<!-- Node5 -->
<g id="node5" class="node">
<title>Node5</title>
<g id="a_node5"><a xlink:href="../../d0/df4/kondo__lattice__1d_8hpp.html" target="_top" xlink:title=" ">
<polygon fill="white" stroke="black" points="48,-168.5 48,-198.5 168,-198.5 168,-168.5 48,-168.5"/>
<text text-anchor="start" x="56" y="-186.5" font-family="Helvetica,sans-Serif" font-size="10.00">src/model/kondo_lattice</text>
<text text-anchor="middle" x="108" y="-175.5" font-family="Helvetica,sans-Serif" font-size="10.00">_1d.hpp</text>
</a>
</g>
</g>
<!-- Node1&#45;&gt;Node5 -->
<g id="edge4" class="edge">
<title>Node1&#45;&gt;Node5</title>
<path fill="none" stroke="midnightblue" d="M79.32,-226.87C85.69,-217.46 92.88,-206.83 98.47,-198.58"/>
<polygon fill="midnightblue" stroke="midnightblue" points="76.25,-225.15 73.55,-235.4 82.05,-229.08 76.25,-225.15"/>
</g>
<!-- Node3 -->
<g id="node3" class="node">
<title>Node3</title>
<g id="a_node3"><a xlink:href="../../d3/df6/exact__diag_8hpp.html" target="_top" xlink:title=" ">
<polygon fill="white" stroke="black" points="0,-56.5 0,-75.5 128,-75.5 128,-56.5 0,-56.5"/>
<text text-anchor="middle" x="64" y="-63.5" font-family="Helvetica,sans-Serif" font-size="10.00">src/solver/exact_diag.hpp</text>
</a>
</g>
</g>
<!-- Node2&#45;&gt;Node3 -->
<g id="edge2" class="edge">
<title>Node2&#45;&gt;Node3</title>
<path fill="none" stroke="midnightblue" d="M64,-101.8C64,-92.91 64,-82.78 64,-75.75"/>
<polygon fill="midnightblue" stroke="midnightblue" points="60.5,-102.08 64,-112.08 67.5,-102.08 60.5,-102.08"/>
</g>
<!-- Node4 -->
<g id="node4" class="node">
<title>Node4</title>
<g id="a_node4"><a xlink:href="../../d5/d21/solver_2all_8hpp.html" target="_top" xlink:title=" ">
<polygon fill="white" stroke="black" points="18.5,-0.5 18.5,-19.5 109.5,-19.5 109.5,-0.5 18.5,-0.5"/>
<text text-anchor="middle" x="64" y="-7.5" font-family="Helvetica,sans-Serif" font-size="10.00">src/solver/all.hpp</text>
</a>
</g>
</g>
<!-- Node3&#45;&gt;Node4 -->
<g id="edge3" class="edge">
<title>Node3&#45;&gt;Node4</title>
<path fill="none" stroke="midnightblue" d="M64,-45.8C64,-36.91 64,-26.78 64,-19.75"/>
<polygon fill="midnightblue" stroke="midnightblue" points="60.5,-46.08 64,-56.08 67.5,-46.08 60.5,-46.08"/>
</g>
<!-- Node5&#45;&gt;Node2 -->
<g id="edge5" class="edge">
<title>Node5&#45;&gt;Node2</title>
<path fill="none" stroke="midnightblue" d="M91.44,-160.1C84.1,-150.19 75.91,-139.11 70.4,-131.66"/>
<polygon fill="midnightblue" stroke="midnightblue" points="88.81,-162.44 97.57,-168.4 94.44,-158.28 88.81,-162.44"/>
</g>
</g>
</svg>
