<?xml version="1.0" encoding="UTF-8" standalone="no"?>
<!DOCTYPE svg PUBLIC "-//W3C//DTD SVG 1.1//EN"
 "http://www.w3.org/Graphics/SVG/1.1/DTD/svg11.dtd">
<!-- Generated by graphviz version 2.50.0 (20211204.2007)
 -->
<!-- Title: src/type/all.hpp Pages: 1 -->
<svg width="557pt" height="140pt"
 viewBox="0.00 0.00 557.00 140.00" xmlns="http://www.w3.org/2000/svg" xmlns:xlink="http://www.w3.org/1999/xlink">
<g id="graph0" class="graph" transform="scale(1 1) rotate(0) translate(4 136)">
<title>src/type/all.hpp</title>
<polygon fill="white" stroke="transparent" points="-4,4 -4,-136 553,-136 553,4 -4,4"/>
<!-- Node1 -->
<g id="node1" class="node">
<title>Node1</title>
<g id="a_node1"><a xlink:title=" ">
<polygon fill="#bfbfbf" stroke="black" points="187,-112.5 187,-131.5 270,-131.5 270,-112.5 187,-112.5"/>
<text text-anchor="middle" x="228.5" y="-119.5" font-family="Helvetica,sans-Serif" font-size="10.00">src/type/all.hpp</text>
</a>
</g>
</g>
<!-- Node2 -->
<g id="node2" class="node">
<title>Node2</title>
<g id="a_node2"><a xlink:href="../../db/dd6/half__int_8hpp.html" target="_top" xlink:title=" ">
<polygon fill="white" stroke="black" points="66,-56.5 66,-75.5 133,-75.5 133,-56.5 66,-56.5"/>
<text text-anchor="middle" x="99.5" y="-63.5" font-family="Helvetica,sans-Serif" font-size="10.00">half_int.hpp</text>
</a>
</g>
</g>
<!-- Node1&#45;&gt;Node2 -->
<g id="edge1" class="edge">
<title>Node1&#45;&gt;Node2</title>
<path fill="none" stroke="midnightblue" d="M208.06,-112.44C186.83,-103.56 153.4,-89.56 129.25,-79.45"/>
<polygon fill="midnightblue" stroke="midnightblue" points="130.42,-76.15 119.84,-75.52 127.72,-82.61 130.42,-76.15"/>
</g>
<!-- Node5 -->
<g id="node5" class="node">
<title>Node5</title>
<g id="a_node5"><a xlink:href="../../d4/dc7/compressed__row__storage_8hpp.html" target="_top" xlink:title=" ">
<polygon fill="white" stroke="black" points="155,-56.5 155,-75.5 302,-75.5 302,-56.5 155,-56.5"/>
<text text-anchor="middle" x="228.5" y="-63.5" font-family="Helvetica,sans-Serif" font-size="10.00">compressed_row_storage.hpp</text>
</a>
</g>
</g>
<!-- Node1&#45;&gt;Node5 -->
<g id="edge4" class="edge">
<title>Node1&#45;&gt;Node5</title>
<path fill="none" stroke="midnightblue" d="M228.5,-112.08C228.5,-105.01 228.5,-94.86 228.5,-85.99"/>
<polygon fill="midnightblue" stroke="midnightblue" points="232,-85.75 228.5,-75.75 225,-85.75 232,-85.75"/>
</g>
<!-- Node11 -->
<g id="node11" class="node">
<title>Node11</title>
<g id="a_node11"><a xlink:href="../../d4/ddc/braket__vector_8hpp.html" target="_top" xlink:title=" ">
<polygon fill="white" stroke="black" points="320.5,-56.5 320.5,-75.5 414.5,-75.5 414.5,-56.5 320.5,-56.5"/>
<text text-anchor="middle" x="367.5" y="-63.5" font-family="Helvetica,sans-Serif" font-size="10.00">braket_vector.hpp</text>
</a>
</g>
</g>
<!-- Node1&#45;&gt;Node11 -->
<g id="edge10" class="edge">
<title>Node1&#45;&gt;Node11</title>
<path fill="none" stroke="midnightblue" d="M250.52,-112.44C273.6,-103.48 310.06,-89.31 336.14,-79.18"/>
<polygon fill="midnightblue" stroke="midnightblue" points="337.52,-82.4 345.58,-75.52 334.99,-75.88 337.52,-82.4"/>
</g>
<!-- Node3 -->
<g id="node3" class="node">
<title>Node3</title>
<g id="a_node3"><a xlink:title=" ">
<polygon fill="white" stroke="#bfbfbf" points="77.5,-0.5 77.5,-19.5 121.5,-19.5 121.5,-0.5 77.5,-0.5"/>
<text text-anchor="middle" x="99.5" y="-7.5" font-family="Helvetica,sans-Serif" font-size="10.00">cmath</text>
</a>
</g>
</g>
<!-- Node2&#45;&gt;Node3 -->
<g id="edge2" class="edge">
<title>Node2&#45;&gt;Node3</title>
<path fill="none" stroke="midnightblue" d="M99.5,-56.08C99.5,-49.01 99.5,-38.86 99.5,-29.99"/>
<polygon fill="midnightblue" stroke="midnightblue" points="103,-29.75 99.5,-19.75 96,-29.75 103,-29.75"/>
</g>
<!-- Node4 -->
<g id="node4" class="node">
<title>Node4</title>
<g id="a_node4"><a xlink:title=" ">
<polygon fill="white" stroke="#bfbfbf" points="0,-0.5 0,-19.5 59,-19.5 59,-0.5 0,-0.5"/>
<text text-anchor="middle" x="29.5" y="-7.5" font-family="Helvetica,sans-Serif" font-size="10.00">stdexcept</text>
</a>
</g>
</g>
<!-- Node2&#45;&gt;Node4 -->
<g id="edge3" class="edge">
<title>Node2&#45;&gt;Node4</title>
<path fill="none" stroke="midnightblue" d="M88.25,-56.32C77.7,-48.18 61.7,-35.84 49.06,-26.09"/>
<polygon fill="midnightblue" stroke="midnightblue" points="51.01,-23.17 40.95,-19.83 46.73,-28.71 51.01,-23.17"/>
</g>
<!-- Node6 -->
<g id="node6" class="node">
<title>Node6</title>
<g id="a_node6"><a xlink:title=" ">
<polygon fill="white" stroke="#bfbfbf" points="271.5,-0.5 271.5,-19.5 325.5,-19.5 325.5,-0.5 271.5,-0.5"/>
<text text-anchor="middle" x="298.5" y="-7.5" font-family="Helvetica,sans-Serif" font-size="10.00">iostream</text>
</a>
</g>
</g>
<!-- Node5&#45;&gt;Node6 -->
<g id="edge5" class="edge">
<title>Node5&#45;&gt;Node6</title>
<path fill="none" stroke="midnightblue" d="M239.75,-56.32C250.3,-48.18 266.3,-35.84 278.94,-26.09"/>
<polygon fill="midnightblue" stroke="midnightblue" points="281.27,-28.71 287.05,-19.83 276.99,-23.17 281.27,-28.71"/>
</g>
<!-- Node7 -->
<g id="node7" class="node">
<title>Node7</title>
<g id="a_node7"><a xlink:title=" ">
<polygon fill="white" stroke="#bfbfbf" points="139.5,-0.5 139.5,-19.5 185.5,-19.5 185.5,-0.5 139.5,-0.5"/>
<text text-anchor="middle" x="162.5" y="-7.5" font-family="Helvetica,sans-Serif" font-size="10.00">cstdint</text>
</a>
</g>
</g>
<!-- Node5&#45;&gt;Node7 -->
<g id="edge6" class="edge">
<title>Node5&#45;&gt;Node7</title>
<path fill="none" stroke="midnightblue" d="M217.9,-56.32C208.04,-48.26 193.15,-36.08 181.28,-26.37"/>
<polygon fill="midnightblue" stroke="midnightblue" points="183.25,-23.46 173.3,-19.83 178.82,-28.88 183.25,-23.46"/>
</g>
<!-- Node8 -->
<g id="node8" class="node">
<title>Node8</title>
<g id="a_node8"><a xlink:title=" ">
<polygon fill="white" stroke="#bfbfbf" points="343.5,-0.5 343.5,-19.5 387.5,-19.5 387.5,-0.5 343.5,-0.5"/>
<text text-anchor="middle" x="365.5" y="-7.5" font-family="Helvetica,sans-Serif" font-size="10.00">vector</text>
</a>
</g>
</g>
<!-- Node5&#45;&gt;Node8 -->
<g id="edge7" class="edge">
<title>Node5&#45;&gt;Node8</title>
<path fill="none" stroke="midnightblue" d="M250.21,-56.44C272.85,-47.52 308.57,-33.44 334.25,-23.32"/>
<polygon fill="midnightblue" stroke="midnightblue" points="335.87,-26.44 343.89,-19.52 333.31,-19.93 335.87,-26.44"/>
</g>
<!-- Node9 -->
<g id="node9" class="node">
<title>Node9</title>
<g id="a_node9"><a xlink:title=" ">
<polygon fill="white" stroke="#bfbfbf" points="203.5,-0.5 203.5,-19.5 253.5,-19.5 253.5,-0.5 203.5,-0.5"/>
<text text-anchor="middle" x="228.5" y="-7.5" font-family="Helvetica,sans-Serif" font-size="10.00">iomanip</text>
</a>
</g>
</g>
<!-- Node5&#45;&gt;Node9 -->
<g id="edge8" class="edge">
<title>Node5&#45;&gt;Node9</title>
<path fill="none" stroke="midnightblue" d="M228.5,-56.08C228.5,-49.01 228.5,-38.86 228.5,-29.99"/>
<polygon fill="midnightblue" stroke="midnightblue" points="232,-29.75 228.5,-19.75 225,-29.75 232,-29.75"/>
</g>
<!-- Node10 -->
<g id="node10" class="node">
<title>Node10</title>
<g id="a_node10"><a xlink:title=" ">
<polygon fill="white" stroke="#bfbfbf" points="405.5,-0.5 405.5,-19.5 457.5,-19.5 457.5,-0.5 405.5,-0.5"/>
<text text-anchor="middle" x="431.5" y="-7.5" font-family="Helvetica,sans-Serif" font-size="10.00">sstream</text>
</a>
</g>
</g>
<!-- Node5&#45;&gt;Node10 -->
<g id="edge9" class="edge">
<title>Node5&#45;&gt;Node10</title>
<path fill="none" stroke="midnightblue" d="M260.67,-56.44C297.41,-46.67 357.36,-30.72 395.6,-20.55"/>
<polygon fill="midnightblue" stroke="midnightblue" points="396.53,-23.92 405.29,-17.97 394.73,-17.16 396.53,-23.92"/>
</g>
<!-- Node11&#45;&gt;Node3 -->
<g id="edge14" class="edge">
<title>Node11&#45;&gt;Node3</title>
<path fill="none" stroke="midnightblue" d="M320.45,-57.42C274.59,-49.73 202.69,-36.88 131.78,-20.13"/>
<polygon fill="midnightblue" stroke="midnightblue" points="132.32,-16.66 121.78,-17.74 130.7,-23.47 132.32,-16.66"/>
</g>
<!-- Node11&#45;&gt;Node6 -->
<g id="edge11" class="edge">
<title>Node11&#45;&gt;Node6</title>
<path fill="none" stroke="midnightblue" d="M356.41,-56.32C346.01,-48.18 330.24,-35.84 317.78,-26.09"/>
<polygon fill="midnightblue" stroke="midnightblue" points="319.82,-23.24 309.79,-19.83 315.51,-28.75 319.82,-23.24"/>
</g>
<!-- Node11&#45;&gt;Node8 -->
<g id="edge13" class="edge">
<title>Node11&#45;&gt;Node8</title>
<path fill="none" stroke="midnightblue" d="M367.17,-56.08C366.91,-49.01 366.53,-38.86 366.2,-29.99"/>
<polygon fill="midnightblue" stroke="midnightblue" points="369.69,-29.61 365.82,-19.75 362.7,-29.87 369.69,-29.61"/>
</g>
<!-- Node11&#45;&gt;Node10 -->
<g id="edge12" class="edge">
<title>Node11&#45;&gt;Node10</title>
<path fill="none" stroke="midnightblue" d="M377.78,-56.32C387.34,-48.26 401.78,-36.08 413.28,-26.37"/>
<polygon fill="midnightblue" stroke="midnightblue" points="415.64,-28.96 421.03,-19.83 411.13,-23.61 415.64,-28.96"/>
</g>
<!-- Node12 -->
<g id="node12" class="node">
<title>Node12</title>
<g id="a_node12"><a xlink:title=" ">
<polygon fill="white" stroke="#bfbfbf" points="476,-0.5 476,-19.5 549,-19.5 549,-0.5 476,-0.5"/>
<text text-anchor="middle" x="512.5" y="-7.5" font-family="Helvetica,sans-Serif" font-size="10.00">initializer_list</text>
</a>
</g>
</g>
<!-- Node11&#45;&gt;Node12 -->
<g id="edge15" class="edge">
<title>Node11&#45;&gt;Node12</title>
<path fill="none" stroke="midnightblue" d="M390.48,-56.44C414.66,-47.44 452.92,-33.19 480.15,-23.05"/>
<polygon fill="midnightblue" stroke="midnightblue" points="481.48,-26.29 489.63,-19.52 479.04,-19.73 481.48,-26.29"/>
</g>
</g>
</svg>
