<?xml version="1.0" encoding="UTF-8" standalone="no"?>
<!DOCTYPE svg PUBLIC "-//W3C//DTD SVG 1.1//EN"
 "http://www.w3.org/Graphics/SVG/1.1/DTD/svg11.dtd">
<!-- Generated by graphviz version 2.50.0 (20211204.2007)
 -->
<!-- Title: src/blas/lapack.hpp Pages: 1 -->
<svg width="326pt" height="151pt"
 viewBox="0.00 0.00 326.00 151.00" xmlns="http://www.w3.org/2000/svg" xmlns:xlink="http://www.w3.org/1999/xlink">
<g id="graph0" class="graph" transform="scale(1 1) rotate(0) translate(4 147)">
<title>src/blas/lapack.hpp</title>
<polygon fill="white" stroke="transparent" points="-4,4 -4,-147 322,-147 322,4 -4,4"/>
<!-- Node1 -->
<g id="node1" class="node">
<title>Node1</title>
<g id="a_node1"><a xlink:title=" ">
<polygon fill="#bfbfbf" stroke="black" points="173.5,-123.5 173.5,-142.5 274.5,-142.5 274.5,-123.5 173.5,-123.5"/>
<text text-anchor="middle" x="224" y="-130.5" font-family="Helvetica,sans-Serif" font-size="10.00">src/blas/lapack.hpp</text>
</a>
</g>
</g>
<!-- Node2 -->
<g id="node2" class="node">
<title>Node2</title>
<g id="a_node2"><a xlink:href="../../d4/dc7/compressed__row__storage_8hpp.html" target="_top" xlink:title=" ">
<polygon fill="white" stroke="black" points="134.5,-56.5 134.5,-86.5 235.5,-86.5 235.5,-56.5 134.5,-56.5"/>
<text text-anchor="start" x="142.5" y="-74.5" font-family="Helvetica,sans-Serif" font-size="10.00">../type/compressed</text>
<text text-anchor="middle" x="185" y="-63.5" font-family="Helvetica,sans-Serif" font-size="10.00">_row_storage.hpp</text>
</a>
</g>
</g>
<!-- Node1&#45;&gt;Node2 -->
<g id="edge1" class="edge">
<title>Node1&#45;&gt;Node2</title>
<path fill="none" stroke="midnightblue" d="M218.41,-123.48C213.57,-116.09 206.35,-105.08 199.86,-95.17"/>
<polygon fill="midnightblue" stroke="midnightblue" points="202.6,-92.97 194.19,-86.52 196.75,-96.81 202.6,-92.97"/>
</g>
<!-- Node7 -->
<g id="node7" class="node">
<title>Node7</title>
<g id="a_node7"><a xlink:title=" ">
<polygon fill="white" stroke="#bfbfbf" points="266,-0.5 266,-19.5 318,-19.5 318,-0.5 266,-0.5"/>
<text text-anchor="middle" x="292" y="-7.5" font-family="Helvetica,sans-Serif" font-size="10.00">sstream</text>
</a>
</g>
</g>
<!-- Node1&#45;&gt;Node7 -->
<g id="edge7" class="edge">
<title>Node1&#45;&gt;Node7</title>
<path fill="none" stroke="midnightblue" d="M228.89,-123.3C240.02,-103.5 267.4,-54.78 282.17,-28.49"/>
<polygon fill="midnightblue" stroke="midnightblue" points="285.31,-30.06 287.15,-19.62 279.2,-26.63 285.31,-30.06"/>
</g>
<!-- Node3 -->
<g id="node3" class="node">
<title>Node3</title>
<g id="a_node3"><a xlink:title=" ">
<polygon fill="white" stroke="#bfbfbf" points="0,-0.5 0,-19.5 54,-19.5 54,-0.5 0,-0.5"/>
<text text-anchor="middle" x="27" y="-7.5" font-family="Helvetica,sans-Serif" font-size="10.00">iostream</text>
</a>
</g>
</g>
<!-- Node2&#45;&gt;Node3 -->
<g id="edge2" class="edge">
<title>Node2&#45;&gt;Node3</title>
<path fill="none" stroke="midnightblue" d="M147.56,-56.4C120.81,-46.33 85.18,-32.91 59.6,-23.28"/>
<polygon fill="midnightblue" stroke="midnightblue" points="60.58,-19.91 49.99,-19.66 58.12,-26.46 60.58,-19.91"/>
</g>
<!-- Node4 -->
<g id="node4" class="node">
<title>Node4</title>
<g id="a_node4"><a xlink:title=" ">
<polygon fill="white" stroke="#bfbfbf" points="72,-0.5 72,-19.5 118,-19.5 118,-0.5 72,-0.5"/>
<text text-anchor="middle" x="95" y="-7.5" font-family="Helvetica,sans-Serif" font-size="10.00">cstdint</text>
</a>
</g>
</g>
<!-- Node2&#45;&gt;Node4 -->
<g id="edge3" class="edge">
<title>Node2&#45;&gt;Node4</title>
<path fill="none" stroke="midnightblue" d="M163.67,-56.4C149.51,-47.04 130.99,-34.79 116.75,-25.38"/>
<polygon fill="midnightblue" stroke="midnightblue" points="118.37,-22.25 108.1,-19.66 114.51,-28.09 118.37,-22.25"/>
</g>
<!-- Node5 -->
<g id="node5" class="node">
<title>Node5</title>
<g id="a_node5"><a xlink:title=" ">
<polygon fill="white" stroke="#bfbfbf" points="136,-0.5 136,-19.5 180,-19.5 180,-0.5 136,-0.5"/>
<text text-anchor="middle" x="158" y="-7.5" font-family="Helvetica,sans-Serif" font-size="10.00">vector</text>
</a>
</g>
</g>
<!-- Node2&#45;&gt;Node5 -->
<g id="edge4" class="edge">
<title>Node2&#45;&gt;Node5</title>
<path fill="none" stroke="midnightblue" d="M178.6,-56.4C174.88,-48.2 170.15,-37.78 166.17,-28.99"/>
<polygon fill="midnightblue" stroke="midnightblue" points="169.25,-27.32 161.93,-19.66 162.87,-30.21 169.25,-27.32"/>
</g>
<!-- Node6 -->
<g id="node6" class="node">
<title>Node6</title>
<g id="a_node6"><a xlink:title=" ">
<polygon fill="white" stroke="#bfbfbf" points="198,-0.5 198,-19.5 248,-19.5 248,-0.5 198,-0.5"/>
<text text-anchor="middle" x="223" y="-7.5" font-family="Helvetica,sans-Serif" font-size="10.00">iomanip</text>
</a>
</g>
</g>
<!-- Node2&#45;&gt;Node6 -->
<g id="edge5" class="edge">
<title>Node2&#45;&gt;Node6</title>
<path fill="none" stroke="midnightblue" d="M194.01,-56.4C199.41,-47.93 206.33,-37.1 212.05,-28.14"/>
<polygon fill="midnightblue" stroke="midnightblue" points="215.04,-29.97 217.47,-19.66 209.14,-26.2 215.04,-29.97"/>
</g>
<!-- Node2&#45;&gt;Node7 -->
<g id="edge6" class="edge">
<title>Node2&#45;&gt;Node7</title>
<path fill="none" stroke="midnightblue" d="M210.36,-56.4C227.67,-46.77 250.48,-34.09 267.58,-24.58"/>
<polygon fill="midnightblue" stroke="midnightblue" points="269.39,-27.58 276.43,-19.66 265.99,-21.46 269.39,-27.58"/>
</g>
</g>
</svg>
