<?xml version="1.0" encoding="UTF-8" standalone="no"?>
<!DOCTYPE svg PUBLIC "-//W3C//DTD SVG 1.1//EN"
 "http://www.w3.org/Graphics/SVG/1.1/DTD/svg11.dtd">
<!-- Generated by graphviz version 2.50.0 (20211204.2007)
 -->
<!-- Title: src/model/hubbard_1d.hpp Pages: 1 -->
<svg width="590pt" height="319pt"
 viewBox="0.00 0.00 589.50 319.00" xmlns="http://www.w3.org/2000/svg" xmlns:xlink="http://www.w3.org/1999/xlink">
<g id="graph0" class="graph" transform="scale(1 1) rotate(0) translate(4 315)">
<title>src/model/hubbard_1d.hpp</title>
<polygon fill="white" stroke="transparent" points="-4,4 -4,-315 585.5,-315 585.5,4 -4,4"/>
<!-- Node1 -->
<g id="node1" class="node">
<title>Node1</title>
<g id="a_node1"><a xlink:title=" ">
<polygon fill="#bfbfbf" stroke="black" points="98.5,-291.5 98.5,-310.5 229.5,-310.5 229.5,-291.5 98.5,-291.5"/>
<text text-anchor="middle" x="164" y="-298.5" font-family="Helvetica,sans-Serif" font-size="10.00">src/model/hubbard_1d.hpp</text>
</a>
</g>
</g>
<!-- Node2 -->
<g id="node2" class="node">
<title>Node2</title>
<g id="a_node2"><a xlink:href="../../dd/da9/model_2utility_8hpp.html" target="_top" xlink:title=" ">
<polygon fill="white" stroke="black" points="83.5,-230 83.5,-249 146.5,-249 146.5,-230 83.5,-230"/>
<text text-anchor="middle" x="115" y="-237" font-family="Helvetica,sans-Serif" font-size="10.00">./utility.hpp</text>
</a>
</g>
</g>
<!-- Node1&#45;&gt;Node2 -->
<g id="edge1" class="edge">
<title>Node1&#45;&gt;Node2</title>
<path fill="none" stroke="midnightblue" d="M156.98,-291.48C149.56,-282.46 137.67,-268.02 128.43,-256.81"/>
<polygon fill="midnightblue" stroke="midnightblue" points="131.07,-254.5 122.01,-249.01 125.66,-258.95 131.07,-254.5"/>
</g>
<!-- Node4 -->
<g id="node4" class="node">
<title>Node4</title>
<g id="a_node4"><a xlink:href="../../d4/d22/base__u1__electron__1d_8hpp.html" target="_top" xlink:title=" ">
<polygon fill="white" stroke="black" points="288.5,-224.5 288.5,-254.5 387.5,-254.5 387.5,-224.5 288.5,-224.5"/>
<text text-anchor="start" x="296.5" y="-242.5" font-family="Helvetica,sans-Serif" font-size="10.00">./base_u1_electron</text>
<text text-anchor="middle" x="338" y="-231.5" font-family="Helvetica,sans-Serif" font-size="10.00">_1d.hpp</text>
</a>
</g>
</g>
<!-- Node1&#45;&gt;Node4 -->
<g id="edge3" class="edge">
<title>Node1&#45;&gt;Node4</title>
<path fill="none" stroke="midnightblue" d="M188.93,-291.48C214.48,-282.74 254.93,-268.91 287.25,-257.86"/>
<polygon fill="midnightblue" stroke="midnightblue" points="288.66,-261.07 296.99,-254.52 286.4,-254.45 288.66,-261.07"/>
</g>
<!-- Node3 -->
<g id="node3" class="node">
<title>Node3</title>
<g id="a_node3"><a xlink:title=" ">
<polygon fill="white" stroke="#bfbfbf" points="0,-0.5 0,-19.5 44,-19.5 44,-0.5 0,-0.5"/>
<text text-anchor="middle" x="22" y="-7.5" font-family="Helvetica,sans-Serif" font-size="10.00">cmath</text>
</a>
</g>
</g>
<!-- Node2&#45;&gt;Node3 -->
<g id="edge2" class="edge">
<title>Node2&#45;&gt;Node3</title>
<path fill="none" stroke="midnightblue" d="M106.08,-229.67C83.7,-206.81 25.47,-142.77 5,-76 0.15,-60.18 5.89,-41.94 11.98,-28.81"/>
<polygon fill="midnightblue" stroke="midnightblue" points="15.1,-30.4 16.53,-19.9 8.87,-27.21 15.1,-30.4"/>
</g>
<!-- Node5 -->
<g id="node5" class="node">
<title>Node5</title>
<g id="a_node5"><a xlink:title=" ">
<polygon fill="white" stroke="#bfbfbf" points="462.5,-168.5 462.5,-187.5 581.5,-187.5 581.5,-168.5 462.5,-168.5"/>
<text text-anchor="middle" x="522" y="-175.5" font-family="Helvetica,sans-Serif" font-size="10.00">../sparse_matrix/all.hpp</text>
</a>
</g>
</g>
<!-- Node4&#45;&gt;Node5 -->
<g id="edge4" class="edge">
<title>Node4&#45;&gt;Node5</title>
<path fill="none" stroke="midnightblue" d="M381.61,-224.4C413.4,-214.12 455.97,-200.35 485.87,-190.68"/>
<polygon fill="midnightblue" stroke="midnightblue" points="487.06,-193.98 495.49,-187.57 484.9,-187.32 487.06,-193.98"/>
</g>
<!-- Node6 -->
<g id="node6" class="node">
<title>Node6</title>
<g id="a_node6"><a xlink:href="../../d5/d8a/utility_2all_8hpp.html" target="_top" xlink:title=" ">
<polygon fill="white" stroke="black" points="230,-168.5 230,-187.5 310,-187.5 310,-168.5 230,-168.5"/>
<text text-anchor="middle" x="270" y="-175.5" font-family="Helvetica,sans-Serif" font-size="10.00">../utility/all.hpp</text>
</a>
</g>
</g>
<!-- Node4&#45;&gt;Node6 -->
<g id="edge5" class="edge">
<title>Node4&#45;&gt;Node6</title>
<path fill="none" stroke="midnightblue" d="M321.88,-224.4C311.6,-215.4 298.25,-203.72 287.67,-194.47"/>
<polygon fill="midnightblue" stroke="midnightblue" points="289.73,-191.61 279.89,-187.66 285.12,-196.88 289.73,-191.61"/>
</g>
<!-- Node11 -->
<g id="node11" class="node">
<title>Node11</title>
<g id="a_node11"><a xlink:title=" ">
<polygon fill="white" stroke="#bfbfbf" points="380.5,-56.5 380.5,-75.5 463.5,-75.5 463.5,-56.5 380.5,-56.5"/>
<text text-anchor="middle" x="422" y="-63.5" font-family="Helvetica,sans-Serif" font-size="10.00">unordered_map</text>
</a>
</g>
</g>
<!-- Node4&#45;&gt;Node11 -->
<g id="edge16" class="edge">
<title>Node4&#45;&gt;Node11</title>
<path fill="none" stroke="midnightblue" d="M340.49,-224.29C343.34,-209.73 348.72,-186.66 357,-168 371.09,-136.24 394.37,-103.04 408.91,-83.73"/>
<polygon fill="midnightblue" stroke="midnightblue" points="411.79,-85.72 415.09,-75.66 406.23,-81.47 411.79,-85.72"/>
</g>
<!-- Node16 -->
<g id="node16" class="node">
<title>Node16</title>
<g id="a_node16"><a xlink:title=" ">
<polygon fill="white" stroke="#bfbfbf" points="366,-168.5 366,-187.5 444,-187.5 444,-168.5 366,-168.5"/>
<text text-anchor="middle" x="405" y="-175.5" font-family="Helvetica,sans-Serif" font-size="10.00">unordered_set</text>
</a>
</g>
</g>
<!-- Node4&#45;&gt;Node16 -->
<g id="edge17" class="edge">
<title>Node4&#45;&gt;Node16</title>
<path fill="none" stroke="midnightblue" d="M353.88,-224.4C364.02,-215.4 377.16,-203.72 387.59,-194.47"/>
<polygon fill="midnightblue" stroke="midnightblue" points="390.1,-196.92 395.25,-187.66 385.45,-191.68 390.1,-196.92"/>
</g>
<!-- Node7 -->
<g id="node7" class="node">
<title>Node7</title>
<g id="a_node7"><a xlink:href="../../d0/dad/integer_8hpp.html" target="_top" xlink:title=" ">
<polygon fill="white" stroke="black" points="242,-112.5 242,-131.5 306,-131.5 306,-112.5 242,-112.5"/>
<text text-anchor="middle" x="274" y="-119.5" font-family="Helvetica,sans-Serif" font-size="10.00">integer.hpp</text>
</a>
</g>
</g>
<!-- Node6&#45;&gt;Node7 -->
<g id="edge6" class="edge">
<title>Node6&#45;&gt;Node7</title>
<path fill="none" stroke="midnightblue" d="M270.66,-168.08C271.18,-161.01 271.94,-150.86 272.59,-141.99"/>
<polygon fill="midnightblue" stroke="midnightblue" points="276.1,-141.98 273.35,-131.75 269.12,-141.47 276.1,-141.98"/>
</g>
<!-- Node12 -->
<g id="node12" class="node">
<title>Node12</title>
<g id="a_node12"><a xlink:href="../../d9/d04/hash_8hpp.html" target="_top" xlink:title=" ">
<polygon fill="white" stroke="black" points="99,-112.5 99,-131.5 155,-131.5 155,-112.5 99,-112.5"/>
<text text-anchor="middle" x="127" y="-119.5" font-family="Helvetica,sans-Serif" font-size="10.00">hash.hpp</text>
</a>
</g>
</g>
<!-- Node6&#45;&gt;Node12 -->
<g id="edge11" class="edge">
<title>Node6&#45;&gt;Node12</title>
<path fill="none" stroke="midnightblue" d="M247.34,-168.44C223.6,-159.48 186.09,-145.31 159.26,-135.18"/>
<polygon fill="midnightblue" stroke="midnightblue" points="160.14,-131.77 149.55,-131.52 157.67,-138.32 160.14,-131.77"/>
</g>
<!-- Node8 -->
<g id="node8" class="node">
<title>Node8</title>
<g id="a_node8"><a xlink:title=" ">
<polygon fill="white" stroke="#bfbfbf" points="310,-56.5 310,-75.5 362,-75.5 362,-56.5 310,-56.5"/>
<text text-anchor="middle" x="336" y="-63.5" font-family="Helvetica,sans-Serif" font-size="10.00">sstream</text>
</a>
</g>
</g>
<!-- Node7&#45;&gt;Node8 -->
<g id="edge7" class="edge">
<title>Node7&#45;&gt;Node8</title>
<path fill="none" stroke="midnightblue" d="M283.96,-112.32C293.13,-104.34 306.94,-92.31 318.03,-82.65"/>
<polygon fill="midnightblue" stroke="midnightblue" points="320.62,-85.04 325.86,-75.83 316.02,-79.76 320.62,-85.04"/>
</g>
<!-- Node9 -->
<g id="node9" class="node">
<title>Node9</title>
<g id="a_node9"><a xlink:title=" ">
<polygon fill="white" stroke="#bfbfbf" points="194,-56.5 194,-75.5 238,-75.5 238,-56.5 194,-56.5"/>
<text text-anchor="middle" x="216" y="-63.5" font-family="Helvetica,sans-Serif" font-size="10.00">vector</text>
</a>
</g>
</g>
<!-- Node7&#45;&gt;Node9 -->
<g id="edge8" class="edge">
<title>Node7&#45;&gt;Node9</title>
<path fill="none" stroke="midnightblue" d="M264.68,-112.32C256.11,-104.34 243.19,-92.31 232.81,-82.65"/>
<polygon fill="midnightblue" stroke="midnightblue" points="235.19,-80.09 225.49,-75.83 230.42,-85.21 235.19,-80.09"/>
</g>
<!-- Node10 -->
<g id="node10" class="node">
<title>Node10</title>
<g id="a_node10"><a xlink:title=" ">
<polygon fill="white" stroke="#bfbfbf" points="256.5,-56.5 256.5,-75.5 291.5,-75.5 291.5,-56.5 256.5,-56.5"/>
<text text-anchor="middle" x="274" y="-63.5" font-family="Helvetica,sans-Serif" font-size="10.00">map</text>
</a>
</g>
</g>
<!-- Node7&#45;&gt;Node10 -->
<g id="edge9" class="edge">
<title>Node7&#45;&gt;Node10</title>
<path fill="none" stroke="midnightblue" d="M274,-112.08C274,-105.01 274,-94.86 274,-85.99"/>
<polygon fill="midnightblue" stroke="midnightblue" points="277.5,-85.75 274,-75.75 270.5,-85.75 277.5,-85.75"/>
</g>
<!-- Node7&#45;&gt;Node11 -->
<g id="edge10" class="edge">
<title>Node7&#45;&gt;Node11</title>
<path fill="none" stroke="midnightblue" d="M297.45,-112.44C322.13,-103.44 361.19,-89.19 388.98,-79.05"/>
<polygon fill="midnightblue" stroke="midnightblue" points="390.46,-82.23 398.66,-75.52 388.06,-75.66 390.46,-82.23"/>
</g>
<!-- Node13 -->
<g id="node13" class="node">
<title>Node13</title>
<g id="a_node13"><a xlink:href="../../db/dd6/half__int_8hpp.html" target="_top" xlink:title=" ">
<polygon fill="white" stroke="black" points="78,-56.5 78,-75.5 176,-75.5 176,-56.5 78,-56.5"/>
<text text-anchor="middle" x="127" y="-63.5" font-family="Helvetica,sans-Serif" font-size="10.00">../type/half_int.hpp</text>
</a>
</g>
</g>
<!-- Node12&#45;&gt;Node13 -->
<g id="edge12" class="edge">
<title>Node12&#45;&gt;Node13</title>
<path fill="none" stroke="midnightblue" d="M127,-112.08C127,-105.01 127,-94.86 127,-85.99"/>
<polygon fill="midnightblue" stroke="midnightblue" points="130.5,-85.75 127,-75.75 123.5,-85.75 130.5,-85.75"/>
</g>
<!-- Node15 -->
<g id="node15" class="node">
<title>Node15</title>
<g id="a_node15"><a xlink:title=" ">
<polygon fill="white" stroke="#bfbfbf" points="14,-56.5 14,-75.5 60,-75.5 60,-56.5 14,-56.5"/>
<text text-anchor="middle" x="37" y="-63.5" font-family="Helvetica,sans-Serif" font-size="10.00">variant</text>
</a>
</g>
</g>
<!-- Node12&#45;&gt;Node15 -->
<g id="edge15" class="edge">
<title>Node12&#45;&gt;Node15</title>
<path fill="none" stroke="midnightblue" d="M112.54,-112.32C98.5,-103.9 76.95,-90.97 60.46,-81.07"/>
<polygon fill="midnightblue" stroke="midnightblue" points="61.8,-77.8 51.42,-75.65 58.2,-83.8 61.8,-77.8"/>
</g>
<!-- Node13&#45;&gt;Node3 -->
<g id="edge13" class="edge">
<title>Node13&#45;&gt;Node3</title>
<path fill="none" stroke="midnightblue" d="M110.13,-56.32C93.29,-47.66 67.19,-34.24 47.76,-24.25"/>
<polygon fill="midnightblue" stroke="midnightblue" points="49.32,-21.12 38.83,-19.65 46.12,-27.34 49.32,-21.12"/>
</g>
<!-- Node14 -->
<g id="node14" class="node">
<title>Node14</title>
<g id="a_node14"><a xlink:title=" ">
<polygon fill="white" stroke="#bfbfbf" points="97.5,-0.5 97.5,-19.5 156.5,-19.5 156.5,-0.5 97.5,-0.5"/>
<text text-anchor="middle" x="127" y="-7.5" font-family="Helvetica,sans-Serif" font-size="10.00">stdexcept</text>
</a>
</g>
</g>
<!-- Node13&#45;&gt;Node14 -->
<g id="edge14" class="edge">
<title>Node13&#45;&gt;Node14</title>
<path fill="none" stroke="midnightblue" d="M127,-56.08C127,-49.01 127,-38.86 127,-29.99"/>
<polygon fill="midnightblue" stroke="midnightblue" points="130.5,-29.75 127,-19.75 123.5,-29.75 130.5,-29.75"/>
</g>
</g>
</svg>
