<?xml version="1.0" encoding="UTF-8" standalone="no"?>
<!DOCTYPE svg PUBLIC "-//W3C//DTD SVG 1.1//EN"
 "http://www.w3.org/Graphics/SVG/1.1/DTD/svg11.dtd">
<!-- Generated by graphviz version 2.50.0 (20211204.2007)
 -->
<!-- Title: src/type/braket_vector.hpp Pages: 1 -->
<svg width="577pt" height="431pt"
 viewBox="0.00 0.00 576.50 431.00" xmlns="http://www.w3.org/2000/svg" xmlns:xlink="http://www.w3.org/1999/xlink">
<g id="graph0" class="graph" transform="scale(1 1) rotate(0) translate(4 427)">
<title>src/type/braket_vector.hpp</title>
<polygon fill="white" stroke="transparent" points="-4,4 -4,-427 572.5,-427 572.5,4 -4,4"/>
<!-- Node1 -->
<g id="node1" class="node">
<title>Node1</title>
<g id="a_node1"><a xlink:title=" ">
<polygon fill="#bfbfbf" stroke="black" points="255,-403.5 255,-422.5 387,-422.5 387,-403.5 255,-403.5"/>
<text text-anchor="middle" x="321" y="-410.5" font-family="Helvetica,sans-Serif" font-size="10.00">src/type/braket_vector.hpp</text>
</a>
</g>
</g>
<!-- Node2 -->
<g id="node2" class="node">
<title>Node2</title>
<g id="a_node2"><a xlink:href="../../df/daf/conjugate__gradient_8hpp.html" target="_top" xlink:title=" ">
<polygon fill="white" stroke="black" points="444,-280.5 444,-310.5 540,-310.5 540,-280.5 444,-280.5"/>
<text text-anchor="start" x="452" y="-298.5" font-family="Helvetica,sans-Serif" font-size="10.00">src/blas/conjugate</text>
<text text-anchor="middle" x="492" y="-287.5" font-family="Helvetica,sans-Serif" font-size="10.00">_gradient.hpp</text>
</a>
</g>
</g>
<!-- Node1&#45;&gt;Node2 -->
<g id="edge1" class="edge">
<title>Node1&#45;&gt;Node2</title>
<path fill="none" stroke="midnightblue" d="M342.32,-397.6C375.35,-375.29 438.5,-332.64 471.21,-310.55"/>
<polygon fill="midnightblue" stroke="midnightblue" points="340.18,-394.82 333.85,-403.32 344.1,-400.62 340.18,-394.82"/>
</g>
<!-- Node9 -->
<g id="node9" class="node">
<title>Node9</title>
<g id="a_node9"><a xlink:href="../../df/d20/eigendecomposition_8hpp.html" target="_top" xlink:title=" ">
<polygon fill="white" stroke="black" points="96.5,-286 96.5,-305 255.5,-305 255.5,-286 96.5,-286"/>
<text text-anchor="middle" x="176" y="-293" font-family="Helvetica,sans-Serif" font-size="10.00">src/blas/eigendecomposition.hpp</text>
</a>
</g>
</g>
<!-- Node1&#45;&gt;Node9 -->
<g id="edge9" class="edge">
<title>Node1&#45;&gt;Node9</title>
<path fill="none" stroke="midnightblue" d="M254.83,-400.71C233.54,-394.08 211.49,-383.6 196,-367 179.68,-349.51 176.54,-319.69 176.03,-305.08"/>
<polygon fill="midnightblue" stroke="midnightblue" points="253.95,-404.1 264.53,-403.48 255.88,-397.37 253.95,-404.1"/>
</g>
<!-- Node10 -->
<g id="node10" class="node">
<title>Node10</title>
<g id="a_node10"><a xlink:href="../../de/d83/inverse__iteration_8hpp.html" target="_top" xlink:title=" ">
<polygon fill="white" stroke="black" points="0,-347.5 0,-366.5 144,-366.5 144,-347.5 0,-347.5"/>
<text text-anchor="middle" x="72" y="-354.5" font-family="Helvetica,sans-Serif" font-size="10.00">src/blas/inverse_iteration.hpp</text>
</a>
</g>
</g>
<!-- Node1&#45;&gt;Node10 -->
<g id="edge11" class="edge">
<title>Node1&#45;&gt;Node10</title>
<path fill="none" stroke="midnightblue" d="M271.58,-401.28C224.52,-391.08 154.63,-375.92 111.27,-366.52"/>
<polygon fill="midnightblue" stroke="midnightblue" points="271.03,-404.74 281.55,-403.44 272.51,-397.9 271.03,-404.74"/>
</g>
<!-- Node11 -->
<g id="node11" class="node">
<title>Node11</title>
<g id="a_node11"><a xlink:href="../../db/d59/matrix__vector__operation_8hpp.html" target="_top" xlink:title=" ">
<polygon fill="white" stroke="black" points="312.5,-280.5 312.5,-310.5 425.5,-310.5 425.5,-280.5 312.5,-280.5"/>
<text text-anchor="start" x="320.5" y="-298.5" font-family="Helvetica,sans-Serif" font-size="10.00">src/blas/matrix_vector</text>
<text text-anchor="middle" x="369" y="-287.5" font-family="Helvetica,sans-Serif" font-size="10.00">_operation.hpp</text>
</a>
</g>
</g>
<!-- Node1&#45;&gt;Node11 -->
<g id="edge13" class="edge">
<title>Node1&#45;&gt;Node11</title>
<path fill="none" stroke="midnightblue" d="M334.31,-395.02C340.13,-386.91 346.61,-376.85 351,-367 359.27,-348.42 364.26,-325.33 366.82,-310.74"/>
<polygon fill="midnightblue" stroke="midnightblue" points="331.36,-393.12 328.17,-403.22 336.96,-397.31 331.36,-393.12"/>
</g>
<!-- Node12 -->
<g id="node12" class="node">
<title>Node12</title>
<g id="a_node12"><a xlink:href="../../df/d88/orthonormalize_8hpp.html" target="_top" xlink:title=" ">
<polygon fill="white" stroke="black" points="204.5,-347.5 204.5,-366.5 341.5,-366.5 341.5,-347.5 204.5,-347.5"/>
<text text-anchor="middle" x="273" y="-354.5" font-family="Helvetica,sans-Serif" font-size="10.00">src/blas/orthonormalize.hpp</text>
</a>
</g>
</g>
<!-- Node1&#45;&gt;Node12 -->
<g id="edge15" class="edge">
<title>Node1&#45;&gt;Node12</title>
<path fill="none" stroke="midnightblue" d="M306.27,-395.43C297.86,-385.97 287.65,-374.48 280.78,-366.75"/>
<polygon fill="midnightblue" stroke="midnightblue" points="303.81,-397.93 313.07,-403.08 309.05,-393.28 303.81,-397.93"/>
</g>
<!-- Node13 -->
<g id="node13" class="node">
<title>Node13</title>
<g id="a_node13"><a xlink:href="../../d9/dd5/type_2all_8hpp.html" target="_top" xlink:title=" ">
<polygon fill="white" stroke="black" points="485.5,-224.5 485.5,-243.5 568.5,-243.5 568.5,-224.5 485.5,-224.5"/>
<text text-anchor="middle" x="527" y="-231.5" font-family="Helvetica,sans-Serif" font-size="10.00">src/type/all.hpp</text>
</a>
</g>
</g>
<!-- Node1&#45;&gt;Node13 -->
<g id="edge18" class="edge">
<title>Node1&#45;&gt;Node13</title>
<path fill="none" stroke="midnightblue" d="M392.69,-401.27C445.8,-389.16 514.67,-363.75 549,-311 563.09,-289.36 544.62,-258.51 533.81,-243.66"/>
<polygon fill="midnightblue" stroke="midnightblue" points="391.67,-397.91 382.64,-403.45 393.15,-404.75 391.67,-397.91"/>
</g>
<!-- Node3 -->
<g id="node3" class="node">
<title>Node3</title>
<g id="a_node3"><a xlink:href="../../dd/de6/blas_2all_8hpp.html" target="_top" xlink:title=" ">
<polygon fill="white" stroke="black" points="284.5,-224.5 284.5,-243.5 367.5,-243.5 367.5,-224.5 284.5,-224.5"/>
<text text-anchor="middle" x="326" y="-231.5" font-family="Helvetica,sans-Serif" font-size="10.00">src/blas/all.hpp</text>
</a>
</g>
</g>
<!-- Node2&#45;&gt;Node3 -->
<g id="edge2" class="edge">
<title>Node2&#45;&gt;Node3</title>
<path fill="none" stroke="midnightblue" d="M443.02,-276.94C412.43,-265.98 374.4,-252.35 350.15,-243.66"/>
<polygon fill="midnightblue" stroke="midnightblue" points="442.07,-280.32 452.66,-280.4 444.43,-273.73 442.07,-280.32"/>
</g>
<!-- Node4 -->
<g id="node4" class="node">
<title>Node4</title>
<g id="a_node4"><a xlink:href="../../da/d72/base__u1__spin_8hpp.html" target="_top" xlink:title=" ">
<polygon fill="white" stroke="black" points="416.5,-168.5 416.5,-187.5 557.5,-187.5 557.5,-168.5 416.5,-168.5"/>
<text text-anchor="middle" x="487" y="-175.5" font-family="Helvetica,sans-Serif" font-size="10.00">src/model/base_u1_spin.hpp</text>
</a>
</g>
</g>
<!-- Node3&#45;&gt;Node4 -->
<g id="edge3" class="edge">
<title>Node3&#45;&gt;Node4</title>
<path fill="none" stroke="midnightblue" d="M361.26,-221.17C391.58,-211 434.57,-196.59 461.61,-187.52"/>
<polygon fill="midnightblue" stroke="midnightblue" points="359.88,-217.95 351.51,-224.44 362.1,-224.58 359.88,-217.95"/>
</g>
<!-- Node8 -->
<g id="node8" class="node">
<title>Node8</title>
<g id="a_node8"><a xlink:href="../../d9/d56/general__model_8hpp.html" target="_top" xlink:title=" ">
<polygon fill="white" stroke="black" points="254,-168.5 254,-187.5 398,-187.5 398,-168.5 254,-168.5"/>
<text text-anchor="middle" x="326" y="-175.5" font-family="Helvetica,sans-Serif" font-size="10.00">src/model/general_model.hpp</text>
</a>
</g>
</g>
<!-- Node3&#45;&gt;Node8 -->
<g id="edge7" class="edge">
<title>Node3&#45;&gt;Node8</title>
<path fill="none" stroke="midnightblue" d="M326,-213.8C326,-204.91 326,-194.78 326,-187.75"/>
<polygon fill="midnightblue" stroke="midnightblue" points="322.5,-214.08 326,-224.08 329.5,-214.08 322.5,-214.08"/>
</g>
<!-- Node5 -->
<g id="node5" class="node">
<title>Node5</title>
<g id="a_node5"><a xlink:href="../../da/d6e/model_2all_8hpp.html" target="_top" xlink:title=" ">
<polygon fill="white" stroke="black" points="360.5,-112.5 360.5,-131.5 451.5,-131.5 451.5,-112.5 360.5,-112.5"/>
<text text-anchor="middle" x="406" y="-119.5" font-family="Helvetica,sans-Serif" font-size="10.00">src/model/all.hpp</text>
</a>
</g>
</g>
<!-- Node4&#45;&gt;Node5 -->
<g id="edge4" class="edge">
<title>Node4&#45;&gt;Node5</title>
<path fill="none" stroke="midnightblue" d="M465.43,-162.62C450.64,-152.76 431.49,-139.99 418.98,-131.65"/>
<polygon fill="midnightblue" stroke="midnightblue" points="463.72,-165.69 473.99,-168.32 467.61,-159.86 463.72,-165.69"/>
</g>
<!-- Node6 -->
<g id="node6" class="node">
<title>Node6</title>
<g id="a_node6"><a xlink:href="../../d3/df6/exact__diag_8hpp.html" target="_top" xlink:title=" ">
<polygon fill="white" stroke="black" points="342,-56.5 342,-75.5 470,-75.5 470,-56.5 342,-56.5"/>
<text text-anchor="middle" x="406" y="-63.5" font-family="Helvetica,sans-Serif" font-size="10.00">src/solver/exact_diag.hpp</text>
</a>
</g>
</g>
<!-- Node5&#45;&gt;Node6 -->
<g id="edge5" class="edge">
<title>Node5&#45;&gt;Node6</title>
<path fill="none" stroke="midnightblue" d="M406,-101.8C406,-92.91 406,-82.78 406,-75.75"/>
<polygon fill="midnightblue" stroke="midnightblue" points="402.5,-102.08 406,-112.08 409.5,-102.08 402.5,-102.08"/>
</g>
<!-- Node7 -->
<g id="node7" class="node">
<title>Node7</title>
<g id="a_node7"><a xlink:href="../../d5/d21/solver_2all_8hpp.html" target="_top" xlink:title=" ">
<polygon fill="white" stroke="black" points="360.5,-0.5 360.5,-19.5 451.5,-19.5 451.5,-0.5 360.5,-0.5"/>
<text text-anchor="middle" x="406" y="-7.5" font-family="Helvetica,sans-Serif" font-size="10.00">src/solver/all.hpp</text>
</a>
</g>
</g>
<!-- Node6&#45;&gt;Node7 -->
<g id="edge6" class="edge">
<title>Node6&#45;&gt;Node7</title>
<path fill="none" stroke="midnightblue" d="M406,-45.8C406,-36.91 406,-26.78 406,-19.75"/>
<polygon fill="midnightblue" stroke="midnightblue" points="402.5,-46.08 406,-56.08 409.5,-46.08 402.5,-46.08"/>
</g>
<!-- Node8&#45;&gt;Node5 -->
<g id="edge8" class="edge">
<title>Node8&#45;&gt;Node5</title>
<path fill="none" stroke="midnightblue" d="M347.3,-162.62C361.92,-152.76 380.83,-139.99 393.18,-131.65"/>
<polygon fill="midnightblue" stroke="midnightblue" points="345.18,-159.83 338.85,-168.32 349.1,-165.63 345.18,-159.83"/>
</g>
<!-- Node9&#45;&gt;Node3 -->
<g id="edge10" class="edge">
<title>Node9&#45;&gt;Node3</title>
<path fill="none" stroke="midnightblue" d="M206.8,-282.28C235.95,-270.72 278.95,-253.66 304.55,-243.51"/>
<polygon fill="midnightblue" stroke="midnightblue" points="205.5,-279.03 197.49,-285.98 208.08,-285.54 205.5,-279.03"/>
</g>
<!-- Node10&#45;&gt;Node3 -->
<g id="edge12" class="edge">
<title>Node10&#45;&gt;Node3</title>
<path fill="none" stroke="midnightblue" d="M70.54,-337.23C70.3,-319.94 72.91,-294.78 88,-280 115.3,-253.26 223.8,-241.81 284.44,-237.41"/>
<polygon fill="midnightblue" stroke="midnightblue" points="67.05,-337.45 71.01,-347.27 74.04,-337.12 67.05,-337.45"/>
</g>
<!-- Node11&#45;&gt;Node3 -->
<g id="edge14" class="edge">
<title>Node11&#45;&gt;Node3</title>
<path fill="none" stroke="midnightblue" d="M352.81,-272.1C345.65,-262.19 337.64,-251.11 332.26,-243.66"/>
<polygon fill="midnightblue" stroke="midnightblue" points="350.12,-274.34 358.81,-280.4 355.79,-270.24 350.12,-274.34"/>
</g>
<!-- Node12&#45;&gt;Node3 -->
<g id="edge16" class="edge">
<title>Node12&#45;&gt;Node3</title>
<path fill="none" stroke="midnightblue" d="M279.91,-338.08C285.99,-322.59 295.2,-299.65 304,-280 309.76,-267.14 317.04,-252.54 321.61,-243.55"/>
<polygon fill="midnightblue" stroke="midnightblue" points="276.62,-336.9 276.26,-347.49 283.14,-339.44 276.62,-336.9"/>
</g>
<!-- Node12&#45;&gt;Node9 -->
<g id="edge17" class="edge">
<title>Node12&#45;&gt;Node9</title>
<path fill="none" stroke="midnightblue" d="M250.57,-342.24C231.84,-330.75 205.71,-314.72 189.87,-305.01"/>
<polygon fill="midnightblue" stroke="midnightblue" points="248.75,-345.23 259.1,-347.48 252.41,-339.26 248.75,-345.23"/>
</g>
<!-- Node13&#45;&gt;Node4 -->
<g id="edge19" class="edge">
<title>Node13&#45;&gt;Node4</title>
<path fill="none" stroke="midnightblue" d="M514.3,-215.86C507.37,-206.5 499.09,-195.33 493.48,-187.75"/>
<polygon fill="midnightblue" stroke="midnightblue" points="511.63,-218.13 520.39,-224.08 517.25,-213.96 511.63,-218.13"/>
</g>
</g>
</svg>
