<?xml version="1.0" encoding="UTF-8" standalone="no"?>
<!DOCTYPE svg PUBLIC "-//W3C//DTD SVG 1.1//EN"
 "http://www.w3.org/Graphics/SVG/1.1/DTD/svg11.dtd">
<!-- Generated by graphviz version 2.50.0 (20211204.2007)
 -->
<!-- Title: src/blas/all.hpp Pages: 1 -->
<svg width="739pt" height="263pt"
 viewBox="0.00 0.00 738.90 263.00" xmlns="http://www.w3.org/2000/svg" xmlns:xlink="http://www.w3.org/1999/xlink">
<g id="graph0" class="graph" transform="scale(1 1) rotate(0) translate(4 259)">
<title>src/blas/all.hpp</title>
<polygon fill="white" stroke="transparent" points="-4,4 -4,-259 734.9,-259 734.9,4 -4,4"/>
<!-- Node1 -->
<g id="node1" class="node">
<title>Node1</title>
<g id="a_node1"><a xlink:title=" ">
<polygon fill="#bfbfbf" stroke="black" points="403.4,-235.5 403.4,-254.5 486.4,-254.5 486.4,-235.5 403.4,-235.5"/>
<text text-anchor="middle" x="444.9" y="-242.5" font-family="Helvetica,sans-Serif" font-size="10.00">src/blas/all.hpp</text>
</a>
</g>
</g>
<!-- Node2 -->
<g id="node2" class="node">
<title>Node2</title>
<g id="a_node2"><a xlink:href="../../df/d20/eigendecomposition_8hpp.html" target="_top" xlink:title=" ">
<polygon fill="white" stroke="black" points="428.9,-179.5 428.9,-198.5 550.9,-198.5 550.9,-179.5 428.9,-179.5"/>
<text text-anchor="middle" x="489.9" y="-186.5" font-family="Helvetica,sans-Serif" font-size="10.00">eigendecomposition.hpp</text>
</a>
</g>
</g>
<!-- Node1&#45;&gt;Node2 -->
<g id="edge1" class="edge">
<title>Node1&#45;&gt;Node2</title>
<path fill="none" stroke="midnightblue" d="M452.33,-235.08C458.75,-227.38 468.21,-216.03 476.02,-206.65"/>
<polygon fill="midnightblue" stroke="midnightblue" points="478.9,-208.67 482.61,-198.75 473.52,-204.19 478.9,-208.67"/>
</g>
<!-- Node12 -->
<g id="node12" class="node">
<title>Node12</title>
<g id="a_node12"><a xlink:href="../../df/dd2/lapack_8hpp.html" target="_top" xlink:title=" ">
<polygon fill="white" stroke="black" points="666.9,-123.5 666.9,-142.5 730.9,-142.5 730.9,-123.5 666.9,-123.5"/>
<text text-anchor="middle" x="698.9" y="-130.5" font-family="Helvetica,sans-Serif" font-size="10.00">lapack.hpp</text>
</a>
</g>
</g>
<!-- Node1&#45;&gt;Node12 -->
<g id="edge22" class="edge">
<title>Node1&#45;&gt;Node12</title>
<path fill="none" stroke="midnightblue" d="M476.54,-235.46C504.73,-227.42 546.81,-214.35 581.9,-199 616.14,-184.03 653.54,-162.21 676.61,-148.06"/>
<polygon fill="midnightblue" stroke="midnightblue" points="678.63,-150.93 685.29,-142.69 674.95,-144.98 678.63,-150.93"/>
</g>
<!-- Node13 -->
<g id="node13" class="node">
<title>Node13</title>
<g id="a_node13"><a xlink:href="../../df/d88/orthonormalize_8hpp.html" target="_top" xlink:title=" ">
<polygon fill="white" stroke="black" points="549.4,-123.5 549.4,-142.5 648.4,-142.5 648.4,-123.5 549.4,-123.5"/>
<text text-anchor="middle" x="598.9" y="-130.5" font-family="Helvetica,sans-Serif" font-size="10.00">orthonormalize.hpp</text>
</a>
</g>
</g>
<!-- Node1&#45;&gt;Node13 -->
<g id="edge34" class="edge">
<title>Node1&#45;&gt;Node13</title>
<path fill="none" stroke="midnightblue" d="M484.22,-235.49C508.16,-228.75 538.2,-217.34 559.9,-199 574.78,-186.42 585.5,-166.65 591.88,-152.21"/>
<polygon fill="midnightblue" stroke="midnightblue" points="595.18,-153.4 595.77,-142.82 588.71,-150.73 595.18,-153.4"/>
</g>
<!-- Node15 -->
<g id="node15" class="node">
<title>Node15</title>
<g id="a_node15"><a xlink:href="../../db/d59/matrix__vector__operation_8hpp.html" target="_top" xlink:title=" ">
<polygon fill="white" stroke="black" points="150.9,-123.5 150.9,-142.5 290.9,-142.5 290.9,-123.5 150.9,-123.5"/>
<text text-anchor="middle" x="220.9" y="-130.5" font-family="Helvetica,sans-Serif" font-size="10.00">matrix_vector_operation.hpp</text>
</a>
</g>
</g>
<!-- Node1&#45;&gt;Node15 -->
<g id="edge23" class="edge">
<title>Node1&#45;&gt;Node15</title>
<path fill="none" stroke="midnightblue" d="M427.32,-235.37C388.23,-216.17 293.89,-169.84 247.52,-147.07"/>
<polygon fill="midnightblue" stroke="midnightblue" points="248.92,-143.86 238.4,-142.59 245.83,-150.14 248.92,-143.86"/>
</g>
<!-- Node16 -->
<g id="node16" class="node">
<title>Node16</title>
<g id="a_node16"><a xlink:href="../../df/daf/conjugate__gradient_8hpp.html" target="_top" xlink:title=" ">
<polygon fill="white" stroke="black" points="15.4,-123.5 15.4,-142.5 132.4,-142.5 132.4,-123.5 15.4,-123.5"/>
<text text-anchor="middle" x="73.9" y="-130.5" font-family="Helvetica,sans-Serif" font-size="10.00">conjugate_gradient.hpp</text>
</a>
</g>
</g>
<!-- Node1&#45;&gt;Node16 -->
<g id="edge26" class="edge">
<title>Node1&#45;&gt;Node16</title>
<path fill="none" stroke="midnightblue" d="M416.1,-235.46C350,-215.86 187.38,-167.65 112.63,-145.48"/>
<polygon fill="midnightblue" stroke="midnightblue" points="113.27,-142.02 102.69,-142.53 111.28,-148.73 113.27,-142.02"/>
</g>
<!-- Node17 -->
<g id="node17" class="node">
<title>Node17</title>
<g id="a_node17"><a xlink:href="../../de/d83/inverse__iteration_8hpp.html" target="_top" xlink:title=" ">
<polygon fill="white" stroke="black" points="347.4,-123.5 347.4,-142.5 454.4,-142.5 454.4,-123.5 347.4,-123.5"/>
<text text-anchor="middle" x="400.9" y="-130.5" font-family="Helvetica,sans-Serif" font-size="10.00">inverse_iteration.hpp</text>
</a>
</g>
</g>
<!-- Node1&#45;&gt;Node17 -->
<g id="edge31" class="edge">
<title>Node1&#45;&gt;Node17</title>
<path fill="none" stroke="midnightblue" d="M439.32,-235.33C433.8,-226.47 425.41,-212.19 419.9,-199 413.53,-183.74 408.42,-165.64 405.12,-152.41"/>
<polygon fill="midnightblue" stroke="midnightblue" points="408.5,-151.53 402.77,-142.62 401.7,-153.16 408.5,-151.53"/>
</g>
<!-- Node3 -->
<g id="node3" class="node">
<title>Node3</title>
<g id="a_node3"><a xlink:href="../../d4/dc7/compressed__row__storage_8hpp.html" target="_top" xlink:title=" ">
<polygon fill="white" stroke="black" points="470.4,-56.5 470.4,-86.5 571.4,-86.5 571.4,-56.5 470.4,-56.5"/>
<text text-anchor="start" x="478.4" y="-74.5" font-family="Helvetica,sans-Serif" font-size="10.00">../type/compressed</text>
<text text-anchor="middle" x="520.9" y="-63.5" font-family="Helvetica,sans-Serif" font-size="10.00">_row_storage.hpp</text>
</a>
</g>
</g>
<!-- Node2&#45;&gt;Node3 -->
<g id="edge2" class="edge">
<title>Node2&#45;&gt;Node3</title>
<path fill="none" stroke="midnightblue" d="M492.23,-179.32C496.91,-161.89 507.59,-122.1 514.51,-96.31"/>
<polygon fill="midnightblue" stroke="midnightblue" points="517.92,-97.11 517.13,-86.55 511.16,-95.3 517.92,-97.11"/>
</g>
<!-- Node6 -->
<g id="node6" class="node">
<title>Node6</title>
<g id="a_node6"><a xlink:title=" ">
<polygon fill="white" stroke="#bfbfbf" points="344.9,-0.5 344.9,-19.5 388.9,-19.5 388.9,-0.5 344.9,-0.5"/>
<text text-anchor="middle" x="366.9" y="-7.5" font-family="Helvetica,sans-Serif" font-size="10.00">vector</text>
</a>
</g>
</g>
<!-- Node2&#45;&gt;Node6 -->
<g id="edge20" class="edge">
<title>Node2&#45;&gt;Node6</title>
<path fill="none" stroke="midnightblue" d="M487.37,-179.17C483.46,-166.26 475.2,-141.73 463.9,-123 440.93,-84.91 404.74,-47.18 383.66,-26.7"/>
<polygon fill="midnightblue" stroke="midnightblue" points="386.03,-24.12 376.39,-19.73 381.19,-29.18 386.03,-24.12"/>
</g>
<!-- Node9 -->
<g id="node9" class="node">
<title>Node9</title>
<g id="a_node9"><a xlink:href="../../d4/ddc/braket__vector_8hpp.html" target="_top" xlink:title=" ">
<polygon fill="white" stroke="black" points="272.4,-62 272.4,-81 397.4,-81 397.4,-62 272.4,-62"/>
<text text-anchor="middle" x="334.9" y="-69" font-family="Helvetica,sans-Serif" font-size="10.00">../type/braket_vector.hpp</text>
</a>
</g>
</g>
<!-- Node2&#45;&gt;Node9 -->
<g id="edge8" class="edge">
<title>Node2&#45;&gt;Node9</title>
<path fill="none" stroke="midnightblue" d="M428.63,-186.12C396.39,-181.66 359.24,-170.34 337.9,-143 326.62,-128.55 327.5,-106.89 330.18,-91.4"/>
<polygon fill="midnightblue" stroke="midnightblue" points="333.66,-91.91 332.31,-81.4 326.81,-90.46 333.66,-91.91"/>
</g>
<!-- Node2&#45;&gt;Node12 -->
<g id="edge14" class="edge">
<title>Node2&#45;&gt;Node12</title>
<path fill="none" stroke="midnightblue" d="M523.02,-179.44C559.23,-170.09 617.35,-155.07 656.78,-144.88"/>
<polygon fill="midnightblue" stroke="midnightblue" points="657.82,-148.23 666.63,-142.34 656.07,-141.45 657.82,-148.23"/>
</g>
<!-- Node2&#45;&gt;Node13 -->
<g id="edge17" class="edge">
<title>Node2&#45;&gt;Node13</title>
<path fill="none" stroke="midnightblue" d="M507.41,-179.32C524.97,-170.62 552.23,-157.12 572.43,-147.11"/>
<polygon fill="midnightblue" stroke="midnightblue" points="574.02,-150.23 581.43,-142.65 570.92,-143.96 574.02,-150.23"/>
</g>
<!-- Node14 -->
<g id="node14" class="node">
<title>Node14</title>
<g id="a_node14"><a xlink:title=" ">
<polygon fill="white" stroke="#bfbfbf" points="14.4,-62 14.4,-81 63.4,-81 63.4,-62 14.4,-62"/>
<text text-anchor="middle" x="38.9" y="-69" font-family="Helvetica,sans-Serif" font-size="10.00">random</text>
</a>
</g>
</g>
<!-- Node2&#45;&gt;Node14 -->
<g id="edge21" class="edge">
<title>Node2&#45;&gt;Node14</title>
<path fill="none" stroke="midnightblue" d="M428.62,-186.81C304.73,-183.78 33.86,-173.68 5.9,-143 -8.52,-127.18 7.54,-103.95 21.88,-88.53"/>
<polygon fill="midnightblue" stroke="midnightblue" points="24.52,-90.84 29.05,-81.26 19.54,-85.92 24.52,-90.84"/>
</g>
<!-- Node4 -->
<g id="node4" class="node">
<title>Node4</title>
<g id="a_node4"><a xlink:title=" ">
<polygon fill="white" stroke="#bfbfbf" points="406.9,-0.5 406.9,-19.5 460.9,-19.5 460.9,-0.5 406.9,-0.5"/>
<text text-anchor="middle" x="433.9" y="-7.5" font-family="Helvetica,sans-Serif" font-size="10.00">iostream</text>
</a>
</g>
</g>
<!-- Node3&#45;&gt;Node4 -->
<g id="edge3" class="edge">
<title>Node3&#45;&gt;Node4</title>
<path fill="none" stroke="midnightblue" d="M500.28,-56.4C486.6,-47.04 468.69,-34.79 454.92,-25.38"/>
<polygon fill="midnightblue" stroke="midnightblue" points="456.79,-22.41 446.56,-19.66 452.84,-28.19 456.79,-22.41"/>
</g>
<!-- Node5 -->
<g id="node5" class="node">
<title>Node5</title>
<g id="a_node5"><a xlink:title=" ">
<polygon fill="white" stroke="#bfbfbf" points="478.9,-0.5 478.9,-19.5 524.9,-19.5 524.9,-0.5 478.9,-0.5"/>
<text text-anchor="middle" x="501.9" y="-7.5" font-family="Helvetica,sans-Serif" font-size="10.00">cstdint</text>
</a>
</g>
</g>
<!-- Node3&#45;&gt;Node5 -->
<g id="edge4" class="edge">
<title>Node3&#45;&gt;Node5</title>
<path fill="none" stroke="midnightblue" d="M516.4,-56.4C513.81,-48.29 510.53,-38.01 507.74,-29.28"/>
<polygon fill="midnightblue" stroke="midnightblue" points="511.04,-28.12 504.67,-19.66 504.37,-30.25 511.04,-28.12"/>
</g>
<!-- Node3&#45;&gt;Node6 -->
<g id="edge5" class="edge">
<title>Node3&#45;&gt;Node6</title>
<path fill="none" stroke="midnightblue" d="M484.41,-56.4C458.34,-46.33 423.61,-32.91 398.68,-23.28"/>
<polygon fill="midnightblue" stroke="midnightblue" points="399.9,-20 389.31,-19.66 397.38,-26.53 399.9,-20"/>
</g>
<!-- Node7 -->
<g id="node7" class="node">
<title>Node7</title>
<g id="a_node7"><a xlink:title=" ">
<polygon fill="white" stroke="#bfbfbf" points="542.9,-0.5 542.9,-19.5 592.9,-19.5 592.9,-0.5 542.9,-0.5"/>
<text text-anchor="middle" x="567.9" y="-7.5" font-family="Helvetica,sans-Serif" font-size="10.00">iomanip</text>
</a>
</g>
</g>
<!-- Node3&#45;&gt;Node7 -->
<g id="edge6" class="edge">
<title>Node3&#45;&gt;Node7</title>
<path fill="none" stroke="midnightblue" d="M532.04,-56.4C538.87,-47.75 547.65,-36.64 554.81,-27.58"/>
<polygon fill="midnightblue" stroke="midnightblue" points="557.61,-29.67 561.06,-19.66 552.12,-25.34 557.61,-29.67"/>
</g>
<!-- Node8 -->
<g id="node8" class="node">
<title>Node8</title>
<g id="a_node8"><a xlink:title=" ">
<polygon fill="white" stroke="#bfbfbf" points="610.9,-0.5 610.9,-19.5 662.9,-19.5 662.9,-0.5 610.9,-0.5"/>
<text text-anchor="middle" x="636.9" y="-7.5" font-family="Helvetica,sans-Serif" font-size="10.00">sstream</text>
</a>
</g>
</g>
<!-- Node3&#45;&gt;Node8 -->
<g id="edge7" class="edge">
<title>Node3&#45;&gt;Node8</title>
<path fill="none" stroke="midnightblue" d="M548.39,-56.4C567.33,-46.68 592.34,-33.86 610.94,-24.31"/>
<polygon fill="midnightblue" stroke="midnightblue" points="612.72,-27.34 620.02,-19.66 609.53,-21.11 612.72,-27.34"/>
</g>
<!-- Node9&#45;&gt;Node4 -->
<g id="edge9" class="edge">
<title>Node9&#45;&gt;Node4</title>
<path fill="none" stroke="midnightblue" d="M349.09,-61.98C365.26,-52.25 391.93,-36.23 411.04,-24.74"/>
<polygon fill="midnightblue" stroke="midnightblue" points="412.97,-27.66 419.74,-19.51 409.37,-21.66 412.97,-27.66"/>
</g>
<!-- Node9&#45;&gt;Node6 -->
<g id="edge11" class="edge">
<title>Node9&#45;&gt;Node6</title>
<path fill="none" stroke="midnightblue" d="M339.49,-61.98C344.14,-53.32 351.49,-39.65 357.41,-28.65"/>
<polygon fill="midnightblue" stroke="midnightblue" points="360.67,-29.97 362.32,-19.51 354.51,-26.66 360.67,-29.97"/>
</g>
<!-- Node9&#45;&gt;Node8 -->
<g id="edge10" class="edge">
<title>Node9&#45;&gt;Node8</title>
<path fill="none" stroke="midnightblue" d="M385.29,-61.97C437.02,-52.99 520.04,-37.96 600.74,-20.15"/>
<polygon fill="midnightblue" stroke="midnightblue" points="601.57,-23.55 610.57,-17.97 600.05,-16.72 601.57,-23.55"/>
</g>
<!-- Node10 -->
<g id="node10" class="node">
<title>Node10</title>
<g id="a_node10"><a xlink:title=" ">
<polygon fill="white" stroke="#bfbfbf" points="190.9,-0.5 190.9,-19.5 234.9,-19.5 234.9,-0.5 190.9,-0.5"/>
<text text-anchor="middle" x="212.9" y="-7.5" font-family="Helvetica,sans-Serif" font-size="10.00">cmath</text>
</a>
</g>
</g>
<!-- Node9&#45;&gt;Node10 -->
<g id="edge12" class="edge">
<title>Node9&#45;&gt;Node10</title>
<path fill="none" stroke="midnightblue" d="M317.42,-61.98C297.04,-52.03 263.13,-35.49 239.48,-23.96"/>
<polygon fill="midnightblue" stroke="midnightblue" points="240.87,-20.75 230.35,-19.51 237.8,-27.04 240.87,-20.75"/>
</g>
<!-- Node11 -->
<g id="node11" class="node">
<title>Node11</title>
<g id="a_node11"><a xlink:title=" ">
<polygon fill="white" stroke="#bfbfbf" points="253.4,-0.5 253.4,-19.5 326.4,-19.5 326.4,-0.5 253.4,-0.5"/>
<text text-anchor="middle" x="289.9" y="-7.5" font-family="Helvetica,sans-Serif" font-size="10.00">initializer_list</text>
</a>
</g>
</g>
<!-- Node9&#45;&gt;Node11 -->
<g id="edge13" class="edge">
<title>Node9&#45;&gt;Node11</title>
<path fill="none" stroke="midnightblue" d="M328.45,-61.98C321.7,-53.05 310.93,-38.81 302.49,-27.64"/>
<polygon fill="midnightblue" stroke="midnightblue" points="305.16,-25.37 296.34,-19.51 299.58,-29.6 305.16,-25.37"/>
</g>
<!-- Node12&#45;&gt;Node3 -->
<g id="edge15" class="edge">
<title>Node12&#45;&gt;Node3</title>
<path fill="none" stroke="midnightblue" d="M673.4,-123.48C647.15,-114.7 605.53,-100.79 572.39,-89.71"/>
<polygon fill="midnightblue" stroke="midnightblue" points="573.45,-86.37 562.85,-86.52 571.23,-93.01 573.45,-86.37"/>
</g>
<!-- Node12&#45;&gt;Node8 -->
<g id="edge16" class="edge">
<title>Node12&#45;&gt;Node8</title>
<path fill="none" stroke="midnightblue" d="M694.44,-123.3C684.34,-103.59 659.55,-55.21 646.04,-28.84"/>
<polygon fill="midnightblue" stroke="midnightblue" points="648.99,-26.93 641.32,-19.62 642.76,-30.12 648.99,-26.93"/>
</g>
<!-- Node13&#45;&gt;Node8 -->
<g id="edge19" class="edge">
<title>Node13&#45;&gt;Node8</title>
<path fill="none" stroke="midnightblue" d="M601.63,-123.3C607.8,-103.68 622.88,-55.64 631.19,-29.19"/>
<polygon fill="midnightblue" stroke="midnightblue" points="634.54,-30.21 634.19,-19.62 627.86,-28.12 634.54,-30.21"/>
</g>
<!-- Node13&#45;&gt;Node9 -->
<g id="edge18" class="edge">
<title>Node13&#45;&gt;Node9</title>
<path fill="none" stroke="midnightblue" d="M561.08,-123.48C514.03,-112.87 433.67,-94.76 382.48,-83.22"/>
<polygon fill="midnightblue" stroke="midnightblue" points="383.18,-79.79 372.66,-81.01 381.64,-86.62 383.18,-79.79"/>
</g>
<!-- Node15&#45;&gt;Node3 -->
<g id="edge24" class="edge">
<title>Node15&#45;&gt;Node3</title>
<path fill="none" stroke="midnightblue" d="M263.88,-123.48C315.42,-113.25 402.13,-96.06 460.41,-84.5"/>
<polygon fill="midnightblue" stroke="midnightblue" points="461.1,-87.93 470.23,-82.55 459.74,-81.06 461.1,-87.93"/>
</g>
<!-- Node15&#45;&gt;Node9 -->
<g id="edge25" class="edge">
<title>Node15&#45;&gt;Node9</title>
<path fill="none" stroke="midnightblue" d="M237.23,-123.48C256.11,-113.62 287.41,-97.29 309.48,-85.77"/>
<polygon fill="midnightblue" stroke="midnightblue" points="311.35,-88.74 318.6,-81.01 308.11,-82.53 311.35,-88.74"/>
</g>
<!-- Node16&#45;&gt;Node3 -->
<g id="edge27" class="edge">
<title>Node16&#45;&gt;Node3</title>
<path fill="none" stroke="midnightblue" d="M132.8,-124.16C217.77,-112.85 373.97,-92.06 460.03,-80.6"/>
<polygon fill="midnightblue" stroke="midnightblue" points="460.72,-84.04 470.17,-79.25 459.8,-77.1 460.72,-84.04"/>
</g>
<!-- Node16&#45;&gt;Node6 -->
<g id="edge29" class="edge">
<title>Node16&#45;&gt;Node6</title>
<path fill="none" stroke="midnightblue" d="M94.5,-123.49C145.34,-102.5 276.95,-48.15 336.65,-23.49"/>
<polygon fill="midnightblue" stroke="midnightblue" points="338.02,-26.71 345.93,-19.66 335.35,-20.24 338.02,-26.71"/>
</g>
<!-- Node16&#45;&gt;Node9 -->
<g id="edge28" class="edge">
<title>Node16&#45;&gt;Node9</title>
<path fill="none" stroke="midnightblue" d="M111.3,-123.48C157.71,-112.89 236.92,-94.84 287.54,-83.3"/>
<polygon fill="midnightblue" stroke="midnightblue" points="288.6,-86.64 297.58,-81.01 287.05,-79.82 288.6,-86.64"/>
</g>
<!-- Node16&#45;&gt;Node14 -->
<g id="edge30" class="edge">
<title>Node16&#45;&gt;Node14</title>
<path fill="none" stroke="midnightblue" d="M68.89,-123.48C63.74,-114.73 55.59,-100.87 49.08,-89.81"/>
<polygon fill="midnightblue" stroke="midnightblue" points="51.99,-87.85 43.91,-81.01 45.96,-91.4 51.99,-87.85"/>
</g>
<!-- Node17&#45;&gt;Node3 -->
<g id="edge32" class="edge">
<title>Node17&#45;&gt;Node3</title>
<path fill="none" stroke="midnightblue" d="M418.09,-123.48C435.11,-115.04 461.7,-101.86 483.57,-91.01"/>
<polygon fill="midnightblue" stroke="midnightblue" points="485.21,-94.1 492.62,-86.52 482.11,-87.83 485.21,-94.1"/>
</g>
<!-- Node17&#45;&gt;Node9 -->
<g id="edge33" class="edge">
<title>Node17&#45;&gt;Node9</title>
<path fill="none" stroke="midnightblue" d="M391.44,-123.48C381.15,-114.2 364.49,-99.17 351.91,-87.83"/>
<polygon fill="midnightblue" stroke="midnightblue" points="354.11,-85.11 344.34,-81.01 349.42,-90.3 354.11,-85.11"/>
</g>
</g>
</svg>
