<?xml version="1.0" encoding="UTF-8" standalone="no"?>
<!DOCTYPE svg PUBLIC "-//W3C//DTD SVG 1.1//EN"
 "http://www.w3.org/Graphics/SVG/1.1/DTD/svg11.dtd">
<!-- Generated by graphviz version 2.50.0 (20211204.2007)
 -->
<!-- Title: src/blas/eigendecomposition.hpp Pages: 1 -->
<svg width="498pt" height="207pt"
 viewBox="0.00 0.00 497.50 207.00" xmlns="http://www.w3.org/2000/svg" xmlns:xlink="http://www.w3.org/1999/xlink">
<g id="graph0" class="graph" transform="scale(1 1) rotate(0) translate(4 203)">
<title>src/blas/eigendecomposition.hpp</title>
<polygon fill="white" stroke="transparent" points="-4,4 -4,-203 493.5,-203 493.5,4 -4,4"/>
<!-- Node1 -->
<g id="node1" class="node">
<title>Node1</title>
<g id="a_node1"><a xlink:title=" ">
<polygon fill="#bfbfbf" stroke="black" points="242.5,-179.5 242.5,-198.5 401.5,-198.5 401.5,-179.5 242.5,-179.5"/>
<text text-anchor="middle" x="322" y="-186.5" font-family="Helvetica,sans-Serif" font-size="10.00">src/blas/eigendecomposition.hpp</text>
</a>
</g>
</g>
<!-- Node2 -->
<g id="node2" class="node">
<title>Node2</title>
<g id="a_node2"><a xlink:href="../../d4/dc7/compressed__row__storage_8hpp.html" target="_top" xlink:title=" ">
<polygon fill="white" stroke="black" points="62.5,-56.5 62.5,-86.5 163.5,-86.5 163.5,-56.5 62.5,-56.5"/>
<text text-anchor="start" x="70.5" y="-74.5" font-family="Helvetica,sans-Serif" font-size="10.00">../type/compressed</text>
<text text-anchor="middle" x="113" y="-63.5" font-family="Helvetica,sans-Serif" font-size="10.00">_row_storage.hpp</text>
</a>
</g>
</g>
<!-- Node1&#45;&gt;Node2 -->
<g id="edge1" class="edge">
<title>Node1&#45;&gt;Node2</title>
<path fill="none" stroke="midnightblue" d="M242.48,-183.92C208.18,-178.46 169.66,-166.91 142,-143 128.33,-131.19 121,-111.93 117.12,-96.52"/>
<polygon fill="midnightblue" stroke="midnightblue" points="120.51,-95.63 114.96,-86.61 113.67,-97.13 120.51,-95.63"/>
</g>
<!-- Node5 -->
<g id="node5" class="node">
<title>Node5</title>
<g id="a_node5"><a xlink:title=" ">
<polygon fill="white" stroke="#bfbfbf" points="274,-0.5 274,-19.5 318,-19.5 318,-0.5 274,-0.5"/>
<text text-anchor="middle" x="296" y="-7.5" font-family="Helvetica,sans-Serif" font-size="10.00">vector</text>
</a>
</g>
</g>
<!-- Node1&#45;&gt;Node5 -->
<g id="edge19" class="edge">
<title>Node1&#45;&gt;Node5</title>
<path fill="none" stroke="midnightblue" d="M333.13,-179.41C359.52,-158 421.57,-100.74 393,-56 385.46,-44.19 353.08,-30.66 327.78,-21.55"/>
<polygon fill="midnightblue" stroke="midnightblue" points="328.75,-18.18 318.15,-18.16 326.43,-24.78 328.75,-18.18"/>
</g>
<!-- Node8 -->
<g id="node8" class="node">
<title>Node8</title>
<g id="a_node8"><a xlink:href="../../d4/ddc/braket__vector_8hpp.html" target="_top" xlink:title=" ">
<polygon fill="white" stroke="black" points="258.5,-62 258.5,-81 383.5,-81 383.5,-62 258.5,-62"/>
<text text-anchor="middle" x="321" y="-69" font-family="Helvetica,sans-Serif" font-size="10.00">../type/braket_vector.hpp</text>
</a>
</g>
</g>
<!-- Node1&#45;&gt;Node8 -->
<g id="edge7" class="edge">
<title>Node1&#45;&gt;Node8</title>
<path fill="none" stroke="midnightblue" d="M327.13,-179.41C332.06,-170.61 339.16,-156.38 342,-143 345.88,-124.7 338.45,-104.27 331.38,-90.13"/>
<polygon fill="midnightblue" stroke="midnightblue" points="334.31,-88.19 326.46,-81.07 328.15,-91.53 334.31,-88.19"/>
</g>
<!-- Node11 -->
<g id="node11" class="node">
<title>Node11</title>
<g id="a_node11"><a xlink:href="../../df/dd2/lapack_8hpp.html" target="_top" xlink:title=" ">
<polygon fill="white" stroke="black" points="151,-123.5 151,-142.5 215,-142.5 215,-123.5 151,-123.5"/>
<text text-anchor="middle" x="183" y="-130.5" font-family="Helvetica,sans-Serif" font-size="10.00">lapack.hpp</text>
</a>
</g>
</g>
<!-- Node1&#45;&gt;Node11 -->
<g id="edge13" class="edge">
<title>Node1&#45;&gt;Node11</title>
<path fill="none" stroke="midnightblue" d="M299.98,-179.44C276.9,-170.48 240.44,-156.31 214.36,-146.18"/>
<polygon fill="midnightblue" stroke="midnightblue" points="215.51,-142.88 204.92,-142.52 212.98,-149.4 215.51,-142.88"/>
</g>
<!-- Node12 -->
<g id="node12" class="node">
<title>Node12</title>
<g id="a_node12"><a xlink:href="../../df/d88/orthonormalize_8hpp.html" target="_top" xlink:title=" ">
<polygon fill="white" stroke="black" points="233.5,-123.5 233.5,-142.5 332.5,-142.5 332.5,-123.5 233.5,-123.5"/>
<text text-anchor="middle" x="283" y="-130.5" font-family="Helvetica,sans-Serif" font-size="10.00">orthonormalize.hpp</text>
</a>
</g>
</g>
<!-- Node1&#45;&gt;Node12 -->
<g id="edge16" class="edge">
<title>Node1&#45;&gt;Node12</title>
<path fill="none" stroke="midnightblue" d="M315.56,-179.08C310.05,-171.46 301.97,-160.26 295.24,-150.94"/>
<polygon fill="midnightblue" stroke="midnightblue" points="298.01,-148.81 289.32,-142.75 292.34,-152.91 298.01,-148.81"/>
</g>
<!-- Node13 -->
<g id="node13" class="node">
<title>Node13</title>
<g id="a_node13"><a xlink:title=" ">
<polygon fill="white" stroke="#bfbfbf" points="440.5,-123.5 440.5,-142.5 489.5,-142.5 489.5,-123.5 440.5,-123.5"/>
<text text-anchor="middle" x="465" y="-130.5" font-family="Helvetica,sans-Serif" font-size="10.00">random</text>
</a>
</g>
</g>
<!-- Node1&#45;&gt;Node13 -->
<g id="edge20" class="edge">
<title>Node1&#45;&gt;Node13</title>
<path fill="none" stroke="midnightblue" d="M344.66,-179.44C368.4,-170.48 405.91,-156.31 432.74,-146.18"/>
<polygon fill="midnightblue" stroke="midnightblue" points="434.33,-149.32 442.45,-142.52 431.86,-142.77 434.33,-149.32"/>
</g>
<!-- Node3 -->
<g id="node3" class="node">
<title>Node3</title>
<g id="a_node3"><a xlink:title=" ">
<polygon fill="white" stroke="#bfbfbf" points="132,-0.5 132,-19.5 186,-19.5 186,-0.5 132,-0.5"/>
<text text-anchor="middle" x="159" y="-7.5" font-family="Helvetica,sans-Serif" font-size="10.00">iostream</text>
</a>
</g>
</g>
<!-- Node2&#45;&gt;Node3 -->
<g id="edge2" class="edge">
<title>Node2&#45;&gt;Node3</title>
<path fill="none" stroke="midnightblue" d="M123.9,-56.4C130.59,-47.75 139.18,-36.64 146.18,-27.58"/>
<polygon fill="midnightblue" stroke="midnightblue" points="148.96,-29.71 152.31,-19.66 143.42,-25.43 148.96,-29.71"/>
</g>
<!-- Node4 -->
<g id="node4" class="node">
<title>Node4</title>
<g id="a_node4"><a xlink:title=" ">
<polygon fill="white" stroke="#bfbfbf" points="68,-0.5 68,-19.5 114,-19.5 114,-0.5 68,-0.5"/>
<text text-anchor="middle" x="91" y="-7.5" font-family="Helvetica,sans-Serif" font-size="10.00">cstdint</text>
</a>
</g>
</g>
<!-- Node2&#45;&gt;Node4 -->
<g id="edge3" class="edge">
<title>Node2&#45;&gt;Node4</title>
<path fill="none" stroke="midnightblue" d="M107.79,-56.4C104.79,-48.29 100.99,-38.01 97.76,-29.28"/>
<polygon fill="midnightblue" stroke="midnightblue" points="100.95,-27.82 94.2,-19.66 94.39,-30.25 100.95,-27.82"/>
</g>
<!-- Node2&#45;&gt;Node5 -->
<g id="edge4" class="edge">
<title>Node2&#45;&gt;Node5</title>
<path fill="none" stroke="midnightblue" d="M156.37,-56.4C189.27,-45.7 233.78,-31.23 263.62,-21.53"/>
<polygon fill="midnightblue" stroke="midnightblue" points="265.09,-24.73 273.52,-18.31 262.93,-18.07 265.09,-24.73"/>
</g>
<!-- Node6 -->
<g id="node6" class="node">
<title>Node6</title>
<g id="a_node6"><a xlink:title=" ">
<polygon fill="white" stroke="#bfbfbf" points="0,-0.5 0,-19.5 50,-19.5 50,-0.5 0,-0.5"/>
<text text-anchor="middle" x="25" y="-7.5" font-family="Helvetica,sans-Serif" font-size="10.00">iomanip</text>
</a>
</g>
</g>
<!-- Node2&#45;&gt;Node6 -->
<g id="edge5" class="edge">
<title>Node2&#45;&gt;Node6</title>
<path fill="none" stroke="midnightblue" d="M92.15,-56.4C78.3,-47.04 60.19,-34.79 46.26,-25.38"/>
<polygon fill="midnightblue" stroke="midnightblue" points="48.05,-22.36 37.8,-19.66 44.13,-28.16 48.05,-22.36"/>
</g>
<!-- Node7 -->
<g id="node7" class="node">
<title>Node7</title>
<g id="a_node7"><a xlink:title=" ">
<polygon fill="white" stroke="#bfbfbf" points="204,-0.5 204,-19.5 256,-19.5 256,-0.5 204,-0.5"/>
<text text-anchor="middle" x="230" y="-7.5" font-family="Helvetica,sans-Serif" font-size="10.00">sstream</text>
</a>
</g>
</g>
<!-- Node2&#45;&gt;Node7 -->
<g id="edge6" class="edge">
<title>Node2&#45;&gt;Node7</title>
<path fill="none" stroke="midnightblue" d="M140.73,-56.4C159.83,-46.68 185.06,-33.86 203.82,-24.31"/>
<polygon fill="midnightblue" stroke="midnightblue" points="205.65,-27.31 212.98,-19.66 202.48,-21.07 205.65,-27.31"/>
</g>
<!-- Node8&#45;&gt;Node3 -->
<g id="edge8" class="edge">
<title>Node8&#45;&gt;Node3</title>
<path fill="none" stroke="midnightblue" d="M297.79,-61.98C270,-51.77 223.28,-34.61 191.81,-23.05"/>
<polygon fill="midnightblue" stroke="midnightblue" points="192.76,-19.67 182.17,-19.51 190.35,-26.24 192.76,-19.67"/>
</g>
<!-- Node8&#45;&gt;Node5 -->
<g id="edge10" class="edge">
<title>Node8&#45;&gt;Node5</title>
<path fill="none" stroke="midnightblue" d="M317.42,-61.98C313.82,-53.4 308.15,-39.93 303.56,-28.98"/>
<polygon fill="midnightblue" stroke="midnightblue" points="306.68,-27.37 299.58,-19.51 300.22,-30.08 306.68,-27.37"/>
</g>
<!-- Node8&#45;&gt;Node7 -->
<g id="edge9" class="edge">
<title>Node8&#45;&gt;Node7</title>
<path fill="none" stroke="midnightblue" d="M307.96,-61.98C293.23,-52.34 269.03,-36.52 251.49,-25.05"/>
<polygon fill="midnightblue" stroke="midnightblue" points="253.3,-22.05 243.01,-19.51 249.47,-27.91 253.3,-22.05"/>
</g>
<!-- Node9 -->
<g id="node9" class="node">
<title>Node9</title>
<g id="a_node9"><a xlink:title=" ">
<polygon fill="white" stroke="#bfbfbf" points="336,-0.5 336,-19.5 380,-19.5 380,-0.5 336,-0.5"/>
<text text-anchor="middle" x="358" y="-7.5" font-family="Helvetica,sans-Serif" font-size="10.00">cmath</text>
</a>
</g>
</g>
<!-- Node8&#45;&gt;Node9 -->
<g id="edge11" class="edge">
<title>Node8&#45;&gt;Node9</title>
<path fill="none" stroke="midnightblue" d="M326.3,-61.98C331.74,-53.23 340.36,-39.37 347.24,-28.31"/>
<polygon fill="midnightblue" stroke="midnightblue" points="350.4,-29.85 352.71,-19.51 344.46,-26.15 350.4,-29.85"/>
</g>
<!-- Node10 -->
<g id="node10" class="node">
<title>Node10</title>
<g id="a_node10"><a xlink:title=" ">
<polygon fill="white" stroke="#bfbfbf" points="398.5,-0.5 398.5,-19.5 471.5,-19.5 471.5,-0.5 398.5,-0.5"/>
<text text-anchor="middle" x="435" y="-7.5" font-family="Helvetica,sans-Serif" font-size="10.00">initializer_list</text>
</a>
</g>
</g>
<!-- Node8&#45;&gt;Node10 -->
<g id="edge12" class="edge">
<title>Node8&#45;&gt;Node10</title>
<path fill="none" stroke="midnightblue" d="M337.33,-61.98C356.21,-52.12 387.51,-35.79 409.58,-24.27"/>
<polygon fill="midnightblue" stroke="midnightblue" points="411.45,-27.24 418.7,-19.51 408.21,-21.03 411.45,-27.24"/>
</g>
<!-- Node11&#45;&gt;Node2 -->
<g id="edge14" class="edge">
<title>Node11&#45;&gt;Node2</title>
<path fill="none" stroke="midnightblue" d="M172.97,-123.48C163.67,-115.57 149.45,-103.48 137.2,-93.07"/>
<polygon fill="midnightblue" stroke="midnightblue" points="139.38,-90.33 129.5,-86.52 134.85,-95.67 139.38,-90.33"/>
</g>
<!-- Node11&#45;&gt;Node7 -->
<g id="edge15" class="edge">
<title>Node11&#45;&gt;Node7</title>
<path fill="none" stroke="midnightblue" d="M186.38,-123.3C194,-103.68 212.66,-55.64 222.93,-29.19"/>
<polygon fill="midnightblue" stroke="midnightblue" points="226.29,-30.21 226.65,-19.62 219.77,-27.68 226.29,-30.21"/>
</g>
<!-- Node12&#45;&gt;Node7 -->
<g id="edge18" class="edge">
<title>Node12&#45;&gt;Node7</title>
<path fill="none" stroke="midnightblue" d="M274.8,-123.4C267.06,-114.83 255.67,-100.96 249,-87 240.22,-68.64 235.21,-45.77 232.57,-29.94"/>
<polygon fill="midnightblue" stroke="midnightblue" points="235.99,-29.19 231.04,-19.82 229.07,-30.23 235.99,-29.19"/>
</g>
<!-- Node12&#45;&gt;Node8 -->
<g id="edge17" class="edge">
<title>Node12&#45;&gt;Node8</title>
<path fill="none" stroke="midnightblue" d="M288.44,-123.48C294.09,-114.64 303.06,-100.59 310.16,-89.48"/>
<polygon fill="midnightblue" stroke="midnightblue" points="313.13,-91.32 315.57,-81.01 307.23,-87.55 313.13,-91.32"/>
</g>
</g>
</svg>
