<?xml version="1.0" encoding="UTF-8" standalone="no"?>
<!DOCTYPE svg PUBLIC "-//W3C//DTD SVG 1.1//EN"
 "http://www.w3.org/Graphics/SVG/1.1/DTD/svg11.dtd">
<!-- Generated by graphviz version 2.50.0 (20211204.2007)
 -->
<!-- Title: compnal::blas::ParametersAll Pages: 1 -->
<svg width="305pt" height="173pt"
 viewBox="0.00 0.00 304.50 173.00" xmlns="http://www.w3.org/2000/svg" xmlns:xlink="http://www.w3.org/1999/xlink">
<g id="graph0" class="graph" transform="scale(1 1) rotate(0) translate(4 169)">
<title>compnal::blas::ParametersAll</title>
<polygon fill="white" stroke="transparent" points="-4,4 -4,-169 300.5,-169 300.5,4 -4,4"/>
<!-- Node1 -->
<g id="node1" class="node">
<title>Node1</title>
<g id="a_node1"><a xlink:title=" ">
<polygon fill="#bfbfbf" stroke="black" points="47.5,-0.5 47.5,-19.5 192.5,-19.5 192.5,-0.5 47.5,-0.5"/>
<text text-anchor="middle" x="120" y="-7.5" font-family="Helvetica,sans-Serif" font-size="10.00">compnal::blas::ParametersAll</text>
</a>
</g>
</g>
<!-- Node2 -->
<g id="node2" class="node">
<title>Node2</title>
<g id="a_node2"><a xlink:href="../../da/d5e/structcompnal_1_1blas_1_1_parameters_lanczos.html" target="_top" xlink:title=" ">
<polygon fill="white" stroke="black" points="0,-67.5 0,-97.5 134,-97.5 134,-67.5 0,-67.5"/>
<text text-anchor="start" x="8" y="-85.5" font-family="Helvetica,sans-Serif" font-size="10.00">compnal::blas::Parameters</text>
<text text-anchor="middle" x="67" y="-74.5" font-family="Helvetica,sans-Serif" font-size="10.00">Lanczos</text>
</a>
</g>
</g>
<!-- Node2&#45;&gt;Node1 -->
<g id="edge1" class="edge">
<title>Node2&#45;&gt;Node1</title>
<path fill="none" stroke="#9a32cd" stroke-dasharray="5,2" d="M83.91,-59.01C93.89,-45.73 105.97,-29.66 113.31,-19.89"/>
<polygon fill="#9a32cd" stroke="#9a32cd" points="80.94,-57.14 77.73,-67.23 86.53,-61.34 80.94,-57.14"/>
<text text-anchor="middle" x="116.5" y="-41" font-family="Helvetica,sans-Serif" font-size="10.00"> lanczos</text>
</g>
<!-- Node3 -->
<g id="node3" class="node">
<title>Node3</title>
<g id="a_node3"><a xlink:href="../../df/df0/structcompnal_1_1blas_1_1_parameters_i_i.html" target="_top" xlink:title=" ">
<polygon fill="white" stroke="black" points="152,-73 152,-92 292,-92 292,-73 152,-73"/>
<text text-anchor="middle" x="222" y="-80" font-family="Helvetica,sans-Serif" font-size="10.00">compnal::blas::ParametersII</text>
</a>
</g>
</g>
<!-- Node3&#45;&gt;Node1 -->
<g id="edge2" class="edge">
<title>Node3&#45;&gt;Node1</title>
<path fill="none" stroke="#9a32cd" stroke-dasharray="5,2" d="M201.1,-67.05C180.5,-52.82 149.72,-31.54 132.61,-19.72"/>
<polygon fill="#9a32cd" stroke="#9a32cd" points="199.28,-70.05 209.49,-72.86 203.26,-64.29 199.28,-70.05"/>
<text text-anchor="middle" x="178" y="-41" font-family="Helvetica,sans-Serif" font-size="10.00"> ii</text>
</g>
<!-- Node4 -->
<g id="node4" class="node">
<title>Node4</title>
<g id="a_node4"><a xlink:href="../../dc/d74/structcompnal_1_1blas_1_1_parameters_c_g.html" target="_top" xlink:title=" ">
<polygon fill="white" stroke="black" points="147.5,-145.5 147.5,-164.5 296.5,-164.5 296.5,-145.5 147.5,-145.5"/>
<text text-anchor="middle" x="222" y="-152.5" font-family="Helvetica,sans-Serif" font-size="10.00">compnal::blas::ParametersCG</text>
</a>
</g>
</g>
<!-- Node4&#45;&gt;Node3 -->
<g id="edge3" class="edge">
<title>Node4&#45;&gt;Node3</title>
<path fill="none" stroke="#9a32cd" stroke-dasharray="5,2" d="M222,-134.94C222,-121.03 222,-102.82 222,-92.22"/>
<polygon fill="#9a32cd" stroke="#9a32cd" points="218.5,-135.36 222,-145.36 225.5,-135.36 218.5,-135.36"/>
<text text-anchor="middle" x="229" y="-119" font-family="Helvetica,sans-Serif" font-size="10.00"> cg</text>
</g>
</g>
</svg>
