<?xml version="1.0" encoding="UTF-8" standalone="no"?>
<!DOCTYPE svg PUBLIC "-//W3C//DTD SVG 1.1//EN"
 "http://www.w3.org/Graphics/SVG/1.1/DTD/svg11.dtd">
<!-- Generated by graphviz version 2.50.0 (20211204.2007)
 -->
<!-- Title: compnal::model::XXZ_1D&lt; RealType &gt; Pages: 1 -->
<svg width="296pt" height="117pt"
 viewBox="0.00 0.00 295.50 117.00" xmlns="http://www.w3.org/2000/svg" xmlns:xlink="http://www.w3.org/1999/xlink">
<g id="graph0" class="graph" transform="scale(1 1) rotate(0) translate(4 113)">
<title>compnal::model::XXZ_1D&lt; RealType &gt;</title>
<polygon fill="white" stroke="transparent" points="-4,4 -4,-113 291.5,-113 291.5,4 -4,4"/>
<!-- Node1 -->
<g id="node1" class="node">
<title>Node1</title>
<g id="a_node1"><a xlink:title="The class for the one&#45;dimensional XXZ model with the magnitude of the spin . The Hamiltonian reads.">
<polygon fill="#bfbfbf" stroke="black" points="92,-0.5 92,-30.5 203,-30.5 203,-0.5 92,-0.5"/>
<text text-anchor="start" x="100" y="-18.5" font-family="Helvetica,sans-Serif" font-size="10.00">compnal::model::XXZ</text>
<text text-anchor="middle" x="147.5" y="-7.5" font-family="Helvetica,sans-Serif" font-size="10.00">_1D&lt; RealType &gt;</text>
</a>
</g>
</g>
<!-- Node2 -->
<g id="node2" class="node">
<title>Node2</title>
<g id="a_node2"><a xlink:title=" ">
<polygon fill="white" stroke="black" points="0,-84 0,-103 149,-103 149,-84 0,-84"/>
<text text-anchor="middle" x="74.5" y="-91" font-family="Helvetica,sans-Serif" font-size="10.00">BaseU1Spin_1D&lt; RealType &gt;</text>
</a>
</g>
</g>
<!-- Node2&#45;&gt;Node1 -->
<g id="edge1" class="edge">
<title>Node2&#45;&gt;Node1</title>
<path fill="none" stroke="midnightblue" d="M89.85,-76.52C102.92,-62.91 121.53,-43.54 134.03,-30.52"/>
<polygon fill="midnightblue" stroke="midnightblue" points="87.28,-74.15 82.87,-83.78 92.33,-78.99 87.28,-74.15"/>
</g>
<!-- Node3 -->
<g id="node3" class="node">
<title>Node3</title>
<g id="a_node3"><a xlink:href="../../dd/da8/classcompnal_1_1type_1_1_c_r_s.html" target="_top" xlink:title=" ">
<polygon fill="white" stroke="black" points="167.5,-78.5 167.5,-108.5 273.5,-108.5 273.5,-78.5 167.5,-78.5"/>
<text text-anchor="start" x="175.5" y="-96.5" font-family="Helvetica,sans-Serif" font-size="10.00">compnal::type::CRS</text>
<text text-anchor="middle" x="220.5" y="-85.5" font-family="Helvetica,sans-Serif" font-size="10.00">&lt; RealType &gt;</text>
</a>
</g>
</g>
<!-- Node3&#45;&gt;Node1 -->
<g id="edge2" class="edge">
<title>Node3&#45;&gt;Node1</title>
<path fill="none" stroke="#9a32cd" stroke-dasharray="5,2" d="M199.53,-70.67C187.2,-57.83 171.96,-41.97 161.17,-30.73"/>
<polygon fill="#9a32cd" stroke="#9a32cd" points="197.32,-73.42 206.77,-78.2 202.37,-68.57 197.32,-73.42"/>
<text text-anchor="middle" x="237.5" y="-52" font-family="Helvetica,sans-Serif" font-size="10.00"> onsite_operator_ham_</text>
</g>
</g>
</svg>
