<?xml version="1.0" encoding="UTF-8" standalone="no"?>
<!DOCTYPE svg PUBLIC "-//W3C//DTD SVG 1.1//EN"
 "http://www.w3.org/Graphics/SVG/1.1/DTD/svg11.dtd">
<!-- Generated by graphviz version 2.50.0 (20211204.2007)
 -->
<!-- Title: src/blas/matrix_vector_operation.hpp Pages: 1 -->
<svg width="480pt" height="162pt"
 viewBox="0.00 0.00 479.50 162.00" xmlns="http://www.w3.org/2000/svg" xmlns:xlink="http://www.w3.org/1999/xlink">
<g id="graph0" class="graph" transform="scale(1 1) rotate(0) translate(4 158)">
<title>src/blas/matrix_vector_operation.hpp</title>
<polygon fill="white" stroke="transparent" points="-4,4 -4,-158 475.5,-158 475.5,4 -4,4"/>
<!-- Node1 -->
<g id="node1" class="node">
<title>Node1</title>
<g id="a_node1"><a xlink:title=" ">
<polygon fill="#bfbfbf" stroke="black" points="190,-123.5 190,-153.5 303,-153.5 303,-123.5 190,-123.5"/>
<text text-anchor="start" x="198" y="-141.5" font-family="Helvetica,sans-Serif" font-size="10.00">src/blas/matrix_vector</text>
<text text-anchor="middle" x="246.5" y="-130.5" font-family="Helvetica,sans-Serif" font-size="10.00">_operation.hpp</text>
</a>
</g>
</g>
<!-- Node2 -->
<g id="node2" class="node">
<title>Node2</title>
<g id="a_node2"><a xlink:href="../../d4/dc7/compressed__row__storage_8hpp.html" target="_top" xlink:title=" ">
<polygon fill="white" stroke="black" points="258,-56.5 258,-86.5 359,-86.5 359,-56.5 258,-56.5"/>
<text text-anchor="start" x="266" y="-74.5" font-family="Helvetica,sans-Serif" font-size="10.00">../type/compressed</text>
<text text-anchor="middle" x="308.5" y="-63.5" font-family="Helvetica,sans-Serif" font-size="10.00">_row_storage.hpp</text>
</a>
</g>
</g>
<!-- Node1&#45;&gt;Node2 -->
<g id="edge1" class="edge">
<title>Node1&#45;&gt;Node2</title>
<path fill="none" stroke="midnightblue" d="M259.95,-123.4C268.16,-114.79 278.81,-103.63 288.05,-93.94"/>
<polygon fill="midnightblue" stroke="midnightblue" points="290.7,-96.23 295.07,-86.58 285.64,-91.4 290.7,-96.23"/>
</g>
<!-- Node8 -->
<g id="node8" class="node">
<title>Node8</title>
<g id="a_node8"><a xlink:href="../../d4/ddc/braket__vector_8hpp.html" target="_top" xlink:title=" ">
<polygon fill="white" stroke="black" points="141.5,-62 141.5,-81 235.5,-81 235.5,-62 141.5,-62"/>
<text text-anchor="middle" x="188.5" y="-69" font-family="Helvetica,sans-Serif" font-size="10.00">braket_vector.hpp</text>
</a>
</g>
</g>
<!-- Node1&#45;&gt;Node8 -->
<g id="edge7" class="edge">
<title>Node1&#45;&gt;Node8</title>
<path fill="none" stroke="midnightblue" d="M233.91,-123.4C224.87,-113.26 212.65,-99.57 203.17,-88.94"/>
<polygon fill="midnightblue" stroke="midnightblue" points="205.53,-86.33 196.26,-81.19 200.3,-90.99 205.53,-86.33"/>
</g>
<!-- Node3 -->
<g id="node3" class="node">
<title>Node3</title>
<g id="a_node3"><a xlink:title=" ">
<polygon fill="white" stroke="#bfbfbf" points="153.5,-0.5 153.5,-19.5 207.5,-19.5 207.5,-0.5 153.5,-0.5"/>
<text text-anchor="middle" x="180.5" y="-7.5" font-family="Helvetica,sans-Serif" font-size="10.00">iostream</text>
</a>
</g>
</g>
<!-- Node2&#45;&gt;Node3 -->
<g id="edge2" class="edge">
<title>Node2&#45;&gt;Node3</title>
<path fill="none" stroke="midnightblue" d="M278.17,-56.4C256.98,-46.55 228.91,-33.5 208.3,-23.92"/>
<polygon fill="midnightblue" stroke="midnightblue" points="209.67,-20.7 199.13,-19.66 206.72,-27.05 209.67,-20.7"/>
</g>
<!-- Node4 -->
<g id="node4" class="node">
<title>Node4</title>
<g id="a_node4"><a xlink:title=" ">
<polygon fill="white" stroke="#bfbfbf" points="425.5,-0.5 425.5,-19.5 471.5,-19.5 471.5,-0.5 425.5,-0.5"/>
<text text-anchor="middle" x="448.5" y="-7.5" font-family="Helvetica,sans-Serif" font-size="10.00">cstdint</text>
</a>
</g>
</g>
<!-- Node2&#45;&gt;Node4 -->
<g id="edge3" class="edge">
<title>Node2&#45;&gt;Node4</title>
<path fill="none" stroke="midnightblue" d="M341.68,-56.4C365.06,-46.46 396.11,-33.26 418.71,-23.66"/>
<polygon fill="midnightblue" stroke="midnightblue" points="420.29,-26.79 428.13,-19.66 417.56,-20.35 420.29,-26.79"/>
</g>
<!-- Node5 -->
<g id="node5" class="node">
<title>Node5</title>
<g id="a_node5"><a xlink:title=" ">
<polygon fill="white" stroke="#bfbfbf" points="225.5,-0.5 225.5,-19.5 269.5,-19.5 269.5,-0.5 225.5,-0.5"/>
<text text-anchor="middle" x="247.5" y="-7.5" font-family="Helvetica,sans-Serif" font-size="10.00">vector</text>
</a>
</g>
</g>
<!-- Node2&#45;&gt;Node5 -->
<g id="edge4" class="edge">
<title>Node2&#45;&gt;Node5</title>
<path fill="none" stroke="midnightblue" d="M294.04,-56.4C284.91,-47.49 273.08,-35.95 263.64,-26.74"/>
<polygon fill="midnightblue" stroke="midnightblue" points="265.98,-24.13 256.38,-19.66 261.09,-29.15 265.98,-24.13"/>
</g>
<!-- Node6 -->
<g id="node6" class="node">
<title>Node6</title>
<g id="a_node6"><a xlink:title=" ">
<polygon fill="white" stroke="#bfbfbf" points="357.5,-0.5 357.5,-19.5 407.5,-19.5 407.5,-0.5 357.5,-0.5"/>
<text text-anchor="middle" x="382.5" y="-7.5" font-family="Helvetica,sans-Serif" font-size="10.00">iomanip</text>
</a>
</g>
</g>
<!-- Node2&#45;&gt;Node6 -->
<g id="edge5" class="edge">
<title>Node2&#45;&gt;Node6</title>
<path fill="none" stroke="midnightblue" d="M326.04,-56.4C337.34,-47.31 352.04,-35.49 363.61,-26.19"/>
<polygon fill="midnightblue" stroke="midnightblue" points="366.13,-28.65 371.73,-19.66 361.75,-23.2 366.13,-28.65"/>
</g>
<!-- Node7 -->
<g id="node7" class="node">
<title>Node7</title>
<g id="a_node7"><a xlink:title=" ">
<polygon fill="white" stroke="#bfbfbf" points="287.5,-0.5 287.5,-19.5 339.5,-19.5 339.5,-0.5 287.5,-0.5"/>
<text text-anchor="middle" x="313.5" y="-7.5" font-family="Helvetica,sans-Serif" font-size="10.00">sstream</text>
</a>
</g>
</g>
<!-- Node2&#45;&gt;Node7 -->
<g id="edge6" class="edge">
<title>Node2&#45;&gt;Node7</title>
<path fill="none" stroke="midnightblue" d="M309.68,-56.4C310.35,-48.47 311.19,-38.46 311.92,-29.86"/>
<polygon fill="midnightblue" stroke="midnightblue" points="315.42,-29.92 312.77,-19.66 308.45,-29.33 315.42,-29.92"/>
</g>
<!-- Node8&#45;&gt;Node3 -->
<g id="edge8" class="edge">
<title>Node8&#45;&gt;Node3</title>
<path fill="none" stroke="midnightblue" d="M187.35,-61.98C186.23,-53.58 184.46,-40.48 183.01,-29.66"/>
<polygon fill="midnightblue" stroke="midnightblue" points="186.45,-28.95 181.64,-19.51 179.51,-29.89 186.45,-28.95"/>
</g>
<!-- Node8&#45;&gt;Node5 -->
<g id="edge10" class="edge">
<title>Node8&#45;&gt;Node5</title>
<path fill="none" stroke="midnightblue" d="M196.95,-61.98C206.07,-52.78 220.77,-37.96 231.98,-26.66"/>
<polygon fill="midnightblue" stroke="midnightblue" points="234.51,-29.07 239.06,-19.51 229.54,-24.15 234.51,-29.07"/>
</g>
<!-- Node8&#45;&gt;Node7 -->
<g id="edge9" class="edge">
<title>Node8&#45;&gt;Node7</title>
<path fill="none" stroke="midnightblue" d="M206.41,-61.98C227.39,-51.99 262.35,-35.35 286.59,-23.81"/>
<polygon fill="midnightblue" stroke="midnightblue" points="288.1,-26.97 295.62,-19.51 285.09,-20.65 288.1,-26.97"/>
</g>
<!-- Node9 -->
<g id="node9" class="node">
<title>Node9</title>
<g id="a_node9"><a xlink:title=" ">
<polygon fill="white" stroke="#bfbfbf" points="91.5,-0.5 91.5,-19.5 135.5,-19.5 135.5,-0.5 91.5,-0.5"/>
<text text-anchor="middle" x="113.5" y="-7.5" font-family="Helvetica,sans-Serif" font-size="10.00">cmath</text>
</a>
</g>
</g>
<!-- Node8&#45;&gt;Node9 -->
<g id="edge11" class="edge">
<title>Node8&#45;&gt;Node9</title>
<path fill="none" stroke="midnightblue" d="M177.75,-61.98C165.95,-52.61 146.76,-37.38 132.42,-26.01"/>
<polygon fill="midnightblue" stroke="midnightblue" points="134.24,-22.98 124.23,-19.51 129.88,-28.47 134.24,-22.98"/>
</g>
<!-- Node10 -->
<g id="node10" class="node">
<title>Node10</title>
<g id="a_node10"><a xlink:title=" ">
<polygon fill="white" stroke="#bfbfbf" points="0,-0.5 0,-19.5 73,-19.5 73,-0.5 0,-0.5"/>
<text text-anchor="middle" x="36.5" y="-7.5" font-family="Helvetica,sans-Serif" font-size="10.00">initializer_list</text>
</a>
</g>
</g>
<!-- Node8&#45;&gt;Node10 -->
<g id="edge12" class="edge">
<title>Node8&#45;&gt;Node10</title>
<path fill="none" stroke="midnightblue" d="M166.72,-61.98C140.76,-51.81 97.19,-34.76 67.67,-23.2"/>
<polygon fill="midnightblue" stroke="midnightblue" points="68.83,-19.9 58.24,-19.51 66.27,-26.41 68.83,-19.9"/>
</g>
</g>
</svg>
