<?xml version="1.0" encoding="UTF-8" standalone="no"?>
<!DOCTYPE svg PUBLIC "-//W3C//DTD SVG 1.1//EN"
 "http://www.w3.org/Graphics/SVG/1.1/DTD/svg11.dtd">
<!-- Generated by graphviz version 2.50.0 (20211204.2007)
 -->
<!-- Title: src/model/base_u1_spin.hpp Pages: 1 -->
<svg width="922pt" height="319pt"
 viewBox="0.00 0.00 921.84 319.00" xmlns="http://www.w3.org/2000/svg" xmlns:xlink="http://www.w3.org/1999/xlink">
<g id="graph0" class="graph" transform="scale(1 1) rotate(0) translate(4 315)">
<title>src/model/base_u1_spin.hpp</title>
<polygon fill="white" stroke="transparent" points="-4,4 -4,-315 917.84,-315 917.84,4 -4,4"/>
<!-- Node1 -->
<g id="node1" class="node">
<title>Node1</title>
<g id="a_node1"><a xlink:title=" ">
<polygon fill="#bfbfbf" stroke="black" points="692.34,-291.5 692.34,-310.5 833.34,-310.5 833.34,-291.5 692.34,-291.5"/>
<text text-anchor="middle" x="762.84" y="-298.5" font-family="Helvetica,sans-Serif" font-size="10.00">src/model/base_u1_spin.hpp</text>
</a>
</g>
</g>
<!-- Node2 -->
<g id="node2" class="node">
<title>Node2</title>
<g id="a_node2"><a xlink:href="../../dd/de6/blas_2all_8hpp.html" target="_top" xlink:title=" ">
<polygon fill="white" stroke="black" points="314.34,-235.5 314.34,-254.5 389.34,-254.5 389.34,-235.5 314.34,-235.5"/>
<text text-anchor="middle" x="351.84" y="-242.5" font-family="Helvetica,sans-Serif" font-size="10.00">../blas/all.hpp</text>
</a>
</g>
</g>
<!-- Node1&#45;&gt;Node2 -->
<g id="edge1" class="edge">
<title>Node1&#45;&gt;Node2</title>
<path fill="none" stroke="midnightblue" d="M697.71,-291.44C614.7,-280.54 473.14,-261.94 399.51,-252.26"/>
<polygon fill="midnightblue" stroke="midnightblue" points="399.95,-248.79 389.58,-250.96 399.04,-255.73 399.95,-248.79"/>
</g>
<!-- Node19 -->
<g id="node19" class="node">
<title>Node19</title>
<g id="a_node19"><a xlink:href="../../d5/d8a/utility_2all_8hpp.html" target="_top" xlink:title=" ">
<polygon fill="white" stroke="black" points="790.84,-179.5 790.84,-198.5 870.84,-198.5 870.84,-179.5 790.84,-179.5"/>
<text text-anchor="middle" x="830.84" y="-186.5" font-family="Helvetica,sans-Serif" font-size="10.00">../utility/all.hpp</text>
</a>
</g>
</g>
<!-- Node1&#45;&gt;Node19 -->
<g id="edge36" class="edge">
<title>Node1&#45;&gt;Node19</title>
<path fill="none" stroke="midnightblue" d="M768.17,-291.37C779.35,-273.3 805.38,-231.18 820.14,-207.31"/>
<polygon fill="midnightblue" stroke="midnightblue" points="823.24,-208.94 825.53,-198.59 817.29,-205.26 823.24,-208.94"/>
</g>
<!-- Node27 -->
<g id="node27" class="node">
<title>Node27</title>
<g id="a_node27"><a xlink:href="../../d9/dd5/type_2all_8hpp.html" target="_top" xlink:title=" ">
<polygon fill="white" stroke="black" points="725.84,-123.5 725.84,-142.5 801.84,-142.5 801.84,-123.5 725.84,-123.5"/>
<text text-anchor="middle" x="763.84" y="-130.5" font-family="Helvetica,sans-Serif" font-size="10.00">../type/all.hpp</text>
</a>
</g>
</g>
<!-- Node1&#45;&gt;Node27 -->
<g id="edge47" class="edge">
<title>Node1&#45;&gt;Node27</title>
<path fill="none" stroke="midnightblue" d="M762.89,-291.08C763.05,-264.95 763.51,-188.21 763.73,-152.58"/>
<polygon fill="midnightblue" stroke="midnightblue" points="767.22,-152.59 763.79,-142.57 760.23,-152.55 767.22,-152.59"/>
</g>
<!-- Node3 -->
<g id="node3" class="node">
<title>Node3</title>
<g id="a_node3"><a xlink:href="../../df/d20/eigendecomposition_8hpp.html" target="_top" xlink:title=" ">
<polygon fill="white" stroke="black" points="163.84,-179.5 163.84,-198.5 285.84,-198.5 285.84,-179.5 163.84,-179.5"/>
<text text-anchor="middle" x="224.84" y="-186.5" font-family="Helvetica,sans-Serif" font-size="10.00">eigendecomposition.hpp</text>
</a>
</g>
</g>
<!-- Node2&#45;&gt;Node3 -->
<g id="edge2" class="edge">
<title>Node2&#45;&gt;Node3</title>
<path fill="none" stroke="midnightblue" d="M331.71,-235.44C310.81,-226.56 277.9,-212.56 254.12,-202.45"/>
<polygon fill="midnightblue" stroke="midnightblue" points="255.44,-199.21 244.87,-198.52 252.7,-205.65 255.44,-199.21"/>
</g>
<!-- Node13 -->
<g id="node13" class="node">
<title>Node13</title>
<g id="a_node13"><a xlink:href="../../df/dd2/lapack_8hpp.html" target="_top" xlink:title=" ">
<polygon fill="white" stroke="black" points="203.84,-123.5 203.84,-142.5 267.84,-142.5 267.84,-123.5 203.84,-123.5"/>
<text text-anchor="middle" x="235.84" y="-130.5" font-family="Helvetica,sans-Serif" font-size="10.00">lapack.hpp</text>
</a>
</g>
</g>
<!-- Node2&#45;&gt;Node13 -->
<g id="edge23" class="edge">
<title>Node2&#45;&gt;Node13</title>
<path fill="none" stroke="midnightblue" d="M344.97,-235.09C334.74,-222.08 314.58,-197.44 294.84,-179 282.98,-167.93 268.52,-156.86 256.88,-148.48"/>
<polygon fill="midnightblue" stroke="midnightblue" points="258.8,-145.55 248.62,-142.63 254.76,-151.26 258.8,-145.55"/>
</g>
<!-- Node14 -->
<g id="node14" class="node">
<title>Node14</title>
<g id="a_node14"><a xlink:href="../../df/d88/orthonormalize_8hpp.html" target="_top" xlink:title=" ">
<polygon fill="white" stroke="black" points="608.34,-123.5 608.34,-142.5 707.34,-142.5 707.34,-123.5 608.34,-123.5"/>
<text text-anchor="middle" x="657.84" y="-130.5" font-family="Helvetica,sans-Serif" font-size="10.00">orthonormalize.hpp</text>
</a>
</g>
</g>
<!-- Node2&#45;&gt;Node14 -->
<g id="edge35" class="edge">
<title>Node2&#45;&gt;Node14</title>
<path fill="none" stroke="midnightblue" d="M375.59,-235.46C429.6,-216.05 561.72,-168.55 624.13,-146.12"/>
<polygon fill="midnightblue" stroke="midnightblue" points="625.66,-149.29 633.88,-142.61 623.29,-142.7 625.66,-149.29"/>
</g>
<!-- Node16 -->
<g id="node16" class="node">
<title>Node16</title>
<g id="a_node16"><a xlink:href="../../db/d59/matrix__vector__operation_8hpp.html" target="_top" xlink:title=" ">
<polygon fill="white" stroke="black" points="411.84,-123.5 411.84,-142.5 551.84,-142.5 551.84,-123.5 411.84,-123.5"/>
<text text-anchor="middle" x="481.84" y="-130.5" font-family="Helvetica,sans-Serif" font-size="10.00">matrix_vector_operation.hpp</text>
</a>
</g>
</g>
<!-- Node2&#45;&gt;Node16 -->
<g id="edge24" class="edge">
<title>Node2&#45;&gt;Node16</title>
<path fill="none" stroke="midnightblue" d="M362.04,-235.37C384.06,-216.73 436.3,-172.53 463.95,-149.13"/>
<polygon fill="midnightblue" stroke="midnightblue" points="466.31,-151.72 471.68,-142.59 461.79,-146.38 466.31,-151.72"/>
</g>
<!-- Node17 -->
<g id="node17" class="node">
<title>Node17</title>
<g id="a_node17"><a xlink:href="../../df/daf/conjugate__gradient_8hpp.html" target="_top" xlink:title=" ">
<polygon fill="white" stroke="black" points="30.34,-123.5 30.34,-142.5 147.34,-142.5 147.34,-123.5 30.34,-123.5"/>
<text text-anchor="middle" x="88.84" y="-130.5" font-family="Helvetica,sans-Serif" font-size="10.00">conjugate_gradient.hpp</text>
</a>
</g>
</g>
<!-- Node2&#45;&gt;Node17 -->
<g id="edge27" class="edge">
<title>Node2&#45;&gt;Node17</title>
<path fill="none" stroke="midnightblue" d="M314.1,-241.53C272.77,-237.47 205.6,-226.81 154.84,-199 132.91,-186.99 113.27,-165.59 101.23,-150.64"/>
<polygon fill="midnightblue" stroke="midnightblue" points="103.96,-148.45 95.06,-142.7 98.43,-152.74 103.96,-148.45"/>
</g>
<!-- Node18 -->
<g id="node18" class="node">
<title>Node18</title>
<g id="a_node18"><a xlink:href="../../de/d83/inverse__iteration_8hpp.html" target="_top" xlink:title=" ">
<polygon fill="white" stroke="black" points="286.34,-123.5 286.34,-142.5 393.34,-142.5 393.34,-123.5 286.34,-123.5"/>
<text text-anchor="middle" x="339.84" y="-130.5" font-family="Helvetica,sans-Serif" font-size="10.00">inverse_iteration.hpp</text>
</a>
</g>
</g>
<!-- Node2&#45;&gt;Node18 -->
<g id="edge32" class="edge">
<title>Node2&#45;&gt;Node18</title>
<path fill="none" stroke="midnightblue" d="M350.9,-235.37C348.96,-217.62 344.49,-176.67 341.87,-152.6"/>
<polygon fill="midnightblue" stroke="midnightblue" points="345.34,-152.15 340.77,-142.59 338.38,-152.91 345.34,-152.15"/>
</g>
<!-- Node4 -->
<g id="node4" class="node">
<title>Node4</title>
<g id="a_node4"><a xlink:href="../../d4/dc7/compressed__row__storage_8hpp.html" target="_top" xlink:title=" ">
<polygon fill="white" stroke="black" points="240.34,-56.5 240.34,-86.5 341.34,-86.5 341.34,-56.5 240.34,-56.5"/>
<text text-anchor="start" x="248.34" y="-74.5" font-family="Helvetica,sans-Serif" font-size="10.00">../type/compressed</text>
<text text-anchor="middle" x="290.84" y="-63.5" font-family="Helvetica,sans-Serif" font-size="10.00">_row_storage.hpp</text>
</a>
</g>
</g>
<!-- Node3&#45;&gt;Node4 -->
<g id="edge3" class="edge">
<title>Node3&#45;&gt;Node4</title>
<path fill="none" stroke="midnightblue" d="M215.42,-179.28C202.8,-166.51 183.27,-142.15 194.84,-123 203.38,-108.85 217.35,-98.47 232.03,-90.93"/>
<polygon fill="midnightblue" stroke="midnightblue" points="233.66,-94.03 241.21,-86.6 230.67,-87.7 233.66,-94.03"/>
</g>
<!-- Node7 -->
<g id="node7" class="node">
<title>Node7</title>
<g id="a_node7"><a xlink:title=" ">
<polygon fill="white" stroke="#bfbfbf" points="268.84,-0.5 268.84,-19.5 312.84,-19.5 312.84,-0.5 268.84,-0.5"/>
<text text-anchor="middle" x="290.84" y="-7.5" font-family="Helvetica,sans-Serif" font-size="10.00">vector</text>
</a>
</g>
</g>
<!-- Node3&#45;&gt;Node7 -->
<g id="edge21" class="edge">
<title>Node3&#45;&gt;Node7</title>
<path fill="none" stroke="midnightblue" d="M163.65,-183.42C107.92,-177.83 31.55,-166.1 12.84,-143 -1.84,-124.88 -9.89,-89.35 23.84,-56 59.65,-20.59 193.43,-30.26 258.71,-19.72"/>
<polygon fill="midnightblue" stroke="midnightblue" points="259.41,-23.15 268.58,-17.84 258.1,-16.27 259.41,-23.15"/>
</g>
<!-- Node10 -->
<g id="node10" class="node">
<title>Node10</title>
<g id="a_node10"><a xlink:href="../../d4/ddc/braket__vector_8hpp.html" target="_top" xlink:title=" ">
<polygon fill="white" stroke="black" points="419.34,-62 419.34,-81 544.34,-81 544.34,-62 419.34,-62"/>
<text text-anchor="middle" x="481.84" y="-69" font-family="Helvetica,sans-Serif" font-size="10.00">../type/braket_vector.hpp</text>
</a>
</g>
</g>
<!-- Node3&#45;&gt;Node10 -->
<g id="edge9" class="edge">
<title>Node3&#45;&gt;Node10</title>
<path fill="none" stroke="midnightblue" d="M286.15,-189C373.17,-188.95 525.86,-182.97 560.84,-143 580.39,-120.66 543.82,-98.44 514.17,-85.09"/>
<polygon fill="midnightblue" stroke="midnightblue" points="515.43,-81.82 504.86,-81.08 512.66,-88.25 515.43,-81.82"/>
</g>
<!-- Node3&#45;&gt;Node13 -->
<g id="edge15" class="edge">
<title>Node3&#45;&gt;Node13</title>
<path fill="none" stroke="midnightblue" d="M226.65,-179.08C228.11,-171.93 230.21,-161.64 232.03,-152.69"/>
<polygon fill="midnightblue" stroke="midnightblue" points="235.49,-153.25 234.05,-142.75 228.63,-151.85 235.49,-153.25"/>
</g>
<!-- Node3&#45;&gt;Node14 -->
<g id="edge18" class="edge">
<title>Node3&#45;&gt;Node14</title>
<path fill="none" stroke="midnightblue" d="M285.93,-180.9C359.15,-172.3 485.54,-157.22 593.84,-143 595.3,-142.81 596.78,-142.61 598.27,-142.41"/>
<polygon fill="midnightblue" stroke="midnightblue" points="598.79,-145.87 608.24,-141.07 597.86,-138.94 598.79,-145.87"/>
</g>
<!-- Node15 -->
<g id="node15" class="node">
<title>Node15</title>
<g id="a_node15"><a xlink:title=" ">
<polygon fill="white" stroke="#bfbfbf" points="33.34,-62 33.34,-81 82.34,-81 82.34,-62 33.34,-62"/>
<text text-anchor="middle" x="57.84" y="-69" font-family="Helvetica,sans-Serif" font-size="10.00">random</text>
</a>
</g>
</g>
<!-- Node3&#45;&gt;Node15 -->
<g id="edge22" class="edge">
<title>Node3&#45;&gt;Node15</title>
<path fill="none" stroke="midnightblue" d="M163.63,-182.83C110.2,-176.9 38.53,-165.02 20.84,-143 7.2,-126.02 24.36,-103.24 39.57,-88.23"/>
<polygon fill="midnightblue" stroke="midnightblue" points="42.24,-90.53 47.18,-81.16 37.47,-85.4 42.24,-90.53"/>
</g>
<!-- Node5 -->
<g id="node5" class="node">
<title>Node5</title>
<g id="a_node5"><a xlink:title=" ">
<polygon fill="white" stroke="#bfbfbf" points="330.84,-0.5 330.84,-19.5 384.84,-19.5 384.84,-0.5 330.84,-0.5"/>
<text text-anchor="middle" x="357.84" y="-7.5" font-family="Helvetica,sans-Serif" font-size="10.00">iostream</text>
</a>
</g>
</g>
<!-- Node4&#45;&gt;Node5 -->
<g id="edge4" class="edge">
<title>Node4&#45;&gt;Node5</title>
<path fill="none" stroke="midnightblue" d="M306.72,-56.4C316.85,-47.4 330,-35.72 340.42,-26.47"/>
<polygon fill="midnightblue" stroke="midnightblue" points="342.93,-28.92 348.09,-19.66 338.29,-23.68 342.93,-28.92"/>
</g>
<!-- Node6 -->
<g id="node6" class="node">
<title>Node6</title>
<g id="a_node6"><a xlink:title=" ">
<polygon fill="white" stroke="#bfbfbf" points="136.84,-0.5 136.84,-19.5 182.84,-19.5 182.84,-0.5 136.84,-0.5"/>
<text text-anchor="middle" x="159.84" y="-7.5" font-family="Helvetica,sans-Serif" font-size="10.00">cstdint</text>
</a>
</g>
</g>
<!-- Node4&#45;&gt;Node6 -->
<g id="edge5" class="edge">
<title>Node4&#45;&gt;Node6</title>
<path fill="none" stroke="midnightblue" d="M259.79,-56.4C238.11,-46.55 209.38,-33.5 188.29,-23.92"/>
<polygon fill="midnightblue" stroke="midnightblue" points="189.45,-20.61 178.9,-19.66 186.56,-26.98 189.45,-20.61"/>
</g>
<!-- Node4&#45;&gt;Node7 -->
<g id="edge6" class="edge">
<title>Node4&#45;&gt;Node7</title>
<path fill="none" stroke="midnightblue" d="M290.84,-56.4C290.84,-48.47 290.84,-38.46 290.84,-29.86"/>
<polygon fill="midnightblue" stroke="midnightblue" points="294.34,-29.66 290.84,-19.66 287.34,-29.66 294.34,-29.66"/>
</g>
<!-- Node8 -->
<g id="node8" class="node">
<title>Node8</title>
<g id="a_node8"><a xlink:title=" ">
<polygon fill="white" stroke="#bfbfbf" points="200.84,-0.5 200.84,-19.5 250.84,-19.5 250.84,-0.5 200.84,-0.5"/>
<text text-anchor="middle" x="225.84" y="-7.5" font-family="Helvetica,sans-Serif" font-size="10.00">iomanip</text>
</a>
</g>
</g>
<!-- Node4&#45;&gt;Node8 -->
<g id="edge7" class="edge">
<title>Node4&#45;&gt;Node8</title>
<path fill="none" stroke="midnightblue" d="M275.43,-56.4C265.6,-47.4 252.84,-35.72 242.73,-26.47"/>
<polygon fill="midnightblue" stroke="midnightblue" points="245.03,-23.83 235.3,-19.66 240.31,-28.99 245.03,-23.83"/>
</g>
<!-- Node9 -->
<g id="node9" class="node">
<title>Node9</title>
<g id="a_node9"><a xlink:title=" ">
<polygon fill="white" stroke="#bfbfbf" points="494.84,-0.5 494.84,-19.5 546.84,-19.5 546.84,-0.5 494.84,-0.5"/>
<text text-anchor="middle" x="520.84" y="-7.5" font-family="Helvetica,sans-Serif" font-size="10.00">sstream</text>
</a>
</g>
</g>
<!-- Node4&#45;&gt;Node9 -->
<g id="edge8" class="edge">
<title>Node4&#45;&gt;Node9</title>
<path fill="none" stroke="midnightblue" d="M341.6,-57.37C385.07,-46.12 446.58,-30.21 485.06,-20.25"/>
<polygon fill="midnightblue" stroke="midnightblue" points="485.99,-23.63 494.8,-17.74 484.24,-16.85 485.99,-23.63"/>
</g>
<!-- Node10&#45;&gt;Node5 -->
<g id="edge10" class="edge">
<title>Node10&#45;&gt;Node5</title>
<path fill="none" stroke="midnightblue" d="M464.07,-61.98C443.35,-52.03 408.88,-35.49 384.85,-23.96"/>
<polygon fill="midnightblue" stroke="midnightblue" points="386.1,-20.68 375.57,-19.51 383.07,-26.99 386.1,-20.68"/>
</g>
<!-- Node10&#45;&gt;Node7 -->
<g id="edge12" class="edge">
<title>Node10&#45;&gt;Node7</title>
<path fill="none" stroke="midnightblue" d="M454.47,-61.98C419.68,-51.14 359.71,-32.46 322.84,-20.97"/>
<polygon fill="midnightblue" stroke="midnightblue" points="323.68,-17.57 313.09,-17.93 321.6,-24.25 323.68,-17.57"/>
</g>
<!-- Node10&#45;&gt;Node9 -->
<g id="edge11" class="edge">
<title>Node10&#45;&gt;Node9</title>
<path fill="none" stroke="midnightblue" d="M487.42,-61.98C493.22,-53.14 502.43,-39.09 509.71,-27.98"/>
<polygon fill="midnightblue" stroke="midnightblue" points="512.7,-29.79 515.26,-19.51 506.85,-25.95 512.7,-29.79"/>
</g>
<!-- Node11 -->
<g id="node11" class="node">
<title>Node11</title>
<g id="a_node11"><a xlink:title=" ">
<polygon fill="white" stroke="#bfbfbf" points="564.84,-0.5 564.84,-19.5 608.84,-19.5 608.84,-0.5 564.84,-0.5"/>
<text text-anchor="middle" x="586.84" y="-7.5" font-family="Helvetica,sans-Serif" font-size="10.00">cmath</text>
</a>
</g>
</g>
<!-- Node10&#45;&gt;Node11 -->
<g id="edge13" class="edge">
<title>Node10&#45;&gt;Node11</title>
<path fill="none" stroke="midnightblue" d="M496.88,-61.98C514.11,-52.21 542.58,-36.08 562.87,-24.58"/>
<polygon fill="midnightblue" stroke="midnightblue" points="564.85,-27.48 571.82,-19.51 561.4,-21.39 564.85,-27.48"/>
</g>
<!-- Node12 -->
<g id="node12" class="node">
<title>Node12</title>
<g id="a_node12"><a xlink:title=" ">
<polygon fill="white" stroke="#bfbfbf" points="403.34,-0.5 403.34,-19.5 476.34,-19.5 476.34,-0.5 403.34,-0.5"/>
<text text-anchor="middle" x="439.84" y="-7.5" font-family="Helvetica,sans-Serif" font-size="10.00">initializer_list</text>
</a>
</g>
</g>
<!-- Node10&#45;&gt;Node12 -->
<g id="edge14" class="edge">
<title>Node10&#45;&gt;Node12</title>
<path fill="none" stroke="midnightblue" d="M475.82,-61.98C469.58,-53.14 459.66,-39.09 451.82,-27.98"/>
<polygon fill="midnightblue" stroke="midnightblue" points="454.47,-25.66 445.84,-19.51 448.75,-29.7 454.47,-25.66"/>
</g>
<!-- Node13&#45;&gt;Node4 -->
<g id="edge16" class="edge">
<title>Node13&#45;&gt;Node4</title>
<path fill="none" stroke="midnightblue" d="M243.72,-123.48C250.82,-115.79 261.56,-104.17 271,-93.96"/>
<polygon fill="midnightblue" stroke="midnightblue" points="273.66,-96.24 277.87,-86.52 268.52,-91.49 273.66,-96.24"/>
</g>
<!-- Node13&#45;&gt;Node9 -->
<g id="edge17" class="edge">
<title>Node13&#45;&gt;Node9</title>
<path fill="none" stroke="midnightblue" d="M259.25,-123.5C282.48,-114.89 318.99,-100.89 349.84,-87 377.57,-74.51 383.18,-68.66 410.84,-56 436.71,-44.16 466.62,-32.02 488.72,-23.34"/>
<polygon fill="midnightblue" stroke="midnightblue" points="490.23,-26.5 498.28,-19.61 487.69,-19.98 490.23,-26.5"/>
</g>
<!-- Node14&#45;&gt;Node9 -->
<g id="edge20" class="edge">
<title>Node14&#45;&gt;Node9</title>
<path fill="none" stroke="midnightblue" d="M646.95,-123.18C635.96,-114.21 618.54,-99.85 603.84,-87 580.53,-66.64 554.29,-42.38 537.67,-26.84"/>
<polygon fill="midnightblue" stroke="midnightblue" points="539.61,-23.86 529.92,-19.58 534.82,-28.97 539.61,-23.86"/>
</g>
<!-- Node14&#45;&gt;Node10 -->
<g id="edge19" class="edge">
<title>Node14&#45;&gt;Node10</title>
<path fill="none" stroke="midnightblue" d="M632.62,-123.48C602.17,-113.18 550.79,-95.81 516.59,-84.25"/>
<polygon fill="midnightblue" stroke="midnightblue" points="517.6,-80.9 507.01,-81.01 515.36,-87.53 517.6,-80.9"/>
</g>
<!-- Node16&#45;&gt;Node4 -->
<g id="edge25" class="edge">
<title>Node16&#45;&gt;Node4</title>
<path fill="none" stroke="midnightblue" d="M454.47,-123.48C426.19,-114.66 381.26,-100.67 345.63,-89.57"/>
<polygon fill="midnightblue" stroke="midnightblue" points="346.44,-86.16 335.85,-86.52 344.36,-92.84 346.44,-86.16"/>
</g>
<!-- Node16&#45;&gt;Node10 -->
<g id="edge26" class="edge">
<title>Node16&#45;&gt;Node10</title>
<path fill="none" stroke="midnightblue" d="M481.84,-123.48C481.84,-115.08 481.84,-101.98 481.84,-91.16"/>
<polygon fill="midnightblue" stroke="midnightblue" points="485.34,-91.01 481.84,-81.01 478.34,-91.01 485.34,-91.01"/>
</g>
<!-- Node17&#45;&gt;Node4 -->
<g id="edge28" class="edge">
<title>Node17&#45;&gt;Node4</title>
<path fill="none" stroke="midnightblue" d="M117.78,-123.48C147.82,-114.63 195.61,-100.55 233.37,-89.43"/>
<polygon fill="midnightblue" stroke="midnightblue" points="234.63,-92.71 243.23,-86.52 232.65,-85.99 234.63,-92.71"/>
</g>
<!-- Node17&#45;&gt;Node7 -->
<g id="edge30" class="edge">
<title>Node17&#45;&gt;Node7</title>
<path fill="none" stroke="midnightblue" d="M103.04,-123.49C137.44,-102.89 225.47,-50.15 267.64,-24.89"/>
<polygon fill="midnightblue" stroke="midnightblue" points="269.6,-27.8 276.38,-19.66 266,-21.8 269.6,-27.8"/>
</g>
<!-- Node17&#45;&gt;Node10 -->
<g id="edge29" class="edge">
<title>Node17&#45;&gt;Node10</title>
<path fill="none" stroke="midnightblue" d="M145.14,-123.48C216.64,-112.65 339.81,-94 415.71,-82.51"/>
<polygon fill="midnightblue" stroke="midnightblue" points="416.27,-85.97 425.63,-81.01 415.22,-79.05 416.27,-85.97"/>
</g>
<!-- Node17&#45;&gt;Node15 -->
<g id="edge31" class="edge">
<title>Node17&#45;&gt;Node15</title>
<path fill="none" stroke="midnightblue" d="M84.4,-123.48C79.88,-114.82 72.76,-101.15 67.03,-90.15"/>
<polygon fill="midnightblue" stroke="midnightblue" points="69.99,-88.26 62.27,-81.01 63.79,-91.49 69.99,-88.26"/>
</g>
<!-- Node18&#45;&gt;Node4 -->
<g id="edge33" class="edge">
<title>Node18&#45;&gt;Node4</title>
<path fill="none" stroke="midnightblue" d="M332.82,-123.48C326.55,-115.87 317.11,-104.4 308.76,-94.26"/>
<polygon fill="midnightblue" stroke="midnightblue" points="311.44,-92.02 302.39,-86.52 306.04,-96.47 311.44,-92.02"/>
</g>
<!-- Node18&#45;&gt;Node10 -->
<g id="edge34" class="edge">
<title>Node18&#45;&gt;Node10</title>
<path fill="none" stroke="midnightblue" d="M360.18,-123.48C384.22,-113.4 424.43,-96.55 452,-85"/>
<polygon fill="midnightblue" stroke="midnightblue" points="453.66,-88.1 461.53,-81.01 450.95,-81.65 453.66,-88.1"/>
</g>
<!-- Node20 -->
<g id="node20" class="node">
<title>Node20</title>
<g id="a_node20"><a xlink:href="../../d0/dad/integer_8hpp.html" target="_top" xlink:title=" ">
<polygon fill="white" stroke="black" points="612.84,-62 612.84,-81 676.84,-81 676.84,-62 612.84,-62"/>
<text text-anchor="middle" x="644.84" y="-69" font-family="Helvetica,sans-Serif" font-size="10.00">integer.hpp</text>
</a>
</g>
</g>
<!-- Node19&#45;&gt;Node20 -->
<g id="edge37" class="edge">
<title>Node19&#45;&gt;Node20</title>
<path fill="none" stroke="midnightblue" d="M830.63,-179.11C829.82,-165.21 826.22,-138.34 810.84,-123 793.36,-105.58 730.24,-89.77 687.07,-80.64"/>
<polygon fill="midnightblue" stroke="midnightblue" points="687.61,-77.18 677.11,-78.58 686.19,-84.04 687.61,-77.18"/>
</g>
<!-- Node23 -->
<g id="node23" class="node">
<title>Node23</title>
<g id="a_node23"><a xlink:href="../../d9/d04/hash_8hpp.html" target="_top" xlink:title=" ">
<polygon fill="white" stroke="black" points="857.84,-123.5 857.84,-142.5 913.84,-142.5 913.84,-123.5 857.84,-123.5"/>
<text text-anchor="middle" x="885.84" y="-130.5" font-family="Helvetica,sans-Serif" font-size="10.00">hash.hpp</text>
</a>
</g>
</g>
<!-- Node19&#45;&gt;Node23 -->
<g id="edge42" class="edge">
<title>Node19&#45;&gt;Node23</title>
<path fill="none" stroke="midnightblue" d="M839.92,-179.08C848.01,-171.14 860.03,-159.34 869.75,-149.8"/>
<polygon fill="midnightblue" stroke="midnightblue" points="872.24,-152.25 876.92,-142.75 867.34,-147.26 872.24,-152.25"/>
</g>
<!-- Node20&#45;&gt;Node7 -->
<g id="edge39" class="edge">
<title>Node20&#45;&gt;Node7</title>
<path fill="none" stroke="midnightblue" d="M612.84,-65.37C595.4,-62.58 573.43,-59.08 553.84,-56 453.88,-40.28 425.41,-42.44 322.92,-20.01"/>
<polygon fill="midnightblue" stroke="midnightblue" points="323.62,-16.58 313.1,-17.83 322.11,-23.41 323.62,-16.58"/>
</g>
<!-- Node20&#45;&gt;Node9 -->
<g id="edge38" class="edge">
<title>Node20&#45;&gt;Node9</title>
<path fill="none" stroke="midnightblue" d="M627.07,-61.98C606.35,-52.03 571.88,-35.49 547.85,-23.96"/>
<polygon fill="midnightblue" stroke="midnightblue" points="549.1,-20.68 538.57,-19.51 546.07,-26.99 549.1,-20.68"/>
</g>
<!-- Node21 -->
<g id="node21" class="node">
<title>Node21</title>
<g id="a_node21"><a xlink:title=" ">
<polygon fill="white" stroke="#bfbfbf" points="627.34,-0.5 627.34,-19.5 662.34,-19.5 662.34,-0.5 627.34,-0.5"/>
<text text-anchor="middle" x="644.84" y="-7.5" font-family="Helvetica,sans-Serif" font-size="10.00">map</text>
</a>
</g>
</g>
<!-- Node20&#45;&gt;Node21 -->
<g id="edge40" class="edge">
<title>Node20&#45;&gt;Node21</title>
<path fill="none" stroke="midnightblue" d="M644.84,-61.98C644.84,-53.58 644.84,-40.48 644.84,-29.66"/>
<polygon fill="midnightblue" stroke="midnightblue" points="648.34,-29.51 644.84,-19.51 641.34,-29.51 648.34,-29.51"/>
</g>
<!-- Node22 -->
<g id="node22" class="node">
<title>Node22</title>
<g id="a_node22"><a xlink:title=" ">
<polygon fill="white" stroke="#bfbfbf" points="680.34,-0.5 680.34,-19.5 763.34,-19.5 763.34,-0.5 680.34,-0.5"/>
<text text-anchor="middle" x="721.84" y="-7.5" font-family="Helvetica,sans-Serif" font-size="10.00">unordered_map</text>
</a>
</g>
</g>
<!-- Node20&#45;&gt;Node22 -->
<g id="edge41" class="edge">
<title>Node20&#45;&gt;Node22</title>
<path fill="none" stroke="midnightblue" d="M655.87,-61.98C668.11,-52.52 688.07,-37.1 702.83,-25.69"/>
<polygon fill="midnightblue" stroke="midnightblue" points="705.05,-28.39 710.83,-19.51 700.77,-22.85 705.05,-28.39"/>
</g>
<!-- Node24 -->
<g id="node24" class="node">
<title>Node24</title>
<g id="a_node24"><a xlink:href="../../db/dd6/half__int_8hpp.html" target="_top" xlink:title=" ">
<polygon fill="white" stroke="black" points="730.84,-62 730.84,-81 828.84,-81 828.84,-62 730.84,-62"/>
<text text-anchor="middle" x="779.84" y="-69" font-family="Helvetica,sans-Serif" font-size="10.00">../type/half_int.hpp</text>
</a>
</g>
</g>
<!-- Node23&#45;&gt;Node24 -->
<g id="edge43" class="edge">
<title>Node23&#45;&gt;Node24</title>
<path fill="none" stroke="midnightblue" d="M870.65,-123.48C853.18,-113.67 824.26,-97.43 803.75,-85.92"/>
<polygon fill="midnightblue" stroke="midnightblue" points="805.43,-82.85 795,-81.01 802,-88.96 805.43,-82.85"/>
</g>
<!-- Node26 -->
<g id="node26" class="node">
<title>Node26</title>
<g id="a_node26"><a xlink:title=" ">
<polygon fill="white" stroke="#bfbfbf" points="862.84,-62 862.84,-81 908.84,-81 908.84,-62 862.84,-62"/>
<text text-anchor="middle" x="885.84" y="-69" font-family="Helvetica,sans-Serif" font-size="10.00">variant</text>
</a>
</g>
</g>
<!-- Node23&#45;&gt;Node26 -->
<g id="edge46" class="edge">
<title>Node23&#45;&gt;Node26</title>
<path fill="none" stroke="midnightblue" d="M885.84,-123.48C885.84,-115.08 885.84,-101.98 885.84,-91.16"/>
<polygon fill="midnightblue" stroke="midnightblue" points="889.34,-91.01 885.84,-81.01 882.34,-91.01 889.34,-91.01"/>
</g>
<!-- Node24&#45;&gt;Node11 -->
<g id="edge44" class="edge">
<title>Node24&#45;&gt;Node11</title>
<path fill="none" stroke="midnightblue" d="M752.18,-61.98C716.93,-51.11 656.11,-32.36 618.87,-20.88"/>
<polygon fill="midnightblue" stroke="midnightblue" points="619.63,-17.45 609.04,-17.84 617.56,-24.14 619.63,-17.45"/>
</g>
<!-- Node25 -->
<g id="node25" class="node">
<title>Node25</title>
<g id="a_node25"><a xlink:title=" ">
<polygon fill="white" stroke="#bfbfbf" points="781.34,-0.5 781.34,-19.5 840.34,-19.5 840.34,-0.5 781.34,-0.5"/>
<text text-anchor="middle" x="810.84" y="-7.5" font-family="Helvetica,sans-Serif" font-size="10.00">stdexcept</text>
</a>
</g>
</g>
<!-- Node24&#45;&gt;Node25 -->
<g id="edge45" class="edge">
<title>Node24&#45;&gt;Node25</title>
<path fill="none" stroke="midnightblue" d="M784.28,-61.98C788.79,-53.32 795.91,-39.65 801.64,-28.65"/>
<polygon fill="midnightblue" stroke="midnightblue" points="804.89,-29.99 806.4,-19.51 798.68,-26.76 804.89,-29.99"/>
</g>
<!-- Node27&#45;&gt;Node4 -->
<g id="edge49" class="edge">
<title>Node27&#45;&gt;Node4</title>
<path fill="none" stroke="midnightblue" d="M725.66,-124.45C722.68,-123.93 719.71,-123.44 716.84,-123 581.5,-102.11 546.81,-103.21 410.84,-87 391.5,-84.69 370.41,-82.15 351.38,-79.85"/>
<polygon fill="midnightblue" stroke="midnightblue" points="351.69,-76.36 341.34,-78.64 350.84,-83.31 351.69,-76.36"/>
</g>
<!-- Node27&#45;&gt;Node10 -->
<g id="edge50" class="edge">
<title>Node27&#45;&gt;Node10</title>
<path fill="none" stroke="midnightblue" d="M725.81,-123.98C675.84,-113.43 587.96,-94.89 532.43,-83.17"/>
<polygon fill="midnightblue" stroke="midnightblue" points="532.96,-79.71 522.45,-81.07 531.52,-86.56 532.96,-79.71"/>
</g>
<!-- Node27&#45;&gt;Node24 -->
<g id="edge48" class="edge">
<title>Node27&#45;&gt;Node24</title>
<path fill="none" stroke="midnightblue" d="M766.13,-123.48C768.41,-114.99 771.98,-101.7 774.91,-90.82"/>
<polygon fill="midnightblue" stroke="midnightblue" points="778.33,-91.57 777.55,-81.01 771.57,-89.76 778.33,-91.57"/>
</g>
</g>
</svg>
