<?xml version="1.0" encoding="UTF-8" standalone="no"?>
<!DOCTYPE svg PUBLIC "-//W3C//DTD SVG 1.1//EN"
 "http://www.w3.org/Graphics/SVG/1.1/DTD/svg11.dtd">
<!-- Generated by graphviz version 2.50.0 (20211204.2007)
 -->
<!-- Title: src/blas/conjugate_gradient.hpp Pages: 1 -->
<svg width="480pt" height="162pt"
 viewBox="0.00 0.00 480.00 162.00" xmlns="http://www.w3.org/2000/svg" xmlns:xlink="http://www.w3.org/1999/xlink">
<g id="graph0" class="graph" transform="scale(1 1) rotate(0) translate(4 158)">
<title>src/blas/conjugate_gradient.hpp</title>
<polygon fill="white" stroke="transparent" points="-4,4 -4,-158 476,-158 476,4 -4,4"/>
<!-- Node1 -->
<g id="node1" class="node">
<title>Node1</title>
<g id="a_node1"><a xlink:title=" ">
<polygon fill="#bfbfbf" stroke="black" points="178,-123.5 178,-153.5 274,-153.5 274,-123.5 178,-123.5"/>
<text text-anchor="start" x="186" y="-141.5" font-family="Helvetica,sans-Serif" font-size="10.00">src/blas/conjugate</text>
<text text-anchor="middle" x="226" y="-130.5" font-family="Helvetica,sans-Serif" font-size="10.00">_gradient.hpp</text>
</a>
</g>
</g>
<!-- Node2 -->
<g id="node2" class="node">
<title>Node2</title>
<g id="a_node2"><a xlink:href="../../d4/dc7/compressed__row__storage_8hpp.html" target="_top" xlink:title=" ">
<polygon fill="white" stroke="black" points="241.5,-56.5 241.5,-86.5 342.5,-86.5 342.5,-56.5 241.5,-56.5"/>
<text text-anchor="start" x="249.5" y="-74.5" font-family="Helvetica,sans-Serif" font-size="10.00">../type/compressed</text>
<text text-anchor="middle" x="292" y="-63.5" font-family="Helvetica,sans-Serif" font-size="10.00">_row_storage.hpp</text>
</a>
</g>
</g>
<!-- Node1&#45;&gt;Node2 -->
<g id="edge1" class="edge">
<title>Node1&#45;&gt;Node2</title>
<path fill="none" stroke="midnightblue" d="M240.32,-123.4C249.14,-114.71 260.62,-103.4 270.52,-93.66"/>
<polygon fill="midnightblue" stroke="midnightblue" points="273.04,-96.09 277.71,-86.58 268.13,-91.1 273.04,-96.09"/>
</g>
<!-- Node5 -->
<g id="node5" class="node">
<title>Node5</title>
<g id="a_node5"><a xlink:title=" ">
<polygon fill="white" stroke="#bfbfbf" points="0,-0.5 0,-19.5 44,-19.5 44,-0.5 0,-0.5"/>
<text text-anchor="middle" x="22" y="-7.5" font-family="Helvetica,sans-Serif" font-size="10.00">vector</text>
</a>
</g>
</g>
<!-- Node1&#45;&gt;Node5 -->
<g id="edge13" class="edge">
<title>Node1&#45;&gt;Node5</title>
<path fill="none" stroke="midnightblue" d="M177.9,-126.1C150.28,-118.06 115.87,-105.41 89,-87 65.74,-71.06 45.34,-45.28 33.33,-28.24"/>
<polygon fill="midnightblue" stroke="midnightblue" points="36.09,-26.07 27.57,-19.78 30.31,-30.02 36.09,-26.07"/>
</g>
<!-- Node8 -->
<g id="node8" class="node">
<title>Node8</title>
<g id="a_node8"><a xlink:href="../../d4/ddc/braket__vector_8hpp.html" target="_top" xlink:title=" ">
<polygon fill="white" stroke="black" points="98.5,-62 98.5,-81 223.5,-81 223.5,-62 98.5,-62"/>
<text text-anchor="middle" x="161" y="-69" font-family="Helvetica,sans-Serif" font-size="10.00">../type/braket_vector.hpp</text>
</a>
</g>
</g>
<!-- Node1&#45;&gt;Node8 -->
<g id="edge7" class="edge">
<title>Node1&#45;&gt;Node8</title>
<path fill="none" stroke="midnightblue" d="M211.9,-123.4C201.56,-113.06 187.52,-99.02 176.81,-88.31"/>
<polygon fill="midnightblue" stroke="midnightblue" points="179.24,-85.79 169.69,-81.19 174.29,-90.74 179.24,-85.79"/>
</g>
<!-- Node11 -->
<g id="node11" class="node">
<title>Node11</title>
<g id="a_node11"><a xlink:title=" ">
<polygon fill="white" stroke="#bfbfbf" points="360.5,-62 360.5,-81 409.5,-81 409.5,-62 360.5,-62"/>
<text text-anchor="middle" x="385" y="-69" font-family="Helvetica,sans-Serif" font-size="10.00">random</text>
</a>
</g>
</g>
<!-- Node1&#45;&gt;Node11 -->
<g id="edge14" class="edge">
<title>Node1&#45;&gt;Node11</title>
<path fill="none" stroke="midnightblue" d="M261.97,-123.44C287.25,-113.48 321.8,-99.68 352,-87 353.41,-86.41 354.84,-85.8 356.29,-85.18"/>
<polygon fill="midnightblue" stroke="midnightblue" points="358.07,-88.23 365.85,-81.04 355.28,-81.8 358.07,-88.23"/>
</g>
<!-- Node3 -->
<g id="node3" class="node">
<title>Node3</title>
<g id="a_node3"><a xlink:title=" ">
<polygon fill="white" stroke="#bfbfbf" points="216,-0.5 216,-19.5 270,-19.5 270,-0.5 216,-0.5"/>
<text text-anchor="middle" x="243" y="-7.5" font-family="Helvetica,sans-Serif" font-size="10.00">iostream</text>
</a>
</g>
</g>
<!-- Node2&#45;&gt;Node3 -->
<g id="edge2" class="edge">
<title>Node2&#45;&gt;Node3</title>
<path fill="none" stroke="midnightblue" d="M280.39,-56.4C273.27,-47.75 264.12,-36.64 256.65,-27.58"/>
<polygon fill="midnightblue" stroke="midnightblue" points="259.19,-25.15 250.13,-19.66 253.79,-29.6 259.19,-25.15"/>
</g>
<!-- Node4 -->
<g id="node4" class="node">
<title>Node4</title>
<g id="a_node4"><a xlink:title=" ">
<polygon fill="white" stroke="#bfbfbf" points="426,-0.5 426,-19.5 472,-19.5 472,-0.5 426,-0.5"/>
<text text-anchor="middle" x="449" y="-7.5" font-family="Helvetica,sans-Serif" font-size="10.00">cstdint</text>
</a>
</g>
</g>
<!-- Node2&#45;&gt;Node4 -->
<g id="edge3" class="edge">
<title>Node2&#45;&gt;Node4</title>
<path fill="none" stroke="midnightblue" d="M329.21,-56.4C355.78,-46.33 391.19,-32.91 416.61,-23.28"/>
<polygon fill="midnightblue" stroke="midnightblue" points="418.04,-26.47 426.16,-19.66 415.56,-19.93 418.04,-26.47"/>
</g>
<!-- Node2&#45;&gt;Node5 -->
<g id="edge4" class="edge">
<title>Node2&#45;&gt;Node5</title>
<path fill="none" stroke="midnightblue" d="M241.18,-57.86C238.42,-57.22 235.68,-56.6 233,-56 156.48,-38.95 133.99,-39.33 54.3,-20.16"/>
<polygon fill="midnightblue" stroke="midnightblue" points="54.83,-16.68 44.29,-17.72 53.18,-23.48 54.83,-16.68"/>
</g>
<!-- Node6 -->
<g id="node6" class="node">
<title>Node6</title>
<g id="a_node6"><a xlink:title=" ">
<polygon fill="white" stroke="#bfbfbf" points="358,-0.5 358,-19.5 408,-19.5 408,-0.5 358,-0.5"/>
<text text-anchor="middle" x="383" y="-7.5" font-family="Helvetica,sans-Serif" font-size="10.00">iomanip</text>
</a>
</g>
</g>
<!-- Node2&#45;&gt;Node6 -->
<g id="edge5" class="edge">
<title>Node2&#45;&gt;Node6</title>
<path fill="none" stroke="midnightblue" d="M313.57,-56.4C327.88,-47.04 346.61,-34.79 361.01,-25.38"/>
<polygon fill="midnightblue" stroke="midnightblue" points="363.3,-28.06 369.76,-19.66 359.47,-22.2 363.3,-28.06"/>
</g>
<!-- Node7 -->
<g id="node7" class="node">
<title>Node7</title>
<g id="a_node7"><a xlink:title=" ">
<polygon fill="white" stroke="#bfbfbf" points="288,-0.5 288,-19.5 340,-19.5 340,-0.5 288,-0.5"/>
<text text-anchor="middle" x="314" y="-7.5" font-family="Helvetica,sans-Serif" font-size="10.00">sstream</text>
</a>
</g>
</g>
<!-- Node2&#45;&gt;Node7 -->
<g id="edge6" class="edge">
<title>Node2&#45;&gt;Node7</title>
<path fill="none" stroke="midnightblue" d="M297.21,-56.4C300.21,-48.29 304.01,-38.01 307.24,-29.28"/>
<polygon fill="midnightblue" stroke="midnightblue" points="310.61,-30.25 310.8,-19.66 304.05,-27.82 310.61,-30.25"/>
</g>
<!-- Node8&#45;&gt;Node3 -->
<g id="edge8" class="edge">
<title>Node8&#45;&gt;Node3</title>
<path fill="none" stroke="midnightblue" d="M172.75,-61.98C185.78,-52.52 207.04,-37.1 222.76,-25.69"/>
<polygon fill="midnightblue" stroke="midnightblue" points="225.23,-28.21 231.27,-19.51 221.12,-22.55 225.23,-28.21"/>
</g>
<!-- Node8&#45;&gt;Node5 -->
<g id="edge10" class="edge">
<title>Node8&#45;&gt;Node5</title>
<path fill="none" stroke="midnightblue" d="M141.08,-61.98C117.55,-51.9 78.19,-35.05 51.21,-23.5"/>
<polygon fill="midnightblue" stroke="midnightblue" points="52.45,-20.23 41.88,-19.51 49.69,-26.66 52.45,-20.23"/>
</g>
<!-- Node8&#45;&gt;Node7 -->
<g id="edge9" class="edge">
<title>Node8&#45;&gt;Node7</title>
<path fill="none" stroke="midnightblue" d="M182.92,-61.98C209.05,-51.81 252.91,-34.76 282.63,-23.2"/>
<polygon fill="midnightblue" stroke="midnightblue" points="284.07,-26.4 292.12,-19.51 281.53,-19.87 284.07,-26.4"/>
</g>
<!-- Node9 -->
<g id="node9" class="node">
<title>Node9</title>
<g id="a_node9"><a xlink:title=" ">
<polygon fill="white" stroke="#bfbfbf" points="62,-0.5 62,-19.5 106,-19.5 106,-0.5 62,-0.5"/>
<text text-anchor="middle" x="84" y="-7.5" font-family="Helvetica,sans-Serif" font-size="10.00">cmath</text>
</a>
</g>
</g>
<!-- Node8&#45;&gt;Node9 -->
<g id="edge11" class="edge">
<title>Node8&#45;&gt;Node9</title>
<path fill="none" stroke="midnightblue" d="M149.97,-61.98C137.73,-52.52 117.77,-37.1 103.01,-25.69"/>
<polygon fill="midnightblue" stroke="midnightblue" points="105.06,-22.85 95.01,-19.51 100.78,-28.39 105.06,-22.85"/>
</g>
<!-- Node10 -->
<g id="node10" class="node">
<title>Node10</title>
<g id="a_node10"><a xlink:title=" ">
<polygon fill="white" stroke="#bfbfbf" points="124.5,-0.5 124.5,-19.5 197.5,-19.5 197.5,-0.5 124.5,-0.5"/>
<text text-anchor="middle" x="161" y="-7.5" font-family="Helvetica,sans-Serif" font-size="10.00">initializer_list</text>
</a>
</g>
</g>
<!-- Node8&#45;&gt;Node10 -->
<g id="edge12" class="edge">
<title>Node8&#45;&gt;Node10</title>
<path fill="none" stroke="midnightblue" d="M161,-61.98C161,-53.58 161,-40.48 161,-29.66"/>
<polygon fill="midnightblue" stroke="midnightblue" points="164.5,-29.51 161,-19.51 157.5,-29.51 164.5,-29.51"/>
</g>
</g>
</svg>
