<?xml version="1.0" encoding="UTF-8" standalone="no"?>
<!DOCTYPE svg PUBLIC "-//W3C//DTD SVG 1.1//EN"
 "http://www.w3.org/Graphics/SVG/1.1/DTD/svg11.dtd">
<!-- Generated by graphviz version 2.50.0 (20211204.2007)
 -->
<!-- Title: src/utility/hash.hpp Pages: 1 -->
<svg width="619pt" height="453pt"
 viewBox="0.00 0.00 618.66 453.00" xmlns="http://www.w3.org/2000/svg" xmlns:xlink="http://www.w3.org/1999/xlink">
<g id="graph0" class="graph" transform="scale(1 1) rotate(0) translate(4 449)">
<title>src/utility/hash.hpp</title>
<polygon fill="white" stroke="transparent" points="-4,4 -4,-449 614.66,-449 614.66,4 -4,4"/>
<!-- Node1 -->
<g id="node1" class="node">
<title>Node1</title>
<g id="a_node1"><a xlink:title=" ">
<polygon fill="#bfbfbf" stroke="black" points="290.16,-425.5 290.16,-444.5 389.16,-444.5 389.16,-425.5 290.16,-425.5"/>
<text text-anchor="middle" x="339.66" y="-432.5" font-family="Helvetica,sans-Serif" font-size="10.00">src/utility/hash.hpp</text>
</a>
</g>
</g>
<!-- Node2 -->
<g id="node2" class="node">
<title>Node2</title>
<g id="a_node2"><a xlink:href="../../d5/d8a/utility_2all_8hpp.html" target="_top" xlink:title=" ">
<polygon fill="white" stroke="black" points="295.66,-369.5 295.66,-388.5 383.66,-388.5 383.66,-369.5 295.66,-369.5"/>
<text text-anchor="middle" x="339.66" y="-376.5" font-family="Helvetica,sans-Serif" font-size="10.00">src/utility/all.hpp</text>
</a>
</g>
</g>
<!-- Node1&#45;&gt;Node2 -->
<g id="edge1" class="edge">
<title>Node1&#45;&gt;Node2</title>
<path fill="none" stroke="midnightblue" d="M339.66,-414.8C339.66,-405.91 339.66,-395.78 339.66,-388.75"/>
<polygon fill="midnightblue" stroke="midnightblue" points="336.16,-415.08 339.66,-425.08 343.16,-415.08 336.16,-415.08"/>
</g>
<!-- Node3 -->
<g id="node3" class="node">
<title>Node3</title>
<g id="a_node3"><a xlink:href="../../d4/d22/base__u1__electron__1d_8hpp.html" target="_top" xlink:title=" ">
<polygon fill="white" stroke="black" points="172.16,-302.5 172.16,-332.5 311.16,-332.5 311.16,-302.5 172.16,-302.5"/>
<text text-anchor="start" x="180.16" y="-320.5" font-family="Helvetica,sans-Serif" font-size="10.00">src/model/base_u1_electron</text>
<text text-anchor="middle" x="241.66" y="-309.5" font-family="Helvetica,sans-Serif" font-size="10.00">_1d.hpp</text>
</a>
</g>
</g>
<!-- Node2&#45;&gt;Node3 -->
<g id="edge2" class="edge">
<title>Node2&#45;&gt;Node3</title>
<path fill="none" stroke="midnightblue" d="M317.05,-364.28C301.37,-354.75 280.54,-342.11 264.75,-332.52"/>
<polygon fill="midnightblue" stroke="midnightblue" points="315.25,-367.28 325.62,-369.48 318.88,-361.29 315.25,-367.28"/>
</g>
<!-- Node7 -->
<g id="node7" class="node">
<title>Node7</title>
<g id="a_node7"><a xlink:href="../../d9/d57/base__u1__spin__electron__1d_8hpp.html" target="_top" xlink:title=" ">
<polygon fill="white" stroke="black" points="43.66,-235.5 43.66,-265.5 165.66,-265.5 165.66,-235.5 43.66,-235.5"/>
<text text-anchor="start" x="51.66" y="-253.5" font-family="Helvetica,sans-Serif" font-size="10.00">src/model/base_u1_spin</text>
<text text-anchor="middle" x="104.66" y="-242.5" font-family="Helvetica,sans-Serif" font-size="10.00">_electron_1d.hpp</text>
</a>
</g>
</g>
<!-- Node2&#45;&gt;Node7 -->
<g id="edge16" class="edge">
<title>Node2&#45;&gt;Node7</title>
<path fill="none" stroke="midnightblue" d="M285.27,-373.99C248.03,-369.02 199,-357.9 162.66,-333 137.58,-315.82 119.69,-284.05 110.87,-265.66"/>
<polygon fill="midnightblue" stroke="midnightblue" points="285.09,-377.5 295.44,-375.24 285.94,-370.55 285.09,-377.5"/>
</g>
<!-- Node9 -->
<g id="node9" class="node">
<title>Node9</title>
<g id="a_node9"><a xlink:href="../../dc/d0c/base__u1__spin__multi__electrons__1d_8hpp.html" target="_top" xlink:title=" ">
<polygon fill="white" stroke="black" points="288.66,-235.5 288.66,-265.5 410.66,-265.5 410.66,-235.5 288.66,-235.5"/>
<text text-anchor="start" x="296.66" y="-253.5" font-family="Helvetica,sans-Serif" font-size="10.00">src/model/base_u1_spin</text>
<text text-anchor="middle" x="349.66" y="-242.5" font-family="Helvetica,sans-Serif" font-size="10.00">_multi_electrons_1d.hpp</text>
</a>
</g>
</g>
<!-- Node2&#45;&gt;Node9 -->
<g id="edge17" class="edge">
<title>Node2&#45;&gt;Node9</title>
<path fill="none" stroke="midnightblue" d="M341.15,-359.11C343.16,-333.63 346.71,-288.81 348.52,-265.89"/>
<polygon fill="midnightblue" stroke="midnightblue" points="337.64,-359.06 340.34,-369.31 344.62,-359.61 337.64,-359.06"/>
</g>
<!-- Node11 -->
<g id="node11" class="node">
<title>Node11</title>
<g id="a_node11"><a xlink:href="../../da/d72/base__u1__spin_8hpp.html" target="_top" xlink:title=" ">
<polygon fill="white" stroke="black" points="368.16,-308 368.16,-327 509.16,-327 509.16,-308 368.16,-308"/>
<text text-anchor="middle" x="438.66" y="-315" font-family="Helvetica,sans-Serif" font-size="10.00">src/model/base_u1_spin.hpp</text>
</a>
</g>
</g>
<!-- Node2&#45;&gt;Node11 -->
<g id="edge14" class="edge">
<title>Node2&#45;&gt;Node11</title>
<path fill="none" stroke="midnightblue" d="M362.54,-364.24C381.67,-352.75 408.34,-336.72 424.5,-327.01"/>
<polygon fill="midnightblue" stroke="midnightblue" points="360.61,-361.32 353.84,-369.48 364.21,-367.32 360.61,-361.32"/>
</g>
<!-- Node12 -->
<g id="node12" class="node">
<title>Node12</title>
<g id="a_node12"><a xlink:href="../../d9/d56/general__model_8hpp.html" target="_top" xlink:title=" ">
<polygon fill="white" stroke="black" points="466.66,-174 466.66,-193 610.66,-193 610.66,-174 466.66,-174"/>
<text text-anchor="middle" x="538.66" y="-181" font-family="Helvetica,sans-Serif" font-size="10.00">src/model/general_model.hpp</text>
</a>
</g>
</g>
<!-- Node2&#45;&gt;Node12 -->
<g id="edge18" class="edge">
<title>Node2&#45;&gt;Node12</title>
<path fill="none" stroke="midnightblue" d="M394.22,-370.94C440.28,-363.81 501.27,-351.24 517.66,-333 554.19,-292.32 544.92,-218.45 540.41,-193.22"/>
<polygon fill="midnightblue" stroke="midnightblue" points="393.43,-367.52 384.06,-372.46 394.46,-374.44 393.43,-367.52"/>
</g>
<!-- Node4 -->
<g id="node4" class="node">
<title>Node4</title>
<g id="a_node4"><a xlink:href="../../da/d6e/model_2all_8hpp.html" target="_top" xlink:title=" ">
<polygon fill="white" stroke="black" points="268.16,-112.5 268.16,-131.5 359.16,-131.5 359.16,-112.5 268.16,-112.5"/>
<text text-anchor="middle" x="313.66" y="-119.5" font-family="Helvetica,sans-Serif" font-size="10.00">src/model/all.hpp</text>
</a>
</g>
</g>
<!-- Node3&#45;&gt;Node4 -->
<g id="edge3" class="edge">
<title>Node3&#45;&gt;Node4</title>
<path fill="none" stroke="midnightblue" d="M252.58,-293.02C265.86,-264.27 287.29,-217.17 293.66,-199 302.05,-175.05 308.8,-145.78 311.87,-131.57"/>
<polygon fill="midnightblue" stroke="midnightblue" points="249.29,-291.8 248.26,-302.35 255.64,-294.74 249.29,-291.8"/>
</g>
<!-- Node3&#45;&gt;Node7 -->
<g id="edge6" class="edge">
<title>Node3&#45;&gt;Node7</title>
<path fill="none" stroke="midnightblue" d="M202.65,-297.99C180.93,-287.69 154.33,-275.07 134.33,-265.58"/>
<polygon fill="midnightblue" stroke="midnightblue" points="201.39,-301.27 211.93,-302.4 204.4,-294.95 201.39,-301.27"/>
</g>
<!-- Node3&#45;&gt;Node9 -->
<g id="edge10" class="edge">
<title>Node3&#45;&gt;Node9</title>
<path fill="none" stroke="midnightblue" d="M274.03,-297.02C290.84,-286.9 310.99,-274.77 326.27,-265.58"/>
<polygon fill="midnightblue" stroke="midnightblue" points="271.85,-294.24 265.09,-302.4 275.46,-300.24 271.85,-294.24"/>
</g>
<!-- Node10 -->
<g id="node10" class="node">
<title>Node10</title>
<g id="a_node10"><a xlink:href="../../d9/de5/hubbard__1d_8hpp.html" target="_top" xlink:title=" ">
<polygon fill="white" stroke="black" points="154.16,-174 154.16,-193 285.16,-193 285.16,-174 154.16,-174"/>
<text text-anchor="middle" x="219.66" y="-181" font-family="Helvetica,sans-Serif" font-size="10.00">src/model/hubbard_1d.hpp</text>
</a>
</g>
</g>
<!-- Node3&#45;&gt;Node10 -->
<g id="edge12" class="edge">
<title>Node3&#45;&gt;Node10</title>
<path fill="none" stroke="midnightblue" d="M237.63,-292.32C232.64,-262.38 224.39,-212.91 221.09,-193.1"/>
<polygon fill="midnightblue" stroke="midnightblue" points="234.21,-293.09 239.3,-302.37 241.11,-291.93 234.21,-293.09"/>
</g>
<!-- Node5 -->
<g id="node5" class="node">
<title>Node5</title>
<g id="a_node5"><a xlink:href="../../d3/df6/exact__diag_8hpp.html" target="_top" xlink:title=" ">
<polygon fill="white" stroke="black" points="249.66,-56.5 249.66,-75.5 377.66,-75.5 377.66,-56.5 249.66,-56.5"/>
<text text-anchor="middle" x="313.66" y="-63.5" font-family="Helvetica,sans-Serif" font-size="10.00">src/solver/exact_diag.hpp</text>
</a>
</g>
</g>
<!-- Node4&#45;&gt;Node5 -->
<g id="edge4" class="edge">
<title>Node4&#45;&gt;Node5</title>
<path fill="none" stroke="midnightblue" d="M313.66,-101.8C313.66,-92.91 313.66,-82.78 313.66,-75.75"/>
<polygon fill="midnightblue" stroke="midnightblue" points="310.16,-102.08 313.66,-112.08 317.16,-102.08 310.16,-102.08"/>
</g>
<!-- Node6 -->
<g id="node6" class="node">
<title>Node6</title>
<g id="a_node6"><a xlink:href="../../d5/d21/solver_2all_8hpp.html" target="_top" xlink:title=" ">
<polygon fill="white" stroke="black" points="268.16,-0.5 268.16,-19.5 359.16,-19.5 359.16,-0.5 268.16,-0.5"/>
<text text-anchor="middle" x="313.66" y="-7.5" font-family="Helvetica,sans-Serif" font-size="10.00">src/solver/all.hpp</text>
</a>
</g>
</g>
<!-- Node5&#45;&gt;Node6 -->
<g id="edge5" class="edge">
<title>Node5&#45;&gt;Node6</title>
<path fill="none" stroke="midnightblue" d="M313.66,-45.8C313.66,-36.91 313.66,-26.78 313.66,-19.75"/>
<polygon fill="midnightblue" stroke="midnightblue" points="310.16,-46.08 313.66,-56.08 317.16,-46.08 310.16,-46.08"/>
</g>
<!-- Node7&#45;&gt;Node4 -->
<g id="edge7" class="edge">
<title>Node7&#45;&gt;Node4</title>
<path fill="none" stroke="midnightblue" d="M55.35,-231.34C21.16,-216.03 -14.7,-192.72 6.66,-168 39.9,-129.53 191.01,-123.33 268.11,-122.72"/>
<polygon fill="midnightblue" stroke="midnightblue" points="54.33,-234.71 64.9,-235.44 57.09,-228.28 54.33,-234.71"/>
</g>
<!-- Node8 -->
<g id="node8" class="node">
<title>Node8</title>
<g id="a_node8"><a xlink:href="../../d0/df4/kondo__lattice__1d_8hpp.html" target="_top" xlink:title=" ">
<polygon fill="white" stroke="black" points="15.66,-168.5 15.66,-198.5 135.66,-198.5 135.66,-168.5 15.66,-168.5"/>
<text text-anchor="start" x="23.66" y="-186.5" font-family="Helvetica,sans-Serif" font-size="10.00">src/model/kondo_lattice</text>
<text text-anchor="middle" x="75.66" y="-175.5" font-family="Helvetica,sans-Serif" font-size="10.00">_1d.hpp</text>
</a>
</g>
</g>
<!-- Node7&#45;&gt;Node8 -->
<g id="edge8" class="edge">
<title>Node7&#45;&gt;Node8</title>
<path fill="none" stroke="midnightblue" d="M94.17,-225.99C90.07,-216.8 85.51,-206.58 81.94,-198.58"/>
<polygon fill="midnightblue" stroke="midnightblue" points="91.09,-227.69 98.36,-235.4 97.49,-224.84 91.09,-227.69"/>
</g>
<!-- Node8&#45;&gt;Node4 -->
<g id="edge9" class="edge">
<title>Node8&#45;&gt;Node4</title>
<path fill="none" stroke="midnightblue" d="M141.69,-165.99C186.45,-154.8 243.79,-140.47 279.63,-131.51"/>
<polygon fill="midnightblue" stroke="midnightblue" points="140.61,-162.65 131.76,-168.47 142.31,-169.44 140.61,-162.65"/>
</g>
<!-- Node9&#45;&gt;Node4 -->
<g id="edge11" class="edge">
<title>Node9&#45;&gt;Node4</title>
<path fill="none" stroke="midnightblue" d="M343.44,-225.54C339.16,-209.26 333.26,-187.28 327.66,-168 323.96,-155.27 319.34,-140.63 316.44,-131.6"/>
<polygon fill="midnightblue" stroke="midnightblue" points="340.09,-226.53 346,-235.32 346.86,-224.76 340.09,-226.53"/>
</g>
<!-- Node10&#45;&gt;Node4 -->
<g id="edge13" class="edge">
<title>Node10&#45;&gt;Node4</title>
<path fill="none" stroke="midnightblue" d="M241.89,-168.43C260.01,-156.96 285.01,-141.13 300.21,-131.51"/>
<polygon fill="midnightblue" stroke="midnightblue" points="239.7,-165.67 233.12,-173.98 243.45,-171.58 239.7,-165.67"/>
</g>
<!-- Node11&#45;&gt;Node4 -->
<g id="edge15" class="edge">
<title>Node11&#45;&gt;Node4</title>
<path fill="none" stroke="midnightblue" d="M437.07,-297.51C435,-280.32 430.28,-254.75 419.66,-235 395.18,-189.49 347.36,-148.94 325.31,-131.74"/>
<polygon fill="midnightblue" stroke="midnightblue" points="433.64,-298.29 438.13,-307.89 440.6,-297.59 433.64,-298.29"/>
</g>
<!-- Node12&#45;&gt;Node4 -->
<g id="edge19" class="edge">
<title>Node12&#45;&gt;Node4</title>
<path fill="none" stroke="midnightblue" d="M496.66,-171.4C452.97,-159.84 385.49,-142 345.83,-131.51"/>
<polygon fill="midnightblue" stroke="midnightblue" points="495.86,-174.8 506.42,-173.98 497.65,-168.03 495.86,-174.8"/>
</g>
</g>
</svg>
