<?xml version="1.0" encoding="UTF-8" standalone="no"?>
<!DOCTYPE svg PUBLIC "-//W3C//DTD SVG 1.1//EN"
 "http://www.w3.org/Graphics/SVG/1.1/DTD/svg11.dtd">
<!-- Generated by graphviz version 2.50.0 (20211204.2007)
 -->
<!-- Title: compnal::model::BaseU1Spin&lt; RealType &gt; Pages: 1 -->
<svg width="281pt" height="205pt"
 viewBox="0.00 0.00 280.50 205.00" xmlns="http://www.w3.org/2000/svg" xmlns:xlink="http://www.w3.org/1999/xlink">
<g id="graph0" class="graph" transform="scale(1 1) rotate(0) translate(4 201)">
<title>compnal::model::BaseU1Spin&lt; RealType &gt;</title>
<polygon fill="white" stroke="transparent" points="-4,4 -4,-201 276.5,-201 276.5,4 -4,4"/>
<!-- Node1 -->
<g id="node1" class="node">
<title>Node1</title>
<g id="a_node1"><a xlink:title="The base class for spin systems with the U(1) symmetry. Conserved quantity is the total sz .">
<polygon fill="#bfbfbf" stroke="black" points="47.5,-0.5 47.5,-30.5 193.5,-30.5 193.5,-0.5 47.5,-0.5"/>
<text text-anchor="start" x="55.5" y="-18.5" font-family="Helvetica,sans-Serif" font-size="10.00">compnal::model::BaseU1Spin</text>
<text text-anchor="middle" x="120.5" y="-7.5" font-family="Helvetica,sans-Serif" font-size="10.00">&lt; RealType &gt;</text>
</a>
</g>
</g>
<!-- Node2 -->
<g id="node2" class="node">
<title>Node2</title>
<g id="a_node2"><a xlink:href="../../de/dcb/classcompnal_1_1type_1_1_half_int.html" target="_top" xlink:title="Class to represent half&#45;integer.">
<polygon fill="white" stroke="black" points="0,-172 0,-191 113,-191 113,-172 0,-172"/>
<text text-anchor="middle" x="56.5" y="-179" font-family="Helvetica,sans-Serif" font-size="10.00">compnal::type::HalfInt</text>
</a>
</g>
</g>
<!-- Node2&#45;&gt;Node1 -->
<g id="edge1" class="edge">
<title>Node2&#45;&gt;Node1</title>
<path fill="none" stroke="#9a32cd" stroke-dasharray="5,2" d="M57.16,-161.63C58.85,-134.9 64.77,-85.24 85.5,-49 89.45,-42.09 95.36,-35.79 101.21,-30.62"/>
<polygon fill="#9a32cd" stroke="#9a32cd" points="53.66,-161.72 56.66,-171.88 60.65,-162.06 53.66,-161.72"/>
<text text-anchor="middle" x="124" y="-101.5" font-family="Helvetica,sans-Serif" font-size="10.00"> magnitude_spin_</text>
<text text-anchor="middle" x="124" y="-90.5" font-family="Helvetica,sans-Serif" font-size="10.00">total_sz_</text>
</g>
<!-- Node3 -->
<g id="node3" class="node">
<title>Node3</title>
<g id="a_node3"><a xlink:href="../../dd/da8/classcompnal_1_1type_1_1_c_r_s.html" target="_top" xlink:title=" ">
<polygon fill="white" stroke="black" points="131.5,-166.5 131.5,-196.5 237.5,-196.5 237.5,-166.5 131.5,-166.5"/>
<text text-anchor="start" x="139.5" y="-184.5" font-family="Helvetica,sans-Serif" font-size="10.00">compnal::type::CRS</text>
<text text-anchor="middle" x="184.5" y="-173.5" font-family="Helvetica,sans-Serif" font-size="10.00">&lt; RealType &gt;</text>
</a>
</g>
</g>
<!-- Node3&#45;&gt;Node1 -->
<g id="edge2" class="edge">
<title>Node3&#45;&gt;Node1</title>
<path fill="none" stroke="#9a32cd" stroke-dasharray="5,2" d="M185.56,-156.27C185.69,-128.43 182.43,-82.32 162.5,-49 158.24,-41.88 151.79,-35.75 145.2,-30.79"/>
<polygon fill="#9a32cd" stroke="#9a32cd" points="182.06,-156.25 185.37,-166.31 189.06,-156.38 182.06,-156.25"/>
<text text-anchor="start" x="184.5" y="-140" font-family="Helvetica,sans-Serif" font-size="10.00"> onsite_operator_isy</text>
<text text-anchor="middle" x="228.5" y="-129" font-family="Helvetica,sans-Serif" font-size="10.00">_</text>
<text text-anchor="start" x="184.5" y="-118" font-family="Helvetica,sans-Serif" font-size="10.00">onsite_operator</text>
<text text-anchor="middle" x="228.5" y="-107" font-family="Helvetica,sans-Serif" font-size="10.00">_sm_</text>
<text text-anchor="start" x="184.5" y="-96" font-family="Helvetica,sans-Serif" font-size="10.00">onsite_operator</text>
<text text-anchor="middle" x="228.5" y="-85" font-family="Helvetica,sans-Serif" font-size="10.00">_sp_</text>
<text text-anchor="start" x="184.5" y="-74" font-family="Helvetica,sans-Serif" font-size="10.00">onsite_operator</text>
<text text-anchor="middle" x="228.5" y="-63" font-family="Helvetica,sans-Serif" font-size="10.00">_sx_</text>
<text text-anchor="middle" x="228.5" y="-52" font-family="Helvetica,sans-Serif" font-size="10.00">onsite_operator_sz_</text>
</g>
</g>
</svg>
