<?xml version="1.0" encoding="UTF-8" standalone="no"?>
<!DOCTYPE svg PUBLIC "-//W3C//DTD SVG 1.1//EN"
 "http://www.w3.org/Graphics/SVG/1.1/DTD/svg11.dtd">
<!-- Generated by graphviz version 2.50.0 (20211204.2007)
 -->
<!-- Title: src/model/kondo_lattice_1d.hpp Pages: 1 -->
<svg width="557pt" height="386pt"
 viewBox="0.00 0.00 556.50 386.00" xmlns="http://www.w3.org/2000/svg" xmlns:xlink="http://www.w3.org/1999/xlink">
<g id="graph0" class="graph" transform="scale(1 1) rotate(0) translate(4 382)">
<title>src/model/kondo_lattice_1d.hpp</title>
<polygon fill="white" stroke="transparent" points="-4,4 -4,-382 552.5,-382 552.5,4 -4,4"/>
<!-- Node1 -->
<g id="node1" class="node">
<title>Node1</title>
<g id="a_node1"><a xlink:title=" ">
<polygon fill="#bfbfbf" stroke="black" points="26.5,-347.5 26.5,-377.5 146.5,-377.5 146.5,-347.5 26.5,-347.5"/>
<text text-anchor="start" x="34.5" y="-365.5" font-family="Helvetica,sans-Serif" font-size="10.00">src/model/kondo_lattice</text>
<text text-anchor="middle" x="86.5" y="-354.5" font-family="Helvetica,sans-Serif" font-size="10.00">_1d.hpp</text>
</a>
</g>
</g>
<!-- Node2 -->
<g id="node2" class="node">
<title>Node2</title>
<g id="a_node2"><a xlink:href="../../dd/da9/model_2utility_8hpp.html" target="_top" xlink:title=" ">
<polygon fill="white" stroke="black" points="0,-286 0,-305 63,-305 63,-286 0,-286"/>
<text text-anchor="middle" x="31.5" y="-293" font-family="Helvetica,sans-Serif" font-size="10.00">./utility.hpp</text>
</a>
</g>
</g>
<!-- Node1&#45;&gt;Node2 -->
<g id="edge1" class="edge">
<title>Node1&#45;&gt;Node2</title>
<path fill="none" stroke="midnightblue" d="M74.57,-347.4C65.99,-337.26 54.4,-323.57 45.41,-312.94"/>
<polygon fill="midnightblue" stroke="midnightblue" points="47.99,-310.57 38.86,-305.19 42.64,-315.09 47.99,-310.57"/>
</g>
<!-- Node4 -->
<g id="node4" class="node">
<title>Node4</title>
<g id="a_node4"><a xlink:href="../../d9/d57/base__u1__spin__electron__1d_8hpp.html" target="_top" xlink:title=" ">
<polygon fill="white" stroke="black" points="105.5,-280.5 105.5,-310.5 227.5,-310.5 227.5,-280.5 105.5,-280.5"/>
<text text-anchor="start" x="113.5" y="-298.5" font-family="Helvetica,sans-Serif" font-size="10.00">./base_u1_spin_electron</text>
<text text-anchor="middle" x="166.5" y="-287.5" font-family="Helvetica,sans-Serif" font-size="10.00">_1d.hpp</text>
</a>
</g>
</g>
<!-- Node1&#45;&gt;Node4 -->
<g id="edge3" class="edge">
<title>Node1&#45;&gt;Node4</title>
<path fill="none" stroke="midnightblue" d="M103.86,-347.4C114.76,-338.54 129.01,-326.96 141.16,-317.09"/>
<polygon fill="midnightblue" stroke="midnightblue" points="143.62,-319.6 149.18,-310.58 139.21,-314.17 143.62,-319.6"/>
</g>
<!-- Node3 -->
<g id="node3" class="node">
<title>Node3</title>
<g id="a_node3"><a xlink:title=" ">
<polygon fill="white" stroke="#bfbfbf" points="189.5,-0.5 189.5,-19.5 233.5,-19.5 233.5,-0.5 189.5,-0.5"/>
<text text-anchor="middle" x="211.5" y="-7.5" font-family="Helvetica,sans-Serif" font-size="10.00">cmath</text>
</a>
</g>
</g>
<!-- Node2&#45;&gt;Node3 -->
<g id="edge2" class="edge">
<title>Node2&#45;&gt;Node3</title>
<path fill="none" stroke="midnightblue" d="M28.33,-285.94C21.61,-266.97 6.5,-219.83 6.5,-179 6.5,-179 6.5,-179 6.5,-121 6.5,-43.62 121.3,-20.45 179.09,-13.69"/>
<polygon fill="midnightblue" stroke="midnightblue" points="179.6,-17.16 189.17,-12.61 178.86,-10.2 179.6,-17.16"/>
</g>
<!-- Node5 -->
<g id="node5" class="node">
<title>Node5</title>
<g id="a_node5"><a xlink:title=" ">
<polygon fill="white" stroke="#bfbfbf" points="245,-168.5 245,-187.5 364,-187.5 364,-168.5 245,-168.5"/>
<text text-anchor="middle" x="304.5" y="-175.5" font-family="Helvetica,sans-Serif" font-size="10.00">../sparse_matrix/all.hpp</text>
</a>
</g>
</g>
<!-- Node4&#45;&gt;Node5 -->
<g id="edge4" class="edge">
<title>Node4&#45;&gt;Node5</title>
<path fill="none" stroke="midnightblue" d="M227.75,-288.2C283.26,-281.08 359.1,-267.32 377.5,-244 393.79,-223.35 363.61,-203.88 337.25,-191.73"/>
<polygon fill="midnightblue" stroke="midnightblue" points="338.36,-188.4 327.8,-187.6 335.56,-194.82 338.36,-188.4"/>
</g>
<!-- Node6 -->
<g id="node6" class="node">
<title>Node6</title>
<g id="a_node6"><a xlink:href="../../d5/d8a/utility_2all_8hpp.html" target="_top" xlink:title=" ">
<polygon fill="white" stroke="black" points="382.5,-168.5 382.5,-187.5 462.5,-187.5 462.5,-168.5 382.5,-168.5"/>
<text text-anchor="middle" x="422.5" y="-175.5" font-family="Helvetica,sans-Serif" font-size="10.00">../utility/all.hpp</text>
</a>
</g>
</g>
<!-- Node4&#45;&gt;Node6 -->
<g id="edge5" class="edge">
<title>Node4&#45;&gt;Node6</title>
<path fill="none" stroke="midnightblue" d="M227.77,-287.14C286.07,-279.05 368.49,-264.44 393.5,-244 407.68,-232.41 415.16,-212.45 418.95,-197.7"/>
<polygon fill="midnightblue" stroke="midnightblue" points="422.43,-198.18 421.17,-187.66 415.59,-196.67 422.43,-198.18"/>
</g>
<!-- Node11 -->
<g id="node11" class="node">
<title>Node11</title>
<g id="a_node11"><a xlink:title=" ">
<polygon fill="white" stroke="#bfbfbf" points="99,-56.5 99,-75.5 182,-75.5 182,-56.5 99,-56.5"/>
<text text-anchor="middle" x="140.5" y="-63.5" font-family="Helvetica,sans-Serif" font-size="10.00">unordered_map</text>
</a>
</g>
</g>
<!-- Node4&#45;&gt;Node11 -->
<g id="edge22" class="edge">
<title>Node4&#45;&gt;Node11</title>
<path fill="none" stroke="midnightblue" d="M138.77,-280.43C123.91,-271.68 106.28,-259.21 94.5,-244 78.22,-222.98 78.24,-214.15 73.5,-188 65.94,-146.34 100.59,-104.66 122.88,-82.75"/>
<polygon fill="midnightblue" stroke="midnightblue" points="125.57,-85.03 130.43,-75.61 120.76,-79.94 125.57,-85.03"/>
</g>
<!-- Node16 -->
<g id="node16" class="node">
<title>Node16</title>
<g id="a_node16"><a xlink:title=" ">
<polygon fill="white" stroke="#bfbfbf" points="111,-224.5 111,-243.5 222,-243.5 222,-224.5 111,-224.5"/>
<text text-anchor="middle" x="166.5" y="-231.5" font-family="Helvetica,sans-Serif" font-size="10.00">base_u1_spin_1d.hpp</text>
</a>
</g>
</g>
<!-- Node4&#45;&gt;Node16 -->
<g id="edge16" class="edge">
<title>Node4&#45;&gt;Node16</title>
<path fill="none" stroke="midnightblue" d="M166.5,-280.4C166.5,-272.47 166.5,-262.46 166.5,-253.86"/>
<polygon fill="midnightblue" stroke="midnightblue" points="170,-253.66 166.5,-243.66 163,-253.66 170,-253.66"/>
</g>
<!-- Node17 -->
<g id="node17" class="node">
<title>Node17</title>
<g id="a_node17"><a xlink:href="../../d4/d22/base__u1__electron__1d_8hpp.html" target="_top" xlink:title=" ">
<polygon fill="white" stroke="black" points="240.5,-224.5 240.5,-243.5 368.5,-243.5 368.5,-224.5 240.5,-224.5"/>
<text text-anchor="middle" x="304.5" y="-231.5" font-family="Helvetica,sans-Serif" font-size="10.00">base_u1_electron_1d.hpp</text>
</a>
</g>
</g>
<!-- Node4&#45;&gt;Node17 -->
<g id="edge17" class="edge">
<title>Node4&#45;&gt;Node17</title>
<path fill="none" stroke="midnightblue" d="M199.2,-280.4C222.25,-270.46 252.86,-257.26 275.13,-247.66"/>
<polygon fill="midnightblue" stroke="midnightblue" points="276.62,-250.83 284.42,-243.66 273.85,-244.4 276.62,-250.83"/>
</g>
<!-- Node18 -->
<g id="node18" class="node">
<title>Node18</title>
<g id="a_node18"><a xlink:title=" ">
<polygon fill="white" stroke="#bfbfbf" points="82.5,-168.5 82.5,-187.5 160.5,-187.5 160.5,-168.5 82.5,-168.5"/>
<text text-anchor="middle" x="121.5" y="-175.5" font-family="Helvetica,sans-Serif" font-size="10.00">unordered_set</text>
</a>
</g>
</g>
<!-- Node4&#45;&gt;Node18 -->
<g id="edge23" class="edge">
<title>Node4&#45;&gt;Node18</title>
<path fill="none" stroke="midnightblue" d="M138.02,-280.35C124.29,-271.86 109.16,-259.66 101.5,-244 93.98,-228.64 101.37,-209.85 109.21,-196.43"/>
<polygon fill="midnightblue" stroke="midnightblue" points="112.34,-198.04 114.79,-187.74 106.44,-194.27 112.34,-198.04"/>
</g>
<!-- Node7 -->
<g id="node7" class="node">
<title>Node7</title>
<g id="a_node7"><a xlink:href="../../d0/dad/integer_8hpp.html" target="_top" xlink:title=" ">
<polygon fill="white" stroke="black" points="248.5,-112.5 248.5,-131.5 312.5,-131.5 312.5,-112.5 248.5,-112.5"/>
<text text-anchor="middle" x="280.5" y="-119.5" font-family="Helvetica,sans-Serif" font-size="10.00">integer.hpp</text>
</a>
</g>
</g>
<!-- Node6&#45;&gt;Node7 -->
<g id="edge6" class="edge">
<title>Node6&#45;&gt;Node7</title>
<path fill="none" stroke="midnightblue" d="M400,-168.44C376.42,-159.48 339.18,-145.31 312.54,-135.18"/>
<polygon fill="midnightblue" stroke="midnightblue" points="313.49,-131.8 302.9,-131.52 311,-138.34 313.49,-131.8"/>
</g>
<!-- Node12 -->
<g id="node12" class="node">
<title>Node12</title>
<g id="a_node12"><a xlink:href="../../d9/d04/hash_8hpp.html" target="_top" xlink:title=" ">
<polygon fill="white" stroke="black" points="394.5,-112.5 394.5,-131.5 450.5,-131.5 450.5,-112.5 394.5,-112.5"/>
<text text-anchor="middle" x="422.5" y="-119.5" font-family="Helvetica,sans-Serif" font-size="10.00">hash.hpp</text>
</a>
</g>
</g>
<!-- Node6&#45;&gt;Node12 -->
<g id="edge11" class="edge">
<title>Node6&#45;&gt;Node12</title>
<path fill="none" stroke="midnightblue" d="M422.5,-168.08C422.5,-161.01 422.5,-150.86 422.5,-141.99"/>
<polygon fill="midnightblue" stroke="midnightblue" points="426,-141.75 422.5,-131.75 419,-141.75 426,-141.75"/>
</g>
<!-- Node8 -->
<g id="node8" class="node">
<title>Node8</title>
<g id="a_node8"><a xlink:title=" ">
<polygon fill="white" stroke="#bfbfbf" points="316.5,-56.5 316.5,-75.5 368.5,-75.5 368.5,-56.5 316.5,-56.5"/>
<text text-anchor="middle" x="342.5" y="-63.5" font-family="Helvetica,sans-Serif" font-size="10.00">sstream</text>
</a>
</g>
</g>
<!-- Node7&#45;&gt;Node8 -->
<g id="edge7" class="edge">
<title>Node7&#45;&gt;Node8</title>
<path fill="none" stroke="midnightblue" d="M290.46,-112.32C299.63,-104.34 313.44,-92.31 324.53,-82.65"/>
<polygon fill="midnightblue" stroke="midnightblue" points="327.12,-85.04 332.36,-75.83 322.52,-79.76 327.12,-85.04"/>
</g>
<!-- Node9 -->
<g id="node9" class="node">
<title>Node9</title>
<g id="a_node9"><a xlink:title=" ">
<polygon fill="white" stroke="#bfbfbf" points="200.5,-56.5 200.5,-75.5 244.5,-75.5 244.5,-56.5 200.5,-56.5"/>
<text text-anchor="middle" x="222.5" y="-63.5" font-family="Helvetica,sans-Serif" font-size="10.00">vector</text>
</a>
</g>
</g>
<!-- Node7&#45;&gt;Node9 -->
<g id="edge8" class="edge">
<title>Node7&#45;&gt;Node9</title>
<path fill="none" stroke="midnightblue" d="M271.18,-112.32C262.61,-104.34 249.69,-92.31 239.31,-82.65"/>
<polygon fill="midnightblue" stroke="midnightblue" points="241.69,-80.09 231.99,-75.83 236.92,-85.21 241.69,-80.09"/>
</g>
<!-- Node10 -->
<g id="node10" class="node">
<title>Node10</title>
<g id="a_node10"><a xlink:title=" ">
<polygon fill="white" stroke="#bfbfbf" points="263,-56.5 263,-75.5 298,-75.5 298,-56.5 263,-56.5"/>
<text text-anchor="middle" x="280.5" y="-63.5" font-family="Helvetica,sans-Serif" font-size="10.00">map</text>
</a>
</g>
</g>
<!-- Node7&#45;&gt;Node10 -->
<g id="edge9" class="edge">
<title>Node7&#45;&gt;Node10</title>
<path fill="none" stroke="midnightblue" d="M280.5,-112.08C280.5,-105.01 280.5,-94.86 280.5,-85.99"/>
<polygon fill="midnightblue" stroke="midnightblue" points="284,-85.75 280.5,-75.75 277,-85.75 284,-85.75"/>
</g>
<!-- Node7&#45;&gt;Node11 -->
<g id="edge10" class="edge">
<title>Node7&#45;&gt;Node11</title>
<path fill="none" stroke="midnightblue" d="M258.32,-112.44C235.07,-103.48 198.35,-89.31 172.08,-79.18"/>
<polygon fill="midnightblue" stroke="midnightblue" points="173.17,-75.85 162.58,-75.52 170.65,-82.38 173.17,-75.85"/>
</g>
<!-- Node13 -->
<g id="node13" class="node">
<title>Node13</title>
<g id="a_node13"><a xlink:href="../../db/dd6/half__int_8hpp.html" target="_top" xlink:title=" ">
<polygon fill="white" stroke="black" points="450.5,-56.5 450.5,-75.5 548.5,-75.5 548.5,-56.5 450.5,-56.5"/>
<text text-anchor="middle" x="499.5" y="-63.5" font-family="Helvetica,sans-Serif" font-size="10.00">../type/half_int.hpp</text>
</a>
</g>
</g>
<!-- Node12&#45;&gt;Node13 -->
<g id="edge12" class="edge">
<title>Node12&#45;&gt;Node13</title>
<path fill="none" stroke="midnightblue" d="M434.87,-112.32C446.66,-104.06 464.63,-91.45 478.64,-81.63"/>
<polygon fill="midnightblue" stroke="midnightblue" points="480.98,-84.26 487.16,-75.65 476.96,-78.53 480.98,-84.26"/>
</g>
<!-- Node15 -->
<g id="node15" class="node">
<title>Node15</title>
<g id="a_node15"><a xlink:title=" ">
<polygon fill="white" stroke="#bfbfbf" points="386.5,-56.5 386.5,-75.5 432.5,-75.5 432.5,-56.5 386.5,-56.5"/>
<text text-anchor="middle" x="409.5" y="-63.5" font-family="Helvetica,sans-Serif" font-size="10.00">variant</text>
</a>
</g>
</g>
<!-- Node12&#45;&gt;Node15 -->
<g id="edge15" class="edge">
<title>Node12&#45;&gt;Node15</title>
<path fill="none" stroke="midnightblue" d="M420.35,-112.08C418.63,-104.93 416.15,-94.64 414,-85.69"/>
<polygon fill="midnightblue" stroke="midnightblue" points="417.35,-84.65 411.61,-75.75 410.54,-86.29 417.35,-84.65"/>
</g>
<!-- Node13&#45;&gt;Node3 -->
<g id="edge13" class="edge">
<title>Node13&#45;&gt;Node3</title>
<path fill="none" stroke="midnightblue" d="M453.87,-56.44C395.1,-45.43 294.48,-26.56 243.35,-16.97"/>
<polygon fill="midnightblue" stroke="midnightblue" points="243.99,-13.53 233.51,-15.13 242.7,-20.41 243.99,-13.53"/>
</g>
<!-- Node14 -->
<g id="node14" class="node">
<title>Node14</title>
<g id="a_node14"><a xlink:title=" ">
<polygon fill="white" stroke="#bfbfbf" points="470,-0.5 470,-19.5 529,-19.5 529,-0.5 470,-0.5"/>
<text text-anchor="middle" x="499.5" y="-7.5" font-family="Helvetica,sans-Serif" font-size="10.00">stdexcept</text>
</a>
</g>
</g>
<!-- Node13&#45;&gt;Node14 -->
<g id="edge14" class="edge">
<title>Node13&#45;&gt;Node14</title>
<path fill="none" stroke="midnightblue" d="M499.5,-56.08C499.5,-49.01 499.5,-38.86 499.5,-29.99"/>
<polygon fill="midnightblue" stroke="midnightblue" points="503,-29.75 499.5,-19.75 496,-29.75 503,-29.75"/>
</g>
<!-- Node17&#45;&gt;Node5 -->
<g id="edge18" class="edge">
<title>Node17&#45;&gt;Node5</title>
<path fill="none" stroke="midnightblue" d="M304.5,-224.08C304.5,-217.01 304.5,-206.86 304.5,-197.99"/>
<polygon fill="midnightblue" stroke="midnightblue" points="308,-197.75 304.5,-187.75 301,-197.75 308,-197.75"/>
</g>
<!-- Node17&#45;&gt;Node6 -->
<g id="edge19" class="edge">
<title>Node17&#45;&gt;Node6</title>
<path fill="none" stroke="midnightblue" d="M323.2,-224.44C342.44,-215.64 372.65,-201.81 394.7,-191.72"/>
<polygon fill="midnightblue" stroke="midnightblue" points="396.25,-194.86 403.89,-187.52 393.34,-188.5 396.25,-194.86"/>
</g>
<!-- Node17&#45;&gt;Node11 -->
<g id="edge20" class="edge">
<title>Node17&#45;&gt;Node11</title>
<path fill="none" stroke="midnightblue" d="M288.65,-224.44C274.19,-216.2 252.67,-202.83 236.5,-188 201.09,-155.51 168.21,-109.21 151.67,-84.36"/>
<polygon fill="midnightblue" stroke="midnightblue" points="154.39,-82.12 145.98,-75.68 148.54,-85.96 154.39,-82.12"/>
</g>
<!-- Node17&#45;&gt;Node18 -->
<g id="edge21" class="edge">
<title>Node17&#45;&gt;Node18</title>
<path fill="none" stroke="midnightblue" d="M275.5,-224.44C244.32,-215.24 194.57,-200.56 160.09,-190.39"/>
<polygon fill="midnightblue" stroke="midnightblue" points="160.94,-186.99 150.36,-187.52 158.96,-193.7 160.94,-186.99"/>
</g>
</g>
</svg>
