<?xml version="1.0" encoding="UTF-8" standalone="no"?>
<!DOCTYPE svg PUBLIC "-//W3C//DTD SVG 1.1//EN"
 "http://www.w3.org/Graphics/SVG/1.1/DTD/svg11.dtd">
<!-- Generated by graphviz version 2.50.0 (20211204.2007)
 -->
<!-- Title: src/model/base_u1_electron_1d.hpp Pages: 1 -->
<svg width="379pt" height="341pt"
 viewBox="0.00 0.00 378.51 341.00" xmlns="http://www.w3.org/2000/svg" xmlns:xlink="http://www.w3.org/1999/xlink">
<g id="graph0" class="graph" transform="scale(1 1) rotate(0) translate(4 337)">
<title>src/model/base_u1_electron_1d.hpp</title>
<polygon fill="white" stroke="transparent" points="-4,4 -4,-337 374.51,-337 374.51,4 -4,4"/>
<!-- Node1 -->
<g id="node1" class="node">
<title>Node1</title>
<g id="a_node1"><a xlink:title=" ">
<polygon fill="#bfbfbf" stroke="black" points="76.51,-302.5 76.51,-332.5 215.51,-332.5 215.51,-302.5 76.51,-302.5"/>
<text text-anchor="start" x="84.51" y="-320.5" font-family="Helvetica,sans-Serif" font-size="10.00">src/model/base_u1_electron</text>
<text text-anchor="middle" x="146.01" y="-309.5" font-family="Helvetica,sans-Serif" font-size="10.00">_1d.hpp</text>
</a>
</g>
</g>
<!-- Node2 -->
<g id="node2" class="node">
<title>Node2</title>
<g id="a_node2"><a xlink:href="../../da/d6e/model_2all_8hpp.html" target="_top" xlink:title=" ">
<polygon fill="white" stroke="black" points="77.51,-112.5 77.51,-131.5 168.51,-131.5 168.51,-112.5 77.51,-112.5"/>
<text text-anchor="middle" x="123.01" y="-119.5" font-family="Helvetica,sans-Serif" font-size="10.00">src/model/all.hpp</text>
</a>
</g>
</g>
<!-- Node1&#45;&gt;Node2 -->
<g id="edge1" class="edge">
<title>Node1&#45;&gt;Node2</title>
<path fill="none" stroke="midnightblue" d="M66.55,-305.62C43.21,-298.31 20.17,-286.16 6.01,-266 -18.28,-231.42 43.2,-169.8 45.01,-168 61.4,-151.67 84.91,-139.18 101.83,-131.55"/>
<polygon fill="midnightblue" stroke="midnightblue" points="65.61,-308.99 76.19,-308.37 67.53,-302.26 65.61,-308.99"/>
</g>
<!-- Node5 -->
<g id="node5" class="node">
<title>Node5</title>
<g id="a_node5"><a xlink:href="../../d9/d57/base__u1__spin__electron__1d_8hpp.html" target="_top" xlink:title=" ">
<polygon fill="white" stroke="black" points="15.01,-235.5 15.01,-265.5 137.01,-265.5 137.01,-235.5 15.01,-235.5"/>
<text text-anchor="start" x="23.01" y="-253.5" font-family="Helvetica,sans-Serif" font-size="10.00">src/model/base_u1_spin</text>
<text text-anchor="middle" x="76.01" y="-242.5" font-family="Helvetica,sans-Serif" font-size="10.00">_electron_1d.hpp</text>
</a>
</g>
</g>
<!-- Node1&#45;&gt;Node5 -->
<g id="edge4" class="edge">
<title>Node1&#45;&gt;Node5</title>
<path fill="none" stroke="midnightblue" d="M123.19,-295.31C112.69,-285.56 100.52,-274.26 91.17,-265.58"/>
<polygon fill="midnightblue" stroke="midnightblue" points="121.11,-298.16 130.82,-302.4 125.88,-293.03 121.11,-298.16"/>
</g>
<!-- Node7 -->
<g id="node7" class="node">
<title>Node7</title>
<g id="a_node7"><a xlink:href="../../dc/d0c/base__u1__spin__multi__electrons__1d_8hpp.html" target="_top" xlink:title=" ">
<polygon fill="white" stroke="black" points="155.01,-235.5 155.01,-265.5 277.01,-265.5 277.01,-235.5 155.01,-235.5"/>
<text text-anchor="start" x="163.01" y="-253.5" font-family="Helvetica,sans-Serif" font-size="10.00">src/model/base_u1_spin</text>
<text text-anchor="middle" x="216.01" y="-242.5" font-family="Helvetica,sans-Serif" font-size="10.00">_multi_electrons_1d.hpp</text>
</a>
</g>
</g>
<!-- Node1&#45;&gt;Node7 -->
<g id="edge8" class="edge">
<title>Node1&#45;&gt;Node7</title>
<path fill="none" stroke="midnightblue" d="M168.83,-295.31C179.33,-285.56 191.5,-274.26 200.85,-265.58"/>
<polygon fill="midnightblue" stroke="midnightblue" points="166.15,-293.03 161.2,-302.4 170.91,-298.16 166.15,-293.03"/>
</g>
<!-- Node8 -->
<g id="node8" class="node">
<title>Node8</title>
<g id="a_node8"><a xlink:href="../../d9/de5/hubbard__1d_8hpp.html" target="_top" xlink:title=" ">
<polygon fill="white" stroke="black" points="239.51,-174 239.51,-193 370.51,-193 370.51,-174 239.51,-174"/>
<text text-anchor="middle" x="305.01" y="-181" font-family="Helvetica,sans-Serif" font-size="10.00">src/model/hubbard_1d.hpp</text>
</a>
</g>
</g>
<!-- Node1&#45;&gt;Node8 -->
<g id="edge10" class="edge">
<title>Node1&#45;&gt;Node8</title>
<path fill="none" stroke="midnightblue" d="M225.71,-302.62C247.95,-295.15 270.31,-283.66 286.01,-266 304.55,-245.15 305.97,-209.73 305.52,-193.33"/>
<polygon fill="midnightblue" stroke="midnightblue" points="224.37,-299.37 215.86,-305.68 226.45,-306.05 224.37,-299.37"/>
</g>
<!-- Node3 -->
<g id="node3" class="node">
<title>Node3</title>
<g id="a_node3"><a xlink:href="../../d3/df6/exact__diag_8hpp.html" target="_top" xlink:title=" ">
<polygon fill="white" stroke="black" points="59.01,-56.5 59.01,-75.5 187.01,-75.5 187.01,-56.5 59.01,-56.5"/>
<text text-anchor="middle" x="123.01" y="-63.5" font-family="Helvetica,sans-Serif" font-size="10.00">src/solver/exact_diag.hpp</text>
</a>
</g>
</g>
<!-- Node2&#45;&gt;Node3 -->
<g id="edge2" class="edge">
<title>Node2&#45;&gt;Node3</title>
<path fill="none" stroke="midnightblue" d="M123.01,-101.8C123.01,-92.91 123.01,-82.78 123.01,-75.75"/>
<polygon fill="midnightblue" stroke="midnightblue" points="119.51,-102.08 123.01,-112.08 126.51,-102.08 119.51,-102.08"/>
</g>
<!-- Node4 -->
<g id="node4" class="node">
<title>Node4</title>
<g id="a_node4"><a xlink:href="../../d5/d21/solver_2all_8hpp.html" target="_top" xlink:title=" ">
<polygon fill="white" stroke="black" points="77.51,-0.5 77.51,-19.5 168.51,-19.5 168.51,-0.5 77.51,-0.5"/>
<text text-anchor="middle" x="123.01" y="-7.5" font-family="Helvetica,sans-Serif" font-size="10.00">src/solver/all.hpp</text>
</a>
</g>
</g>
<!-- Node3&#45;&gt;Node4 -->
<g id="edge3" class="edge">
<title>Node3&#45;&gt;Node4</title>
<path fill="none" stroke="midnightblue" d="M123.01,-45.8C123.01,-36.91 123.01,-26.78 123.01,-19.75"/>
<polygon fill="midnightblue" stroke="midnightblue" points="119.51,-46.08 123.01,-56.08 126.51,-46.08 119.51,-46.08"/>
</g>
<!-- Node5&#45;&gt;Node2 -->
<g id="edge5" class="edge">
<title>Node5&#45;&gt;Node2</title>
<path fill="none" stroke="midnightblue" d="M61.03,-226.51C52.02,-209.57 44.06,-186.38 54.01,-168 63.55,-150.39 83.29,-138.59 99.22,-131.5"/>
<polygon fill="midnightblue" stroke="midnightblue" points="58.01,-228.28 66.03,-235.21 64.08,-224.79 58.01,-228.28"/>
</g>
<!-- Node6 -->
<g id="node6" class="node">
<title>Node6</title>
<g id="a_node6"><a xlink:href="../../d0/df4/kondo__lattice__1d_8hpp.html" target="_top" xlink:title=" ">
<polygon fill="white" stroke="black" points="63.01,-168.5 63.01,-198.5 183.01,-198.5 183.01,-168.5 63.01,-168.5"/>
<text text-anchor="start" x="71.01" y="-186.5" font-family="Helvetica,sans-Serif" font-size="10.00">src/model/kondo_lattice</text>
<text text-anchor="middle" x="123.01" y="-175.5" font-family="Helvetica,sans-Serif" font-size="10.00">_1d.hpp</text>
</a>
</g>
</g>
<!-- Node5&#45;&gt;Node6 -->
<g id="edge6" class="edge">
<title>Node5&#45;&gt;Node6</title>
<path fill="none" stroke="midnightblue" d="M92.17,-227.16C99.02,-217.68 106.8,-206.92 112.83,-198.58"/>
<polygon fill="midnightblue" stroke="midnightblue" points="89.23,-225.24 86.21,-235.4 94.91,-229.34 89.23,-225.24"/>
</g>
<!-- Node6&#45;&gt;Node2 -->
<g id="edge7" class="edge">
<title>Node6&#45;&gt;Node2</title>
<path fill="none" stroke="midnightblue" d="M123.01,-158.29C123.01,-148.86 123.01,-138.65 123.01,-131.66"/>
<polygon fill="midnightblue" stroke="midnightblue" points="119.51,-158.4 123.01,-168.4 126.51,-158.4 119.51,-158.4"/>
</g>
<!-- Node7&#45;&gt;Node2 -->
<g id="edge9" class="edge">
<title>Node7&#45;&gt;Node2</title>
<path fill="none" stroke="midnightblue" d="M213.39,-225.26C210.5,-207.91 204.48,-184.76 192.01,-168 179.55,-151.25 158.86,-138.97 143.38,-131.51"/>
<polygon fill="midnightblue" stroke="midnightblue" points="209.93,-225.8 214.81,-235.2 216.86,-224.81 209.93,-225.8"/>
</g>
<!-- Node8&#45;&gt;Node2 -->
<g id="edge11" class="edge">
<title>Node8&#45;&gt;Node2</title>
<path fill="none" stroke="midnightblue" d="M269.02,-170.73C233.64,-159.17 180.51,-141.8 149.04,-131.51"/>
<polygon fill="midnightblue" stroke="midnightblue" points="268.34,-174.19 278.94,-173.98 270.52,-167.54 268.34,-174.19"/>
</g>
</g>
</svg>
