<?xml version="1.0" encoding="UTF-8" standalone="no"?>
<!DOCTYPE svg PUBLIC "-//W3C//DTD SVG 1.1//EN"
 "http://www.w3.org/Graphics/SVG/1.1/DTD/svg11.dtd">
<!-- Generated by graphviz version 2.50.0 (20211204.2007)
 -->
<!-- Title: src Pages: 1 -->
<svg width="186pt" height="292pt"
 viewBox="0.00 0.00 186.00 292.00" xmlns="http://www.w3.org/2000/svg" xmlns:xlink="http://www.w3.org/1999/xlink">
<g id="graph0" class="graph" transform="scale(1 1) rotate(0) translate(4 288)">
<title>src</title>
<polygon fill="white" stroke="transparent" points="-4,4 -4,-288 182,-288 182,4 -4,4"/>
<g id="clust1" class="cluster">
<title>clusterdir_68267d1309a1af8e8297ef4c3efbcdba</title>
<g id="a_clust1"><a xlink:href="dir_68267d1309a1af8e8297ef4c3efbcdba.html" target="_top">
<polygon fill="#edf0f7" stroke="#404040" stroke-width="2" points="8,-8 8,-276 170,-276 170,-8 8,-8"/>
</a>
</g>
</g>
<!-- dir_68267d1309a1af8e8297ef4c3efbcdba -->
<g id="node1" class="node">
<title>dir_68267d1309a1af8e8297ef4c3efbcdba</title>
<text text-anchor="middle" x="135" y="-247.5" font-family="Helvetica,sans-Serif" font-size="10.00">src</text>
</g>
<!-- dir_0b251772e3153bf9148552a8025983e3 -->
<g id="node2" class="node">
<title>dir_0b251772e3153bf9148552a8025983e3</title>
<g id="a_node2"><a xlink:href="dir_0b251772e3153bf9148552a8025983e3.html" target="_top" xlink:title="blas">
<polygon fill="#a2b4d6" stroke="#404040" points="70,-124 16,-124 16,-88 70,-88 70,-124"/>
<text text-anchor="middle" x="43" y="-103.5" font-family="Helvetica,sans-Serif" font-size="10.00">blas</text>
</a>
</g>
</g>
<!-- dir_372c2b9db8884546e49e64b9093f9351 -->
<g id="node5" class="node">
<title>dir_372c2b9db8884546e49e64b9093f9351</title>
<g id="a_node5"><a xlink:href="dir_372c2b9db8884546e49e64b9093f9351.html" target="_top" xlink:title="type">
<polygon fill="#a2b4d6" stroke="#404040" points="116,-52 62,-52 62,-16 116,-16 116,-52"/>
<text text-anchor="middle" x="89" y="-31.5" font-family="Helvetica,sans-Serif" font-size="10.00">type</text>
</a>
</g>
</g>
<!-- dir_0b251772e3153bf9148552a8025983e3&#45;&gt;dir_372c2b9db8884546e49e64b9093f9351 -->
<g id="edge1" class="edge">
<title>dir_0b251772e3153bf9148552a8025983e3&#45;&gt;dir_372c2b9db8884546e49e64b9093f9351</title>
<path fill="none" stroke="black" d="M54.37,-87.7C59.72,-79.56 66.2,-69.69 72.11,-60.7"/>
<polygon fill="black" stroke="black" points="75.19,-62.38 77.76,-52.1 69.34,-58.54 75.19,-62.38"/>
<g id="a_edge1&#45;headlabel"><a xlink:href="dir_000000_000004.html" target="_top" xlink:title="10">
<text text-anchor="middle" x="75.59" y="-64.45" font-family="Helvetica,sans-Serif" font-size="10.00">10</text>
</a>
</g>
</g>
<!-- dir_5dd65160827af56e6353642206b80129 -->
<g id="node3" class="node">
<title>dir_5dd65160827af56e6353642206b80129</title>
<g id="a_node3"><a xlink:href="dir_5dd65160827af56e6353642206b80129.html" target="_top" xlink:title="model">
<polygon fill="#a2b4d6" stroke="#404040" points="103,-196 49,-196 49,-160 103,-160 103,-196"/>
<text text-anchor="middle" x="76" y="-175.5" font-family="Helvetica,sans-Serif" font-size="10.00">model</text>
</a>
</g>
</g>
<!-- dir_5dd65160827af56e6353642206b80129&#45;&gt;dir_0b251772e3153bf9148552a8025983e3 -->
<g id="edge3" class="edge">
<title>dir_5dd65160827af56e6353642206b80129&#45;&gt;dir_0b251772e3153bf9148552a8025983e3</title>
<path fill="none" stroke="black" d="M67.84,-159.7C64.09,-151.73 59.55,-142.1 55.38,-133.26"/>
<polygon fill="black" stroke="black" points="58.49,-131.66 51.06,-124.1 52.16,-134.64 58.49,-131.66"/>
<g id="a_edge3&#45;headlabel"><a xlink:href="dir_000001_000000.html" target="_top" xlink:title="2">
<text text-anchor="middle" x="62.59" y="-131.2" font-family="Helvetica,sans-Serif" font-size="10.00">2</text>
</a>
</g>
</g>
<!-- dir_5dd65160827af56e6353642206b80129&#45;&gt;dir_372c2b9db8884546e49e64b9093f9351 -->
<g id="edge4" class="edge">
<title>dir_5dd65160827af56e6353642206b80129&#45;&gt;dir_372c2b9db8884546e49e64b9093f9351</title>
<path fill="none" stroke="black" d="M77.57,-159.87C79.78,-135.67 83.85,-91.21 86.49,-62.39"/>
<polygon fill="black" stroke="black" points="90,-62.47 87.43,-52.19 83.03,-61.83 90,-62.47"/>
<g id="a_edge4&#45;headlabel"><a xlink:href="dir_000001_000004.html" target="_top" xlink:title="1">
<text text-anchor="middle" x="92.5" y="-63.81" font-family="Helvetica,sans-Serif" font-size="10.00">1</text>
</a>
</g>
</g>
<!-- dir_0619a8f54b4fad7043a6de45be8fde0b -->
<g id="node6" class="node">
<title>dir_0619a8f54b4fad7043a6de45be8fde0b</title>
<g id="a_node6"><a xlink:href="dir_0619a8f54b4fad7043a6de45be8fde0b.html" target="_top" xlink:title="utility">
<polygon fill="#a2b4d6" stroke="#404040" points="162,-124 108,-124 108,-88 162,-88 162,-124"/>
<text text-anchor="middle" x="135" y="-103.5" font-family="Helvetica,sans-Serif" font-size="10.00">utility</text>
</a>
</g>
</g>
<!-- dir_5dd65160827af56e6353642206b80129&#45;&gt;dir_0619a8f54b4fad7043a6de45be8fde0b -->
<g id="edge2" class="edge">
<title>dir_5dd65160827af56e6353642206b80129&#45;&gt;dir_0619a8f54b4fad7043a6de45be8fde0b</title>
<path fill="none" stroke="black" d="M90.58,-159.7C97.66,-151.3 106.28,-141.07 114.05,-131.86"/>
<polygon fill="black" stroke="black" points="116.81,-134.01 120.58,-124.1 111.46,-129.49 116.81,-134.01"/>
<g id="a_edge2&#45;headlabel"><a xlink:href="dir_000001_000005.html" target="_top" xlink:title="5">
<text text-anchor="middle" x="116.67" y="-136.08" font-family="Helvetica,sans-Serif" font-size="10.00">5</text>
</a>
</g>
</g>
<!-- dir_041db6ad6a3d44280e40e5af409429cb -->
<g id="node4" class="node">
<title>dir_041db6ad6a3d44280e40e5af409429cb</title>
<g id="a_node4"><a xlink:href="dir_041db6ad6a3d44280e40e5af409429cb.html" target="_top" xlink:title="solver">
<polygon fill="#a2b4d6" stroke="#404040" points="90,-268 36,-268 36,-232 90,-232 90,-268"/>
<text text-anchor="middle" x="63" y="-247.5" font-family="Helvetica,sans-Serif" font-size="10.00">solver</text>
</a>
</g>
</g>
<!-- dir_041db6ad6a3d44280e40e5af409429cb&#45;&gt;dir_5dd65160827af56e6353642206b80129 -->
<g id="edge5" class="edge">
<title>dir_041db6ad6a3d44280e40e5af409429cb&#45;&gt;dir_5dd65160827af56e6353642206b80129</title>
<path fill="none" stroke="black" d="M66.21,-231.7C67.65,-223.98 69.37,-214.71 70.96,-206.11"/>
<polygon fill="black" stroke="black" points="74.44,-206.58 72.82,-196.1 67.56,-205.3 74.44,-206.58"/>
<g id="a_edge5&#45;headlabel"><a xlink:href="dir_000002_000001.html" target="_top" xlink:title="1">
<text text-anchor="middle" x="76.57" y="-208.13" font-family="Helvetica,sans-Serif" font-size="10.00">1</text>
</a>
</g>
</g>
<!-- dir_0619a8f54b4fad7043a6de45be8fde0b&#45;&gt;dir_372c2b9db8884546e49e64b9093f9351 -->
<g id="edge6" class="edge">
<title>dir_0619a8f54b4fad7043a6de45be8fde0b&#45;&gt;dir_372c2b9db8884546e49e64b9093f9351</title>
<path fill="none" stroke="black" d="M123.63,-87.7C118.28,-79.56 111.8,-69.69 105.89,-60.7"/>
<polygon fill="black" stroke="black" points="108.66,-58.54 100.24,-52.1 102.81,-62.38 108.66,-58.54"/>
<g id="a_edge6&#45;headlabel"><a xlink:href="dir_000005_000004.html" target="_top" xlink:title="1">
<text text-anchor="middle" x="113" y="-57.48" font-family="Helvetica,sans-Serif" font-size="10.00">1</text>
</a>
</g>
</g>
</g>
</svg>
