<?xml version="1.0" encoding="UTF-8" standalone="no"?>
<!DOCTYPE svg PUBLIC "-//W3C//DTD SVG 1.1//EN"
 "http://www.w3.org/Graphics/SVG/1.1/DTD/svg11.dtd">
<!-- Generated by graphviz version 2.50.0 (20211204.2007)
 -->
<!-- Title: Graphical Class Hierarchy Pages: 1 -->
<svg width="339pt" height="39pt"
 viewBox="0.00 0.00 339.00 39.00" xmlns="http://www.w3.org/2000/svg" xmlns:xlink="http://www.w3.org/1999/xlink">
<g id="graph0" class="graph" transform="scale(1 1) rotate(0) translate(4 35)">
<title>Graphical Class Hierarchy</title>
<polygon fill="white" stroke="transparent" points="-4,4 -4,-35 335,-35 335,4 -4,4"/>
<!-- Node0 -->
<g id="node1" class="node">
<title>Node0</title>
<g id="a_node1"><a xlink:href="de/d75/classcompnal_1_1model_1_1_base_u1_spin_electron__1_d.html" target="_top" xlink:title="The base class for one&#45;dimensional spin&#45;electron systems with the U(1) symmetry.">
<polygon fill="white" stroke="black" points="0,-0.5 0,-30.5 146,-30.5 146,-0.5 0,-0.5"/>
<text text-anchor="start" x="8" y="-18.5" font-family="Helvetica,sans-Serif" font-size="10.00">compnal::model::BaseU1Spin</text>
<text text-anchor="middle" x="73" y="-7.5" font-family="Helvetica,sans-Serif" font-size="10.00">Electron_1D&lt; RealType &gt;</text>
</a>
</g>
</g>
<!-- Node1 -->
<g id="node2" class="node">
<title>Node1</title>
<g id="a_node2"><a xlink:href="d1/d89/classcompnal_1_1model_1_1_kondo_lattice__1_d.html" target="_top" xlink:title="The class for the one&#45;dimensional Kondo lattice model with the magnitude of the spin ....">
<polygon fill="white" stroke="black" points="182,-0.5 182,-30.5 331,-30.5 331,-0.5 182,-0.5"/>
<text text-anchor="start" x="190" y="-18.5" font-family="Helvetica,sans-Serif" font-size="10.00">compnal::model::KondoLattice</text>
<text text-anchor="middle" x="256.5" y="-7.5" font-family="Helvetica,sans-Serif" font-size="10.00">_1D&lt; RealType &gt;</text>
</a>
</g>
</g>
<!-- Node0&#45;&gt;Node1 -->
<g id="edge1" class="edge">
<title>Node0&#45;&gt;Node1</title>
<path fill="none" stroke="midnightblue" d="M156.46,-15.5C164.88,-15.5 173.39,-15.5 181.71,-15.5"/>
<polygon fill="midnightblue" stroke="midnightblue" points="156.26,-12 146.26,-15.5 156.26,-19 156.26,-12"/>
</g>
</g>
</svg>
