<?xml version="1.0" encoding="UTF-8" standalone="no"?>
<!DOCTYPE svg PUBLIC "-//W3C//DTD SVG 1.1//EN"
 "http://www.w3.org/Graphics/SVG/1.1/DTD/svg11.dtd">
<!-- Generated by graphviz version 2.50.0 (20211204.2007)
 -->
<!-- Title: Graphical Class Hierarchy Pages: 1 -->
<svg width="335pt" height="39pt"
 viewBox="0.00 0.00 335.00 39.00" xmlns="http://www.w3.org/2000/svg" xmlns:xlink="http://www.w3.org/1999/xlink">
<g id="graph0" class="graph" transform="scale(1 1) rotate(0) translate(4 35)">
<title>Graphical Class Hierarchy</title>
<polygon fill="white" stroke="transparent" points="-4,4 -4,-35 331,-35 331,4 -4,4"/>
<!-- Node0 -->
<g id="node1" class="node">
<title>Node0</title>
<g id="a_node1"><a xlink:href="d8/dc0/classcompnal_1_1model_1_1_base_u1_electron__1_d.html" target="_top" xlink:title="The base class for one&#45;dimensional electron systems with the U(1) symmetry.">
<polygon fill="white" stroke="black" points="0,-0.5 0,-30.5 163,-30.5 163,-0.5 0,-0.5"/>
<text text-anchor="start" x="8" y="-18.5" font-family="Helvetica,sans-Serif" font-size="10.00">compnal::model::BaseU1Electron</text>
<text text-anchor="middle" x="81.5" y="-7.5" font-family="Helvetica,sans-Serif" font-size="10.00">_1D&lt; RealType &gt;</text>
</a>
</g>
</g>
<!-- Node1 -->
<g id="node2" class="node">
<title>Node1</title>
<g id="a_node2"><a xlink:href="d9/d7b/classcompnal_1_1model_1_1_hubbard__1_d.html" target="_top" xlink:title="The class for the one&#45;dimensional Hubbard model. The Hamiltonian reads.">
<polygon fill="white" stroke="black" points="199,-0.5 199,-30.5 327,-30.5 327,-0.5 199,-0.5"/>
<text text-anchor="start" x="207" y="-18.5" font-family="Helvetica,sans-Serif" font-size="10.00">compnal::model::Hubbard</text>
<text text-anchor="middle" x="263" y="-7.5" font-family="Helvetica,sans-Serif" font-size="10.00">_1D&lt; RealType &gt;</text>
</a>
</g>
</g>
<!-- Node0&#45;&gt;Node1 -->
<g id="edge1" class="edge">
<title>Node0&#45;&gt;Node1</title>
<path fill="none" stroke="midnightblue" d="M173.24,-15.5C181.92,-15.5 190.59,-15.5 198.92,-15.5"/>
<polygon fill="midnightblue" stroke="midnightblue" points="173.06,-12 163.06,-15.5 173.06,-19 173.06,-12"/>
</g>
</g>
</svg>
