<?xml version="1.0" encoding="UTF-8" standalone="no"?>
<!DOCTYPE svg PUBLIC "-//W3C//DTD SVG 1.1//EN"
 "http://www.w3.org/Graphics/SVG/1.1/DTD/svg11.dtd">
<!-- Generated by graphviz version 2.50.0 (20211204.2007)
 -->
<!-- Title: src/solver/exact_diag.hpp Pages: 1 -->
<svg width="1726pt" height="509pt"
 viewBox="0.00 0.00 1726.05 509.00" xmlns="http://www.w3.org/2000/svg" xmlns:xlink="http://www.w3.org/1999/xlink">
<g id="graph0" class="graph" transform="scale(1 1) rotate(0) translate(4 505)">
<title>src/solver/exact_diag.hpp</title>
<polygon fill="white" stroke="transparent" points="-4,4 -4,-505 1722.05,-505 1722.05,4 -4,4"/>
<!-- Node1 -->
<g id="node1" class="node">
<title>Node1</title>
<g id="a_node1"><a xlink:title=" ">
<polygon fill="#bfbfbf" stroke="black" points="1562.55,-481.5 1562.55,-500.5 1690.55,-500.5 1690.55,-481.5 1562.55,-481.5"/>
<text text-anchor="middle" x="1626.55" y="-488.5" font-family="Helvetica,sans-Serif" font-size="10.00">src/solver/exact_diag.hpp</text>
</a>
</g>
</g>
<!-- Node2 -->
<g id="node2" class="node">
<title>Node2</title>
<g id="a_node2"><a xlink:href="../../da/d6e/model_2all_8hpp.html" target="_top" xlink:title=" ">
<polygon fill="white" stroke="black" points="1226.05,-425.5 1226.05,-444.5 1309.05,-444.5 1309.05,-425.5 1226.05,-425.5"/>
<text text-anchor="middle" x="1267.55" y="-432.5" font-family="Helvetica,sans-Serif" font-size="10.00">../model/all.hpp</text>
</a>
</g>
</g>
<!-- Node1&#45;&gt;Node2 -->
<g id="edge1" class="edge">
<title>Node1&#45;&gt;Node2</title>
<path fill="none" stroke="midnightblue" d="M1569.67,-481.44C1500.79,-471.08 1385.78,-453.78 1319.3,-443.78"/>
<polygon fill="midnightblue" stroke="midnightblue" points="1319.47,-440.27 1309.06,-442.24 1318.43,-447.19 1319.47,-440.27"/>
</g>
<!-- Node9 -->
<g id="node9" class="node">
<title>Node9</title>
<g id="a_node9"><a xlink:title=" ">
<polygon fill="white" stroke="#bfbfbf" points="1367.05,-179.5 1367.05,-198.5 1486.05,-198.5 1486.05,-179.5 1367.05,-179.5"/>
<text text-anchor="middle" x="1426.55" y="-186.5" font-family="Helvetica,sans-Serif" font-size="10.00">../sparse_matrix/all.hpp</text>
</a>
</g>
</g>
<!-- Node1&#45;&gt;Node9 -->
<g id="edge87" class="edge">
<title>Node1&#45;&gt;Node9</title>
<path fill="none" stroke="midnightblue" d="M1628.19,-481.29C1633.04,-452.91 1644.77,-361.53 1607.55,-302 1574.66,-249.38 1507.04,-217.6 1464.41,-201.97"/>
<polygon fill="midnightblue" stroke="midnightblue" points="1465.52,-198.65 1454.93,-198.6 1463.18,-205.24 1465.52,-198.65"/>
</g>
<!-- Node42 -->
<g id="node42" class="node">
<title>Node42</title>
<g id="a_node42"><a xlink:href="../../dc/d26/solver_2utility_8hpp.html" target="_top" xlink:title=" ">
<polygon fill="white" stroke="black" points="1655.05,-425.5 1655.05,-444.5 1718.05,-444.5 1718.05,-425.5 1655.05,-425.5"/>
<text text-anchor="middle" x="1686.55" y="-432.5" font-family="Helvetica,sans-Serif" font-size="10.00">./utility.hpp</text>
</a>
</g>
</g>
<!-- Node1&#45;&gt;Node42 -->
<g id="edge88" class="edge">
<title>Node1&#45;&gt;Node42</title>
<path fill="none" stroke="midnightblue" d="M1636.19,-481.32C1645.06,-473.34 1658.43,-461.31 1669.16,-451.65"/>
<polygon fill="midnightblue" stroke="midnightblue" points="1671.65,-454.13 1676.74,-444.83 1666.96,-448.92 1671.65,-454.13"/>
</g>
<!-- Node3 -->
<g id="node3" class="node">
<title>Node3</title>
<g id="a_node3"><a xlink:href="../../db/d1c/xxz__1d_8hpp.html" target="_top" xlink:title=" ">
<polygon fill="white" stroke="black" points="1483.05,-369.5 1483.05,-388.5 1550.05,-388.5 1550.05,-369.5 1483.05,-369.5"/>
<text text-anchor="middle" x="1516.55" y="-376.5" font-family="Helvetica,sans-Serif" font-size="10.00">xxz_1d.hpp</text>
</a>
</g>
</g>
<!-- Node2&#45;&gt;Node3 -->
<g id="edge2" class="edge">
<title>Node2&#45;&gt;Node3</title>
<path fill="none" stroke="midnightblue" d="M1307.01,-425.44C1352.24,-415.64 1426.14,-399.61 1473.01,-389.44"/>
<polygon fill="midnightblue" stroke="midnightblue" points="1473.84,-392.84 1482.87,-387.3 1472.36,-386 1473.84,-392.84"/>
</g>
<!-- Node7 -->
<g id="node7" class="node">
<title>Node7</title>
<g id="a_node7"><a xlink:href="../../d9/de5/hubbard__1d_8hpp.html" target="_top" xlink:title=" ">
<polygon fill="white" stroke="black" points="1378.55,-369.5 1378.55,-388.5 1464.55,-388.5 1464.55,-369.5 1378.55,-369.5"/>
<text text-anchor="middle" x="1421.55" y="-376.5" font-family="Helvetica,sans-Serif" font-size="10.00">hubbard_1d.hpp</text>
</a>
</g>
</g>
<!-- Node2&#45;&gt;Node7 -->
<g id="edge6" class="edge">
<title>Node2&#45;&gt;Node7</title>
<path fill="none" stroke="midnightblue" d="M1291.96,-425.44C1317.75,-416.4 1358.63,-402.06 1387.57,-391.92"/>
<polygon fill="midnightblue" stroke="midnightblue" points="1388.99,-395.13 1397.27,-388.52 1386.67,-388.52 1388.99,-395.13"/>
</g>
<!-- Node8 -->
<g id="node8" class="node">
<title>Node8</title>
<g id="a_node8"><a xlink:href="../../d4/d22/base__u1__electron__1d_8hpp.html" target="_top" xlink:title=" ">
<polygon fill="white" stroke="black" points="1281.05,-235.5 1281.05,-265.5 1380.05,-265.5 1380.05,-235.5 1281.05,-235.5"/>
<text text-anchor="start" x="1289.05" y="-253.5" font-family="Helvetica,sans-Serif" font-size="10.00">./base_u1_electron</text>
<text text-anchor="middle" x="1330.55" y="-242.5" font-family="Helvetica,sans-Serif" font-size="10.00">_1d.hpp</text>
</a>
</g>
</g>
<!-- Node2&#45;&gt;Node8 -->
<g id="edge71" class="edge">
<title>Node2&#45;&gt;Node8</title>
<path fill="none" stroke="midnightblue" d="M1246.07,-425.36C1231.16,-418.09 1212.44,-406.12 1203.55,-389 1199.46,-381.11 1200.49,-377.34 1203.55,-369 1219.81,-324.81 1263.78,-290.68 1295.43,-270.86"/>
<polygon fill="midnightblue" stroke="midnightblue" points="1297.26,-273.84 1303.99,-265.65 1293.63,-267.86 1297.26,-273.84"/>
</g>
<!-- Node21 -->
<g id="node21" class="node">
<title>Node21</title>
<g id="a_node21"><a xlink:href="../../d0/df4/kondo__lattice__1d_8hpp.html" target="_top" xlink:title=" ">
<polygon fill="white" stroke="black" points="1213.05,-369.5 1213.05,-388.5 1322.05,-388.5 1322.05,-369.5 1213.05,-369.5"/>
<text text-anchor="middle" x="1267.55" y="-376.5" font-family="Helvetica,sans-Serif" font-size="10.00">kondo_lattice_1d.hpp</text>
</a>
</g>
</g>
<!-- Node2&#45;&gt;Node21 -->
<g id="edge23" class="edge">
<title>Node2&#45;&gt;Node21</title>
<path fill="none" stroke="midnightblue" d="M1267.55,-425.08C1267.55,-418.01 1267.55,-407.86 1267.55,-398.99"/>
<polygon fill="midnightblue" stroke="midnightblue" points="1271.05,-398.75 1267.55,-388.75 1264.05,-398.75 1271.05,-398.75"/>
</g>
<!-- Node22 -->
<g id="node22" class="node">
<title>Node22</title>
<g id="a_node22"><a xlink:href="../../d9/d57/base__u1__spin__electron__1d_8hpp.html" target="_top" xlink:title=" ">
<polygon fill="white" stroke="black" points="1034.55,-302.5 1034.55,-332.5 1156.55,-332.5 1156.55,-302.5 1034.55,-302.5"/>
<text text-anchor="start" x="1042.55" y="-320.5" font-family="Helvetica,sans-Serif" font-size="10.00">./base_u1_spin_electron</text>
<text text-anchor="middle" x="1095.55" y="-309.5" font-family="Helvetica,sans-Serif" font-size="10.00">_1d.hpp</text>
</a>
</g>
</g>
<!-- Node2&#45;&gt;Node22 -->
<g id="edge79" class="edge">
<title>Node2&#45;&gt;Node22</title>
<path fill="none" stroke="midnightblue" d="M1243.71,-425.42C1223.35,-417.53 1193.78,-404.7 1170.55,-389 1149.75,-374.94 1129.19,-355.07 1114.87,-340.01"/>
<polygon fill="midnightblue" stroke="midnightblue" points="1117.37,-337.56 1107.99,-332.63 1112.25,-342.33 1117.37,-337.56"/>
</g>
<!-- Node24 -->
<g id="node24" class="node">
<title>Node24</title>
<g id="a_node24"><a xlink:href="../../d9/d56/general__model_8hpp.html" target="_top" xlink:title=" ">
<polygon fill="white" stroke="black" points="884.55,-308 884.55,-327 982.55,-327 982.55,-308 884.55,-308"/>
<text text-anchor="middle" x="933.55" y="-315" font-family="Helvetica,sans-Serif" font-size="10.00">general_model.hpp</text>
</a>
</g>
</g>
<!-- Node2&#45;&gt;Node24 -->
<g id="edge32" class="edge">
<title>Node2&#45;&gt;Node24</title>
<path fill="none" stroke="midnightblue" d="M1242.72,-425.41C1183.91,-405.07 1035.98,-353.92 968.31,-330.52"/>
<polygon fill="midnightblue" stroke="midnightblue" points="969.14,-327.1 958.55,-327.14 966.86,-333.72 969.14,-327.1"/>
</g>
<!-- Node39 -->
<g id="node39" class="node">
<title>Node39</title>
<g id="a_node39"><a xlink:href="../../da/d72/base__u1__spin_8hpp.html" target="_top" xlink:title=" ">
<polygon fill="white" stroke="black" points="756.05,-308 756.05,-327 851.05,-327 851.05,-308 756.05,-308"/>
<text text-anchor="middle" x="803.55" y="-315" font-family="Helvetica,sans-Serif" font-size="10.00">base_u1_spin.hpp</text>
</a>
</g>
</g>
<!-- Node2&#45;&gt;Node39 -->
<g id="edge72" class="edge">
<title>Node2&#45;&gt;Node39</title>
<path fill="none" stroke="midnightblue" d="M1230.72,-425.5C1192.41,-416.6 1130.7,-402.13 1077.55,-389 995.35,-368.69 899.61,-343.77 845.84,-329.65"/>
<polygon fill="midnightblue" stroke="midnightblue" points="846.54,-326.22 835.98,-327.06 844.76,-332.99 846.54,-326.22"/>
</g>
<!-- Node41 -->
<g id="node41" class="node">
<title>Node41</title>
<g id="a_node41"><a xlink:href="../../dc/d0c/base__u1__spin__multi__electrons__1d_8hpp.html" target="_top" xlink:title=" ">
<polygon fill="white" stroke="black" points="1279.05,-302.5 1279.05,-332.5 1382.05,-332.5 1382.05,-302.5 1279.05,-302.5"/>
<text text-anchor="start" x="1287.05" y="-320.5" font-family="Helvetica,sans-Serif" font-size="10.00">base_u1_spin_multi</text>
<text text-anchor="middle" x="1330.55" y="-309.5" font-family="Helvetica,sans-Serif" font-size="10.00">_electrons_1d.hpp</text>
</a>
</g>
</g>
<!-- Node2&#45;&gt;Node41 -->
<g id="edge80" class="edge">
<title>Node2&#45;&gt;Node41</title>
<path fill="none" stroke="midnightblue" d="M1289.04,-425.36C1303.95,-418.09 1322.67,-406.12 1331.55,-389 1338.88,-374.89 1338.52,-356.95 1336.38,-342.7"/>
<polygon fill="midnightblue" stroke="midnightblue" points="1339.78,-341.83 1334.5,-332.64 1332.9,-343.12 1339.78,-341.83"/>
</g>
<!-- Node4 -->
<g id="node4" class="node">
<title>Node4</title>
<g id="a_node4"><a xlink:href="../../dd/da9/model_2utility_8hpp.html" target="_top" xlink:title=" ">
<polygon fill="white" stroke="black" points="1400.05,-308 1400.05,-327 1463.05,-327 1463.05,-308 1400.05,-308"/>
<text text-anchor="middle" x="1431.55" y="-315" font-family="Helvetica,sans-Serif" font-size="10.00">./utility.hpp</text>
</a>
</g>
</g>
<!-- Node3&#45;&gt;Node4 -->
<g id="edge3" class="edge">
<title>Node3&#45;&gt;Node4</title>
<path fill="none" stroke="midnightblue" d="M1504.38,-369.48C1490.74,-359.93 1468.42,-344.31 1452.08,-332.87"/>
<polygon fill="midnightblue" stroke="midnightblue" points="1453.91,-329.88 1443.71,-327.01 1449.9,-335.61 1453.91,-329.88"/>
</g>
<!-- Node6 -->
<g id="node6" class="node">
<title>Node6</title>
<g id="a_node6"><a xlink:title=" ">
<polygon fill="white" stroke="#bfbfbf" points="1481.05,-308 1481.05,-327 1598.05,-327 1598.05,-308 1481.05,-308"/>
<text text-anchor="middle" x="1539.55" y="-315" font-family="Helvetica,sans-Serif" font-size="10.00">./base_u1_spin_1d.hpp</text>
</a>
</g>
</g>
<!-- Node3&#45;&gt;Node6 -->
<g id="edge5" class="edge">
<title>Node3&#45;&gt;Node6</title>
<path fill="none" stroke="midnightblue" d="M1519.85,-369.48C1523.16,-360.9 1528.37,-347.43 1532.6,-336.48"/>
<polygon fill="midnightblue" stroke="midnightblue" points="1535.92,-337.6 1536.27,-327.01 1529.4,-335.07 1535.92,-337.6"/>
</g>
<!-- Node5 -->
<g id="node5" class="node">
<title>Node5</title>
<g id="a_node5"><a xlink:title=" ">
<polygon fill="white" stroke="#bfbfbf" points="806.55,-0.5 806.55,-19.5 850.55,-19.5 850.55,-0.5 806.55,-0.5"/>
<text text-anchor="middle" x="828.55" y="-7.5" font-family="Helvetica,sans-Serif" font-size="10.00">cmath</text>
</a>
</g>
</g>
<!-- Node4&#45;&gt;Node5 -->
<g id="edge4" class="edge">
<title>Node4&#45;&gt;Node5</title>
<path fill="none" stroke="midnightblue" d="M1448.8,-307.88C1491.47,-285.97 1598.55,-227.28 1598.55,-190 1598.55,-190 1598.55,-190 1598.55,-132 1598.55,-56.09 1007,-20.29 860.88,-12.61"/>
<polygon fill="midnightblue" stroke="midnightblue" points="860.94,-9.11 850.77,-12.08 860.57,-16.1 860.94,-9.11"/>
</g>
<!-- Node7&#45;&gt;Node4 -->
<g id="edge7" class="edge">
<title>Node7&#45;&gt;Node4</title>
<path fill="none" stroke="midnightblue" d="M1422.99,-369.48C1424.4,-361.08 1426.6,-347.98 1428.42,-337.16"/>
<polygon fill="midnightblue" stroke="midnightblue" points="1431.92,-337.45 1430.12,-327.01 1425.02,-336.29 1431.92,-337.45"/>
</g>
<!-- Node7&#45;&gt;Node8 -->
<g id="edge8" class="edge">
<title>Node7&#45;&gt;Node8</title>
<path fill="none" stroke="midnightblue" d="M1378.54,-371.02C1338.65,-363.57 1283.55,-350.44 1270.55,-333 1255,-312.14 1277.52,-288.14 1299.27,-271.62"/>
<polygon fill="midnightblue" stroke="midnightblue" points="1301.43,-274.37 1307.48,-265.67 1297.33,-268.7 1301.43,-274.37"/>
</g>
<!-- Node8&#45;&gt;Node9 -->
<g id="edge9" class="edge">
<title>Node8&#45;&gt;Node9</title>
<path fill="none" stroke="midnightblue" d="M1353.31,-235.4C1368.55,-225.95 1388.54,-213.56 1403.79,-204.11"/>
<polygon fill="midnightblue" stroke="midnightblue" points="1405.93,-206.9 1412.59,-198.66 1402.24,-200.95 1405.93,-206.9"/>
</g>
<!-- Node10 -->
<g id="node10" class="node">
<title>Node10</title>
<g id="a_node10"><a xlink:href="../../d5/d8a/utility_2all_8hpp.html" target="_top" xlink:title=" ">
<polygon fill="white" stroke="black" points="931.55,-179.5 931.55,-198.5 1011.55,-198.5 1011.55,-179.5 931.55,-179.5"/>
<text text-anchor="middle" x="971.55" y="-186.5" font-family="Helvetica,sans-Serif" font-size="10.00">../utility/all.hpp</text>
</a>
</g>
</g>
<!-- Node8&#45;&gt;Node10 -->
<g id="edge10" class="edge">
<title>Node8&#45;&gt;Node10</title>
<path fill="none" stroke="midnightblue" d="M1280.95,-236.76C1278.12,-236.14 1275.3,-235.55 1272.55,-235 1184.87,-217.53 1081.6,-203.49 1021.65,-195.98"/>
<polygon fill="midnightblue" stroke="midnightblue" points="1022.05,-192.51 1011.69,-194.75 1021.18,-199.45 1022.05,-192.51"/>
</g>
<!-- Node15 -->
<g id="node15" class="node">
<title>Node15</title>
<g id="a_node15"><a xlink:title=" ">
<polygon fill="white" stroke="#bfbfbf" points="1149.05,-62 1149.05,-81 1232.05,-81 1232.05,-62 1149.05,-62"/>
<text text-anchor="middle" x="1190.55" y="-69" font-family="Helvetica,sans-Serif" font-size="10.00">unordered_map</text>
</a>
</g>
</g>
<!-- Node8&#45;&gt;Node15 -->
<g id="edge21" class="edge">
<title>Node8&#45;&gt;Node15</title>
<path fill="none" stroke="midnightblue" d="M1319.33,-235.31C1293.84,-203.08 1231.64,-124.45 1204.08,-89.6"/>
<polygon fill="midnightblue" stroke="midnightblue" points="1206.52,-87.05 1197.57,-81.37 1201.03,-91.39 1206.52,-87.05"/>
</g>
<!-- Node20 -->
<g id="node20" class="node">
<title>Node20</title>
<g id="a_node20"><a xlink:title=" ">
<polygon fill="white" stroke="#bfbfbf" points="1149.55,-179.5 1149.55,-198.5 1227.55,-198.5 1227.55,-179.5 1149.55,-179.5"/>
<text text-anchor="middle" x="1188.55" y="-186.5" font-family="Helvetica,sans-Serif" font-size="10.00">unordered_set</text>
</a>
</g>
</g>
<!-- Node8&#45;&gt;Node20 -->
<g id="edge22" class="edge">
<title>Node8&#45;&gt;Node20</title>
<path fill="none" stroke="midnightblue" d="M1296.9,-235.4C1273.08,-225.42 1241.41,-212.15 1218.47,-202.53"/>
<polygon fill="midnightblue" stroke="midnightblue" points="1219.79,-199.29 1209.22,-198.66 1217.09,-205.75 1219.79,-199.29"/>
</g>
<!-- Node11 -->
<g id="node11" class="node">
<title>Node11</title>
<g id="a_node11"><a xlink:href="../../d0/dad/integer_8hpp.html" target="_top" xlink:title=" ">
<polygon fill="white" stroke="black" points="955.55,-123.5 955.55,-142.5 1019.55,-142.5 1019.55,-123.5 955.55,-123.5"/>
<text text-anchor="middle" x="987.55" y="-130.5" font-family="Helvetica,sans-Serif" font-size="10.00">integer.hpp</text>
</a>
</g>
</g>
<!-- Node10&#45;&gt;Node11 -->
<g id="edge11" class="edge">
<title>Node10&#45;&gt;Node11</title>
<path fill="none" stroke="midnightblue" d="M974.2,-179.08C976.34,-171.85 979.43,-161.41 982.1,-152.4"/>
<polygon fill="midnightblue" stroke="midnightblue" points="985.48,-153.33 984.96,-142.75 978.76,-151.34 985.48,-153.33"/>
</g>
<!-- Node16 -->
<g id="node16" class="node">
<title>Node16</title>
<g id="a_node16"><a xlink:href="../../d9/d04/hash_8hpp.html" target="_top" xlink:title=" ">
<polygon fill="white" stroke="black" points="843.55,-123.5 843.55,-142.5 899.55,-142.5 899.55,-123.5 843.55,-123.5"/>
<text text-anchor="middle" x="871.55" y="-130.5" font-family="Helvetica,sans-Serif" font-size="10.00">hash.hpp</text>
</a>
</g>
</g>
<!-- Node10&#45;&gt;Node16 -->
<g id="edge16" class="edge">
<title>Node10&#45;&gt;Node16</title>
<path fill="none" stroke="midnightblue" d="M955.49,-179.32C939.6,-170.74 915.05,-157.49 896.6,-147.52"/>
<polygon fill="midnightblue" stroke="midnightblue" points="898.04,-144.33 887.58,-142.65 894.72,-150.49 898.04,-144.33"/>
</g>
<!-- Node12 -->
<g id="node12" class="node">
<title>Node12</title>
<g id="a_node12"><a xlink:title=" ">
<polygon fill="white" stroke="#bfbfbf" points="630.55,-0.5 630.55,-19.5 682.55,-19.5 682.55,-0.5 630.55,-0.5"/>
<text text-anchor="middle" x="656.55" y="-7.5" font-family="Helvetica,sans-Serif" font-size="10.00">sstream</text>
</a>
</g>
</g>
<!-- Node11&#45;&gt;Node12 -->
<g id="edge12" class="edge">
<title>Node11&#45;&gt;Node12</title>
<path fill="none" stroke="midnightblue" d="M985.09,-123.22C980.05,-107.01 966.92,-72.53 942.55,-56 937.4,-52.5 768.43,-27.39 692.67,-16.27"/>
<polygon fill="midnightblue" stroke="midnightblue" points="693.03,-12.79 682.63,-14.8 692.01,-19.72 693.03,-12.79"/>
</g>
<!-- Node13 -->
<g id="node13" class="node">
<title>Node13</title>
<g id="a_node13"><a xlink:title=" ">
<polygon fill="white" stroke="#bfbfbf" points="272.55,-0.5 272.55,-19.5 316.55,-19.5 316.55,-0.5 272.55,-0.5"/>
<text text-anchor="middle" x="294.55" y="-7.5" font-family="Helvetica,sans-Serif" font-size="10.00">vector</text>
</a>
</g>
</g>
<!-- Node11&#45;&gt;Node13 -->
<g id="edge13" class="edge">
<title>Node11&#45;&gt;Node13</title>
<path fill="none" stroke="midnightblue" d="M978.9,-123.41C959.04,-103.73 911.74,-56.97 909.55,-56 793.46,-4.57 469.34,-40.49 326.72,-19.68"/>
<polygon fill="midnightblue" stroke="midnightblue" points="327.2,-16.22 316.77,-18.09 326.09,-23.13 327.2,-16.22"/>
</g>
<!-- Node14 -->
<g id="node14" class="node">
<title>Node14</title>
<g id="a_node14"><a xlink:title=" ">
<polygon fill="white" stroke="#bfbfbf" points="995.05,-62 995.05,-81 1030.05,-81 1030.05,-62 995.05,-62"/>
<text text-anchor="middle" x="1012.55" y="-69" font-family="Helvetica,sans-Serif" font-size="10.00">map</text>
</a>
</g>
</g>
<!-- Node11&#45;&gt;Node14 -->
<g id="edge14" class="edge">
<title>Node11&#45;&gt;Node14</title>
<path fill="none" stroke="midnightblue" d="M991.14,-123.48C994.74,-114.9 1000.4,-101.43 1005,-90.48"/>
<polygon fill="midnightblue" stroke="midnightblue" points="1008.33,-91.58 1008.98,-81.01 1001.88,-88.87 1008.33,-91.58"/>
</g>
<!-- Node11&#45;&gt;Node15 -->
<g id="edge15" class="edge">
<title>Node11&#45;&gt;Node15</title>
<path fill="none" stroke="midnightblue" d="M1016.64,-123.48C1052.14,-113.07 1112.3,-95.44 1151.73,-83.88"/>
<polygon fill="midnightblue" stroke="midnightblue" points="1152.91,-87.18 1161.52,-81.01 1150.94,-80.46 1152.91,-87.18"/>
</g>
<!-- Node17 -->
<g id="node17" class="node">
<title>Node17</title>
<g id="a_node17"><a xlink:href="../../db/dd6/half__int_8hpp.html" target="_top" xlink:title=" ">
<polygon fill="white" stroke="black" points="738.55,-62 738.55,-81 836.55,-81 836.55,-62 738.55,-62"/>
<text text-anchor="middle" x="787.55" y="-69" font-family="Helvetica,sans-Serif" font-size="10.00">../type/half_int.hpp</text>
</a>
</g>
</g>
<!-- Node16&#45;&gt;Node17 -->
<g id="edge17" class="edge">
<title>Node16&#45;&gt;Node17</title>
<path fill="none" stroke="midnightblue" d="M859.52,-123.48C846.05,-113.93 823.99,-98.31 807.84,-86.87"/>
<polygon fill="midnightblue" stroke="midnightblue" points="809.75,-83.93 799.57,-81.01 805.7,-89.65 809.75,-83.93"/>
</g>
<!-- Node19 -->
<g id="node19" class="node">
<title>Node19</title>
<g id="a_node19"><a xlink:title=" ">
<polygon fill="white" stroke="#bfbfbf" points="854.55,-62 854.55,-81 900.55,-81 900.55,-62 854.55,-62"/>
<text text-anchor="middle" x="877.55" y="-69" font-family="Helvetica,sans-Serif" font-size="10.00">variant</text>
</a>
</g>
</g>
<!-- Node16&#45;&gt;Node19 -->
<g id="edge20" class="edge">
<title>Node16&#45;&gt;Node19</title>
<path fill="none" stroke="midnightblue" d="M872.41,-123.48C873.26,-115.08 874.58,-101.98 875.67,-91.16"/>
<polygon fill="midnightblue" stroke="midnightblue" points="879.18,-91.31 876.7,-81.01 872.21,-90.61 879.18,-91.31"/>
</g>
<!-- Node17&#45;&gt;Node5 -->
<g id="edge18" class="edge">
<title>Node17&#45;&gt;Node5</title>
<path fill="none" stroke="midnightblue" d="M793.43,-61.98C799.52,-53.14 809.2,-39.09 816.86,-27.98"/>
<polygon fill="midnightblue" stroke="midnightblue" points="819.9,-29.73 822.69,-19.51 814.13,-25.76 819.9,-29.73"/>
</g>
<!-- Node18 -->
<g id="node18" class="node">
<title>Node18</title>
<g id="a_node18"><a xlink:title=" ">
<polygon fill="white" stroke="#bfbfbf" points="729.05,-0.5 729.05,-19.5 788.05,-19.5 788.05,-0.5 729.05,-0.5"/>
<text text-anchor="middle" x="758.55" y="-7.5" font-family="Helvetica,sans-Serif" font-size="10.00">stdexcept</text>
</a>
</g>
</g>
<!-- Node17&#45;&gt;Node18 -->
<g id="edge19" class="edge">
<title>Node17&#45;&gt;Node18</title>
<path fill="none" stroke="midnightblue" d="M783.4,-61.98C779.18,-53.32 772.52,-39.65 767.15,-28.65"/>
<polygon fill="midnightblue" stroke="midnightblue" points="770.23,-26.96 762.7,-19.51 763.94,-30.03 770.23,-26.96"/>
</g>
<!-- Node21&#45;&gt;Node4 -->
<g id="edge24" class="edge">
<title>Node21&#45;&gt;Node4</title>
<path fill="none" stroke="midnightblue" d="M1291.05,-369.48C1319.18,-359.27 1366.48,-342.11 1398.34,-330.55"/>
<polygon fill="midnightblue" stroke="midnightblue" points="1399.89,-333.71 1408.1,-327.01 1397.51,-327.13 1399.89,-333.71"/>
</g>
<!-- Node21&#45;&gt;Node22 -->
<g id="edge25" class="edge">
<title>Node21&#45;&gt;Node22</title>
<path fill="none" stroke="midnightblue" d="M1242.91,-369.48C1217.66,-360.74 1177.67,-346.91 1145.72,-335.86"/>
<polygon fill="midnightblue" stroke="midnightblue" points="1146.69,-332.48 1136.09,-332.52 1144.4,-339.1 1146.69,-332.48"/>
</g>
<!-- Node22&#45;&gt;Node8 -->
<g id="edge29" class="edge">
<title>Node22&#45;&gt;Node8</title>
<path fill="none" stroke="midnightblue" d="M1146.26,-302.48C1182.8,-292.37 1232.24,-278.69 1270.72,-268.05"/>
<polygon fill="midnightblue" stroke="midnightblue" points="1272.05,-271.31 1280.75,-265.28 1270.18,-264.57 1272.05,-271.31"/>
</g>
<!-- Node22&#45;&gt;Node9 -->
<g id="edge26" class="edge">
<title>Node22&#45;&gt;Node9</title>
<path fill="none" stroke="midnightblue" d="M1099.52,-302.37C1105.54,-283.7 1118.87,-251.29 1142.55,-235 1176.44,-211.7 1284.33,-199.75 1356.94,-194.19"/>
<polygon fill="midnightblue" stroke="midnightblue" points="1357.23,-197.68 1366.94,-193.45 1356.71,-190.7 1357.23,-197.68"/>
</g>
<!-- Node22&#45;&gt;Node10 -->
<g id="edge27" class="edge">
<title>Node22&#45;&gt;Node10</title>
<path fill="none" stroke="midnightblue" d="M1076.26,-302.41C1063.57,-292.76 1046.91,-279.35 1033.55,-266 1014.83,-247.29 995.98,-223.27 984.06,-207.29"/>
<polygon fill="midnightblue" stroke="midnightblue" points="986.65,-204.9 977.9,-198.92 981.01,-209.05 986.65,-204.9"/>
</g>
<!-- Node22&#45;&gt;Node15 -->
<g id="edge30" class="edge">
<title>Node22&#45;&gt;Node15</title>
<path fill="none" stroke="midnightblue" d="M1092.77,-302.36C1090.07,-285.86 1087.23,-257.92 1093.55,-235 1109.79,-176.12 1153.59,-117.07 1176.36,-89.14"/>
<polygon fill="midnightblue" stroke="midnightblue" points="1179.26,-91.14 1182.96,-81.21 1173.88,-86.66 1179.26,-91.14"/>
</g>
<!-- Node22&#45;&gt;Node20 -->
<g id="edge31" class="edge">
<title>Node22&#45;&gt;Node20</title>
<path fill="none" stroke="midnightblue" d="M1094.51,-302.46C1093.93,-285.06 1095.38,-255.22 1109.55,-235 1119.91,-220.23 1136.76,-209.68 1152.25,-202.53"/>
<polygon fill="midnightblue" stroke="midnightblue" points="1153.83,-205.66 1161.65,-198.5 1151.08,-199.22 1153.83,-205.66"/>
</g>
<!-- Node23 -->
<g id="node23" class="node">
<title>Node23</title>
<g id="a_node23"><a xlink:title=" ">
<polygon fill="white" stroke="#bfbfbf" points="1152.05,-241 1152.05,-260 1263.05,-260 1263.05,-241 1152.05,-241"/>
<text text-anchor="middle" x="1207.55" y="-248" font-family="Helvetica,sans-Serif" font-size="10.00">base_u1_spin_1d.hpp</text>
</a>
</g>
</g>
<!-- Node22&#45;&gt;Node23 -->
<g id="edge28" class="edge">
<title>Node22&#45;&gt;Node23</title>
<path fill="none" stroke="midnightblue" d="M1119.86,-302.4C1138.9,-291.34 1165.23,-276.06 1184.07,-265.13"/>
<polygon fill="midnightblue" stroke="midnightblue" points="1186,-268.05 1192.9,-260.01 1182.49,-262 1186,-268.05"/>
</g>
<!-- Node24&#45;&gt;Node10 -->
<g id="edge68" class="edge">
<title>Node24&#45;&gt;Node10</title>
<path fill="none" stroke="midnightblue" d="M936.03,-307.92C940.34,-293.05 949.52,-261.54 957.55,-235 960.23,-226.18 963.26,-216.41 965.81,-208.23"/>
<polygon fill="midnightblue" stroke="midnightblue" points="969.18,-209.2 968.83,-198.61 962.5,-207.11 969.18,-209.2"/>
</g>
<!-- Node24&#45;&gt;Node19 -->
<g id="edge69" class="edge">
<title>Node24&#45;&gt;Node19</title>
<path fill="none" stroke="midnightblue" d="M932.91,-307.73C930.42,-274.72 920.91,-157.97 908.55,-123 904.34,-111.07 897.02,-98.94 890.55,-89.57"/>
<polygon fill="midnightblue" stroke="midnightblue" points="893.21,-87.27 884.51,-81.21 887.53,-91.37 893.21,-87.27"/>
</g>
<!-- Node24&#45;&gt;Node20 -->
<g id="edge70" class="edge">
<title>Node24&#45;&gt;Node20</title>
<path fill="none" stroke="midnightblue" d="M950.29,-307.77C979.32,-292.68 1040.96,-260.85 1093.55,-235 1116.01,-223.97 1141.66,-211.84 1160.64,-202.96"/>
<polygon fill="midnightblue" stroke="midnightblue" points="1162.33,-206.04 1169.91,-198.64 1159.37,-199.7 1162.33,-206.04"/>
</g>
<!-- Node25 -->
<g id="node25" class="node">
<title>Node25</title>
<g id="a_node25"><a xlink:href="../../dd/de6/blas_2all_8hpp.html" target="_top" xlink:title=" ">
<polygon fill="white" stroke="black" points="543.05,-241 543.05,-260 618.05,-260 618.05,-241 543.05,-241"/>
<text text-anchor="middle" x="580.55" y="-248" font-family="Helvetica,sans-Serif" font-size="10.00">../blas/all.hpp</text>
</a>
</g>
</g>
<!-- Node24&#45;&gt;Node25 -->
<g id="edge33" class="edge">
<title>Node24&#45;&gt;Node25</title>
<path fill="none" stroke="midnightblue" d="M890.53,-307.96C880.38,-305.98 869.59,-303.89 859.55,-302 778.5,-286.72 684.01,-269.81 628.41,-259.95"/>
<polygon fill="midnightblue" stroke="midnightblue" points="628.95,-256.49 618.49,-258.19 627.73,-263.38 628.95,-256.49"/>
</g>
<!-- Node26 -->
<g id="node26" class="node">
<title>Node26</title>
<g id="a_node26"><a xlink:href="../../df/d20/eigendecomposition_8hpp.html" target="_top" xlink:title=" ">
<polygon fill="white" stroke="black" points="411.55,-179.5 411.55,-198.5 533.55,-198.5 533.55,-179.5 411.55,-179.5"/>
<text text-anchor="middle" x="472.55" y="-186.5" font-family="Helvetica,sans-Serif" font-size="10.00">eigendecomposition.hpp</text>
</a>
</g>
</g>
<!-- Node25&#45;&gt;Node26 -->
<g id="edge34" class="edge">
<title>Node25&#45;&gt;Node26</title>
<path fill="none" stroke="midnightblue" d="M565.08,-240.98C547.28,-231.17 517.81,-214.93 496.92,-203.42"/>
<polygon fill="midnightblue" stroke="midnightblue" points="498.45,-200.27 488,-198.51 495.07,-206.4 498.45,-200.27"/>
</g>
<!-- Node33 -->
<g id="node33" class="node">
<title>Node33</title>
<g id="a_node33"><a xlink:href="../../df/dd2/lapack_8hpp.html" target="_top" xlink:title=" ">
<polygon fill="white" stroke="black" points="667.55,-123.5 667.55,-142.5 731.55,-142.5 731.55,-123.5 667.55,-123.5"/>
<text text-anchor="middle" x="699.55" y="-130.5" font-family="Helvetica,sans-Serif" font-size="10.00">lapack.hpp</text>
</a>
</g>
</g>
<!-- Node25&#45;&gt;Node33 -->
<g id="edge55" class="edge">
<title>Node25&#45;&gt;Node33</title>
<path fill="none" stroke="midnightblue" d="M589.5,-240.82C609.4,-221.5 657.58,-174.74 683.09,-149.98"/>
<polygon fill="midnightblue" stroke="midnightblue" points="685.77,-152.26 690.51,-142.78 680.89,-147.24 685.77,-152.26"/>
</g>
<!-- Node34 -->
<g id="node34" class="node">
<title>Node34</title>
<g id="a_node34"><a xlink:href="../../df/d88/orthonormalize_8hpp.html" target="_top" xlink:title=" ">
<polygon fill="white" stroke="black" points="550.05,-123.5 550.05,-142.5 649.05,-142.5 649.05,-123.5 550.05,-123.5"/>
<text text-anchor="middle" x="599.55" y="-130.5" font-family="Helvetica,sans-Serif" font-size="10.00">orthonormalize.hpp</text>
</a>
</g>
</g>
<!-- Node25&#45;&gt;Node34 -->
<g id="edge67" class="edge">
<title>Node25&#45;&gt;Node34</title>
<path fill="none" stroke="midnightblue" d="M581.98,-240.82C585.04,-222.26 592.26,-178.34 596.43,-152.97"/>
<polygon fill="midnightblue" stroke="midnightblue" points="599.94,-153.22 598.11,-142.78 593.03,-152.08 599.94,-153.22"/>
</g>
<!-- Node36 -->
<g id="node36" class="node">
<title>Node36</title>
<g id="a_node36"><a xlink:href="../../db/d59/matrix__vector__operation_8hpp.html" target="_top" xlink:title=" ">
<polygon fill="white" stroke="black" points="353.55,-123.5 353.55,-142.5 493.55,-142.5 493.55,-123.5 353.55,-123.5"/>
<text text-anchor="middle" x="423.55" y="-130.5" font-family="Helvetica,sans-Serif" font-size="10.00">matrix_vector_operation.hpp</text>
</a>
</g>
</g>
<!-- Node25&#45;&gt;Node36 -->
<g id="edge56" class="edge">
<title>Node25&#45;&gt;Node36</title>
<path fill="none" stroke="midnightblue" d="M578.1,-240.86C573.5,-226.17 562.22,-196.22 542.55,-179 524.02,-162.78 499.06,-152.15 476.78,-145.32"/>
<polygon fill="midnightblue" stroke="midnightblue" points="477.68,-141.94 467.1,-142.53 475.74,-148.66 477.68,-141.94"/>
</g>
<!-- Node37 -->
<g id="node37" class="node">
<title>Node37</title>
<g id="a_node37"><a xlink:href="../../df/daf/conjugate__gradient_8hpp.html" target="_top" xlink:title=" ">
<polygon fill="white" stroke="black" points="16.05,-123.5 16.05,-142.5 133.05,-142.5 133.05,-123.5 16.05,-123.5"/>
<text text-anchor="middle" x="74.55" y="-130.5" font-family="Helvetica,sans-Serif" font-size="10.00">conjugate_gradient.hpp</text>
</a>
</g>
</g>
<!-- Node25&#45;&gt;Node37 -->
<g id="edge59" class="edge">
<title>Node25&#45;&gt;Node37</title>
<path fill="none" stroke="midnightblue" d="M543.05,-241.73C496.61,-232.04 415.14,-214.82 345.55,-199 265.55,-180.81 172.63,-158.2 119.01,-145"/>
<polygon fill="midnightblue" stroke="midnightblue" points="119.69,-141.57 109.14,-142.57 118.02,-148.37 119.69,-141.57"/>
</g>
<!-- Node38 -->
<g id="node38" class="node">
<title>Node38</title>
<g id="a_node38"><a xlink:href="../../de/d83/inverse__iteration_8hpp.html" target="_top" xlink:title=" ">
<polygon fill="white" stroke="black" points="190.05,-123.5 190.05,-142.5 297.05,-142.5 297.05,-123.5 190.05,-123.5"/>
<text text-anchor="middle" x="243.55" y="-130.5" font-family="Helvetica,sans-Serif" font-size="10.00">inverse_iteration.hpp</text>
</a>
</g>
</g>
<!-- Node25&#45;&gt;Node38 -->
<g id="edge64" class="edge">
<title>Node25&#45;&gt;Node38</title>
<path fill="none" stroke="midnightblue" d="M546.08,-240.94C509.96,-231.69 451.75,-215.97 402.55,-199 356.26,-183.03 303.93,-160.8 272.36,-146.91"/>
<polygon fill="midnightblue" stroke="midnightblue" points="273.43,-143.56 262.87,-142.72 270.6,-149.96 273.43,-143.56"/>
</g>
<!-- Node26&#45;&gt;Node13 -->
<g id="edge53" class="edge">
<title>Node26&#45;&gt;Node13</title>
<path fill="none" stroke="midnightblue" d="M411.55,-182.81C330.4,-175.27 195.39,-160.3 180.55,-143 143.27,-99.53 223.29,-48.25 267.65,-24.42"/>
<polygon fill="midnightblue" stroke="midnightblue" points="269.54,-27.38 276.77,-19.63 266.29,-21.18 269.54,-27.38"/>
</g>
<!-- Node27 -->
<g id="node27" class="node">
<title>Node27</title>
<g id="a_node27"><a xlink:href="../../d4/dc7/compressed__row__storage_8hpp.html" target="_top" xlink:title=" ">
<polygon fill="white" stroke="black" points="471.05,-56.5 471.05,-86.5 572.05,-86.5 572.05,-56.5 471.05,-56.5"/>
<text text-anchor="start" x="479.05" y="-74.5" font-family="Helvetica,sans-Serif" font-size="10.00">../type/compressed</text>
<text text-anchor="middle" x="521.55" y="-63.5" font-family="Helvetica,sans-Serif" font-size="10.00">_row_storage.hpp</text>
</a>
</g>
</g>
<!-- Node26&#45;&gt;Node27 -->
<g id="edge35" class="edge">
<title>Node26&#45;&gt;Node27</title>
<path fill="none" stroke="midnightblue" d="M479.68,-179.21C486.44,-170.49 496.43,-156.51 502.55,-143 509.27,-128.19 514.03,-110.52 517.1,-96.57"/>
<polygon fill="midnightblue" stroke="midnightblue" points="520.54,-97.24 519.13,-86.74 513.68,-95.83 520.54,-97.24"/>
</g>
<!-- Node31 -->
<g id="node31" class="node">
<title>Node31</title>
<g id="a_node31"><a xlink:href="../../d4/ddc/braket__vector_8hpp.html" target="_top" xlink:title=" ">
<polygon fill="white" stroke="black" points="328.05,-62 328.05,-81 453.05,-81 453.05,-62 328.05,-62"/>
<text text-anchor="middle" x="390.55" y="-69" font-family="Helvetica,sans-Serif" font-size="10.00">../type/braket_vector.hpp</text>
</a>
</g>
</g>
<!-- Node26&#45;&gt;Node31 -->
<g id="edge41" class="edge">
<title>Node26&#45;&gt;Node31</title>
<path fill="none" stroke="midnightblue" d="M411.43,-181.82C386.45,-175.93 359.87,-164.62 344.55,-143 331.27,-124.25 351.67,-101.93 369.38,-87.5"/>
<polygon fill="midnightblue" stroke="midnightblue" points="371.9,-89.98 377.69,-81.1 367.63,-84.43 371.9,-89.98"/>
</g>
<!-- Node26&#45;&gt;Node33 -->
<g id="edge47" class="edge">
<title>Node26&#45;&gt;Node33</title>
<path fill="none" stroke="midnightblue" d="M508.52,-179.44C549.03,-169.81 614.78,-154.17 657.59,-143.98"/>
<polygon fill="midnightblue" stroke="midnightblue" points="658.51,-147.36 667.42,-141.64 656.89,-140.55 658.51,-147.36"/>
</g>
<!-- Node26&#45;&gt;Node34 -->
<g id="edge50" class="edge">
<title>Node26&#45;&gt;Node34</title>
<path fill="none" stroke="midnightblue" d="M492.68,-179.44C513.58,-170.56 546.49,-156.56 570.27,-146.45"/>
<polygon fill="midnightblue" stroke="midnightblue" points="571.69,-149.65 579.53,-142.52 568.95,-143.21 571.69,-149.65"/>
</g>
<!-- Node35 -->
<g id="node35" class="node">
<title>Node35</title>
<g id="a_node35"><a xlink:title=" ">
<polygon fill="white" stroke="#bfbfbf" points="4.05,-62 4.05,-81 53.05,-81 53.05,-62 4.05,-62"/>
<text text-anchor="middle" x="28.55" y="-69" font-family="Helvetica,sans-Serif" font-size="10.00">random</text>
</a>
</g>
</g>
<!-- Node26&#45;&gt;Node35 -->
<g id="edge54" class="edge">
<title>Node26&#45;&gt;Node35</title>
<path fill="none" stroke="midnightblue" d="M411.25,-186.58C290.95,-183.14 33.26,-172.41 6.55,-143 -6.99,-128.08 4.38,-104.91 15.19,-89.24"/>
<polygon fill="midnightblue" stroke="midnightblue" points="18.15,-91.12 21.29,-81 12.53,-86.96 18.15,-91.12"/>
</g>
<!-- Node27&#45;&gt;Node12 -->
<g id="edge40" class="edge">
<title>Node27&#45;&gt;Node12</title>
<path fill="none" stroke="midnightblue" d="M553.55,-56.4C576,-46.51 605.77,-33.38 627.53,-23.79"/>
<polygon fill="midnightblue" stroke="midnightblue" points="629.17,-26.89 636.91,-19.66 626.35,-20.49 629.17,-26.89"/>
</g>
<!-- Node27&#45;&gt;Node13 -->
<g id="edge38" class="edge">
<title>Node27&#45;&gt;Node13</title>
<path fill="none" stroke="midnightblue" d="M470.68,-57.84C433.29,-48.44 381.03,-35.08 326.69,-20.26"/>
<polygon fill="midnightblue" stroke="midnightblue" points="327.45,-16.84 316.88,-17.57 325.6,-23.59 327.45,-16.84"/>
</g>
<!-- Node28 -->
<g id="node28" class="node">
<title>Node28</title>
<g id="a_node28"><a xlink:title=" ">
<polygon fill="white" stroke="#bfbfbf" points="426.55,-0.5 426.55,-19.5 480.55,-19.5 480.55,-0.5 426.55,-0.5"/>
<text text-anchor="middle" x="453.55" y="-7.5" font-family="Helvetica,sans-Serif" font-size="10.00">iostream</text>
</a>
</g>
</g>
<!-- Node27&#45;&gt;Node28 -->
<g id="edge36" class="edge">
<title>Node27&#45;&gt;Node28</title>
<path fill="none" stroke="midnightblue" d="M505.44,-56.4C495.15,-47.4 481.81,-35.72 471.23,-26.47"/>
<polygon fill="midnightblue" stroke="midnightblue" points="473.28,-23.61 463.45,-19.66 468.67,-28.88 473.28,-23.61"/>
</g>
<!-- Node29 -->
<g id="node29" class="node">
<title>Node29</title>
<g id="a_node29"><a xlink:title=" ">
<polygon fill="white" stroke="#bfbfbf" points="498.55,-0.5 498.55,-19.5 544.55,-19.5 544.55,-0.5 498.55,-0.5"/>
<text text-anchor="middle" x="521.55" y="-7.5" font-family="Helvetica,sans-Serif" font-size="10.00">cstdint</text>
</a>
</g>
</g>
<!-- Node27&#45;&gt;Node29 -->
<g id="edge37" class="edge">
<title>Node27&#45;&gt;Node29</title>
<path fill="none" stroke="midnightblue" d="M521.55,-56.4C521.55,-48.47 521.55,-38.46 521.55,-29.86"/>
<polygon fill="midnightblue" stroke="midnightblue" points="525.05,-29.66 521.55,-19.66 518.05,-29.66 525.05,-29.66"/>
</g>
<!-- Node30 -->
<g id="node30" class="node">
<title>Node30</title>
<g id="a_node30"><a xlink:title=" ">
<polygon fill="white" stroke="#bfbfbf" points="562.55,-0.5 562.55,-19.5 612.55,-19.5 612.55,-0.5 562.55,-0.5"/>
<text text-anchor="middle" x="587.55" y="-7.5" font-family="Helvetica,sans-Serif" font-size="10.00">iomanip</text>
</a>
</g>
</g>
<!-- Node27&#45;&gt;Node30 -->
<g id="edge39" class="edge">
<title>Node27&#45;&gt;Node30</title>
<path fill="none" stroke="midnightblue" d="M537.2,-56.4C547.18,-47.4 560.13,-35.72 570.4,-26.47"/>
<polygon fill="midnightblue" stroke="midnightblue" points="572.87,-28.95 577.95,-19.66 568.18,-23.75 572.87,-28.95"/>
</g>
<!-- Node31&#45;&gt;Node5 -->
<g id="edge45" class="edge">
<title>Node31&#45;&gt;Node5</title>
<path fill="none" stroke="midnightblue" d="M429.13,-61.93C439.61,-59.79 450.99,-57.64 461.55,-56 606.34,-33.49 647.75,-47.73 796.34,-19.68"/>
<polygon fill="midnightblue" stroke="midnightblue" points="797.13,-23.1 806.29,-17.78 795.81,-16.22 797.13,-23.1"/>
</g>
<!-- Node31&#45;&gt;Node12 -->
<g id="edge43" class="edge">
<title>Node31&#45;&gt;Node12</title>
<path fill="none" stroke="midnightblue" d="M431.97,-61.92C476.2,-52.65 548.59,-37.19 620.12,-20.28"/>
<polygon fill="midnightblue" stroke="midnightblue" points="621.29,-23.6 630.21,-17.88 619.67,-16.79 621.29,-23.6"/>
</g>
<!-- Node31&#45;&gt;Node13 -->
<g id="edge44" class="edge">
<title>Node31&#45;&gt;Node13</title>
<path fill="none" stroke="midnightblue" d="M376.8,-61.98C361.19,-52.3 335.49,-36.37 316.97,-24.89"/>
<polygon fill="midnightblue" stroke="midnightblue" points="318.63,-21.8 308.28,-19.51 314.94,-27.75 318.63,-21.8"/>
</g>
<!-- Node31&#45;&gt;Node28 -->
<g id="edge42" class="edge">
<title>Node31&#45;&gt;Node28</title>
<path fill="none" stroke="midnightblue" d="M399.58,-61.98C409.31,-52.78 425.01,-37.96 436.98,-26.66"/>
<polygon fill="midnightblue" stroke="midnightblue" points="439.68,-28.92 444.54,-19.51 434.87,-23.83 439.68,-28.92"/>
</g>
<!-- Node32 -->
<g id="node32" class="node">
<title>Node32</title>
<g id="a_node32"><a xlink:title=" ">
<polygon fill="white" stroke="#bfbfbf" points="335.05,-0.5 335.05,-19.5 408.05,-19.5 408.05,-0.5 335.05,-0.5"/>
<text text-anchor="middle" x="371.55" y="-7.5" font-family="Helvetica,sans-Serif" font-size="10.00">initializer_list</text>
</a>
</g>
</g>
<!-- Node31&#45;&gt;Node32 -->
<g id="edge46" class="edge">
<title>Node31&#45;&gt;Node32</title>
<path fill="none" stroke="midnightblue" d="M387.83,-61.98C385.12,-53.49 380.88,-40.2 377.41,-29.32"/>
<polygon fill="midnightblue" stroke="midnightblue" points="380.65,-27.97 374.27,-19.51 373.98,-30.1 380.65,-27.97"/>
</g>
<!-- Node33&#45;&gt;Node12 -->
<g id="edge49" class="edge">
<title>Node33&#45;&gt;Node12</title>
<path fill="none" stroke="midnightblue" d="M696.46,-123.3C689.49,-103.68 672.42,-55.64 663.02,-29.19"/>
<polygon fill="midnightblue" stroke="midnightblue" points="666.27,-27.87 659.62,-19.62 659.67,-30.22 666.27,-27.87"/>
</g>
<!-- Node33&#45;&gt;Node27 -->
<g id="edge48" class="edge">
<title>Node33&#45;&gt;Node27</title>
<path fill="none" stroke="midnightblue" d="M674.05,-123.48C647.8,-114.7 606.18,-100.79 573.05,-89.71"/>
<polygon fill="midnightblue" stroke="midnightblue" points="574.1,-86.37 563.51,-86.52 571.88,-93.01 574.1,-86.37"/>
</g>
<!-- Node34&#45;&gt;Node12 -->
<g id="edge52" class="edge">
<title>Node34&#45;&gt;Node12</title>
<path fill="none" stroke="midnightblue" d="M603.65,-123.3C612.94,-103.59 635.73,-55.21 648.15,-28.84"/>
<polygon fill="midnightblue" stroke="midnightblue" points="651.4,-30.16 652.49,-19.62 645.06,-27.18 651.4,-30.16"/>
</g>
<!-- Node34&#45;&gt;Node31 -->
<g id="edge51" class="edge">
<title>Node34&#45;&gt;Node31</title>
<path fill="none" stroke="midnightblue" d="M569.61,-123.48C532.98,-113.05 470.86,-95.36 430.27,-83.81"/>
<polygon fill="midnightblue" stroke="midnightblue" points="431.02,-80.38 420.44,-81.01 429.1,-87.11 431.02,-80.38"/>
</g>
<!-- Node36&#45;&gt;Node27 -->
<g id="edge57" class="edge">
<title>Node36&#45;&gt;Node27</title>
<path fill="none" stroke="midnightblue" d="M437.6,-123.48C451.12,-115.27 472.05,-102.56 489.63,-91.88"/>
<polygon fill="midnightblue" stroke="midnightblue" points="491.73,-94.7 498.46,-86.52 488.09,-88.72 491.73,-94.7"/>
</g>
<!-- Node36&#45;&gt;Node31 -->
<g id="edge58" class="edge">
<title>Node36&#45;&gt;Node31</title>
<path fill="none" stroke="midnightblue" d="M418.83,-123.48C413.97,-114.73 406.29,-100.87 400.15,-89.81"/>
<polygon fill="midnightblue" stroke="midnightblue" points="403.18,-88.06 395.27,-81.01 397.06,-91.45 403.18,-88.06"/>
</g>
<!-- Node37&#45;&gt;Node13 -->
<g id="edge62" class="edge">
<title>Node37&#45;&gt;Node13</title>
<path fill="none" stroke="midnightblue" d="M80.53,-123.33C91.8,-107.6 117.79,-74.3 147.55,-56 183.61,-33.83 231.4,-21.86 262.55,-15.96"/>
<polygon fill="midnightblue" stroke="midnightblue" points="263.22,-19.4 272.44,-14.19 261.98,-12.51 263.22,-19.4"/>
</g>
<!-- Node37&#45;&gt;Node27 -->
<g id="edge60" class="edge">
<title>Node37&#45;&gt;Node27</title>
<path fill="none" stroke="midnightblue" d="M133.13,-126.07C221.14,-117.02 384.43,-99.64 460.73,-86.95"/>
<polygon fill="midnightblue" stroke="midnightblue" points="461.65,-90.35 470.91,-85.2 460.46,-83.45 461.65,-90.35"/>
</g>
<!-- Node37&#45;&gt;Node31 -->
<g id="edge61" class="edge">
<title>Node37&#45;&gt;Node31</title>
<path fill="none" stroke="midnightblue" d="M119.83,-123.48C176.73,-112.76 274.34,-94.38 335.5,-82.87"/>
<polygon fill="midnightblue" stroke="midnightblue" points="336.18,-86.3 345.36,-81.01 334.89,-79.42 336.18,-86.3"/>
</g>
<!-- Node37&#45;&gt;Node35 -->
<g id="edge63" class="edge">
<title>Node37&#45;&gt;Node35</title>
<path fill="none" stroke="midnightblue" d="M67.96,-123.48C61.06,-114.55 50.05,-100.31 41.42,-89.14"/>
<polygon fill="midnightblue" stroke="midnightblue" points="44.02,-86.78 35.13,-81.01 38.48,-91.06 44.02,-86.78"/>
</g>
<!-- Node38&#45;&gt;Node27 -->
<g id="edge65" class="edge">
<title>Node38&#45;&gt;Node27</title>
<path fill="none" stroke="midnightblue" d="M287.08,-123.46C329.08,-115.12 394.71,-101.83 461.05,-87.07"/>
<polygon fill="midnightblue" stroke="midnightblue" points="461.85,-90.48 470.84,-84.88 460.32,-83.65 461.85,-90.48"/>
</g>
<!-- Node38&#45;&gt;Node31 -->
<g id="edge66" class="edge">
<title>Node38&#45;&gt;Node31</title>
<path fill="none" stroke="midnightblue" d="M264.62,-123.48C289.61,-113.36 331.5,-96.4 360.04,-84.85"/>
<polygon fill="midnightblue" stroke="midnightblue" points="361.58,-88.01 369.53,-81.01 358.95,-81.52 361.58,-88.01"/>
</g>
<!-- Node39&#45;&gt;Node10 -->
<g id="edge74" class="edge">
<title>Node39&#45;&gt;Node10</title>
<path fill="none" stroke="midnightblue" d="M815.1,-307.81C843.4,-286.5 916.44,-231.5 951.8,-204.88"/>
<polygon fill="midnightblue" stroke="midnightblue" points="954.04,-207.57 959.93,-198.76 949.83,-201.97 954.04,-207.57"/>
</g>
<!-- Node39&#45;&gt;Node25 -->
<g id="edge73" class="edge">
<title>Node39&#45;&gt;Node25</title>
<path fill="none" stroke="midnightblue" d="M773.94,-307.87C734.26,-296.3 663.75,-275.75 619.71,-262.91"/>
<polygon fill="midnightblue" stroke="midnightblue" points="620.51,-259.5 609.93,-260.06 618.56,-266.22 620.51,-259.5"/>
</g>
<!-- Node40 -->
<g id="node40" class="node">
<title>Node40</title>
<g id="a_node40"><a xlink:href="../../d9/dd5/type_2all_8hpp.html" target="_top" xlink:title=" ">
<polygon fill="white" stroke="black" points="749.55,-123.5 749.55,-142.5 825.55,-142.5 825.55,-123.5 749.55,-123.5"/>
<text text-anchor="middle" x="787.55" y="-130.5" font-family="Helvetica,sans-Serif" font-size="10.00">../type/all.hpp</text>
</a>
</g>
</g>
<!-- Node39&#45;&gt;Node40 -->
<g id="edge75" class="edge">
<title>Node39&#45;&gt;Node40</title>
<path fill="none" stroke="midnightblue" d="M802.78,-307.7C800.33,-279.69 792.66,-192.21 789.23,-153.16"/>
<polygon fill="midnightblue" stroke="midnightblue" points="792.68,-152.37 788.32,-142.71 785.71,-152.98 792.68,-152.37"/>
</g>
<!-- Node40&#45;&gt;Node17 -->
<g id="edge76" class="edge">
<title>Node40&#45;&gt;Node17</title>
<path fill="none" stroke="midnightblue" d="M787.55,-123.48C787.55,-115.08 787.55,-101.98 787.55,-91.16"/>
<polygon fill="midnightblue" stroke="midnightblue" points="791.05,-91.01 787.55,-81.01 784.05,-91.01 791.05,-91.01"/>
</g>
<!-- Node40&#45;&gt;Node27 -->
<g id="edge77" class="edge">
<title>Node40&#45;&gt;Node27</title>
<path fill="none" stroke="midnightblue" d="M749.44,-123.48C705.81,-113.71 633.74,-97.59 582.33,-86.09"/>
<polygon fill="midnightblue" stroke="midnightblue" points="582.86,-82.63 572.34,-83.86 581.34,-89.46 582.86,-82.63"/>
</g>
<!-- Node40&#45;&gt;Node31 -->
<g id="edge78" class="edge">
<title>Node40&#45;&gt;Node31</title>
<path fill="none" stroke="midnightblue" d="M749.37,-124.49C746.39,-123.96 743.43,-123.46 740.55,-123 617.1,-103.23 584.89,-107.52 461.55,-87 454.47,-85.82 447.02,-84.45 439.72,-83.03"/>
<polygon fill="midnightblue" stroke="midnightblue" points="440.38,-79.59 429.89,-81.07 439.02,-86.45 440.38,-79.59"/>
</g>
<!-- Node41&#45;&gt;Node8 -->
<g id="edge84" class="edge">
<title>Node41&#45;&gt;Node8</title>
<path fill="none" stroke="midnightblue" d="M1330.55,-302.4C1330.55,-294.64 1330.55,-284.81 1330.55,-275.86"/>
<polygon fill="midnightblue" stroke="midnightblue" points="1334.05,-275.58 1330.55,-265.58 1327.05,-275.58 1334.05,-275.58"/>
</g>
<!-- Node41&#45;&gt;Node9 -->
<g id="edge81" class="edge">
<title>Node41&#45;&gt;Node9</title>
<path fill="none" stroke="midnightblue" d="M1382.29,-302.89C1414.35,-293.29 1451.15,-279.74 1460.55,-266 1473.48,-247.11 1457.4,-222.5 1443.25,-206.48"/>
<polygon fill="midnightblue" stroke="midnightblue" points="1445.59,-203.86 1436.2,-198.96 1440.49,-208.65 1445.59,-203.86"/>
</g>
<!-- Node41&#45;&gt;Node10 -->
<g id="edge82" class="edge">
<title>Node41&#45;&gt;Node10</title>
<path fill="none" stroke="midnightblue" d="M1353.2,-302.27C1377.25,-285.45 1409.28,-256.96 1389.55,-235 1377.39,-221.45 1130.18,-201.68 1021.77,-193.62"/>
<polygon fill="midnightblue" stroke="midnightblue" points="1021.96,-190.13 1011.72,-192.88 1021.44,-197.11 1021.96,-190.13"/>
</g>
<!-- Node41&#45;&gt;Node15 -->
<g id="edge85" class="edge">
<title>Node41&#45;&gt;Node15</title>
<path fill="none" stroke="midnightblue" d="M1382.32,-304.02C1418.75,-294.26 1463.29,-280.04 1476.55,-266 1503.74,-237.23 1518.47,-211.27 1495.55,-179 1437.76,-97.6 1312.88,-77.91 1242.15,-73.47"/>
<polygon fill="midnightblue" stroke="midnightblue" points="1242.3,-69.97 1232.12,-72.91 1241.92,-76.96 1242.3,-69.97"/>
</g>
<!-- Node41&#45;&gt;Node20 -->
<g id="edge86" class="edge">
<title>Node41&#45;&gt;Node20</title>
<path fill="none" stroke="midnightblue" d="M1377.2,-302.36C1394.59,-294.57 1412.53,-282.93 1422.55,-266 1429.57,-254.14 1431.33,-245.62 1422.55,-235 1399.64,-207.26 1299.84,-196.44 1238.21,-192.36"/>
<polygon fill="midnightblue" stroke="midnightblue" points="1238.12,-188.84 1227.92,-191.71 1237.68,-195.83 1238.12,-188.84"/>
</g>
<!-- Node41&#45;&gt;Node23 -->
<g id="edge83" class="edge">
<title>Node41&#45;&gt;Node23</title>
<path fill="none" stroke="midnightblue" d="M1303.87,-302.4C1282.67,-291.19 1253.24,-275.64 1232.51,-264.69"/>
<polygon fill="midnightblue" stroke="midnightblue" points="1234.13,-261.58 1223.65,-260.01 1230.86,-267.77 1234.13,-261.58"/>
</g>
</g>
</svg>
