<?xml version="1.0" encoding="UTF-8" standalone="no"?>
<!DOCTYPE svg PUBLIC "-//W3C//DTD SVG 1.1//EN"
 "http://www.w3.org/Graphics/SVG/1.1/DTD/svg11.dtd">
<!-- Generated by graphviz version 2.50.0 (20211204.2007)
 -->
<!-- Title: src/type/half_int.hpp Pages: 1 -->
<svg width="568pt" height="509pt"
 viewBox="0.00 0.00 567.50 509.00" xmlns="http://www.w3.org/2000/svg" xmlns:xlink="http://www.w3.org/1999/xlink">
<g id="graph0" class="graph" transform="scale(1 1) rotate(0) translate(4 505)">
<title>src/type/half_int.hpp</title>
<polygon fill="white" stroke="transparent" points="-4,4 -4,-505 563.5,-505 563.5,4 -4,4"/>
<!-- Node1 -->
<g id="node1" class="node">
<title>Node1</title>
<g id="a_node1"><a xlink:title=" ">
<polygon fill="#bfbfbf" stroke="black" points="116,-481.5 116,-500.5 221,-500.5 221,-481.5 116,-481.5"/>
<text text-anchor="middle" x="168.5" y="-488.5" font-family="Helvetica,sans-Serif" font-size="10.00">src/type/half_int.hpp</text>
</a>
</g>
</g>
<!-- Node2 -->
<g id="node2" class="node">
<title>Node2</title>
<g id="a_node2"><a xlink:href="../../d9/dd5/type_2all_8hpp.html" target="_top" xlink:title=" ">
<polygon fill="white" stroke="black" points="75,-369.5 75,-388.5 158,-388.5 158,-369.5 75,-369.5"/>
<text text-anchor="middle" x="116.5" y="-376.5" font-family="Helvetica,sans-Serif" font-size="10.00">src/type/all.hpp</text>
</a>
</g>
</g>
<!-- Node1&#45;&gt;Node2 -->
<g id="edge1" class="edge">
<title>Node1&#45;&gt;Node2</title>
<path fill="none" stroke="midnightblue" d="M160.14,-472.32C148.82,-448.37 129.05,-406.55 120.56,-388.59"/>
<polygon fill="midnightblue" stroke="midnightblue" points="156.98,-473.82 164.42,-481.37 163.31,-470.83 156.98,-473.82"/>
</g>
<!-- Node7 -->
<g id="node7" class="node">
<title>Node7</title>
<g id="a_node7"><a xlink:href="../../d9/d04/hash_8hpp.html" target="_top" xlink:title=" ">
<polygon fill="white" stroke="black" points="164,-425.5 164,-444.5 263,-444.5 263,-425.5 164,-425.5"/>
<text text-anchor="middle" x="213.5" y="-432.5" font-family="Helvetica,sans-Serif" font-size="10.00">src/utility/hash.hpp</text>
</a>
</g>
</g>
<!-- Node1&#45;&gt;Node7 -->
<g id="edge6" class="edge">
<title>Node1&#45;&gt;Node7</title>
<path fill="none" stroke="midnightblue" d="M182.55,-473.14C190.39,-463.74 199.83,-452.4 206.21,-444.75"/>
<polygon fill="midnightblue" stroke="midnightblue" points="179.64,-471.16 175.93,-481.08 185.02,-475.64 179.64,-471.16"/>
</g>
<!-- Node3 -->
<g id="node3" class="node">
<title>Node3</title>
<g id="a_node3"><a xlink:href="../../da/d72/base__u1__spin_8hpp.html" target="_top" xlink:title=" ">
<polygon fill="white" stroke="black" points="0,-308 0,-327 141,-327 141,-308 0,-308"/>
<text text-anchor="middle" x="70.5" y="-315" font-family="Helvetica,sans-Serif" font-size="10.00">src/model/base_u1_spin.hpp</text>
</a>
</g>
</g>
<!-- Node2&#45;&gt;Node3 -->
<g id="edge2" class="edge">
<title>Node2&#45;&gt;Node3</title>
<path fill="none" stroke="midnightblue" d="M103.62,-361.34C94.98,-350.17 83.97,-335.93 77.08,-327.01"/>
<polygon fill="midnightblue" stroke="midnightblue" points="101.02,-363.7 109.91,-369.48 106.56,-359.42 101.02,-363.7"/>
</g>
<!-- Node4 -->
<g id="node4" class="node">
<title>Node4</title>
<g id="a_node4"><a xlink:href="../../da/d6e/model_2all_8hpp.html" target="_top" xlink:title=" ">
<polygon fill="white" stroke="black" points="210,-112.5 210,-131.5 301,-131.5 301,-112.5 210,-112.5"/>
<text text-anchor="middle" x="255.5" y="-119.5" font-family="Helvetica,sans-Serif" font-size="10.00">src/model/all.hpp</text>
</a>
</g>
</g>
<!-- Node3&#45;&gt;Node4 -->
<g id="edge3" class="edge">
<title>Node3&#45;&gt;Node4</title>
<path fill="none" stroke="midnightblue" d="M57.82,-299.49C37.18,-269.56 1.65,-206.96 33.5,-168 55.34,-141.29 151.57,-130.05 209.93,-125.63"/>
<polygon fill="midnightblue" stroke="midnightblue" points="55,-301.56 63.66,-307.67 60.7,-297.5 55,-301.56"/>
</g>
<!-- Node5 -->
<g id="node5" class="node">
<title>Node5</title>
<g id="a_node5"><a xlink:href="../../d3/df6/exact__diag_8hpp.html" target="_top" xlink:title=" ">
<polygon fill="white" stroke="black" points="191.5,-56.5 191.5,-75.5 319.5,-75.5 319.5,-56.5 191.5,-56.5"/>
<text text-anchor="middle" x="255.5" y="-63.5" font-family="Helvetica,sans-Serif" font-size="10.00">src/solver/exact_diag.hpp</text>
</a>
</g>
</g>
<!-- Node4&#45;&gt;Node5 -->
<g id="edge4" class="edge">
<title>Node4&#45;&gt;Node5</title>
<path fill="none" stroke="midnightblue" d="M255.5,-101.8C255.5,-92.91 255.5,-82.78 255.5,-75.75"/>
<polygon fill="midnightblue" stroke="midnightblue" points="252,-102.08 255.5,-112.08 259,-102.08 252,-102.08"/>
</g>
<!-- Node6 -->
<g id="node6" class="node">
<title>Node6</title>
<g id="a_node6"><a xlink:href="../../d5/d21/solver_2all_8hpp.html" target="_top" xlink:title=" ">
<polygon fill="white" stroke="black" points="210,-0.5 210,-19.5 301,-19.5 301,-0.5 210,-0.5"/>
<text text-anchor="middle" x="255.5" y="-7.5" font-family="Helvetica,sans-Serif" font-size="10.00">src/solver/all.hpp</text>
</a>
</g>
</g>
<!-- Node5&#45;&gt;Node6 -->
<g id="edge5" class="edge">
<title>Node5&#45;&gt;Node6</title>
<path fill="none" stroke="midnightblue" d="M255.5,-45.8C255.5,-36.91 255.5,-26.78 255.5,-19.75"/>
<polygon fill="midnightblue" stroke="midnightblue" points="252,-46.08 255.5,-56.08 259,-46.08 252,-46.08"/>
</g>
<!-- Node8 -->
<g id="node8" class="node">
<title>Node8</title>
<g id="a_node8"><a xlink:href="../../d5/d8a/utility_2all_8hpp.html" target="_top" xlink:title=" ">
<polygon fill="white" stroke="black" points="199.5,-369.5 199.5,-388.5 287.5,-388.5 287.5,-369.5 199.5,-369.5"/>
<text text-anchor="middle" x="243.5" y="-376.5" font-family="Helvetica,sans-Serif" font-size="10.00">src/utility/all.hpp</text>
</a>
</g>
</g>
<!-- Node7&#45;&gt;Node8 -->
<g id="edge7" class="edge">
<title>Node7&#45;&gt;Node8</title>
<path fill="none" stroke="midnightblue" d="M223.35,-416.27C228.47,-407.05 234.52,-396.17 238.64,-388.75"/>
<polygon fill="midnightblue" stroke="midnightblue" points="220.25,-414.64 218.45,-425.08 226.37,-418.04 220.25,-414.64"/>
</g>
<!-- Node8&#45;&gt;Node3 -->
<g id="edge18" class="edge">
<title>Node8&#45;&gt;Node3</title>
<path fill="none" stroke="midnightblue" d="M208.85,-366.08C175.22,-354.52 125.02,-337.25 95.24,-327.01"/>
<polygon fill="midnightblue" stroke="midnightblue" points="208.12,-369.53 218.71,-369.48 210.4,-362.91 208.12,-369.53"/>
</g>
<!-- Node9 -->
<g id="node9" class="node">
<title>Node9</title>
<g id="a_node9"><a xlink:href="../../d4/d22/base__u1__electron__1d_8hpp.html" target="_top" xlink:title=" ">
<polygon fill="white" stroke="black" points="198,-302.5 198,-332.5 337,-332.5 337,-302.5 198,-302.5"/>
<text text-anchor="start" x="206" y="-320.5" font-family="Helvetica,sans-Serif" font-size="10.00">src/model/base_u1_electron</text>
<text text-anchor="middle" x="267.5" y="-309.5" font-family="Helvetica,sans-Serif" font-size="10.00">_1d.hpp</text>
</a>
</g>
</g>
<!-- Node8&#45;&gt;Node9 -->
<g id="edge8" class="edge">
<title>Node8&#45;&gt;Node9</title>
<path fill="none" stroke="midnightblue" d="M250.72,-360.1C254.28,-351.27 258.52,-340.77 261.84,-332.52"/>
<polygon fill="midnightblue" stroke="midnightblue" points="247.43,-358.89 246.94,-369.48 253.93,-361.51 247.43,-358.89"/>
</g>
<!-- Node10 -->
<g id="node10" class="node">
<title>Node10</title>
<g id="a_node10"><a xlink:href="../../d9/d57/base__u1__spin__electron__1d_8hpp.html" target="_top" xlink:title=" ">
<polygon fill="white" stroke="black" points="77.5,-235.5 77.5,-265.5 199.5,-265.5 199.5,-235.5 77.5,-235.5"/>
<text text-anchor="start" x="85.5" y="-253.5" font-family="Helvetica,sans-Serif" font-size="10.00">src/model/base_u1_spin</text>
<text text-anchor="middle" x="138.5" y="-242.5" font-family="Helvetica,sans-Serif" font-size="10.00">_electron_1d.hpp</text>
</a>
</g>
</g>
<!-- Node8&#45;&gt;Node10 -->
<g id="edge19" class="edge">
<title>Node8&#45;&gt;Node10</title>
<path fill="none" stroke="midnightblue" d="M222.5,-363.46C211.59,-355.28 198.49,-344.44 188.5,-333 169.94,-311.74 153.98,-282.78 145.35,-265.72"/>
<polygon fill="midnightblue" stroke="midnightblue" points="220.53,-366.35 230.67,-369.4 224.64,-360.69 220.53,-366.35"/>
</g>
<!-- Node12 -->
<g id="node12" class="node">
<title>Node12</title>
<g id="a_node12"><a xlink:href="../../dc/d0c/base__u1__spin__multi__electrons__1d_8hpp.html" target="_top" xlink:title=" ">
<polygon fill="white" stroke="black" points="329.5,-235.5 329.5,-265.5 451.5,-265.5 451.5,-235.5 329.5,-235.5"/>
<text text-anchor="start" x="337.5" y="-253.5" font-family="Helvetica,sans-Serif" font-size="10.00">src/model/base_u1_spin</text>
<text text-anchor="middle" x="390.5" y="-242.5" font-family="Helvetica,sans-Serif" font-size="10.00">_multi_electrons_1d.hpp</text>
</a>
</g>
</g>
<!-- Node8&#45;&gt;Node12 -->
<g id="edge20" class="edge">
<title>Node8&#45;&gt;Node12</title>
<path fill="none" stroke="midnightblue" d="M286.18,-366.16C305.97,-359.03 328.76,-348.31 345.5,-333 366.13,-314.13 379.43,-283.54 385.88,-265.69"/>
<polygon fill="midnightblue" stroke="midnightblue" points="284.79,-362.94 276.45,-369.47 287.04,-369.56 284.79,-362.94"/>
</g>
<!-- Node14 -->
<g id="node14" class="node">
<title>Node14</title>
<g id="a_node14"><a xlink:href="../../d9/d56/general__model_8hpp.html" target="_top" xlink:title=" ">
<polygon fill="white" stroke="black" points="415.5,-174 415.5,-193 559.5,-193 559.5,-174 415.5,-174"/>
<text text-anchor="middle" x="487.5" y="-181" font-family="Helvetica,sans-Serif" font-size="10.00">src/model/general_model.hpp</text>
</a>
</g>
</g>
<!-- Node8&#45;&gt;Node14 -->
<g id="edge21" class="edge">
<title>Node8&#45;&gt;Node14</title>
<path fill="none" stroke="midnightblue" d="M292.1,-366.78C342.68,-352.41 420.05,-322.34 460.5,-266 477.1,-242.87 483.96,-208.89 486.37,-193.12"/>
<polygon fill="midnightblue" stroke="midnightblue" points="291.08,-363.43 282.36,-369.45 292.93,-370.18 291.08,-363.43"/>
</g>
<!-- Node9&#45;&gt;Node4 -->
<g id="edge9" class="edge">
<title>Node9&#45;&gt;Node4</title>
<path fill="none" stroke="midnightblue" d="M283.69,-293.97C298.93,-271.26 320.69,-234.58 329.5,-199 332.81,-185.63 336.25,-180.01 329.5,-168 319.48,-150.18 299.22,-138.59 282.43,-131.64"/>
<polygon fill="midnightblue" stroke="midnightblue" points="280.79,-292.01 278.01,-302.24 286.56,-295.97 280.79,-292.01"/>
</g>
<!-- Node9&#45;&gt;Node10 -->
<g id="edge10" class="edge">
<title>Node9&#45;&gt;Node10</title>
<path fill="none" stroke="midnightblue" d="M230.49,-297.85C210.1,-287.58 185.19,-275.03 166.44,-265.58"/>
<polygon fill="midnightblue" stroke="midnightblue" points="229,-301.02 239.51,-302.4 232.15,-294.77 229,-301.02"/>
</g>
<!-- Node9&#45;&gt;Node12 -->
<g id="edge14" class="edge">
<title>Node9&#45;&gt;Node12</title>
<path fill="none" stroke="midnightblue" d="M303.05,-297.71C322.45,-287.46 346.06,-274.98 363.86,-265.58"/>
<polygon fill="midnightblue" stroke="midnightblue" points="301.4,-294.63 294.19,-302.4 304.67,-300.82 301.4,-294.63"/>
</g>
<!-- Node13 -->
<g id="node13" class="node">
<title>Node13</title>
<g id="a_node13"><a xlink:href="../../d9/de5/hubbard__1d_8hpp.html" target="_top" xlink:title=" ">
<polygon fill="white" stroke="black" points="190,-174 190,-193 321,-193 321,-174 190,-174"/>
<text text-anchor="middle" x="255.5" y="-181" font-family="Helvetica,sans-Serif" font-size="10.00">src/model/hubbard_1d.hpp</text>
</a>
</g>
</g>
<!-- Node9&#45;&gt;Node13 -->
<g id="edge16" class="edge">
<title>Node9&#45;&gt;Node13</title>
<path fill="none" stroke="midnightblue" d="M265.3,-292.32C262.58,-262.38 258.08,-212.91 256.28,-193.1"/>
<polygon fill="midnightblue" stroke="midnightblue" points="261.82,-292.73 266.22,-302.37 268.8,-292.1 261.82,-292.73"/>
</g>
<!-- Node10&#45;&gt;Node4 -->
<g id="edge11" class="edge">
<title>Node10&#45;&gt;Node4</title>
<path fill="none" stroke="midnightblue" d="M79.69,-231.07C65.02,-223.53 51.05,-213.15 42.5,-199 35.38,-187.21 33.82,-178.7 42.5,-168 63.15,-142.53 153.65,-130.92 209.83,-126.07"/>
<polygon fill="midnightblue" stroke="midnightblue" points="78.34,-234.3 88.88,-235.4 81.32,-227.97 78.34,-234.3"/>
</g>
<!-- Node11 -->
<g id="node11" class="node">
<title>Node11</title>
<g id="a_node11"><a xlink:href="../../d0/df4/kondo__lattice__1d_8hpp.html" target="_top" xlink:title=" ">
<polygon fill="white" stroke="black" points="51.5,-168.5 51.5,-198.5 171.5,-198.5 171.5,-168.5 51.5,-168.5"/>
<text text-anchor="start" x="59.5" y="-186.5" font-family="Helvetica,sans-Serif" font-size="10.00">src/model/kondo_lattice</text>
<text text-anchor="middle" x="111.5" y="-175.5" font-family="Helvetica,sans-Serif" font-size="10.00">_1d.hpp</text>
</a>
</g>
</g>
<!-- Node10&#45;&gt;Node11 -->
<g id="edge12" class="edge">
<title>Node10&#45;&gt;Node11</title>
<path fill="none" stroke="midnightblue" d="M128.73,-225.99C124.92,-216.8 120.67,-206.58 117.35,-198.58"/>
<polygon fill="midnightblue" stroke="midnightblue" points="125.57,-227.5 132.64,-235.4 132.04,-224.82 125.57,-227.5"/>
</g>
<!-- Node11&#45;&gt;Node4 -->
<g id="edge13" class="edge">
<title>Node11&#45;&gt;Node4</title>
<path fill="none" stroke="midnightblue" d="M155.03,-164.52C181.38,-153.63 213.79,-140.23 234.55,-131.66"/>
<polygon fill="midnightblue" stroke="midnightblue" points="153.53,-161.35 145.63,-168.4 156.2,-167.82 153.53,-161.35"/>
</g>
<!-- Node12&#45;&gt;Node4 -->
<g id="edge15" class="edge">
<title>Node12&#45;&gt;Node4</title>
<path fill="none" stroke="midnightblue" d="M387.9,-225.36C384.81,-207.54 378.09,-183.73 363.5,-168 346.09,-149.24 319.66,-138.04 297.3,-131.51"/>
<polygon fill="midnightblue" stroke="midnightblue" points="384.44,-225.93 389.36,-235.32 391.37,-224.91 384.44,-225.93"/>
</g>
<!-- Node13&#45;&gt;Node4 -->
<g id="edge17" class="edge">
<title>Node13&#45;&gt;Node4</title>
<path fill="none" stroke="midnightblue" d="M255.5,-163.82C255.5,-153 255.5,-139.9 255.5,-131.51"/>
<polygon fill="midnightblue" stroke="midnightblue" points="252,-163.98 255.5,-173.98 259,-163.98 252,-163.98"/>
</g>
<!-- Node14&#45;&gt;Node4 -->
<g id="edge22" class="edge">
<title>Node14&#45;&gt;Node4</title>
<path fill="none" stroke="midnightblue" d="M444.49,-171.47C399.44,-159.91 329.65,-142.02 288.68,-131.51"/>
<polygon fill="midnightblue" stroke="midnightblue" points="443.7,-174.88 454.26,-173.98 445.44,-168.1 443.7,-174.88"/>
</g>
</g>
</svg>
