<?xml version="1.0" encoding="UTF-8" standalone="no"?>
<!DOCTYPE svg PUBLIC "-//W3C//DTD SVG 1.1//EN"
 "http://www.w3.org/Graphics/SVG/1.1/DTD/svg11.dtd">
<!-- Generated by graphviz version 2.50.0 (20211204.2007)
 -->
<!-- Title: src/model/general_model.hpp Pages: 1 -->
<svg width="1074pt" height="319pt"
 viewBox="0.00 0.00 1074.00 319.00" xmlns="http://www.w3.org/2000/svg" xmlns:xlink="http://www.w3.org/1999/xlink">
<g id="graph0" class="graph" transform="scale(1 1) rotate(0) translate(4 315)">
<title>src/model/general_model.hpp</title>
<polygon fill="white" stroke="transparent" points="-4,4 -4,-315 1070,-315 1070,4 -4,4"/>
<!-- Node1 -->
<g id="node1" class="node">
<title>Node1</title>
<g id="a_node1"><a xlink:title=" ">
<polygon fill="#bfbfbf" stroke="black" points="869,-291.5 869,-310.5 1013,-310.5 1013,-291.5 869,-291.5"/>
<text text-anchor="middle" x="941" y="-298.5" font-family="Helvetica,sans-Serif" font-size="10.00">src/model/general_model.hpp</text>
</a>
</g>
</g>
<!-- Node2 -->
<g id="node2" class="node">
<title>Node2</title>
<g id="a_node2"><a xlink:href="../../dd/de6/blas_2all_8hpp.html" target="_top" xlink:title=" ">
<polygon fill="white" stroke="black" points="376.5,-235.5 376.5,-254.5 451.5,-254.5 451.5,-235.5 376.5,-235.5"/>
<text text-anchor="middle" x="414" y="-242.5" font-family="Helvetica,sans-Serif" font-size="10.00">../blas/all.hpp</text>
</a>
</g>
</g>
<!-- Node1&#45;&gt;Node2 -->
<g id="edge1" class="edge">
<title>Node1&#45;&gt;Node2</title>
<path fill="none" stroke="midnightblue" d="M868.83,-292.6C759.44,-281.4 554.6,-260.41 461.83,-250.9"/>
<polygon fill="midnightblue" stroke="midnightblue" points="461.92,-247.39 451.62,-249.85 461.21,-254.36 461.92,-247.39"/>
</g>
<!-- Node19 -->
<g id="node19" class="node">
<title>Node19</title>
<g id="a_node19"><a xlink:href="../../d5/d8a/utility_2all_8hpp.html" target="_top" xlink:title=" ">
<polygon fill="white" stroke="black" points="852,-179.5 852,-198.5 932,-198.5 932,-179.5 852,-179.5"/>
<text text-anchor="middle" x="892" y="-186.5" font-family="Helvetica,sans-Serif" font-size="10.00">../utility/all.hpp</text>
</a>
</g>
</g>
<!-- Node1&#45;&gt;Node19 -->
<g id="edge36" class="edge">
<title>Node1&#45;&gt;Node19</title>
<path fill="none" stroke="midnightblue" d="M937.16,-291.37C929.18,-273.46 910.67,-231.92 900,-207.95"/>
<polygon fill="midnightblue" stroke="midnightblue" points="903.09,-206.3 895.83,-198.59 896.7,-209.15 903.09,-206.3"/>
</g>
<!-- Node26 -->
<g id="node26" class="node">
<title>Node26</title>
<g id="a_node26"><a xlink:title=" ">
<polygon fill="white" stroke="#bfbfbf" points="965,-62 965,-81 1011,-81 1011,-62 965,-62"/>
<text text-anchor="middle" x="988" y="-69" font-family="Helvetica,sans-Serif" font-size="10.00">variant</text>
</a>
</g>
</g>
<!-- Node1&#45;&gt;Node26 -->
<g id="edge47" class="edge">
<title>Node1&#45;&gt;Node26</title>
<path fill="none" stroke="midnightblue" d="M942.79,-291.36C949.66,-258.07 974.54,-137.65 984.16,-91.07"/>
<polygon fill="midnightblue" stroke="midnightblue" points="987.62,-91.65 986.21,-81.15 980.76,-90.23 987.62,-91.65"/>
</g>
<!-- Node27 -->
<g id="node27" class="node">
<title>Node27</title>
<g id="a_node27"><a xlink:title=" ">
<polygon fill="white" stroke="#bfbfbf" points="988,-235.5 988,-254.5 1066,-254.5 1066,-235.5 988,-235.5"/>
<text text-anchor="middle" x="1027" y="-242.5" font-family="Helvetica,sans-Serif" font-size="10.00">unordered_set</text>
</a>
</g>
</g>
<!-- Node1&#45;&gt;Node27 -->
<g id="edge48" class="edge">
<title>Node1&#45;&gt;Node27</title>
<path fill="none" stroke="midnightblue" d="M954.82,-291.32C968.23,-282.9 988.82,-269.97 1004.59,-260.07"/>
<polygon fill="midnightblue" stroke="midnightblue" points="1006.61,-262.94 1013.22,-254.65 1002.89,-257.01 1006.61,-262.94"/>
</g>
<!-- Node3 -->
<g id="node3" class="node">
<title>Node3</title>
<g id="a_node3"><a xlink:href="../../df/d20/eigendecomposition_8hpp.html" target="_top" xlink:title=" ">
<polygon fill="white" stroke="black" points="442,-179.5 442,-198.5 564,-198.5 564,-179.5 442,-179.5"/>
<text text-anchor="middle" x="503" y="-186.5" font-family="Helvetica,sans-Serif" font-size="10.00">eigendecomposition.hpp</text>
</a>
</g>
</g>
<!-- Node2&#45;&gt;Node3 -->
<g id="edge2" class="edge">
<title>Node2&#45;&gt;Node3</title>
<path fill="none" stroke="midnightblue" d="M428.3,-235.32C442.18,-226.9 463.49,-213.97 479.8,-204.07"/>
<polygon fill="midnightblue" stroke="midnightblue" points="482,-206.83 488.74,-198.65 478.37,-200.85 482,-206.83"/>
</g>
<!-- Node13 -->
<g id="node13" class="node">
<title>Node13</title>
<g id="a_node13"><a xlink:href="../../df/dd2/lapack_8hpp.html" target="_top" xlink:title=" ">
<polygon fill="white" stroke="black" points="0,-123.5 0,-142.5 64,-142.5 64,-123.5 0,-123.5"/>
<text text-anchor="middle" x="32" y="-130.5" font-family="Helvetica,sans-Serif" font-size="10.00">lapack.hpp</text>
</a>
</g>
</g>
<!-- Node2&#45;&gt;Node13 -->
<g id="edge23" class="edge">
<title>Node2&#45;&gt;Node13</title>
<path fill="none" stroke="midnightblue" d="M384.34,-235.46C316.15,-215.82 148.16,-167.45 71.41,-145.35"/>
<polygon fill="midnightblue" stroke="midnightblue" points="72.22,-141.94 61.64,-142.53 70.28,-148.67 72.22,-141.94"/>
</g>
<!-- Node14 -->
<g id="node14" class="node">
<title>Node14</title>
<g id="a_node14"><a xlink:href="../../df/d88/orthonormalize_8hpp.html" target="_top" xlink:title=" ">
<polygon fill="white" stroke="black" points="404.5,-123.5 404.5,-142.5 503.5,-142.5 503.5,-123.5 404.5,-123.5"/>
<text text-anchor="middle" x="454" y="-130.5" font-family="Helvetica,sans-Serif" font-size="10.00">orthonormalize.hpp</text>
</a>
</g>
</g>
<!-- Node2&#45;&gt;Node14 -->
<g id="edge35" class="edge">
<title>Node2&#45;&gt;Node14</title>
<path fill="none" stroke="midnightblue" d="M416.06,-235.45C419.17,-222.89 425.53,-198.8 433,-179 436.42,-169.92 440.89,-160.14 444.83,-152.01"/>
<polygon fill="midnightblue" stroke="midnightblue" points="448.09,-153.31 449.41,-142.79 441.82,-150.19 448.09,-153.31"/>
</g>
<!-- Node16 -->
<g id="node16" class="node">
<title>Node16</title>
<g id="a_node16"><a xlink:href="../../db/d59/matrix__vector__operation_8hpp.html" target="_top" xlink:title=" ">
<polygon fill="white" stroke="black" points="246,-123.5 246,-142.5 386,-142.5 386,-123.5 246,-123.5"/>
<text text-anchor="middle" x="316" y="-130.5" font-family="Helvetica,sans-Serif" font-size="10.00">matrix_vector_operation.hpp</text>
</a>
</g>
</g>
<!-- Node2&#45;&gt;Node16 -->
<g id="edge24" class="edge">
<title>Node2&#45;&gt;Node16</title>
<path fill="none" stroke="midnightblue" d="M406.31,-235.37C389.99,-217.05 351.68,-174.05 330.58,-150.36"/>
<polygon fill="midnightblue" stroke="midnightblue" points="332.92,-147.73 323.65,-142.59 327.69,-152.39 332.92,-147.73"/>
</g>
<!-- Node17 -->
<g id="node17" class="node">
<title>Node17</title>
<g id="a_node17"><a xlink:href="../../df/daf/conjugate__gradient_8hpp.html" target="_top" xlink:title=" ">
<polygon fill="white" stroke="black" points="560.5,-123.5 560.5,-142.5 677.5,-142.5 677.5,-123.5 560.5,-123.5"/>
<text text-anchor="middle" x="619" y="-130.5" font-family="Helvetica,sans-Serif" font-size="10.00">conjugate_gradient.hpp</text>
</a>
</g>
</g>
<!-- Node2&#45;&gt;Node17 -->
<g id="edge27" class="edge">
<title>Node2&#45;&gt;Node17</title>
<path fill="none" stroke="midnightblue" d="M451.76,-240.5C486.06,-235.75 536.69,-224.67 573,-199 590.06,-186.94 603.01,-166.47 610.75,-151.72"/>
<polygon fill="midnightblue" stroke="midnightblue" points="613.97,-153.11 615.27,-142.59 607.7,-150 613.97,-153.11"/>
</g>
<!-- Node18 -->
<g id="node18" class="node">
<title>Node18</title>
<g id="a_node18"><a xlink:href="../../de/d83/inverse__iteration_8hpp.html" target="_top" xlink:title=" ">
<polygon fill="white" stroke="black" points="120.5,-123.5 120.5,-142.5 227.5,-142.5 227.5,-123.5 120.5,-123.5"/>
<text text-anchor="middle" x="174" y="-130.5" font-family="Helvetica,sans-Serif" font-size="10.00">inverse_iteration.hpp</text>
</a>
</g>
</g>
<!-- Node2&#45;&gt;Node18 -->
<g id="edge32" class="edge">
<title>Node2&#45;&gt;Node18</title>
<path fill="none" stroke="midnightblue" d="M395.17,-235.37C353.11,-216.09 251.35,-169.45 201.9,-146.79"/>
<polygon fill="midnightblue" stroke="midnightblue" points="203.29,-143.58 192.74,-142.59 200.38,-149.94 203.29,-143.58"/>
</g>
<!-- Node4 -->
<g id="node4" class="node">
<title>Node4</title>
<g id="a_node4"><a xlink:href="../../d4/dc7/compressed__row__storage_8hpp.html" target="_top" xlink:title=" ">
<polygon fill="white" stroke="black" points="265.5,-56.5 265.5,-86.5 366.5,-86.5 366.5,-56.5 265.5,-56.5"/>
<text text-anchor="start" x="273.5" y="-74.5" font-family="Helvetica,sans-Serif" font-size="10.00">../type/compressed</text>
<text text-anchor="middle" x="316" y="-63.5" font-family="Helvetica,sans-Serif" font-size="10.00">_row_storage.hpp</text>
</a>
</g>
</g>
<!-- Node3&#45;&gt;Node4 -->
<g id="edge3" class="edge">
<title>Node3&#45;&gt;Node4</title>
<path fill="none" stroke="midnightblue" d="M441.76,-185.37C337.02,-180.24 132.6,-167.22 111,-143 67.04,-93.7 179.69,-78.86 254.89,-74.41"/>
<polygon fill="midnightblue" stroke="midnightblue" points="255.44,-77.88 265.23,-73.84 255.06,-70.89 255.44,-77.88"/>
</g>
<!-- Node7 -->
<g id="node7" class="node">
<title>Node7</title>
<g id="a_node7"><a xlink:title=" ">
<polygon fill="white" stroke="#bfbfbf" points="596,-0.5 596,-19.5 640,-19.5 640,-0.5 596,-0.5"/>
<text text-anchor="middle" x="618" y="-7.5" font-family="Helvetica,sans-Serif" font-size="10.00">vector</text>
</a>
</g>
</g>
<!-- Node3&#45;&gt;Node7 -->
<g id="edge21" class="edge">
<title>Node3&#45;&gt;Node7</title>
<path fill="none" stroke="midnightblue" d="M564.15,-181.66C615.95,-175 684.79,-162.72 704,-143 731.19,-115.08 735.97,-88.85 715,-56 707.46,-44.19 675.08,-30.66 649.78,-21.55"/>
<polygon fill="midnightblue" stroke="midnightblue" points="650.75,-18.18 640.15,-18.16 648.43,-24.78 650.75,-18.18"/>
</g>
<!-- Node10 -->
<g id="node10" class="node">
<title>Node10</title>
<g id="a_node10"><a xlink:href="../../d4/ddc/braket__vector_8hpp.html" target="_top" xlink:title=" ">
<polygon fill="white" stroke="black" points="450.5,-62 450.5,-81 575.5,-81 575.5,-62 450.5,-62"/>
<text text-anchor="middle" x="513" y="-69" font-family="Helvetica,sans-Serif" font-size="10.00">../type/braket_vector.hpp</text>
</a>
</g>
</g>
<!-- Node3&#45;&gt;Node10 -->
<g id="edge9" class="edge">
<title>Node3&#45;&gt;Node10</title>
<path fill="none" stroke="midnightblue" d="M505.48,-179.47C507.96,-170.48 511.59,-155.89 513,-143 514.92,-125.53 514.68,-105.47 514.11,-91.23"/>
<polygon fill="midnightblue" stroke="midnightblue" points="517.6,-91.03 513.61,-81.22 510.61,-91.38 517.6,-91.03"/>
</g>
<!-- Node3&#45;&gt;Node13 -->
<g id="edge15" class="edge">
<title>Node3&#45;&gt;Node13</title>
<path fill="none" stroke="midnightblue" d="M441.91,-183.23C359.15,-176.37 206.95,-162.4 78,-143 76.73,-142.81 75.45,-142.61 74.15,-142.4"/>
<polygon fill="midnightblue" stroke="midnightblue" points="74.56,-138.92 64.11,-140.65 73.36,-145.81 74.56,-138.92"/>
</g>
<!-- Node3&#45;&gt;Node14 -->
<g id="edge18" class="edge">
<title>Node3&#45;&gt;Node14</title>
<path fill="none" stroke="midnightblue" d="M494.91,-179.08C487.84,-171.3 477.41,-159.8 468.85,-150.37"/>
<polygon fill="midnightblue" stroke="midnightblue" points="471.25,-147.8 461.94,-142.75 466.07,-152.51 471.25,-147.8"/>
</g>
<!-- Node15 -->
<g id="node15" class="node">
<title>Node15</title>
<g id="a_node15"><a xlink:title=" ">
<polygon fill="white" stroke="#bfbfbf" points="656.5,-62 656.5,-81 705.5,-81 705.5,-62 656.5,-62"/>
<text text-anchor="middle" x="681" y="-69" font-family="Helvetica,sans-Serif" font-size="10.00">random</text>
</a>
</g>
</g>
<!-- Node3&#45;&gt;Node15 -->
<g id="edge22" class="edge">
<title>Node3&#45;&gt;Node15</title>
<path fill="none" stroke="midnightblue" d="M564.16,-181.16C611.62,-174.44 671.82,-162.34 687,-143 698.46,-128.4 694.3,-106.47 688.97,-90.95"/>
<polygon fill="midnightblue" stroke="midnightblue" points="692.14,-89.46 685.26,-81.4 685.62,-91.99 692.14,-89.46"/>
</g>
<!-- Node5 -->
<g id="node5" class="node">
<title>Node5</title>
<g id="a_node5"><a xlink:title=" ">
<polygon fill="white" stroke="#bfbfbf" points="431,-0.5 431,-19.5 485,-19.5 485,-0.5 431,-0.5"/>
<text text-anchor="middle" x="458" y="-7.5" font-family="Helvetica,sans-Serif" font-size="10.00">iostream</text>
</a>
</g>
</g>
<!-- Node4&#45;&gt;Node5 -->
<g id="edge4" class="edge">
<title>Node4&#45;&gt;Node5</title>
<path fill="none" stroke="midnightblue" d="M349.65,-56.4C373.48,-46.42 405.15,-33.15 428.09,-23.53"/>
<polygon fill="midnightblue" stroke="midnightblue" points="429.47,-26.75 437.34,-19.66 426.76,-20.29 429.47,-26.75"/>
</g>
<!-- Node6 -->
<g id="node6" class="node">
<title>Node6</title>
<g id="a_node6"><a xlink:title=" ">
<polygon fill="white" stroke="#bfbfbf" points="294,-0.5 294,-19.5 340,-19.5 340,-0.5 294,-0.5"/>
<text text-anchor="middle" x="317" y="-7.5" font-family="Helvetica,sans-Serif" font-size="10.00">cstdint</text>
</a>
</g>
</g>
<!-- Node4&#45;&gt;Node6 -->
<g id="edge5" class="edge">
<title>Node4&#45;&gt;Node6</title>
<path fill="none" stroke="midnightblue" d="M316.24,-56.4C316.37,-48.47 316.54,-38.46 316.68,-29.86"/>
<polygon fill="midnightblue" stroke="midnightblue" points="320.19,-29.72 316.85,-19.66 313.19,-29.6 320.19,-29.72"/>
</g>
<!-- Node4&#45;&gt;Node7 -->
<g id="edge6" class="edge">
<title>Node4&#45;&gt;Node7</title>
<path fill="none" stroke="midnightblue" d="M366.54,-62.43C418.92,-53.76 503.34,-38.92 585.89,-19.84"/>
<polygon fill="midnightblue" stroke="midnightblue" points="586.74,-23.23 595.69,-17.55 585.15,-16.42 586.74,-23.23"/>
</g>
<!-- Node8 -->
<g id="node8" class="node">
<title>Node8</title>
<g id="a_node8"><a xlink:title=" ">
<polygon fill="white" stroke="#bfbfbf" points="226,-0.5 226,-19.5 276,-19.5 276,-0.5 226,-0.5"/>
<text text-anchor="middle" x="251" y="-7.5" font-family="Helvetica,sans-Serif" font-size="10.00">iomanip</text>
</a>
</g>
</g>
<!-- Node4&#45;&gt;Node8 -->
<g id="edge7" class="edge">
<title>Node4&#45;&gt;Node8</title>
<path fill="none" stroke="midnightblue" d="M300.6,-56.4C290.76,-47.4 278.01,-35.72 267.89,-26.47"/>
<polygon fill="midnightblue" stroke="midnightblue" points="270.2,-23.83 260.46,-19.66 265.47,-28.99 270.2,-23.83"/>
</g>
<!-- Node9 -->
<g id="node9" class="node">
<title>Node9</title>
<g id="a_node9"><a xlink:title=" ">
<polygon fill="white" stroke="#bfbfbf" points="361,-0.5 361,-19.5 413,-19.5 413,-0.5 361,-0.5"/>
<text text-anchor="middle" x="387" y="-7.5" font-family="Helvetica,sans-Serif" font-size="10.00">sstream</text>
</a>
</g>
</g>
<!-- Node4&#45;&gt;Node9 -->
<g id="edge8" class="edge">
<title>Node4&#45;&gt;Node9</title>
<path fill="none" stroke="midnightblue" d="M332.83,-56.4C343.67,-47.31 357.78,-35.49 368.87,-26.19"/>
<polygon fill="midnightblue" stroke="midnightblue" points="371.25,-28.76 376.67,-19.66 366.76,-23.4 371.25,-28.76"/>
</g>
<!-- Node10&#45;&gt;Node5 -->
<g id="edge10" class="edge">
<title>Node10&#45;&gt;Node5</title>
<path fill="none" stroke="midnightblue" d="M505.12,-61.98C496.71,-52.87 483.18,-38.24 472.77,-26.98"/>
<polygon fill="midnightblue" stroke="midnightblue" points="475.22,-24.48 465.87,-19.51 470.08,-29.23 475.22,-24.48"/>
</g>
<!-- Node10&#45;&gt;Node7 -->
<g id="edge12" class="edge">
<title>Node10&#45;&gt;Node7</title>
<path fill="none" stroke="midnightblue" d="M528.04,-61.98C545.28,-52.21 573.74,-36.08 594.03,-24.58"/>
<polygon fill="midnightblue" stroke="midnightblue" points="596.01,-27.48 602.98,-19.51 592.56,-21.39 596.01,-27.48"/>
</g>
<!-- Node10&#45;&gt;Node9 -->
<g id="edge11" class="edge">
<title>Node10&#45;&gt;Node9</title>
<path fill="none" stroke="midnightblue" d="M494.95,-61.98C473.8,-51.99 438.56,-35.35 414.12,-23.81"/>
<polygon fill="midnightblue" stroke="midnightblue" points="415.56,-20.61 405.02,-19.51 412.57,-26.94 415.56,-20.61"/>
</g>
<!-- Node11 -->
<g id="node11" class="node">
<title>Node11</title>
<g id="a_node11"><a xlink:title=" ">
<polygon fill="white" stroke="#bfbfbf" points="658,-0.5 658,-19.5 702,-19.5 702,-0.5 658,-0.5"/>
<text text-anchor="middle" x="680" y="-7.5" font-family="Helvetica,sans-Serif" font-size="10.00">cmath</text>
</a>
</g>
</g>
<!-- Node10&#45;&gt;Node11 -->
<g id="edge13" class="edge">
<title>Node10&#45;&gt;Node11</title>
<path fill="none" stroke="midnightblue" d="M536.93,-61.98C566.27,-51.52 616.09,-33.77 648.52,-22.22"/>
<polygon fill="midnightblue" stroke="midnightblue" points="649.74,-25.5 657.98,-18.85 647.39,-18.9 649.74,-25.5"/>
</g>
<!-- Node12 -->
<g id="node12" class="node">
<title>Node12</title>
<g id="a_node12"><a xlink:title=" ">
<polygon fill="white" stroke="#bfbfbf" points="503.5,-0.5 503.5,-19.5 576.5,-19.5 576.5,-0.5 503.5,-0.5"/>
<text text-anchor="middle" x="540" y="-7.5" font-family="Helvetica,sans-Serif" font-size="10.00">initializer_list</text>
</a>
</g>
</g>
<!-- Node10&#45;&gt;Node12 -->
<g id="edge14" class="edge">
<title>Node10&#45;&gt;Node12</title>
<path fill="none" stroke="midnightblue" d="M516.87,-61.98C520.8,-53.32 527,-39.65 531.99,-28.65"/>
<polygon fill="midnightblue" stroke="midnightblue" points="535.19,-30.06 536.14,-19.51 528.82,-27.17 535.19,-30.06"/>
</g>
<!-- Node13&#45;&gt;Node4 -->
<g id="edge16" class="edge">
<title>Node13&#45;&gt;Node4</title>
<path fill="none" stroke="midnightblue" d="M64.03,-125.29C110.38,-115.58 197.01,-97.43 255.59,-85.16"/>
<polygon fill="midnightblue" stroke="midnightblue" points="256.39,-88.56 265.46,-83.09 254.96,-81.71 256.39,-88.56"/>
</g>
<!-- Node13&#45;&gt;Node9 -->
<g id="edge17" class="edge">
<title>Node13&#45;&gt;Node9</title>
<path fill="none" stroke="midnightblue" d="M56.96,-123.49C119.07,-102.32 280.65,-47.25 352.12,-22.89"/>
<polygon fill="midnightblue" stroke="midnightblue" points="353.25,-26.2 361.59,-19.66 351,-19.57 353.25,-26.2"/>
</g>
<!-- Node14&#45;&gt;Node9 -->
<g id="edge20" class="edge">
<title>Node14&#45;&gt;Node9</title>
<path fill="none" stroke="midnightblue" d="M449.18,-123.3C438.22,-103.5 411.24,-54.78 396.69,-28.49"/>
<polygon fill="midnightblue" stroke="midnightblue" points="399.68,-26.68 391.77,-19.62 393.56,-30.07 399.68,-26.68"/>
</g>
<!-- Node14&#45;&gt;Node10 -->
<g id="edge19" class="edge">
<title>Node14&#45;&gt;Node10</title>
<path fill="none" stroke="midnightblue" d="M462.45,-123.48C471.57,-114.28 486.27,-99.46 497.48,-88.16"/>
<polygon fill="midnightblue" stroke="midnightblue" points="500.01,-90.57 504.56,-81.01 495.04,-85.65 500.01,-90.57"/>
</g>
<!-- Node16&#45;&gt;Node4 -->
<g id="edge25" class="edge">
<title>Node16&#45;&gt;Node4</title>
<path fill="none" stroke="midnightblue" d="M316,-123.48C316,-116.47 316,-106.19 316,-96.7"/>
<polygon fill="midnightblue" stroke="midnightblue" points="319.5,-96.52 316,-86.52 312.5,-96.52 319.5,-96.52"/>
</g>
<!-- Node16&#45;&gt;Node10 -->
<g id="edge26" class="edge">
<title>Node16&#45;&gt;Node10</title>
<path fill="none" stroke="midnightblue" d="M344.23,-123.48C378.6,-113.09 436.81,-95.51 475.08,-83.95"/>
<polygon fill="midnightblue" stroke="midnightblue" points="476.27,-87.25 484.83,-81.01 474.24,-80.55 476.27,-87.25"/>
</g>
<!-- Node17&#45;&gt;Node4 -->
<g id="edge28" class="edge">
<title>Node17&#45;&gt;Node4</title>
<path fill="none" stroke="midnightblue" d="M575.59,-123.48C523.38,-113.22 435.44,-95.95 376.57,-84.39"/>
<polygon fill="midnightblue" stroke="midnightblue" points="377.15,-80.94 366.66,-82.45 375.8,-87.81 377.15,-80.94"/>
</g>
<!-- Node17&#45;&gt;Node7 -->
<g id="edge30" class="edge">
<title>Node17&#45;&gt;Node7</title>
<path fill="none" stroke="midnightblue" d="M618.93,-123.3C618.77,-103.85 618.38,-56.49 618.16,-29.9"/>
<polygon fill="midnightblue" stroke="midnightblue" points="621.65,-29.59 618.07,-19.62 614.65,-29.65 621.65,-29.59"/>
</g>
<!-- Node17&#45;&gt;Node10 -->
<g id="edge29" class="edge">
<title>Node17&#45;&gt;Node10</title>
<path fill="none" stroke="midnightblue" d="M603.81,-123.48C586.34,-113.67 557.42,-97.43 536.92,-85.92"/>
<polygon fill="midnightblue" stroke="midnightblue" points="538.59,-82.85 528.16,-81.01 535.17,-88.96 538.59,-82.85"/>
</g>
<!-- Node17&#45;&gt;Node15 -->
<g id="edge31" class="edge">
<title>Node17&#45;&gt;Node15</title>
<path fill="none" stroke="midnightblue" d="M627.88,-123.48C637.46,-114.28 652.91,-99.46 664.69,-88.16"/>
<polygon fill="midnightblue" stroke="midnightblue" points="667.34,-90.46 672.13,-81.01 662.49,-85.41 667.34,-90.46"/>
</g>
<!-- Node18&#45;&gt;Node4 -->
<g id="edge33" class="edge">
<title>Node18&#45;&gt;Node4</title>
<path fill="none" stroke="midnightblue" d="M194.35,-123.48C214.84,-114.89 247.07,-101.38 273.21,-90.43"/>
<polygon fill="midnightblue" stroke="midnightblue" points="274.66,-93.62 282.53,-86.52 271.96,-87.16 274.66,-93.62"/>
</g>
<!-- Node18&#45;&gt;Node10 -->
<g id="edge34" class="edge">
<title>Node18&#45;&gt;Node10</title>
<path fill="none" stroke="midnightblue" d="M222.57,-123.48C283.74,-112.74 388.76,-94.31 454.34,-82.79"/>
<polygon fill="midnightblue" stroke="midnightblue" points="455.28,-86.19 464.52,-81.01 454.07,-79.29 455.28,-86.19"/>
</g>
<!-- Node20 -->
<g id="node20" class="node">
<title>Node20</title>
<g id="a_node20"><a xlink:href="../../d0/dad/integer_8hpp.html" target="_top" xlink:title=" ">
<polygon fill="white" stroke="black" points="767,-62 767,-81 831,-81 831,-62 767,-62"/>
<text text-anchor="middle" x="799" y="-69" font-family="Helvetica,sans-Serif" font-size="10.00">integer.hpp</text>
</a>
</g>
</g>
<!-- Node19&#45;&gt;Node20 -->
<g id="edge37" class="edge">
<title>Node19&#45;&gt;Node20</title>
<path fill="none" stroke="midnightblue" d="M885.01,-179.32C869.59,-160.17 832.45,-114.04 812.39,-89.13"/>
<polygon fill="midnightblue" stroke="midnightblue" points="815.07,-86.88 806.07,-81.28 809.62,-91.27 815.07,-86.88"/>
</g>
<!-- Node23 -->
<g id="node23" class="node">
<title>Node23</title>
<g id="a_node23"><a xlink:href="../../d9/d04/hash_8hpp.html" target="_top" xlink:title=" ">
<polygon fill="white" stroke="black" points="870,-123.5 870,-142.5 926,-142.5 926,-123.5 870,-123.5"/>
<text text-anchor="middle" x="898" y="-130.5" font-family="Helvetica,sans-Serif" font-size="10.00">hash.hpp</text>
</a>
</g>
</g>
<!-- Node19&#45;&gt;Node23 -->
<g id="edge42" class="edge">
<title>Node19&#45;&gt;Node23</title>
<path fill="none" stroke="midnightblue" d="M892.99,-179.08C893.79,-171.93 894.93,-161.64 895.92,-152.69"/>
<polygon fill="midnightblue" stroke="midnightblue" points="899.4,-153.08 897.03,-142.75 892.44,-152.3 899.4,-153.08"/>
</g>
<!-- Node20&#45;&gt;Node7 -->
<g id="edge39" class="edge">
<title>Node20&#45;&gt;Node7</title>
<path fill="none" stroke="midnightblue" d="M773.07,-61.98C740.59,-51.3 684.98,-33.02 649.92,-21.49"/>
<polygon fill="midnightblue" stroke="midnightblue" points="650.78,-18.09 640.18,-18.29 648.59,-24.74 650.78,-18.09"/>
</g>
<!-- Node20&#45;&gt;Node9 -->
<g id="edge38" class="edge">
<title>Node20&#45;&gt;Node9</title>
<path fill="none" stroke="midnightblue" d="M766.75,-64.55C751.15,-61.78 732.13,-58.53 715,-56 588.37,-37.3 552.65,-44.04 423.19,-20.01"/>
<polygon fill="midnightblue" stroke="midnightblue" points="423.77,-16.56 413.29,-18.15 422.47,-23.44 423.77,-16.56"/>
</g>
<!-- Node21 -->
<g id="node21" class="node">
<title>Node21</title>
<g id="a_node21"><a xlink:title=" ">
<polygon fill="white" stroke="#bfbfbf" points="821.5,-0.5 821.5,-19.5 856.5,-19.5 856.5,-0.5 821.5,-0.5"/>
<text text-anchor="middle" x="839" y="-7.5" font-family="Helvetica,sans-Serif" font-size="10.00">map</text>
</a>
</g>
</g>
<!-- Node20&#45;&gt;Node21 -->
<g id="edge40" class="edge">
<title>Node20&#45;&gt;Node21</title>
<path fill="none" stroke="midnightblue" d="M804.73,-61.98C810.67,-53.14 820.12,-39.09 827.59,-27.98"/>
<polygon fill="midnightblue" stroke="midnightblue" points="830.61,-29.76 833.28,-19.51 824.8,-25.86 830.61,-29.76"/>
</g>
<!-- Node22 -->
<g id="node22" class="node">
<title>Node22</title>
<g id="a_node22"><a xlink:title=" ">
<polygon fill="white" stroke="#bfbfbf" points="720.5,-0.5 720.5,-19.5 803.5,-19.5 803.5,-0.5 720.5,-0.5"/>
<text text-anchor="middle" x="762" y="-7.5" font-family="Helvetica,sans-Serif" font-size="10.00">unordered_map</text>
</a>
</g>
</g>
<!-- Node20&#45;&gt;Node22 -->
<g id="edge41" class="edge">
<title>Node20&#45;&gt;Node22</title>
<path fill="none" stroke="midnightblue" d="M793.7,-61.98C788.26,-53.23 779.64,-39.37 772.76,-28.31"/>
<polygon fill="midnightblue" stroke="midnightblue" points="775.54,-26.15 767.29,-19.51 769.6,-29.85 775.54,-26.15"/>
</g>
<!-- Node24 -->
<g id="node24" class="node">
<title>Node24</title>
<g id="a_node24"><a xlink:href="../../db/dd6/half__int_8hpp.html" target="_top" xlink:title=" ">
<polygon fill="white" stroke="black" points="849,-62 849,-81 947,-81 947,-62 849,-62"/>
<text text-anchor="middle" x="898" y="-69" font-family="Helvetica,sans-Serif" font-size="10.00">../type/half_int.hpp</text>
</a>
</g>
</g>
<!-- Node23&#45;&gt;Node24 -->
<g id="edge43" class="edge">
<title>Node23&#45;&gt;Node24</title>
<path fill="none" stroke="midnightblue" d="M898,-123.48C898,-115.08 898,-101.98 898,-91.16"/>
<polygon fill="midnightblue" stroke="midnightblue" points="901.5,-91.01 898,-81.01 894.5,-91.01 901.5,-91.01"/>
</g>
<!-- Node23&#45;&gt;Node26 -->
<g id="edge46" class="edge">
<title>Node23&#45;&gt;Node26</title>
<path fill="none" stroke="midnightblue" d="M910.89,-123.48C925.46,-113.84 949.4,-98.02 966.75,-86.55"/>
<polygon fill="midnightblue" stroke="midnightblue" points="968.72,-89.44 975.13,-81.01 964.86,-83.6 968.72,-89.44"/>
</g>
<!-- Node24&#45;&gt;Node11 -->
<g id="edge44" class="edge">
<title>Node24&#45;&gt;Node11</title>
<path fill="none" stroke="midnightblue" d="M866.05,-61.92C828.98,-51.94 766.02,-34.93 712,-20 711.9,-19.97 711.8,-19.94 711.7,-19.92"/>
<polygon fill="midnightblue" stroke="midnightblue" points="712.6,-16.53 702.03,-17.22 710.72,-23.28 712.6,-16.53"/>
</g>
<!-- Node25 -->
<g id="node25" class="node">
<title>Node25</title>
<g id="a_node25"><a xlink:title=" ">
<polygon fill="white" stroke="#bfbfbf" points="874.5,-0.5 874.5,-19.5 933.5,-19.5 933.5,-0.5 874.5,-0.5"/>
<text text-anchor="middle" x="904" y="-7.5" font-family="Helvetica,sans-Serif" font-size="10.00">stdexcept</text>
</a>
</g>
</g>
<!-- Node24&#45;&gt;Node25 -->
<g id="edge45" class="edge">
<title>Node24&#45;&gt;Node25</title>
<path fill="none" stroke="midnightblue" d="M898.86,-61.98C899.71,-53.58 901.03,-40.48 902.12,-29.66"/>
<polygon fill="midnightblue" stroke="midnightblue" points="905.62,-29.81 903.14,-19.51 898.66,-29.11 905.62,-29.81"/>
</g>
</g>
</svg>
